<?xml version="1.0" encoding="UTF-8"?>
<svg id="Layer_1" data-name="Layer 1" xmlns="http://www.w3.org/2000/svg" viewBox="0 0 725.68 746.65">
  <path d="M725.17,386.1c.34,1.08.28,2.22.23,3.33-.16,3.33-.35,6.65-.56,9.98-.45,7.3-.94,14.59-1.42,21.89-.05.82-.11,1.64-.16,2.36,0,.12-.01.24-.02.36v.17c-.17,2.36-.32,4.73-.48,7.09l-.02.28c-.01.08-.01.16-.02.25,0,.06-.01.12-.01.18-.08,1.22-.16,2.45-.24,3.67v.07c-.02.09-.02.17-.02.21-.01.06-.01.12-.02.19-.01.15-.02.3-.02.35-.01.16-.02.32-.03.36,0,.09-.01.19-.01.29-.01.12-.02.23-.03.37-.01.24-.03.48-.04.66,0,.03-.01.06-.01.09-.01.19-.02.37-.05.73-.01.21-.02.42-.04.63h0c-.02.26-.03.52-.04.55,0,.11-.01.22-.02.34v.18c-.03.28-.05.55-.06.68,0,.08-.01.17-.01.25l-.02.26-.03.36c-.09,1.32-.18,2.63-.3,3.95-.08.99-.13,2-.26,2.98-.24,1.83-.47,3.65-.74,5.46-.6,3.94-1.21,7.87-1.82,11.81-1.12,7.16-2.25,14.32-3.37,21.48-2.3,14.73-4.64,29.46-6.93,44.2-1.12,7.16-2.25,14.33-3.37,21.49-.13.85-.27,1.69-.4,2.53-.35,2.29-1.38,4.57-3.54,5.67-.99.5-2.04.75-3.12.75-.36,0-.74-.03-1.11-.08-.68-.11-1.32-.3-1.98-.5-3.31-.99-6.62-2.04-9.93-3.06-3.29-1.02-6.59-2.04-9.88-3.05-.02-.58-.04-1.15-.06-1.73-.1-2.94-.2-5.87-.3-8.81.4.12.81.25,1.21.37,4.1,1.27,8.2,2.54,12.3,3.81,1.92.59,3.83,1.18,5.75,1.77.46.15.93.29,1.39.44.99-6.02,1.91-12.05,2.87-18.07,1.15-7.18,2.3-14.37,3.45-21.55,2.36-14.75,4.71-29.5,7.07-44.24.59-3.69,1.2-7.37,1.76-11.06.59-3.85,1.19-7.69,1.55-11.57.33-3.59.55-7.19.8-10.79.27-3.82.56-7.63.82-11.45.75-10.86,1.54-21.72,2.47-32.57-.95.02-1.89.05-2.84.08-1.9.04-3.8.08-5.7.14-3.5.09-7.01.18-10.51.28-7.67.23-15.34.46-23.01.69-1.51.04-3.02.09-4.53.13l-.24-6.99c1.14-.05,2.29-.11,3.43-.16,14.7-.71,29.4-1.33,44.09-2.24.37-.03.74-.05,1.11-.08.55-.04,1.06-.05,1.61-.03.54.02,1.04.13,1.56.25.77.17,1.52.62,2.15,1.07.83.6,1.4,1.59,1.7,2.55Z"/>
  <path d="M713.51,390.49c.95-.03,1.89-.06,2.84-.08-.93,10.85-1.72,21.71-2.47,32.57-.26,3.82-.55,7.63-.82,11.45-.25,3.6-.47,7.2-.8,10.79-.36,3.88-.96,7.72-1.55,11.57-.56,3.69-1.17,7.37-1.76,11.06-2.36,14.74-4.71,29.49-7.07,44.24-1.15,7.18-2.3,14.37-3.45,21.55-.96,6.02-1.88,12.05-2.87,18.07-.46-.15-.93-.29-1.39-.44-1.92-.59-3.83-1.18-5.75-1.77-4.1-1.27-8.2-2.54-12.3-3.81-.4-.12-.81-.25-1.21-.37-.87-25.82-1.72-51.65-2.57-77.47-.84-25.38-1.71-50.75-2.58-76.12,1.51-.04,3.02-.09,4.53-.13,7.67-.23,15.34-.46,23.01-.69,3.5-.1,7.01-.19,10.51-.28,1.9-.06,3.8-.1,5.7-.14Z"/>
  <path d="M677.49,621.8c.02.55.05,1.1.05,1.65,0,.61-.02,1.37-.22,1.95-.2.59-.36,1.18-.68,1.72-.3.52-.7.98-1.18,1.34-.93.73-2.26,1.28-3.45,1.25-.55-.01-1.08-.04-1.62-.15-.22-.04-.43-.08-.64-.13-.32-.05-.63-.09-.94-.13h-.08c-3.78.34-7.57.54-11.36.72-6.98.32-13.96.67-20.95,1.02-14.34.73-28.68,1.47-43.03,2.2-4.92.25-9.83.5-14.75.76-1.21-3.01-2.41-6.01-3.62-9.02,12.83-.7,25.66-1.4,38.49-2.11,10.93-.6,21.86-1.2,32.79-1.83,4.91-.28,9.83-.58,14.75-.86,2.34-.13,4.68-.29,7.01-.21-.02-.66-.05-1.31-.08-1.96-.06-1.82-.13-3.64-.19-5.47-.11-3.11-.22-6.22-.33-9.34-.23-6.83-.46-13.67-.68-20.5-.33-9.92-.65-19.85-.99-29.77,3.16.98,6.32,1.95,9.48,2.93.43,12.7.87,25.41,1.31,38.1.21,6.14.41,12.28.61,18.41.1,3.14.2,6.28.3,9.43Z"/>
  <path d="M675.21,554.13c.02.58.04,1.15.06,1.73-3.16-.98-6.32-1.95-9.48-2.93-.11-3.51-.23-7.03-.35-10.54,3.16.98,6.31,1.95,9.47,2.93.1,2.94.2,5.87.3,8.81Z"/>
  <path d="M674.91,545.32c-3.16-.98-6.31-1.95-9.47-2.93-.03-1.15-.07-2.29-.11-3.44-.97-28.48-1.96-56.98-2.92-85.46-.7-20.49-1.38-40.99-2.06-61.48,3.14-.09,6.27-.18,9.41-.28.87,25.37,1.74,50.74,2.58,76.12.85,25.82,1.7,51.65,2.57,77.47Z"/>
  <path d="M669.52,384.74l.24,6.99c-3.14.1-6.27.19-9.41.28-.07-2.27-.14-4.54-.22-6.81,3.13-.16,6.26-.31,9.39-.46Z"/>
  <path d="M665.44,542.39c.12,3.51.24,7.03.35,10.54-7.82-2.41-15.63-4.82-23.45-7.24l-10.47-3.24c-.65-.2-1.3-.4-1.95-.63-1.11-.41-2.09-.96-3.02-1.69-1.78-1.37-2.68-3.48-3.07-5.63-.25-1.35-.34-2.75-.46-4.12-.64-6.98-1.27-13.97-1.9-20.95l-4.02-44.46c-1.32-14.66-2.65-29.32-3.98-43.97-.89-9.84-1.77-19.68-2.66-29.51-.12-1.35.15-2.65.99-3.74.8-1.03,1.99-1.72,3.28-1.9,1.94-.26,3.98.73,4.99,2.37.07-.01.15-.02.22-.03,1.04-.74,2.5-.77,3.72-.89,1.34-.13,2.69-.23,3.98-.31,10.71-.73,21.42-1.28,32.14-1.79.08,2.27.15,4.54.22,6.81-2.79.09-5.59.17-8.38.25-7.26.2-14.52.41-21.79.49-1.82.02-3.64.03-5.46.02h-.47c-1.12,0-2.3,0-3.33-.4.96,10.66,1.93,21.32,2.89,31.98,1.3,14.53,2.62,29.06,3.94,43.6,1.35,14.94,2.7,29.88,4.05,44.82.33,3.72.67,7.43,1,11.14.16,1.71.31,3.41.46,5.12.11,1.17.19,2.35.36,3.52,3.42,1.14,6.9,2.14,10.35,3.2,3.62,1.12,7.25,2.24,10.87,3.36,3.53,1.1,7.07,2.19,10.6,3.28Z"/>
  <path d="M665.33,538.95c.04,1.15.08,2.29.11,3.44-3.53-1.09-7.07-2.18-10.6-3.28-3.62-1.12-7.25-2.24-10.87-3.36-3.45-1.06-6.93-2.06-10.35-3.2-.17-1.17-.25-2.35-.36-3.52-.15-1.71-.3-3.41-.46-5.12-.33-3.71-.67-7.42-1-11.14-1.35-14.94-2.7-29.88-4.05-44.82-1.32-14.54-2.64-29.07-3.94-43.6-.96-10.66-1.93-21.32-2.89-31.98,1.03.4,2.21.4,3.33.4h.47c1.82.01,3.64,0,5.46-.02,7.27-.08,14.53-.29,21.79-.49,2.79-.08,5.59-.16,8.38-.25.68,20.49,1.36,40.99,2.06,61.48.96,28.48,1.95,56.98,2.92,85.46Z"/>
  <path d="M620.35,738.04c.61,1.59.86,3.25.18,4.88-.81,1.91-2.65,3.14-4.69,3.42-.33.04-.68.06-1.03.06s-.71-.02-1.07-.02c-.65-.02-1.31-.02-1.96-.04-2.72-.04-5.45-.08-8.17-.12-12.16-.2-24.31-.38-36.46-.57-25.42-.4-50.84-.79-76.26-1.2-25.45-.4-50.9-.79-76.35-1.19-25.48-.4-50.95-.8-76.43-1.2-25.58-.41-51.16-.82-76.73-1.22-12.62-.19-25.23-.4-37.84-.6-6.54-.1-13.07-.21-19.61-.32-6.08-.09-12.16-.16-18.24-.32-1.41-.04-2.79-.08-3.55-.24-.79-.09-1.57-.25-2.33-.48-1.72-.49-3.22-1.46-4.74-2.37-2.5-1.5-5-2.99-7.5-4.49-5.47-3.26-10.94-6.51-16.41-9.77-11.14-6.64-22.27-13.28-33.4-19.92-21.54-12.88-43.06-25.79-64.57-38.73-.95-.57-1.91-1.15-2.86-1.72,4.53-.24,9.05-.47,13.58-.71,8.23,4.76,16.46,9.55,24.69,14.32,21.94,12.71,43.87,25.45,65.77,38.24,4.65,2.72,9.29,5.43,13.94,8.14,4.37,2.55,8.73,5.17,13.15,7.63.2.09.4.18.61.27l.36.09c.06.01.13.02.19.03.69-.06,1.39-.08,2.09-.08.32,0,.65,0,.98,0,1.44,0,2.88.02,4.31.04,3.1.04,6.19.09,9.28.13,6.6.09,13.21.19,19.81.3,12.68.19,25.36.38,38.05.57,25.42.4,50.83.79,76.25,1.18,25.64.39,51.28.79,76.92,1.18,25.21.39,50.43.79,75.64,1.18,25.68.39,51.35.78,77.02,1.19,9.16.15,18.32.28,27.47.43,4.33.07,8.65.14,12.97.2,1.83.03,3.65.06,5.48.08-.94-2.34-1.88-4.67-2.82-7.01-2.3-5.75-4.61-11.5-6.92-17.26-4.67-11.67-9.35-23.33-14.03-35-5.68-14.16-11.36-28.32-17.04-42.49l10.56-.54c3.53,8.79,7.05,17.59,10.58,26.38,9.14,22.82,18.3,45.63,27.44,68.45,1.01,2.52,2.03,5.05,3.04,7.57.21.55.44,1.09.65,1.64Z"/>
  <path d="M575.02,624.98c1.21,3.01,2.41,6.01,3.62,9.02l-10.56.54c-1.2-2.99-2.4-5.99-3.6-8.99,3.51-.18,7.03-.38,10.54-.57Z"/>
  <path d="M561.11,590.3c4.64,11.56,9.27,23.12,13.91,34.68-3.51.19-7.03.39-10.54.57-2.41-5.99-4.81-11.99-7.22-17.99-3.46-8.63-6.92-17.25-10.38-25.88-1.72-4.3-3.45-8.59-5.16-12.88l-2.73-6.81c-.86-2.12-1.67-4.27-2.57-6.38l-.75-.09c-1.08-.05-2.15-.03-3.22-.05-2.72-.03-5.44-.05-8.15-.09-6.48-.07-12.94-.14-19.41-.22-12.7-.14-25.4-.29-38.1-.43-25.43-.29-50.87-.58-76.3-.87-25.34-.29-50.68-.58-76.02-.87-25.48-.29-50.97-.57-76.44-.87-25.4-.29-50.79-.57-76.19-.86-9.44-.11-18.87-.22-28.31-.33-4.9-.05-9.81-.11-14.71-.16-2.34-.03-4.69-.05-7.03-.08-2.44-.03-4.89-.1-7.34-.07-.01,0-.03,0-.05.01-.11.02-.21.04-.32.07-.01,0-.02,0-.02.01-.02.01-.05.03-.07.05l-.42.42c-1.03,1.21-1.98,2.48-2.96,3.72-1.8,2.27-3.6,4.53-5.4,6.8-3.78,4.77-7.56,9.53-11.34,14.29-7.72,9.73-15.44,19.46-23.15,29.18-3.36,4.23-6.55,8.58-9.76,12.92-1.35,1.83-2.7,3.65-4.05,5.48-.82,1.12-1.62,2.26-2.57,3.28-1.48,1.61-3.08,3.12-4.62,4.66-1.72,1.73-3.44,3.45-5.16,5.17l-6.48,6.48-1.58,1.58c-1.95,1.73-5.01,1.67-6.87-.19s-1.93-5.14,0-7.07c2.62-2.62,5.24-5.25,7.86-7.87,1.8-1.81,3.61-3.62,5.42-5.43,1.47-1.47,2.98-2.91,4.4-4.44.72-.87,1.36-1.83,2.03-2.74,1.45-1.96,2.89-3.92,4.34-5.88,1.56-2.1,3.11-4.21,4.68-6.31,1.91-2.56,3.9-5.06,5.89-7.57,7.77-9.8,15.54-19.59,23.32-29.39,3.71-4.68,7.43-9.36,11.15-14.05,1.69-2.13,3.39-4.27,5.09-6.41.95-1.2,1.86-2.46,2.94-3.55.59-.58,1.23-1.13,1.93-1.57.63-.39,1.23-.68,1.92-.96.2-.07.41-.14.61-.21.59-.13,1.17-.26,1.76-.38,2.03-.14,4.06-.09,6.1-.06,3.11.03,6.21.07,9.31.1,6.48.07,12.96.15,19.44.23,25.32.28,50.63.57,75.95.86,25.17.28,50.35.58,75.53.86,25.26.28,50.52.58,75.78.86,25.44.29,50.89.58,76.33.87,25.68.29,51.37.58,77.06.88,5.17.06,10.34.11,15.5.17.63.01,1.26.01,1.89.04,1.24.06,2.41.24,3.62.52,1.34.31,2.54,1.04,3.61,1.88,1.23.95,1.91,2.34,2.52,3.72.63,1.42,1.16,2.89,1.73,4.32,4.59,11.45,9.18,22.89,13.77,34.33Z"/>
  <path d="M564.48,625.55c1.2,3,2.4,6,3.6,8.99-20.54,1.06-41.09,2.14-61.63,3.23-28.35,1.5-56.7,2.99-85.06,4.5-29.75,1.58-59.5,3.17-89.25,4.76-28.96,1.53-57.91,3.07-86.86,4.6-28.64,1.5-57.27,3.01-85.9,4.52-29.07,1.54-58.14,3.07-87.22,4.59-2.75.14-5.5.29-8.25.43-2.64-1.53-5.27-3.06-7.91-4.58-2.03-1.17-4.06-2.34-6.09-3.5,14-.76,28.02-1.51,42.03-2.26,29.31-1.56,58.63-3.15,87.94-4.73,28.91-1.56,57.83-3.1,86.74-4.64,28.54-1.52,57.07-3.05,85.61-4.56,29.73-1.57,59.46-3.14,89.19-4.73,28.3-1.51,56.6-3.02,84.9-4.55,12.72-.68,25.44-1.37,38.16-2.07Z"/>
  <path d="M565.62,53.27c-28.65,3.95-57.31,7.9-85.96,11.84-28.88,3.97-57.76,7.95-86.65,11.91-25.1,3.44-50.21,6.88-75.32,10.32.54-3.02,1.07-6.04,1.6-9.06,2.14-.3,4.27-.6,6.41-.9,29.77-4.18,59.54-8.35,89.31-12.53,28.68-4.01,57.37-8.02,86.06-12.03,28.81-4.03,57.63-8.04,86.45-12.07,12.06-1.68,24.12-3.37,36.18-5.06,5.88-.82,11.77-1.64,17.65-2.47,3-.41,6-.94,9.01-1.22,2.09-.19,4.25.3,5.77,1.81.53.54.97,1.18,1.26,1.88.34.79.39,1.59.35,2.41-.07,3.55.11,7.11.21,10.66.09,3.34.2,6.68.3,10.02.23,7.29.47,14.59.71,21.88.45,13.97.92,27.93,1.39,41.89.96,28.35,1.94,56.71,2.98,85.06,1.06,28.84,2.06,57.67,3.07,86.51,1.01,29.01,2,58.03,3,87.05l.12,3.57c-3.13.15-6.26.3-9.39.46-.21-6.38-.42-12.75-.63-19.13-.97-29.03-1.93-58.05-2.86-87.09-.91-28.51-1.82-57.02-2.72-85.54-.91-28.44-1.84-56.88-2.79-85.32-.38-11.19-.77-22.38-1.16-33.56-.38-10.92-.68-21.84-1.23-32.75-.91.13-1.82.27-2.74.39-1.9.27-3.8.53-5.7.79-3.43.47-6.87.95-10.3,1.42-6.97.96-13.93,1.91-20.9,2.87-14.5,2-28.99,4-43.48,5.99Z"/>
  <path d="M331.32,6.27c.04.65.04,1.31.01,1.96h-.04c.04.57.05,1.08,0,1.65-.04.61-.17,1.22-.27,1.82-.26,1.5-.52,2.99-.78,4.48-.51,2.9-1.01,5.79-1.52,8.69-.97,5.52-1.94,11.05-2.91,16.57-2.09,11.88-4.2,23.75-6.3,35.62-.07.41-.14.81-.22,1.22-3.23.46-6.46.91-9.69,1.36,1.38-7.67,2.77-15.33,4.15-23,2.12-11.73,4.25-23.46,6.39-35.18.44-2.44.89-4.88,1.34-7.32.23-1.29.47-2.58.71-3.87.13-.7.26-1.39.44-2.07-1.9.21-3.8.43-5.7.64l-8.28.93c-6.11.69-12.21,1.37-18.32,2.06-11.4,1.29-22.8,2.56-34.21,3.85-11.77,1.33-23.55,2.64-35.33,3.96-11.55,1.3-23.1,2.58-34.65,3.86-11.96,1.33-23.92,2.67-35.88,3.95-.36.04-.72.08-1.08.11.07-.09.14-.19.19-.29.86-1.45.48-3.38-.86-4.41-.08-.06-.16-.12-.25-.18,3.48-.46,6.96-.91,10.43-1.36,11.7-1.5,23.4-2.99,35.1-4.48,11.82-1.5,23.64-3,35.46-4.49,11.36-1.44,22.72-2.86,34.09-4.3,11.69-1.49,23.39-2.95,35.09-4.42,5.82-.73,11.66-1.46,17.49-2.21,2.94-.37,5.87-.78,8.82-1.12,1.78-.21,3.65.16,4.95,1.46.58.58,1.01,1.32,1.25,2.1.25.8.32,1.58.38,2.41Z"/>
  <path d="M316.93,8.84c1.9-.21,3.8-.43,5.7-.64-.18.68-.31,1.37-.44,2.07-.24,1.29-.48,2.58-.71,3.87-.45,2.44-.9,4.88-1.34,7.32-2.14,11.72-4.27,23.45-6.39,35.18-1.38,7.67-2.77,15.33-4.15,23-23.77,3.35-47.54,6.69-71.31,10.03-28.12,3.95-56.24,7.92-84.35,11.91-14.53,2.05-29.05,4.11-43.58,6.16-3.34.48-6.68.95-10.02,1.43.36-3.33.72-6.67,1.08-10,.64-5.89,1.28-11.78,1.92-17.68.6-5.59.97-11.2,1.39-16.81.82-10.83,1.61-21.67,2.45-32.5.36-.04.71-.08,1.07-.12,4.98-.54,9.95-1.08,14.93-1.62,3.74-.41,7.48-.87,11.23-1.22.5-.06,1.01-.11,1.51-.15.15.11.32.19.5.27,1.1.44,2.29.31,3.45.21.85-.08,1.7-.16,2.54-.25l2.64-.27c1.1.33,2.35.12,3.26-.59.3-.24.57-.49.82-.8.02-.03.04-.05.05-.08.36-.03.72-.07,1.08-.11,11.96-1.28,23.92-2.62,35.88-3.95,11.55-1.28,23.1-2.56,34.65-3.86,11.78-1.32,23.56-2.63,35.33-3.96,11.41-1.29,22.81-2.56,34.21-3.85,6.11-.69,12.21-1.37,18.32-2.06l8.28-.93Z"/>
  <path d="M319.29,78.28c-.53,3.02-1.06,6.04-1.6,9.06-3.24.44-6.49.89-9.73,1.33.55-3.01,1.1-6.02,1.64-9.03,3.23-.45,6.46-.9,9.69-1.36Z"/>
  <path d="M309.6,79.64c-.54,3.01-1.09,6.02-1.64,9.03-1.47.21-2.95.41-4.42.61-28.49,3.91-56.98,7.82-85.48,11.69-28.95,3.93-57.92,7.88-86.87,11.82-10.09,1.38-20.18,2.74-30.28,4.11-.48.06-.95.13-1.43.19.29-2.64.58-5.28.86-7.92,3.34-.48,6.68-.95,10.02-1.43,14.53-2.05,29.05-4.11,43.58-6.16,28.11-3.99,56.23-7.96,84.35-11.91,23.77-3.34,47.54-6.68,71.31-10.03Z"/>
  <path d="M90.3,201.86c1.23-11.33,2.46-22.67,3.68-34,1.25-11.49,2.49-22.99,3.74-34.49.59-5.43,1.18-10.85,1.76-16.28.48-.06.95-.13,1.43-.19,10.1-1.37,20.19-2.73,30.28-4.11,28.95-3.94,57.92-7.89,86.87-11.82,28.5-3.87,56.99-7.78,85.48-11.69,1.47-.2,2.95-.4,4.42-.61-.16.91-.32,1.83-.49,2.74-2.04,11.26-4.07,22.52-6.11,33.77-2.14,11.83-4.26,23.66-6.41,35.49-2.05,11.29-4.09,22.58-6.13,33.88-.98,5.43-1.98,10.85-2.96,16.28-.91,5.07-1.78,10.14-2.73,15.2-.57,0-1.15-.02-1.72-.02-2.29,0-4.58,0-6.87,0-5.1,0-10.2-.01-15.3-.02-11.45-.01-22.89-.03-34.34-.04-11.87,0-23.75-.02-35.62-.04-11.59-.02-23.19-.03-34.78-.04-11.68-.02-23.36-.04-35.04-.04-5.71-.01-11.41-.02-17.12-.02-2.8,0-5.62,0-8.43-.02h-2.94c-1.1.01-2.2.01-3.3.01.14-1.23.29-2.46.43-3.69.24-2.21.48-4.43.72-6.64.49-4.54.99-9.07,1.48-13.6Z"/>
  <path d="M184.71,729.81c-.7,0-1.4.02-2.09.08-.06-.01-.13-.02-.19-.03l-.36-.09c-.21-.09-.41-.18-.61-.27-4.42-2.46-8.78-5.08-13.15-7.63-4.65-2.71-9.29-5.42-13.94-8.14-21.9-12.79-43.83-25.53-65.77-38.24-8.23-4.77-16.46-9.56-24.69-14.32,2.75-.14,5.5-.29,8.25-.43,29.08-1.52,58.15-3.05,87.22-4.59,28.63-1.51,57.26-3.02,85.9-4.52,28.95-1.53,57.9-3.07,86.86-4.6,29.75-1.59,59.5-3.18,89.25-4.76,28.36-1.51,56.71-3,85.06-4.5,20.54-1.09,41.09-2.17,61.63-3.23,5.68,14.17,11.36,28.33,17.04,42.49,4.68,11.67,9.36,23.33,14.03,35,2.31,5.76,4.62,11.51,6.92,17.26.94,2.34,1.88,4.67,2.82,7.01-1.83-.02-3.65-.05-5.48-.08-4.32-.06-8.64-.13-12.97-.2-9.15-.15-18.31-.28-27.47-.43-25.67-.41-51.34-.8-77.02-1.19-25.21-.39-50.43-.79-75.64-1.18-25.64-.39-51.28-.79-76.92-1.18-25.42-.39-50.83-.78-76.25-1.18-12.69-.19-25.37-.38-38.05-.57-6.6-.11-13.21-.21-19.81-.3-3.09-.04-6.18-.09-9.28-.13-1.43-.02-2.87-.04-4.31-.04-.33,0-.66,0-.98,0Z"/>
  <path d="M137.45,28.78c3.92-.38,7.82-.79,11.73-1.22-.01.03-.03.05-.05.08-.25.31-.52.56-.82.8-.91.71-2.16.92-3.26.59l-2.64.27c-.84.09-1.69.17-2.54.25-1.16.1-2.35.23-3.45-.21-.18-.08-.35-.16-.5-.27-.5.04-1.01.09-1.51.15l-.02-.18c1.02-.07,2.04-.16,3.06-.26Z"/>
  <path d="M135.68,24.38s.06-.05.09-.07t-.01-.01c.97-.69,2.1-.86,3.25-1.05.84-.13,1.68-.25,2.52-.36.9-.13,1.79-.23,2.69-.35.97-.6,2.24-.73,3.29-.25.27.12.52.24.75.39-2.42.32-4.83.64-7.25.97-1.77.24-3.55.47-5.33.73Z"/>
  <path d="M135.68,24.38c-.1.08-.2.17-.29.26-1.64.25-3.3.47-4.94.68.78-.18,1.58-.32,2.36-.47.95-.17,1.91-.33,2.87-.47Z"/>
  <path d="M121.8,26.48c2.76-.37,5.51-.73,8.27-1.11.13-.02.25-.03.38-.05-.4.09-.8.19-1.19.31-.7.21-1.49.49-1.89,1.12l-.06.03c-.32.11-.65.18-.97.24,0,.01-.02.01-.04.01,0,.01-.03.01-.05.01-.71.14-1.45.24-2.18.39-.45.09-.89.25-1.34.34-1.49.28-3.03.44-4.57.62-1.74.19-3.49.37-5.23.59-1.96.25-3.92.48-5.88.71-.11-.41-.27-.8-.49-1.18h.01c5.08-.68,10.15-1.36,15.23-2.03Z"/>
  <path d="M108.25,32.06c-.36.04-.71.08-1.07.12.01-.15.02-.29.03-.44.03-.43.03-.86-.02-1.28,1.89-.23,3.77-.45,5.66-.66,3.23-.37,6.45-.91,9.7-1.13h.02s0,0,.01,0c.16-.01.31-.01.47-.01.85.08,1.7-.01,2.54-.07.54-.04,1.18-.08,1.81-.05.07,0,.14.01.21.02.35.32.78.51,1.27.57.81.12,1.64.11,2.45.09,1.02-.03,2.04-.09,3.06-.17l.02.18c-3.75.35-7.49.81-11.23,1.22-4.98.54-9.95,1.08-14.93,1.62Z"/>
  <path d="M105.23,32.38c.25-1.24,0-2.54-.62-3.61.65-.08,1.3-.17,1.95-.26.22.38.38.77.49,1.18,1.96-.23,3.92-.46,5.88-.71,1.74-.22,3.49-.4,5.23-.59,1.54-.18,3.08-.34,4.57-.62.45-.09.89-.25,1.34-.34.73-.15,1.47-.25,2.18-.39.02,0,.04,0,.05-.01.02,0,.03,0,.04-.01.32-.06.65-.13.97-.24l.06-.03c.4-.63,1.19-.91,1.89-1.12.39-.12.79-.22,1.19-.31,1.64-.21,3.3-.43,4.94-.68.09-.09.19-.18.29-.26,1.78-.26,3.56-.49,5.33-.73,2.42-.33,4.83-.65,7.25-.97.09.06.17.12.25.18,1.34,1.03,1.72,2.96.86,4.41-.05.1-.12.2-.19.29-3.91.43-7.81.84-11.73,1.22-1.02.1-2.04.19-3.06.26-1.02.08-2.04.14-3.06.17-.81.02-1.64.03-2.45-.09-.49-.06-.92-.25-1.27-.57-.07,0-.14-.02-.21-.02-.63-.03-1.27.01-1.81.05-.84.06-1.69.15-2.54.07-.16,0-.31,0-.47.01t-.01,0h-.02c-3.25.22-6.47.76-9.7,1.13-1.89.21-3.77.43-5.66.66.05.42.05.85.02,1.28,0,.15-.02.29-.03.44-.65.06-1.3.14-1.95.2Z"/>
  <path d="M107.18,32.18c-.84,10.83-1.63,21.67-2.45,32.5-.42,5.61-.79,11.22-1.39,16.81-.64,5.9-1.28,11.79-1.92,17.68-.36,3.33-.72,6.67-1.08,10-3.4.48-6.8.97-10.2,1.45,1.18-10.87,2.38-21.73,3.52-32.6.28-2.71.47-5.43.67-8.15.23-2.97.45-5.94.67-8.91.36-4.83.73-9.65,1.09-14.47,2.92-4.08,5.79-8.19,8.47-12.42.34-.53.56-1.1.67-1.69.65-.06,1.3-.14,1.95-.2Z"/>
  <path d="M104.61,28.77c.62,1.07.87,2.37.62,3.61-1.72.19-3.43.38-5.15.54-.99.1-1.99.22-2.98.25.07-.93.14-1.85.21-2.78.01-.2.05-.4.1-.59.61-.11,1.22-.19,1.83-.28,1.79-.26,3.58-.51,5.37-.75Z"/>
  <path d="M105.23,32.38c-.11.59-.33,1.16-.67,1.69-2.68,4.23-5.55,8.34-8.47,12.42.07-.89.13-1.78.2-2.67.27-3.55.55-7.1.81-10.65.99-.03,1.99-.15,2.98-.25,1.72-.16,3.43-.35,5.15-.54Z"/>
  <path d="M101.06,26.41c1.59.17,2.83,1.11,3.55,2.36-1.79.24-3.58.49-5.37.75-.61.09-1.22.17-1.83.28.25-1.06.96-2.05,1.79-2.69.41-.32.87-.57,1.36-.74.17,0,.34.02.5.04Z"/>
  <path d="M102.93,26.11c1.3.18,2.49.87,3.29,1.9.12.16.24.33.34.5-.65.09-1.3.18-1.95.26-.72-1.25-1.96-2.19-3.55-2.36-.16-.02-.33-.04-.5-.04.75-.28,1.57-.37,2.37-.26Z"/>
  <path d="M100.34,109.17c-.28,2.64-.57,5.28-.86,7.92-3.4.46-6.79.92-10.19,1.37.22-1.99.43-3.99.65-5.98.07-.62.13-1.24.2-1.86,3.4-.48,6.8-.97,10.2-1.45Z"/>
  <path d="M96.09,46.49c-.36,4.82-.73,9.64-1.09,14.47-.22,2.97-.44,5.94-.67,8.91-.2,2.72-.39,5.44-.67,8.15-1.14,10.87-2.34,21.73-3.52,32.6-.46.07-.92.13-1.38.2-3.67.53-7.33,1.06-10.99,1.6-1.66.24-3.31.48-4.95.78-.63.11-1.27.27-1.81.61-.21.13-.41.27-.61.41-.64.41-1.27.86-1.69,1.46-1.8.33-3.62.57-5.44.79-.46-.75-1.15-1.36-1.98-1.71-.53-.22-1.11-.33-1.69-.33-.24-.07-.49-.12-.75-.16-.72-.1-1.46-.12-2.19-.12-3.79,0-7.58.12-11.37.2-3.76.09-7.52.18-11.28.26,9.37-11.41,19.45-22.22,29.98-32.59,10.42-10.37,21.17-20.54,29.88-32.45.74-1.03,1.48-2.05,2.22-3.08Z"/>
  <path d="M96.32,30.01c-.51.12-1,.28-1.49.45-.03,0-.07.02-.1.03.96-2.32,3.33-4.17,5.83-4.12-.49.17-.95.42-1.36.74-.83.64-1.54,1.63-1.79,2.69-.36.06-.73.13-1.09.21Z"/>
  <path d="M94.83,30.46c.49-.17.98-.33,1.49-.45.36-.08.73-.15,1.09-.21-.05.19-.09.39-.1.59-.07.93-.14,1.85-.21,2.78-.12.01-.23.01-.35.01h-.05c-.54,0-1.08-.05-1.62-.09-.25-.02-.5-.02-.75-.03h-.03c-.07-.87.09-1.75.43-2.57.03-.01.07-.02.1-.03Z"/>
  <path d="M94.02,30.7c.24-.06.47-.13.71-.21-.34.82-.5,1.7-.43,2.57-.58-.03-1.07-.45-1.15-1.04-.09-.58.29-1.16.87-1.32Z"/>
  <path d="M78.8,215.58c1.24-11.45,2.47-22.89,3.7-34.34,1.23-11.36,2.46-22.72,3.69-34.08,1.03-9.57,2.07-19.13,3.1-28.7,3.4-.45,6.79-.91,10.19-1.37-.58,5.43-1.17,10.85-1.76,16.28-1.25,11.5-2.49,23-3.74,34.49-1.22,11.33-2.45,22.67-3.68,34-.49,4.53-.99,9.06-1.48,13.6-.24,2.21-.48,4.43-.72,6.64-.14,1.23-.29,2.46-.43,3.69,1.1,0,2.2,0,3.3-.01h2.94c2.81.01,5.63.02,8.43.02,5.71,0,11.41.01,17.12.02,11.68,0,23.36.02,35.04.04,11.59.01,23.19.02,34.78.04,11.87.02,23.75.04,35.62.04,11.45.01,22.89.03,34.34.04,5.1.01,10.2.02,15.3.02,2.29,0,4.58,0,6.87,0,.57,0,1.15.02,1.72.02.95-5.06,1.82-10.13,2.73-15.2.98-5.43,1.98-10.85,2.96-16.28,2.04-11.3,4.08-22.59,6.13-33.88,2.15-11.83,4.27-23.66,6.41-35.49,2.04-11.25,4.07-22.51,6.11-33.77.17-.91.33-1.83.49-2.74,3.24-.44,6.49-.89,9.73-1.33-1.44,8.12-2.88,16.25-4.31,24.38-2.03,11.44-4.05,22.88-6.07,34.32-2.01,11.33-4.02,22.67-6.01,34-1.98,11.21-3.95,22.42-5.94,33.63-.5,2.84-1,5.69-1.51,8.54-.24,1.36-.49,2.72-.73,4.09-.1.59-.21,1.18-.31,1.77-.12.67-.25,1.34-.41,2.01-.25,1.06-.82,2.07-1.49,2.93-.59.77-1.37,1.32-2.18,1.85-.6.39-1.41.71-2.11.85-.77.16-1.51.24-2.3.27-.57.01-1.14.01-1.71.01-.5.01-1,.01-1.49.01-1.99,0-3.97-.01-5.95-.01-11.68-.01-23.36-.02-35.04-.04-11.45-.02-22.9-.03-34.35-.04-11.69-.01-23.39-.03-35.08-.04-11.66-.01-23.32-.02-34.98-.04-11.75-.02-23.51-.03-35.27-.04-2.79,0-5.57-.01-8.35-.01h-4.49c-.68-.01-1.36-.01-2.04-.01-1.96,0-3.95-.28-5.48-1.62-1.54-1.33-2.3-3.13-2.48-5.14-.08-.88-.06-1.75.03-2.63l.3-2.76c.28-2.68.57-5.36.86-8.04Z"/>
  <path d="M28.25,204.25c.58-13.76,1.17-27.52,1.75-41.28.3-6.91.6-13.83.89-20.75.25-6.01.45-12.02.73-18.03.68-.02,1.37-.05,2.05-.07,3.81-.11,7.61-.22,11.41-.33.27-.01.54-.01.81-.02,3.63-.11,7.28-.15,10.91-.38.7-.04,1.42-.06,2.11-.2.3-.07.59-.14.87-.23.69-.02,1.37-.2,2-.57.95-.56,1.65-1.47,1.95-2.51,1.82-.28,3.64-.56,5.47-.71.53.44,1.21.68,1.91.91.73.26,1.41.42,2.2.4,1.16-.03,2.33-.23,3.48-.37,2.72-.35,5.44-.71,8.15-1.07,1.45-.19,2.9-.38,4.35-.58-1.03,9.57-2.07,19.13-3.1,28.7-1.23,11.36-2.46,22.72-3.69,34.08-1.23,11.45-2.46,22.89-3.7,34.34-.29,2.68-.58,5.36-.86,8.04l-.3,2.76c-.09.88-.11,1.75-.03,2.63.18,2.01.94,3.81,2.48,5.14,1.53,1.34,3.52,1.62,5.48,1.62.68,0,1.36,0,2.04.01h4.49c2.78,0,5.56.01,8.35.01,11.76,0,23.52.02,35.27.04,11.66.02,23.32.03,34.98.04,11.69,0,23.39.03,35.08.04,11.45.01,22.9.02,34.35.04,11.68.02,23.36.03,35.04.04,1.98,0,3.96.01,5.95.01.49,0,.99,0,1.49-.01.57,0,1.14,0,1.71-.01.79-.03,1.53-.11,2.3-.27.7-.14,1.51-.46,2.11-.85.81-.53,1.59-1.08,2.18-1.85.67-.86,1.24-1.87,1.49-2.93.16-.67.29-1.34.41-2.01.1-.59.21-1.18.31-1.77.24-1.37.49-2.73.73-4.09.51-2.85,1.01-5.7,1.51-8.54,1.99-11.21,3.96-22.42,5.94-33.63,1.99-11.33,4-22.67,6.01-34,2.02-11.44,4.04-22.88,6.07-34.32,1.43-8.13,2.87-16.26,4.31-24.38,25.11-3.44,50.22-6.88,75.32-10.32,28.89-3.96,57.77-7.94,86.65-11.91,28.65-3.94,57.31-7.89,85.96-11.84,14.49-1.99,28.98-3.99,43.48-5.99,6.97-.96,13.93-1.91,20.9-2.87,3.43-.47,6.87-.95,10.3-1.42,1.9-.26,3.8-.52,5.7-.79.92-.12,1.83-.26,2.74-.39.55,10.91.85,21.83,1.23,32.75.39,11.18.78,22.37,1.16,33.56.95,28.44,1.88,56.88,2.79,85.32.9,28.52,1.81,57.03,2.72,85.54.93,29.04,1.89,58.06,2.86,87.09.21,6.38.42,12.75.63,19.13-10.72.51-21.43,1.06-32.14,1.79-1.29.08-2.64.18-3.98.31-1.22.12-2.68.15-3.72.89-.07.01-.15.02-.22.03-1.01-1.64-3.05-2.63-4.99-2.37-1.29.18-2.48.87-3.28,1.9-.84,1.09-1.11,2.39-.99,3.74.89,9.83,1.77,19.67,2.66,29.51,1.33,14.65,2.66,29.31,3.98,43.97l4.02,44.46c.63,6.98,1.26,13.97,1.9,20.95.12,1.37.21,2.77.46,4.12.39,2.15,1.29,4.26,3.07,5.63.93.73,1.91,1.28,3.02,1.69.65.23,1.3.43,1.95.63l10.47,3.24c7.82,2.42,15.63,4.83,23.45,7.24.34,9.92.66,19.85.99,29.77.22,6.83.45,13.67.68,20.5.11,3.12.22,6.23.33,9.34.06,1.83.13,3.65.19,5.47.03.65.06,1.3.08,1.96-2.33-.08-4.67.08-7.01.21-4.92.28-9.84.58-14.75.86-10.93.63-21.86,1.23-32.79,1.83-12.83.71-25.66,1.41-38.49,2.11-4.64-11.56-9.27-23.12-13.91-34.68-4.59-11.44-9.18-22.88-13.77-34.33-.57-1.43-1.1-2.9-1.73-4.32-.61-1.38-1.29-2.77-2.52-3.72-1.07-.84-2.27-1.57-3.61-1.88-1.21-.28-2.38-.46-3.62-.52-.63-.03-1.26-.03-1.89-.04-5.16-.06-10.33-.11-15.5-.17-25.69-.3-51.38-.59-77.06-.88-25.44-.29-50.89-.58-76.33-.87-25.26-.28-50.52-.58-75.78-.86-25.18-.28-50.36-.58-75.53-.86-25.32-.29-50.63-.58-75.95-.86-6.48-.08-12.96-.16-19.44-.23-3.1-.03-6.2-.07-9.31-.1-2.04-.03-4.07-.08-6.1.06-.59.12-1.17.25-1.76.38-.2.07-.41.14-.61.21-.69.28-1.29.57-1.92.96-.7.44-1.34.99-1.93,1.57-1.08,1.09-1.99,2.35-2.94,3.55-1.7,2.14-3.4,4.28-5.09,6.41-3.72,4.69-7.44,9.37-11.15,14.05-7.78,9.8-15.55,19.59-23.32,29.39-1.99,2.51-3.98,5.01-5.89,7.57-1.57,2.1-3.12,4.21-4.68,6.31-1.45,1.96-2.89,3.92-4.34,5.88-.67.91-1.31,1.87-2.03,2.74-1.42,1.53-2.93,2.97-4.4,4.44-1.81,1.81-3.62,3.62-5.42,5.43-2.62,2.62-5.24,5.25-7.86,7.87-1.93,1.93-1.93,5.14,0,7.07s4.92,1.92,6.87.19c.42.32.83.65,1.23.99.09.08.18.16.26.24.11,1.59,1.59,2.69,2.82,3.61,2.02,1.5,4.13,2.87,6.26,4.2-2.81.16-5.62.31-8.43.46-3.75.2-7.5.4-11.25.6-2.85.16-5.7.35-8.55.48.03-.42.06-.85.08-1.27.12-2.34.23-4.68.34-7.02.25-5.42.49-10.83.73-16.24,1.25-28.02,2.45-56.05,3.63-84.08,1.19-28.33,2.39-56.66,3.59-84.99,1.21-28.47,2.43-56.95,3.66-85.42,1.24-28.92,2.48-57.84,3.73-86.76,1.22-28.42,2.43-56.86,3.65-85.29Z"/>
  <path d="M63.91,661.17c-4.53.24-9.05.47-13.58.71-4.25-2.56-8.51-5.14-12.73-7.76-.18-.11-.35-.22-.53-.34,4.21-.22,8.43-.45,12.64-.68.07,0,.13-.01.2-.01,2.03,1.16,4.06,2.33,6.09,3.5,2.64,1.52,5.27,3.05,7.91,4.58Z"/>
  <path d="M49.91,653.09c-.07,0-.13.01-.2.01-4.21.23-8.43.46-12.64.68-2.13-1.33-4.24-2.7-6.26-4.2-1.23-.92-2.71-2.02-2.82-3.61-.08-.08-.17-.16-.26-.24-.4-.34-.81-.67-1.23-.99l1.58-1.58c.35.15.69.29,1.04.41.08.03.16.05.24.08,1.38-.63,2.94.02,4.3.62,2.28,1.01,4.49,2.17,6.66,3.39,3.21,1.79,6.41,3.6,9.59,5.43Z"/>
  <path d="M56.8,123.39c-3.63.23-7.28.27-10.91.38-.27.01-.54.01-.81.02v-.07c.4,0,.8-.28.64-.78-2.18-6.18-10.01-4.77-15.12-4.13,1.12-1.41,2.26-2.81,3.41-4.2,3.76-.08,7.52-.17,11.28-.26,3.79-.08,7.58-.2,11.37-.2.73,0,1.47.02,2.19.12.26.04.51.09.75.16.58,0,1.16.11,1.69.33.83.35,1.52.96,1.98,1.71,1.82-.22,3.64-.46,5.44-.79.42-.6,1.05-1.05,1.69-1.46.2-.14.4-.28.61-.41.54-.34,1.18-.5,1.81-.61,1.64-.3,3.29-.54,4.95-.78,3.66-.54,7.32-1.07,10.99-1.6.46-.07.92-.13,1.38-.2-.07.62-.13,1.24-.2,1.86-.22,1.99-.43,3.99-.65,5.98-1.45.2-2.9.39-4.35.58-2.71.36-5.43.72-8.15,1.07-1.15.14-2.32.34-3.48.37-.79.02-1.47-.14-2.2-.4-.7-.23-1.38-.47-1.91-.91-1.83.15-3.65.43-5.47.71-.3,1.04-1,1.95-1.95,2.51-.63.37-1.31.55-2,.57-.28.09-.57.16-.87.23-.69.14-1.41.16-2.11.2Z"/>
  <path d="M33.66,644.27c-1.36-.6-2.92-1.25-4.3-.62-.08-.03-.16-.05-.24-.08-.35-.12-.69-.26-1.04-.41l6.48-6.48c1.72-1.72,3.44-3.44,5.16-5.17,1.54-1.54,3.14-3.05,4.62-4.66.95-1.02,1.75-2.16,2.57-3.28,1.35-1.83,2.7-3.65,4.05-5.48,3.21-4.34,6.4-8.69,9.76-12.92,7.71-9.72,15.43-19.45,23.15-29.18,3.78-4.76,7.56-9.52,11.34-14.29,1.8-2.27,3.6-4.53,5.4-6.8.98-1.24,1.93-2.51,2.96-3.72l.42-.42s.05-.04.07-.05c0-.01.01-.01.02-.01.11-.03.21-.05.32-.07.02-.01.04-.01.05-.01,2.45-.03,4.9.04,7.34.07,2.34.03,4.69.05,7.03.08,4.9.05,9.81.11,14.71.16,9.44.11,18.87.22,28.31.33,25.4.29,50.79.57,76.19.86,25.47.3,50.96.58,76.44.87,25.34.29,50.68.58,76.02.87,25.43.29,50.87.58,76.3.87,12.7.14,25.4.29,38.1.43,6.47.08,12.93.15,19.41.22,2.71.04,5.43.06,8.15.09,1.07.02,2.14,0,3.22.05l.75.09c.9,2.11,1.71,4.26,2.57,6.38l2.73,6.81c1.71,4.29,3.44,8.58,5.16,12.88,3.46,8.63,6.92,17.25,10.38,25.88,2.41,6,4.81,12,7.22,17.99-12.72.7-25.44,1.39-38.16,2.07-28.3,1.53-56.6,3.04-84.9,4.55-29.73,1.59-59.46,3.16-89.19,4.73-28.54,1.51-57.07,3.04-85.61,4.56-28.91,1.54-57.83,3.08-86.74,4.64-29.31,1.58-58.63,3.17-87.94,4.73-14.01.75-28.03,1.5-42.03,2.26-3.18-1.83-6.38-3.64-9.59-5.43-2.17-1.22-4.38-2.38-6.66-3.39Z"/>
  <path d="M44.47,123.14c-1.76-4.02-6.68-3.91-10.34-3.24-1.89.46-3.82.9-5.46,1.99-.45.27-.84.53-1.37.6-1.22.17-2.38-.79-2.69-1.93-.39-1.43.45-2.99,1.13-4.18.31-.51.62-1.01.95-1.51.57-.14,1.13-.17,1.68-.11.28-.03.56-.04.86-.06,1.37-.08,2.76-.05,4.13-.08.22,0,.43-.01.65-.01-1.15,1.39-2.29,2.79-3.41,4.2,5.11-.64,12.94-2.05,15.12,4.13.16.5-.24.78-.64.78-.31,0-.61-.18-.61-.58Z"/>
  <path d="M29.23,114.7c-.3.02-.58.03-.86.06-.55-.06-1.11-.03-1.68.11,2.47-3.78,5.47-7.19,8.17-10.81,7.94-9.7,16.43-18.91,25.16-27.9,12.86-12.97,25.65-26.31,34.36-42.53-.04-.19-.06-.38-.08-.57h.03c.25.01.5.01.75.03.54.04,1.08.09,1.62.09h.05c.12,0,.23,0,.35-.01-.26,3.55-.54,7.1-.81,10.65-.07.89-.13,1.78-.2,2.67-.74,1.03-1.48,2.05-2.22,3.08-8.71,11.91-19.46,22.08-29.88,32.45-10.53,10.37-20.61,21.18-29.98,32.59-.22,0-.43.01-.65.01-1.37.03-2.76,0-4.13.08Z"/>
  <path d="M10.14,658.77c0,.79-.74,1.34-1.5,1.24.95,1.78-.69,3.55-2.33,3.4-.47-.05-.95-.26-1.36-.67-1.68-1.61-.92-4.43,1.42-4.82.63-.14,1.59-.42,2.39-.39.72.03,1.3.32,1.38,1.24Z"/>
  <path d="M9.18,664.03c-.47.03-.93.05-1.4.07-.25.01-.48.02-.71.02-.28,0-.55-.01-.82-.04l.06-.67c1.64.15,3.28-1.62,2.33-3.4.76.1,1.5-.45,1.5-1.24-.08-.92-.66-1.21-1.38-1.24l.08-2.21c2.85-.13,5.7-.32,8.55-.48,3.75-.2,7.5-.4,11.25-.6,2.81-.15,5.62-.3,8.43-.46.18.12.35.23.53.34,4.22,2.62,8.48,5.2,12.73,7.76-6.94.36-13.89.73-20.83,1.09-6.77.36-13.54.72-20.32,1.06Z"/>
  <path d="M4.95,662.74c.41.41.89.62,1.36.67l-.06.67c-.35-.03-.71-.08-1.09-.15-1.11-.21-2.17-.74-2.98-1.54-1.29-1.29-1.9-2.98-1.92-4.79-.02-1.71.08-3.43.14-5.15.43-13.35,1.01-26.7,1.54-40.06.56-14.1,1.12-28.19,1.7-42.29,1.17-28.58,2.36-57.16,3.53-85.75,1.16-28.45,2.31-56.91,3.47-85.36,1.14-28.26,2.27-56.52,3.42-84.78,1.17-28.7,2.33-57.4,3.5-86.1,1.15-28.05,2.27-56.1,3.43-84.14.23-5.68.47-11.36.72-17.04.05-1.24.11-2.49.16-3.74.08-1.88.15-3.83,1.13-5.5.77-1.31,2.06-2.37,3.54-2.78.05-.01.1-.03.15-.04-.33.5-.64,1-.95,1.51-.68,1.19-1.52,2.75-1.13,4.18.31,1.14,1.47,2.1,2.69,1.93.53-.07.92-.33,1.37-.6,1.64-1.09,3.57-1.53,5.46-1.99,3.66-.67,8.58-.78,10.34,3.24,0,.4.3.58.61.58v.07c-3.8.11-7.6.22-11.41.33-.68.02-1.37.05-2.05.07-.28,6.01-.48,12.02-.73,18.03-.29,6.92-.59,13.84-.89,20.75-.58,13.76-1.17,27.52-1.75,41.28-1.22,28.43-2.43,56.87-3.65,85.29-1.25,28.92-2.49,57.84-3.73,86.76-1.23,28.47-2.45,56.95-3.66,85.42-1.2,28.33-2.4,56.66-3.59,84.99-1.18,28.03-2.38,56.06-3.63,84.08-.24,5.41-.48,10.82-.73,16.24-.11,2.34-.22,4.68-.34,7.02-.02.42-.05.85-.08,1.27l-.08,2.21c-.8-.03-1.76.25-2.39.39-2.34.39-3.1,3.21-1.42,4.82Z"/>
</svg>