<?xml version="1.0" encoding="UTF-8"?>
<svg id="Layer_1" data-name="Layer 1" xmlns="http://www.w3.org/2000/svg" viewBox="0 0 433.86 497.68">
  <defs>
    <style>
      .cls-1 {
        fill: none;
        stroke: #8f807d;
        stroke-miterlimit: 10;
        stroke-width: 2px;
      }
    </style>
  </defs>
  <path class="cls-1" d="M415.63,203.3c2.17,47.64,27.19,93.35,12.78,138.96-16.08,50.89-52.68,92.19-95.96,124.29-51.05,37.85-117.29,37.39-174.3,13.37-83.49-38.56-37.29-20.67-93.93-58.29C18.4,380.39,12.29,318.65,2.8,263.63c-9.4-54.5,19.69-67.86,48.03-115.77,26.28-44.44,4.59-118.55,51.23-141.69,46.56-23.11,93.66,38.38,145.35,44.14,56.85,6.33,125.36-47.48,167.3-9.33,41.29,37.55-1.59,106.92.93,162.32Z"/>
</svg>