<?xml version="1.0" encoding="UTF-8"?>
<svg id="uuid-0013b026-ff1d-4c09-bb2b-06c3ea02e28c" data-name="Layer 1" xmlns="http://www.w3.org/2000/svg" viewBox="0 0 992 105.85">
  <defs>
    <style>
      .uuid-eb7e5fa4-ead8-42bd-b3f5-efce7ac55a11 {
        fill: #ffce7b;
      }
    </style>
  </defs>
  <path class="uuid-eb7e5fa4-ead8-42bd-b3f5-efce7ac55a11" d="M583.47,25.93c.24-.39-.92-.52-6.27-.69-2.76-.09-7.11-.23-9.67-.32-3.24-.11-4.64-.06-4.64.17,0,.41-.33.39,6.28.48,3.04.04,6.35.23,7.36.41,2.04.36,6.71.33,6.94-.05Z"/>
  <path class="uuid-eb7e5fa4-ead8-42bd-b3f5-efce7ac55a11" d="M570.91,29.58c.49.49.55.49,1.04,0,.49-.49.46-.52-.52-.52-.99,0-1.02.03-.52.52Z"/>
  <path class="uuid-eb7e5fa4-ead8-42bd-b3f5-efce7ac55a11" d="M558.58,32.96c-1.04.28-.51.74.74.64,1.44-.11,2.06-.88.66-.82-.48.02-1.1.1-1.4.18Z"/>
  <path class="uuid-eb7e5fa4-ead8-42bd-b3f5-efce7ac55a11" d="M562.49,29.17c.32.32,3.7.24,3.9-.08.41-.66-2.09-1.05-3.27-.51-.46.21-.75.48-.63.6Z"/>
  <path class="uuid-eb7e5fa4-ead8-42bd-b3f5-efce7ac55a11" d="M564.6,37.3c.11.18,1.72.28,3.9.26,2.81-.03,3.41-.11,2.49-.29-1.78-.36-6.62-.34-6.39.04Z"/>
  <path class="uuid-eb7e5fa4-ead8-42bd-b3f5-efce7ac55a11" d="M575.71,34.54c0,.18.14.24.31.13.17-.1.3-.25.3-.32s-.14-.13-.31-.13c-.17,0-.3.15-.3.32Z"/>
  <path class="uuid-eb7e5fa4-ead8-42bd-b3f5-efce7ac55a11" d="M636.03,53.83c-.16,0-.29.14-.29.31,0,.17.21.3.48.3.26,0,.39-.14.29-.31-.1-.17-.32-.3-.48-.3Z"/>
  <path class="uuid-eb7e5fa4-ead8-42bd-b3f5-efce7ac55a11" d="M596.52,26.27c.3-.49-1.6-.9-2.05-.44-.36.37.13.72,1.01.71.48,0,.95-.12,1.05-.27Z"/>
  <path class="uuid-eb7e5fa4-ead8-42bd-b3f5-efce7ac55a11" d="M591.43,26.43c.45-.17.46-.24.07-.48-.6-.38-1.51-.36-1.51.02,0,.44.81.7,1.44.46Z"/>
  <path class="uuid-eb7e5fa4-ead8-42bd-b3f5-efce7ac55a11" d="M543.71,25.22l-.76.32.75.29c.79.3,7.32,0,7.32-.34,0-.11-.99-.2-2.21-.2-1.21,0-2.69-.09-3.27-.19-.59-.1-1.41-.05-1.83.13Z"/>
  <path class="uuid-eb7e5fa4-ead8-42bd-b3f5-efce7ac55a11" d="M530.49,25.48c.35.32,2.28.61,2.8.42.83-.3-.05-.7-1.53-.69-.91,0-1.44.12-1.27.27Z"/>
  <path class="uuid-eb7e5fa4-ead8-42bd-b3f5-efce7ac55a11" d="M535.57,25.4c-.63.26-.09.71.84.71,1,0,1.45-.46.73-.73-.55-.21-1.02-.2-1.57.02Z"/>
  <path class="uuid-eb7e5fa4-ead8-42bd-b3f5-efce7ac55a11" d="M596.58,39.64c-.1.17.03.3.29.3.26,0,.47-.14.47-.31,0-.17-.13-.3-.29-.3-.16,0-.37.14-.47.31Z"/>
  <path class="uuid-eb7e5fa4-ead8-42bd-b3f5-efce7ac55a11" d="M554.29,25.36c.38.07.99.07,1.37,0,.38-.07.07-.13-.69-.13-.75,0-1.06.06-.68.13Z"/>
  <path class="uuid-eb7e5fa4-ead8-42bd-b3f5-efce7ac55a11" d="M631.74,37.71c0,.17.45.29.99.28.83-.02.89-.07.38-.28-.84-.36-1.37-.36-1.37,0Z"/>
  <path class="uuid-eb7e5fa4-ead8-42bd-b3f5-efce7ac55a11" d="M645.1,33.84c-.27-.33-.71-.44-1.33-.33-.8.13-.99.02-1.41-.8-.44-.87-.63-.96-2.14-1.04-1.35-.07-1.78.04-2.35.57-.59.55-.92.62-2.06.45-1.17-.17-1.34-.28-1.18-.79.25-.79-.39-.76-1.26.06-.65.61-.81.63-3.8.31-1.72-.18-3.27-.45-3.45-.6-.53-.43-7.13-.48-7.55-.05-.51.51-1.96.45-2.17-.09-.23-.6-.77-.58-1.47.06-.53.48-.62.47-1.46-.15-1.11-.81-2.95-.86-5.2-.13-1.21.39-1.64.43-1.73.16-.17-.52-.89-.46-1.95.17-.86.51-.92.51-1.2,0-.37-.66-.83-.67-1.52-.04-.76.69-2.35.31-2.72-.66-.34-.87-.38-.88-.96-.2h0c-.25.3-.54.78-.65,1.09-.11.3-.33.47-.49.37-.16-.1-.21-.4-.11-.67.16-.41.04-.46-.7-.27-1.8.46-3.1.54-3.3.21-.26-.42-2.51-.43-2.76-.02-.1.17-.59.31-1.09.31s-1.17.18-1.51.39c-.53.33-.7.27-1.35-.53-.64-.79-.81-.86-1.29-.53-1.27.88-1.98,1.03-2.7.56-.79-.51-2.12-.61-4.06-.29-1.05.17-1.39.12-1.6-.25-.16-.29-.51-.41-.88-.31-.83.22-1,.57-.61,1.29.28.52.54.57,1.86.41l1.54-.19-.2.8c-.17.7-.11.8.52.79.4,0,1.38.07,2.18.19,1.26.18,1.56.11,2.2-.49.55-.52.84-.61,1.14-.37.22.18.88.32,1.46.3.58-.02,1.47-.02,1.97.01.5.03,1.48-.04,2.17-.14.77-.11,1.34-.06,1.46.15.3.48,1.11.41,1.74-.17.47-.43.62-.44,1.05-.09.58.48,1.81.4,3.53-.21.74-.26,1.4-.33,1.71-.17.85.43,3.49.64,4.66.36,1.39-.33,2.08,0,1.5.7-.34.41-.31.48.17.46.31-.01.84-.13,1.18-.27.33-.14.83-.13,1.11.01.33.17.63.1.89-.21.31-.38,1.21-.47,4.82-.47,2.44,0,4.71,0,5.05-.01.33,0,.91-.21,1.28-.45.37-.24,1.29-.45,2.04-.45,1.11,0,1.4.11,1.57.63.21.65,1.04.7,2.32.14.33-.14.73.02,1.18.49.37.39.73.57.8.4.39-1.01.7-1.22,1.28-.86.32.2.87.28,1.23.19s.84-.01,1.09.19c.35.28.69.28,1.55-.04.98-.36,1.14-.34,1.4.12.36.63,1.36.66,2.4.06.99-.57,2.39-.57,3.35-.01.42.24,1,.53,1.3.64.29.1.53.38.54.61,0,.64,1.02.5,1.45-.19.22-.36.71-.61,1.17-.61.69,0,.74-.06.39-.49Z"/>
  <path class="uuid-eb7e5fa4-ead8-42bd-b3f5-efce7ac55a11" d="M636.56,40.5c.28.28.45.28.73,0,.28-.28.2-.37-.37-.36-.57,0-.65.08-.36.37Z"/>
  <path class="uuid-eb7e5fa4-ead8-42bd-b3f5-efce7ac55a11" d="M637.04,37.72c-.36.02-.43.09-.18.19.22.09.48.07.58-.03.1-.1-.08-.17-.4-.16Z"/>
  <path class="uuid-eb7e5fa4-ead8-42bd-b3f5-efce7ac55a11" d="M643.77,37.98c.1-.17-.02-.31-.26-.3-.25,0-.63-.06-.85-.13-.22-.07-.67-.02-.99.1-.54.21-.55.25-.05.44.79.3,1.95.24,2.16-.1Z"/>
  <path class="uuid-eb7e5fa4-ead8-42bd-b3f5-efce7ac55a11" d="M664.38,31.99c-1.37-.64-1.86-.75-2.28-.49-.29.19-.79.34-1.11.34-.32,0-.65.27-.74.61-.09.36-.41.61-.8.61-.66,0-1.86-.98-1.86-1.52,0-.48-.53-.35-.73.18h0c-.39,1.02-.17,1.67.66,2,1.31.51.3.65-1.34.18-1.23-.35-1.49-.56-1.57-1.23-.09-.72-.23-.81-1.37-.84-.7-.02-2.33-.07-3.63-.13l-2.36-.1-.48.93c-.37.72-.4,1.02-.12,1.36.2.24.47.36.6.28.39-.24,4.38.68,4.5,1.03.06.18.45.33.86.32.55,0,.72-.15.66-.53-.1-.61-.13-.61,3.45-.27,1.92.18,2.81.14,3.32-.13.59-.32.76-.3,1.06.11.66.9,2.38,1.41,3.6,1.07,1.31-.37,1.55-.68,1.13-1.48-.21-.4-.22-.66-.02-.79.6-.37.28-.7-1.44-1.51ZM664.6,35.44c-.38-.05-.76-.28-.83-.51-.09-.28.09-.37.56-.31.38.06.76.28.83.51.09.28-.09.37-.56.31Z"/>
  <path class="uuid-eb7e5fa4-ead8-42bd-b3f5-efce7ac55a11" d="M640.38,40.54c1.27.24,1.83.02,1.1-.44-.5-.32-.46-.31-1.51,0h0c-.71.2-.68.24.41.45Z"/>
  <path class="uuid-eb7e5fa4-ead8-42bd-b3f5-efce7ac55a11" d="M662.74,38.13c.22.09.48.08.58-.02.1-.1-.08-.17-.4-.16-.35.01-.43.09-.18.18Z"/>
  <path class="uuid-eb7e5fa4-ead8-42bd-b3f5-efce7ac55a11" d="M624.35,37.31c.1-.1-.08-.17-.4-.16-.35.02-.43.09-.18.18h0c.22.09.48.08.58-.02Z"/>
  <path class="uuid-eb7e5fa4-ead8-42bd-b3f5-efce7ac55a11" d="M527.46,25.16c-.26.42,1.64,1.09,2.01.71.24-.24.09-.42-.5-.64-1-.38-1.32-.39-1.51-.07Z"/>
  <path class="uuid-eb7e5fa4-ead8-42bd-b3f5-efce7ac55a11" d="M300.39,76.11c-1,0-1.63.14-1.63.35,0,.22.33.28.93.15.58-.12,1.27-.02,1.81.26,1.25.64,1.72.57,1.06-.16-.42-.46-.94-.61-2.18-.6Z"/>
  <path class="uuid-eb7e5fa4-ead8-42bd-b3f5-efce7ac55a11" d="M247.46,76.57c-.25,0-.46.21-.46.46,0,.25.21.46.46.46.25,0,.46-.21.45-.46,0-.25-.21-.46-.46-.46Z"/>
  <path class="uuid-eb7e5fa4-ead8-42bd-b3f5-efce7ac55a11" d="M617.72,34.39c-.52-.32-.55-.33-1.35-.01-.5.2-.43.27.43.44,1.14.22,1.6.01.92-.42Z"/>
  <path class="uuid-eb7e5fa4-ead8-42bd-b3f5-efce7ac55a11" d="M614.81,37.53c2.71.2,4.06-.02,2.61-.42-.94-.26-2.84-.25-4.26.02h0c-.84.16-.48.24,1.65.4Z"/>
  <path class="uuid-eb7e5fa4-ead8-42bd-b3f5-efce7ac55a11" d="M600.66,37.38c-.34-.29-5.35-.45-5.76-.18h0c-.32.21.52.3,2.72.3,1.74,0,3.11-.05,3.04-.12Z"/>
  <path class="uuid-eb7e5fa4-ead8-42bd-b3f5-efce7ac55a11" d="M575.01,33.5c.09-.09-.29-.55-.85-1.01-.56-.47-1.37-1.17-1.79-1.56l-.78-.72-.1.66c-.06.39-.51.86-1.13,1.16-.93.45-1.09.45-1.58.03-.3-.25-.78-.55-1.07-.65-.29-.1-.53-.33-.53-.5,0-.17-.14-.31-.31-.31s-.3.21-.3.47c0,.26-.2.54-.45.64-.44.17-3.32-.55-4.6-1.15-.46-.21-.96-.16-1.8.19-.64.27-1.23.42-1.31.34-.08-.08.03-.58.24-1.1.33-.8.32-1-.04-1.22-.56-.35-.7-.35-1.1.06-.19.19-.27.52-.19.73.08.21,0,.48-.17.59-.49.3.5,1.99,1.16,1.99.3,0,.81-.28,1.12-.63.63-.7,1.81-.69,1.81,0,0,.25.26.56.57.69.44.18.49.33.23.64-.28.33.01.45,1.53.6,2.67.27,3,.24,3-.27,0-.62,1.21-.59,1.67.04.3.41.92.5,3.48.47,1.71-.02,3.19-.1,3.28-.2Z"/>
  <path class="uuid-eb7e5fa4-ead8-42bd-b3f5-efce7ac55a11" d="M964.12,66.55c.15.24,1.24.42,4.9.8l1.52.16-1.83-.61c-1.83-.61-4.9-.84-4.59-.35Z"/>
  <path class="uuid-eb7e5fa4-ead8-42bd-b3f5-efce7ac55a11" d="M406.22,16.44c.1.17.76.29,1.46.27,1.09-.03,1.16-.07.51-.28-1.11-.35-2.2-.35-1.98,0Z"/>
  <path class="uuid-eb7e5fa4-ead8-42bd-b3f5-efce7ac55a11" d="M177.54,6.73c-.1.17,0,.31.21.31.22,0,1.49.2,2.82.44,2.29.4,2.95.39,2.51-.04-.23-.23-3.79-.99-4.7-1.01-.37,0-.75.13-.85.3Z"/>
  <path class="uuid-eb7e5fa4-ead8-42bd-b3f5-efce7ac55a11" d="M183.14.35c-7.25-.02-9.15.06-9.05.36.25.73,2.29.88,13.94.98,10.15.09,34.92.38,36.69.43.34.01,2.53-.02,4.87-.07,3.22-.07,4.08-.16,3.5-.39-.89-.35-3.88-.5-13.55-.67-3.85-.07-7.76-.24-8.68-.4-.92-.15-3.28-.29-5.25-.31-1.96-.02-5.71-.06-8.32-.09-2.61-.03-4.8,0-4.86.06h0c-.06.06-4.24.1-9.29.09Z"/>
  <path class="uuid-eb7e5fa4-ead8-42bd-b3f5-efce7ac55a11" d="M172.51,4.51c-2.92.52-1.09.96,4.88,1.17,2.6.09,6.5.28,8.68.43,2.18.15,6.49.4,9.59.57,3.1.17,6.87.45,8.37.63,1.51.18,3.77.35,5.03.38,1.26.03,5.54.16,9.52.29,5.14.17,7.23.14,7.23-.09,0-.54-1.37-.65-7.31-.6-4.34.03-6.06-.07-7.5-.45-1.03-.27-2.43-.5-3.1-.49-.68,0-1.55-.12-1.95-.27-.4-.15-3.11-.35-6.04-.44-2.92-.09-6.75-.31-8.51-.5-1.76-.18-6.08-.35-9.59-.38-3.52-.03-6.87-.12-7.46-.22-.59-.09-1.41-.11-1.83-.03Z"/>
  <path class="uuid-eb7e5fa4-ead8-42bd-b3f5-efce7ac55a11" d="M238.44,8.02c-.82-.48-12.61-.67-12.13-.2.2.2,2.69.37,6.54.44,4.9.09,6.08.04,5.6-.25Z"/>
  <path class="uuid-eb7e5fa4-ead8-42bd-b3f5-efce7ac55a11" d="M237.3,10.42c.21.08.55.08.76,0s.04-.15-.38-.15c-.42,0-.59.07-.38.15Z"/>
  <path class="uuid-eb7e5fa4-ead8-42bd-b3f5-efce7ac55a11" d="M318.75,11.42c.38-.07.07-.13-.69-.13-.75,0-1.06.06-.68.13.38.07.99.07,1.37,0Z"/>
  <path class="uuid-eb7e5fa4-ead8-42bd-b3f5-efce7ac55a11" d="M693.92,61.1h0c0,.44.74.87,1.02.58.09-.09.09-.35,0-.59-.21-.55-1.01-.55-1.01,0Z"/>
  <path class="uuid-eb7e5fa4-ead8-42bd-b3f5-efce7ac55a11" d="M689.76,60.06c-.76-.29-.95-.29-2.79-.06l-1,.13.75.59c.41.32,1.36.67,2.1.77,1.21.16,1.37.11,1.52-.48.13-.51,0-.73-.59-.95Z"/>
  <path class="uuid-eb7e5fa4-ead8-42bd-b3f5-efce7ac55a11" d="M733.35,64.21c-.12.19.42.29,1.43.26,1.38-.03,1.48-.07.7-.27-1.34-.34-1.92-.34-2.13,0Z"/>
  <path class="uuid-eb7e5fa4-ead8-42bd-b3f5-efce7ac55a11" d="M780.21,66.21c-.25,0-.37.14-.27.31.1.17.39.3.65.3.25,0,.37-.14.27-.31s-.39-.3-.65-.3Z"/>
  <path class="uuid-eb7e5fa4-ead8-42bd-b3f5-efce7ac55a11" d="M858.47,69.5c-.48-.08-1.15-.03-1.48.11-.42.17.25.32,2.14.46,1.64.12,3.05.08,3.5-.1.62-.25.39-.31-1.26-.32-1.11,0-2.41-.08-2.89-.15Z"/>
  <path class="uuid-eb7e5fa4-ead8-42bd-b3f5-efce7ac55a11" d="M939.43,74.66c.19.57,1.52.62,2.21.09.57-.43.52-.46-.86-.47-1.04,0-1.44.1-1.35.37Z"/>
  <path class="uuid-eb7e5fa4-ead8-42bd-b3f5-efce7ac55a11" d="M403.17,14.62c.35-.13-1.36-.32-3.96-.43-2.51-.11-4.77-.23-5.02-.28-.25-.04-1.3,0-2.33.11-3.17.31-2.52.64,1.3.66,2,.01,4.93.05,6.52.09s3.17-.03,3.5-.15Z"/>
  <path class="uuid-eb7e5fa4-ead8-42bd-b3f5-efce7ac55a11" d="M992,99.37c-.86-.02-1.56-.06-1.94-.13-1.09-.22-1.12-.25-.4-.46.22-.07,1.12-.13,2.34-.18v-1.27c-.45-.02-.83-.04-1.12-.06-8.9-.65-18.34-.84-19.94-.42-1.82.48-14.96.93-16.74.58l-1.22-.24,2.01-.65c1.54-.49,2.29-.59,3.2-.39,1.2.26,2.89.38,4.49.32.62-.02.82-.16.7-.46-.12-.32.34-.53,1.87-.82,2.79-.54,17.9-.68,26.76-.31v-2.33c-1.95-.17-2.58-.32-2.28-.49.13-.07,1.05-.24,2.28-.43v-1.8c-.6-.17-1.72-.4-2.85-.59-1.49-.24-4.17-.71-5.94-1.04-6.89-1.28-12.01-1.62-20.99-1.4-7.17.18-8.29.15-7.82-.22.3-.23,1.4-.52,2.43-.63,1.03-.11,2.7-.41,3.71-.65,2.24-.54,6.83-1.04,9.89-1.09,1.9-.03,2.16-.08,1.52-.35-.43-.18-2.22-.28-4.11-.23-9.12.26-11.54.19-12.61-.35-.57-.29-1.66-.53-2.41-.53-1.28,0-1.34-.03-.91-.53.26-.29.4-.7.33-.89-.08-.21.35-.5,1.03-.69,1.62-.45,2.25-.41,2.68.18.37.5,7.25.64,36.03.7v-1.26c-3.35,0-6.7-.03-9.39-.08-5.94-.09-12.38-.18-14.31-.2-3.22-.03-3.44-.07-2.7-.47,1.58-.86,7.15-1.21,20.43-1.28,2.15-.01,4.18-.03,5.98-.06v-1.34c-2.89-.36-7.02-.63-14.43-.99-6.87-.33-8.58-.34-8.83-.03-.88,1.12-4.25,1.44-5.75.55-1.01-.6-6.92-1.24-11.36-1.22-2.26,0-2.75.26-2.57,1.3.11.67-.67.69-3.51.11-1.14-.23-3.04-.52-4.21-.63-1.17-.11-3.43-.48-5.03-.82-1.95-.41-4.24-.63-7-.67-2.26-.03-6.3-.33-8.98-.67-3.57-.45-7.44-.66-14.46-.77-9.1-.15-11.47-.29-18.27-1.08-1.59-.19-5.29-.39-8.22-.45-2.93-.06-7.04-.16-9.14-.22s-6.41-.16-9.59-.22c-7.13-.13-20.85-.71-21.16-.89-.2-.12-2.6-.29-8.99-.62-1.17-.06-8.91-.14-17.2-.19-8.29-.04-15.41-.15-15.83-.23-.42-.09-2.34-.24-4.26-.34-4.84-.26-8.46-.7-9.15-1.13-.45-.28-.66-.28-.95.01-.49.49-1.46.47-4.21-.09-1.26-.26-2.97-.44-3.81-.41-2.3.1-2.53.04-2.75-.65-.16-.51-.36-.6-1.01-.44-.44.11-1.01.19-1.26.18-.25-.01-1.1,0-1.89,0-.79.02-1.84-.18-2.35-.44-1.07-.55-3.38-.63-3.38-.11,0,.25-.53.28-1.9.11-1.05-.13-2.64-.21-3.54-.18-1.07.04-1.9-.1-2.37-.41-.59-.38-1.04-.42-2.3-.18-.96.18-1.86.18-2.31.01-.47-.18-.87-.17-1.11.03-.39.33-12.19.78-12.67.48-.15-.09-3.05-.21-6.44-.26-9.23-.14-14.82-.38-16.52-.7-.84-.16-3.85-.42-6.7-.58-6.36-.36-7.95-.53-8.75-.95-.38-.21-1.34-.25-2.53-.12-1.88.21-1.93.19-2.61-.72-.8-1.07-1.63-1.2-2.1-.33-.28.52-.53.58-1.76.42-.79-.1-1.61-.32-1.82-.48-.25-.2-.51-.19-.76.01-.68.56-3.75.42-4.55-.21-.72-.56-2.71-.85-3.59-.53-1.17.43-2.16.5-2.83.2-.52-.24-1.62-.24-3.81-.01-3.01.31-3.52.26-5.79-.59-.98-.36-.67-1.01.51-1.05.53-.02,1.21-.25,1.51-.52.3-.27,1.15-.53,1.9-.58,1.28-.09,1.37-.04,1.46.72.09.76.18.8,1.22.63.62-.1,1.47-.44,1.9-.76.61-.45,1.2-.56,2.74-.49l1.96.09-.09.88c-.08.77-.01.86.58.7.37-.1,1.16.02,1.75.27,1.23.51,1.93.16,1.27-.64-.29-.34-.31-.58-.08-.81.39-.4.99-.09.99.52,0,.67.65.52.83-.19.16-.6.3-.62,2.94-.43,1.53.11,3.03.34,3.35.5.31.16,1.27.21,2.13.11,1.74-.2,5.08.47,3.9.79-1.08.29-.85,1.35.33,1.53,1.25.19,1.45.06,1.44-.89,0-.48.14-.72.38-.64.21.07.35.39.31.71-.09.79,1.92,2.11,2.18,1.43.12-.31.54-.43,1.31-.39,1.96.11,2.33.03,1.94-.44-.2-.24-.67-.35-1.11-.26-.76.15-1.67-.34-1.67-.9,0-.37,3.77-.11,7.31.5,1.42.25,3.96.45,5.63.45,1.67,0,4.48.13,6.24.29,5.43.48,15.38.86,22.16.85,3.56-.01,8.56.13,11.11.31,2.55.18,5.46.35,6.46.39,5.57.2,8.88.53,9.56.95.5.31,1.1.4,1.91.27,1.7-.28,2.59.03,3.01,1.06.26.63.58.89,1.1.88.72,0,.72-.02.24-.94-.27-.52-.42-1.01-.32-1.11.09-.09.75-.02,1.47.16.72.18,3.15.42,5.41.54,6.55.33,6.75.35,8.83.53,3.71.32,13.97.68,25.27.87,16.49.29,18.1.34,29.08.94,3.35.18,10.82.43,16.59.54,9.1.18,12.61.18,16.9,0,1.72-.07,12.62.52,15.45.84,6.37.72,14.83,1.17,15.76.84,1.02-.36,6.04-.25,14.1.3,5.1.35,6.69.26,5.65-.33-.27-.15-1.85-.42-3.5-.59-1.65-.17-4.72-.51-6.81-.75-2.09-.24-4.79-.44-5.99-.43-1.2,0-2.57-.14-3.05-.32s-3.33-.44-6.34-.56c-3.02-.12-6.92-.43-8.68-.68-3.56-.5-10.1-.65-13.9-.32-2.31.2-2.51.18-2.82-.4-.32-.59-.62-.62-6.65-.66-3.47-.02-6.73-.03-7.23-.03-.5,0-4.27.04-8.37.07-7.48.07-9.53-.11-11.64-.99-1.28-.53-2.61-.6-3.28-.16-.25.16-.32.3-.15.31.17,0,.08.15-.2.31-.32.19-1.07.19-2.11,0-2.53-.47-2.34-.73.44-.61,1.12.05,1.17,0,1.03-.73l-.15-.78,3.38.19c7.47.41,19.09.51,21.6.19,1.46-.19,1.82-.35,2.03-.92.36-.97.69-1.1,2.11-.88,1.01.16,1.18.27.9.61-.19.23-.75.42-1.24.42-.57,0-.82.12-.69.33.12.2.62.25,1.25.13.78-.15,1.31-.04,2.08.44.9.55,1.14.59,1.74.24.97-.55,6.7-.45,13.18.25,2.85.3,5.42.5,5.71.43.29-.07.53-.39.53-.71,0-.92.76-1,4.38-.49,1.86.27,5.03.48,7.04.48,2.01,0,5.44.21,7.61.46,4.5.53,12.84,1.03,13.4.82.21-.08,3.59-.01,7.52.16,6.05.26,7.28.24,8.03-.13.94-.47,2.96-.32,2.21.16-.22.14-.81.26-1.3.27-1.6.01-.6.34,2.3.75,1.57.22,5.22.39,8.11.38,4.88-.02,5.25-.06,5.09-.56-.11-.34.03-.61.37-.75,1.07-.42-.32-.69-5.25-1.05-2.68-.19-6.21-.48-7.85-.63-1.64-.15-4.59-.27-6.55-.27-1.96,0-4.73-.12-6.15-.27-6.96-.74-8.71-.97-9.13-1.25-.32-.21-.04-.24.91-.11.75.1,4.45.24,8.22.31,3.77.07,7.68.26,8.7.41,3.62.56,11.92,1.01,16.72.91,3.47-.07,5.79.04,8.07.4,1.76.28,5.05.6,7.31.73,2.26.13,6.76.39,9.99.58,3.87.23,7.02.24,8.59.05v-.61c-.56-.05-1.29-.07-2.08-.07-4.28.01-15.96-.8-20.92-1.46-2.35-.31-5.57-.64-7.16-.74-1.59-.09-4.67-.3-6.85-.46-2.18-.16-5.82-.42-8.09-.57-2.94-.2-4.52-.45-5.48-.87-1.72-.75-1.17-.78,3.78-.21,2.04.23,5.01.5,6.6.6,1.59.09,4.74.29,7,.44,5.4.35,13.32.35,13.54-.01.33-.54-.59-.75-4.24-.96-2.01-.12-4.28-.35-5.03-.52-.75-.17-2.4-.23-3.66-.13-1.42.11-3.5.01-5.48-.28-1.76-.25-3.68-.46-4.26-.45-1.85.02-9.22-.58-10.96-.9-2.76-.5-8.31-1.24-9.29-1.24-.5,0-1.76.09-2.81.2-1.56.16-2.1.09-3.07-.41-1.48-.77-4.39-1.13-19.71-2.45-2.01-.17-5.64-.5-8.07-.74-2.43-.23-7.91-.56-12.18-.73-4.27-.17-10.64-.5-14.16-.73-9.45-.62-11.09-.64-11.4-.14-.2.32-.59.37-1.59.2-1.46-.25-4.43-.35-14.42-.52-4.35-.07-7.87-.3-10.05-.65-1.84-.29-4.79-.56-6.55-.58-5.71-.09-12-.46-13-.76-.77-.23-1.14-.19-1.76.22-.71.47-1.08.48-3.75.15-4.08-.5-10.45-.95-13.01-.91-1.17.02-2.34-.1-2.59-.27-.36-.24-.27-.3.4-.31.49,0,.78-.14.67-.31-.1-.17-.61-.3-1.12-.3-.7,0-.88.11-.75.45.24.64-.99.9-2.94.62-.87-.12-2.48-.24-3.59-.26-1.2-.02-2.21-.2-2.51-.45-.41-.33-.78-.35-1.86-.07-1.71.43-4.54.47-4.28.05.11-.19-.34-.3-1.16-.3-.74,0-1.74-.12-2.23-.27-.49-.15-1.38-.34-1.99-.43-1-.14-1.09-.09-.94.48.16.59.08.61-1.02.4-.66-.13-1.6-.21-2.1-.19-.5.02-1.19-.09-1.52-.26-.96-.47-7.22-.85-7.83-.47-.37.22-.93.21-1.91-.05-.76-.2-1.79-.37-2.28-.36-.49,0-.99-.15-1.1-.34-.13-.21-.74-.27-1.62-.17-.77.09-2.43.07-3.69-.06-1.76-.18-2.4-.14-2.77.18-.49.42-3.13.29-3.78-.2-.17-.12-1-.32-1.85-.43-1.21-.16-1.63-.1-1.94.28-.51.62-1.43.62-1.78,0-.22-.4-.68-.45-2.68-.31-3.31.23-3.1.23-5.25.08-1.06-.07-2.36-.27-2.89-.44-.53-.16-1.51-.19-2.18-.07-.76.15-1.9.07-3.05-.19-1.21-.28-2.6-.35-4.11-.22-3.06.26-2.83.26-5.92.06-1.65-.11-3-.36-3.44-.65-.4-.26-1.5-.52-2.46-.59-.95-.07-2.24-.2-2.85-.3-.66-.11-1.19-.05-1.31.15-.14.23-.39.23-.85-.02-.35-.19-1.39-.33-2.31-.32s-1.95-.09-2.31-.22c-.37-.14-1.28-.06-2.16.18-1.95.54-4.75.28-5.78-.52-.7-.55-1.04-.57-4.5-.34-4.7.32-8.58.24-9.41-.21-1.1-.58-1.99-.64-10.78-.68-4.69-.02-8.69-.13-8.88-.25-.19-.12-1.21-.09-2.27.06-1.17.16-2.23.16-2.69-.01-.61-.23-.85-.16-1.27.35-.5.62-2.13.8-9.54,1.04-.33.01-2.17-.13-4.07-.32-1.9-.19-3.59-.26-3.73-.17-.36.23-4.83-.45-5.58-.85-.9-.48-3.53-.69-11.39-.93-2.74-.08-5.5-.03-6.14.11-.69.16-1.78.14-2.69-.04-1.61-.31-3.38-.08-2.9.39.15.15,1.2.31,2.33.36,1.13.05,2.06.23,2.06.39,0,.18-1.52.31-3.89.31h-3.88s.1-.87.1-.87c.09-.8.03-.86-.64-.69-.41.1-3.95.2-7.87.22-6.49.03-9,.25-10.81.95-.43.17-.79.1-1.09-.2-.64-.63-5.4-1.05-9.97-.86-7.76.31-39.77.5-40.28.24-.49-.25-.49-.3.04-.84.52-.52,1.11-.57,6.92-.57,7.44,0,25.66-.64,25.93-.91.1-.1-4.26-.1-9.7.01-17.83.36-22.32.39-25.87.19-1.93-.11-7.41-.27-12.18-.35-4.77-.08-10.94-.21-13.7-.28s-8.45-.19-12.64-.26c-11.29-.2-20.17-.69-21.89-1.21-1.05-.32-1.58-.35-1.81-.12-.18.18-.81.32-1.4.32h-1.08s1.05-.47,1.05-.47c.58-.25,1.27-.66,1.53-.9.39-.36,1.41-.4,5.95-.21,3.01.12,5.7.11,5.97-.03.57-.28,5.83-.38,8.78-.16,11.27.81,22.69.8,23.93-.02.39-.26,1.03-.47,1.43-.47.4,0,.97-.28,1.27-.61.65-.72,1.52-.83,1.25-.16-.1.25-.27.69-.39.97-.16.41-.09.46.38.26.32-.14.79-.23,1.04-.21.25.03,1.69.16,3.2.29,1.51.13,3.14.43,3.62.66.81.38.92.36,1.44-.29.42-.53.76-.66,1.32-.52.41.1.82.06.9-.08.51-.83,6.49-.51,7.51.41.62.56,1.23.55,1.98-.02.57-.43.55-.45-.25-.45-.9,0-1.17-.73-.38-1.03.55-.21,1.85.24,2.48.87.25.25.64.45.86.45.22,0,.47.27.56.61.13.49.42.61,1.42.6.82,0,1.32-.16,1.42-.44.11-.28.62-.45,1.43-.46,3.35-.05,5.98-.23,6.18-.43.39-.39.75-.22.66.32-.14.85,1.75.91,2.19.07.32-.61.56-.64,4.87-.61,2.49.02,4.68-.06,4.87-.18.56-.35-2.32-2.05-3.06-1.82-.43.14-.76.04-1.01-.3-.3-.41-1.1-.53-4.15-.65-3.36-.13-3.82-.09-4.17.39-.37.51-.42.51-.99,0-.76-.69-1.38-.48-1.39.46,0,.56-.15.72-.61.66-1.55-.19-3.85,0-4.81.4-.4.17-.84-.05-1.6-.78-.58-.56-1.05-1.17-1.05-1.36,0-.25,1.05-.37,3.42-.4,1.88-.03,4.04-.06,4.79-.08,1.37-.03,2.91-.03,4.49,0,2.81.06,4.16-.08,4.8-.51.42-.28.98-.4,1.35-.28.36.11.62.06.62-.12,0-.44-1.36-.74-2.27-.51-.52.13-.83.04-1.03-.32-.27-.47-.6-.48-4.35-.08-4.53.48-16.33.53-16.79.08-.16-.16-1.03-.21-1.93-.12-1.12.12-1.64.06-1.64-.17,0-.19-.38-.35-.85-.34-1.09,0-4.13-1.05-4.27-1.48-.06-.19.27-.33.75-.34,1.01-.01,1.84-.44,1.38-.72-.17-.1-1.03-.27-1.9-.36l-1.59-.17.19.94c.21,1.04-.23,2.57-.7,2.41-.17-.05-.75-.78-1.3-1.62l-1-1.52-2.28-.24c-2.71-.29-4.34.09-5.05,1.19-.62.96-1.33.97-1.33.03,0-.4-.18-.87-.4-1.05-.27-.22-3.11-.27-9.06-.16-11.17.22-13.03.2-14.14-.12-1.61-.48-8.23-.7-20.25-.69-6.98,0-11.93.13-12.23.3-.34.2-1.21.15-2.59-.12-1.21-.24-4.42-.44-7.71-.48-16.95-.19-21.89-.29-22.15-.45-.23-.14-7.38-.22-12.1-.12-2.67.05-11.43-.34-12.91-.58-1.82-.29-7.54-.19-8.96.16-.66.16-1.03.05-1.6-.49-.62-.58-.86-.64-1.43-.36-.38.19-1.68.4-2.9.48-1.78.11-2.27.05-2.48-.33-.2-.35-.9-.49-2.75-.56-2.32-.08-2.53-.04-3.19.67-.85.92-1.42.97-1.93.16-.32-.5-.6-.57-1.71-.42-.85.12-1.41.06-1.54-.16-.15-.24-.47-.16-1.08.27-1.04.75-2.35.8-3.1.12-.5-.45-2.04-.51-14.49-.57-7.66-.04-17.83-.13-22.61-.2-4.77-.08-13.88-.18-20.25-.24-14.12-.12-23.08-.33-28.32-.67-2.18-.14-6.36-.33-9.29-.42-2.93-.09-6.52-.31-7.97-.5-1.45-.19-3.01-.27-3.45-.18-.44.09-1.38.03-2.08-.13-.7-.16-2.92-.25-4.92-.21-6.62.13-7.16.04-7.16-1.2,0-.46-.43-.53-3.73-.57-13.56-.16-27.01-.82-33.35-1.65-1.89-.25-3.55-.38-3.68-.3-.39.24-4.29-.39-5.14-.83l-.78-.41.75-.19c.41-.1,2.61-.13,4.9-.05,2.89.09,4.21.03,4.36-.21.39-.64-.62-.91-2.66-.72-1.29.12-2.1.07-2.23-.13-.13-.21-2.03-.29-5.52-.23-3.33.06-5.06.19-4.62.35.38.14,1.11.45,1.61.69.5.24,1.32.54,1.81.67.49.13.96.42,1.03.65.1.31-.04.35-.59.18-.76-.25-1.54-.31-7.27-.58-1.93-.09-4.53-.24-5.79-.33-1.26-.09-3.88-.2-5.83-.25-1.95-.05-3.67-.17-3.82-.26-.34-.21-10.31-.85-14.71-.95-6.31-.14-10.02-.35-10.41-.61-.22-.14-2.32-.32-4.66-.4-3.27-.11-4.26-.23-4.26-.54,0-1.12-2.49-1.67-3.64-.79-.33.25-.9.45-1.28.45s-.78.16-.89.34c-.14.23-.96.28-2.6.14-2.05-.17-2.37-.14-2.22.25.24.62-.77,1.11-2.27,1.12-.67,0-1.3.13-1.4.29-.27.45.81.89,3.39,1.37,1.3.24,2.5.58,2.67.75.39.39.21.39-2.61,0-1.23-.16-5.66-.49-9.84-.73-4.19-.24-9.6-.56-12.03-.72-7.86-.51-19.56-1.18-22.84-1.3-1.76-.07-6.97-.27-11.57-.44-8.79-.34-14.61-.5-23.44-.64-2.93-.05-7.8-.3-10.81-.56-3.01-.26-6.23-.47-7.16-.48-.92,0-2.41-.14-3.31-.31-2.28-.43-2.79-.4-2.58.15h0c.14.38-.14.47-1.45.5l-1.63.04,3.19,1.03c4.3,1.39,4.59,1.77,1.08,1.47-1.51-.13-4.73-.2-7.16-.15-2.82.05-5.51-.08-7.45-.37-4.51-.68-4.53-.03-.05,1.21,1.25.35,1.69.59,1.46.82-.21.21-3.98.14-8.48-.08v2.63c1.68.14,3.37.28,4.94.42,5.36.47,10.09.79,10.51.71.42-.09,2.06.18,3.66.58,1.59.41,4.33.83,6.09.93,6.17.37,10.53.78,12.92,1.22,1.33.24,2.64.37,2.92.28.28-.09,1.59.05,2.92.3,1.33.26,4.26.59,6.52.75,4.82.33,13.72,1.16,14.16,1.32.62.22-3.15.15-6.63-.13-5.22-.42-23.05-1.19-23.33-1.01-.14.08-2.01-.05-4.17-.3-2.16-.25-4.27-.39-4.69-.31-.42.08-1.45.02-2.28-.14-.84-.16-3.03-.35-4.87-.43-1.84-.08-3.56-.21-3.81-.28-.25-.07-2.48-.34-4.94-.59-3.3-.33-4.63-.37-5.03-.12-.38.24-2.46.03-4.88-.39v8.71c3.42.23,7.11.59,9.69.96,3.29.48,4.7,1.02,2.65,1.03-.62,0-1.13.12-1.12.27,0,.31,1.51.65,2.86.63h.95s-.72-.61-.72-.61c-.93-.77-.21-.82,1.41-.1.87.38,2.21.51,5.7.55,4.42.05,9.29.42,13.7,1.06,2.63.38,8.66.88,11.72.98,1.26.04,2.76.23,3.35.42.87.28,1.33.25,2.51-.18,1.36-.49,1.63-.49,4.72-.01,1.8.28,3.82.51,4.49.51.67,0,1.81.27,2.55.6,1.65.74,3.09.79,3.09.1,0-.38.19-.45.84-.32.46.1,2.93.26,5.49.37,2.56.11,4.73.31,4.81.45.09.14-.14.26-.5.26-.36,0-1,.27-1.41.6-.7.56-1.15.59-6.14.5-2.96-.05-6.75-.24-8.42-.42-7.04-.76-9.07-.91-13.7-1.05-2.68-.08-7.54-.42-10.81-.75-10.3-1.05-11.65-1.15-14.99-1.15-5.48,0-12.39-.58-15.91-1.35-3.31-.72-3.35-.72-3.93-.14-.58.58-.58.59.15.74.4.08,2.1.3,3.78.49,3.51.4,6.61,1.14,6.37,1.54-.09.15-.28.2-.43.11-.33-.2-8.19-.72-12.76-.86v1.64c3.34.2,7.03.44,10.46.71,3.17.24,5.91.35,6.09.24.18-.11,1.62-.17,3.21-.12,2.21.06,2.81,0,2.54-.27-.42-.43-4.59-1.18-6.56-1.19-.79,0-1.52-.14-1.62-.31-.25-.4,2.84-.35,4.72.07.75.17,3.02.34,5.03.38s5.98.28,8.83.52c2.85.25,7.16.59,9.59.77,4.8.35,8.18.76,8.45,1.03.47.47-.53.48-4.72.05-5.36-.54-4.95-.53-4.95-.2,0,.15,1.54.43,3.43.62,1.89.2,4.39.55,5.56.78,1.17.24,3.37.41,4.87.4,2.72-.03,2.73-.04,1.68-.49-.58-.25-1.72-.56-2.52-.69-.8-.12-1.54-.31-1.65-.41-.25-.25,6.7.04,8.27.35l1.22.23-1.12.24c-.62.13-1.19.42-1.27.64-.18.47.57.62,5.56,1.05,3.4.3,4.62.21,2.89-.2-1.22-.29-2.55-.99-2.55-1.34,0-.33,1.87-.4,3.32-.11.75.15.92.31.79.74-.27.85.69,1.17,4.34,1.47,1.81.15,4.52.54,6.03.87,1.51.33,5.35.81,8.53,1.07,5.73.47,12.37,1.48,13.25,2.02.29.18-.38.21-1.83.09-1.26-.1-4.07-.3-6.24-.44-3.84-.24-14.75-1.32-16.29-1.62-.42-.08-2.68-.22-5.03-.31-2.34-.09-5.22-.37-6.39-.61s-3.98-.49-6.24-.54c-2.26-.06-5.48-.31-7.16-.55-1.68-.25-6.61-.59-10.96-.77-4.35-.18-9.07-.45-10.48-.62-5.3-.62-10.64-.97-13.86-.89-1.83.04-4.36-.06-5.63-.22-2.55-.33-8.4-.76-11.57-.88v3.83c1.75.11,3.49.2,5.01.24,3.52.09,7.56.29,8.98.45,1.42.15,5.6.41,9.29.58,3.69.17,8.14.49,9.9.72,7.28.96,11.07,1.35,15.84,1.65,4.54.28,14.69,1.05,22.69,1.74,1.67.14,3.83.19,4.8.09,1.72-.16,7.09.64,7.38,1.11.07.12-1.16.31-2.74.42-2.76.19-3.59.44-4.82,1.44-.67.54-7.16.72-11.61.31-5.23-.48-13.54-.89-13.86-.69-.63.39.34,1.02,2.09,1.36.95.18,2.34.53,3.08.77,1.73.56,3.2.55,3.67-.02.28-.34.96-.44,2.7-.4,1.28.03,2.63-.06,3.01-.2.51-.19.73-.13.88.25.36.92-.74,1.41-2.77,1.23-1.01-.09-2.03-.02-2.27.14-.25.17-.38.34-.3.39.08.05.56.38,1.08.74,1.05.73,1.67.79,13.49,1.27,4.08.17,7.98.46,8.68.66,1.32.37,1.28.4-1.09.72-.95.13-1.45.34-1.44.62,0,.97,1.42,1.26,9.53,1.94,3.35.28,6.04.96,5.6,1.41-.19.19-16.92.54-22.17.47-1.67-.02-2.71.09-2.84.3-.15.24-1.2.29-3.46.16-2.16-.12-3.76-.05-4.77.2-1.99.5-5.03.52-8.98.07-3.75-.42-12.58-1.1-20.1-1.54-2.93-.17-6.84-.43-8.68-.59-2.76-.23-6.55-.24-7.9-.02-2.01.32,7.69,1.73,10.95,1.59,1.32-.06,13.06.61,19.49,1.11,10.14.78,10.58.84,11.31,1.53.39.36.63.77.54.92-.09.14-.9.26-1.82.27-.91,0-1.66.12-1.65.26,0,.45-1.5.97-2.81.97h-1.26s.69.74.69.74c.74.78.74,1.92.01,1.75-.24-.06-2.84-.15-5.77-.2-7.25-.13-10.18-.36-12.28-.93-1.53-.42-1.81-.43-2.05-.05-.18.29-.85.45-2.03.47-2.54.05-11.85-.41-15.77-.78-1.84-.17-5.06-.36-7.16-.42-2.09-.06-4.7-.25-5.79-.43-.75-.12-1.7-.28-2.49-.4v11.95c1.23.12,2.08.23,2.27.3.77.29,6.26.85,11.52,1.19,2.42.15,3.06.3,3.89.93,2.11,1.57.31,2.27-3.7,1.44-2.26-.47-7.75-.83-13.98-.92v10.91c1.16-.24,8.99-.16,11.13.14,1.24.17,3.33.17,5.38,0,2.72-.23,3.61-.19,4.64.17.7.25,1.59.45,1.98.45.42,0,.78.23.88.57.1.31.45.81.79,1.11.33.3.6.65.6.78,0,.51-18.34.02-25.41-.58v12.03c.72.13,1.43.28,1.97.43h14.27c.59-.05,1.26-.12,2.13-.22,1.39-.15,2.67-.19,2.86-.07.08.05.13.16.16.29h7.44c-.83-.49-.19-.93,2.01-1.04,6.59-.31,8.37-.27,8.19.2h0c-.09.23.02.6.23.84h2.65c-.82-.36-1.55-.8-1.41-.94.23-.23,6.66-.54,10.12-.49,1.75.03,2.75.19,3.28.53h0c.42.27,1.11.63,1.54.79.12.05.22.08.3.11h.35c.06-.09.02-.33-.08-.77l-.21-.96,3.79.14c2.08.08,3.96.24,4.18.37.78.48-.42.76-3.25.78-1.91.01-2.72.09-2.79.44h934.26v-6.48ZM951.81,64.24c1.26-.02,2.49.09,2.74.25.57.36-1.63.38-3.65.03-1.28-.22-1.22-.24.91-.28ZM924.7,58.75c0-.42,5.3-.18,8.98.41,3.87.62,1.93.81-3.69.38-6-.46-5.29-.36-5.29-.78ZM921.66,62.81c.42,0,.59.07.38.15-.21.08-.55.09-.76,0-.21-.08-.04-.15.38-.16ZM523.2,30.06c.15-.24,1.04-.29,2.96-.16,1.51.1,3.28.18,3.92.18h0c1.39,0,1.91.74.99,1.42-.5.37-.62.36-.92-.05-.29-.4-4.2-1-6.76-1.04-.22,0-.3-.16-.18-.35ZM518,29.81c.75,0,1.37.1,1.37.22,0,.13-.62.25-1.37.28-.75.03-1.37-.07-1.37-.22,0-.15.62-.28,1.37-.29ZM510.6,25.32c.85.08.98.2.91.83-.1.97-.2,1.04-1.12.81-.58-.14-.78-.39-.78-.97,0-.69.1-.77.99-.68ZM505.05,25.59c.17,0,.31.14.31.3,0,.17-.14.3-.3.3-.17,0-.3-.14-.31-.3,0-.17.14-.3.3-.3ZM502.93,25.34c.38.05.76.28.83.5.09.28-.09.37-.56.31-.38-.06-.76-.28-.83-.51-.09-.28.09-.37.56-.31ZM489.84,30.04c.6-.65.73-.65,9.82-.58,5.06.04,9.55.06,9.97.05h0c.42-.01,1.04-.04,1.37-.05,2.05-.12,4.41.1,4.42.41,0,.25-.65.29-2.26.15-1.41-.12-2.33-.08-2.45.11-.11.18-1.14.25-2.54.17-2.71-.16-9.05-.23-13.95-.15-3.29.05-3.39.08-3.72.82-.39.86-1.27,1.03-1.27.25,0-.28.27-.81.61-1.17ZM75.48,24.08c-1.67,0-2.44-.1-2.31-.31.18-.29,4.33-.12,4.68.19.07.06-1,.11-2.38.12ZM78.02,82.73c.07.06-.38.11-.99.11s-1.12-.13-1.12-.29c0-.26,1.76-.11,2.11.18ZM62.62,65.44c1.54-.45,1.59-.52,2.17-2.63.1-.35,1.07-.4,5.45-.29,3.62.09,5.45.25,5.7.5.29.29-.2.33-2.3.16-2.21-.17-2.76-.12-3.2.27-.29.26-1.13.52-1.87.58-.74.06-1.39.24-1.45.41-.06.17.86.91,2.04,1.64,1.18.73,2.14,1.48,2.14,1.66,0,.18.09.66.2,1.06l.2.73-2.1-.18c-6.22-.53-9.61-1.36-9.82-2.39-.11-.56.31-.79,2.83-1.53ZM62.29,82.5c-.54.07-1.43.07-1.98,0-.54-.07-.1-.12.99-.12,1.09,0,1.53.05.99.12ZM57.65,82.05c.59,0,.83.06.53.14-.29.08-.77.08-1.06,0-.29-.08-.05-.14.53-.14ZM56.79,102.38c-.36-.23-.28-.29.36-.3.45,0,.9.13,1.01.3.24.39-.77.39-1.37,0ZM76.32,95.77c-3.68-.25-4.45-.07-4.18.99l.19.76-1.76-.2c-.97-.11-2.79-.23-4.05-.27-4.43-.15-12.67-.79-15.68-1.2-1.68-.23-4.96-.49-7.31-.57-12.64-.44-17.2-.87-17.21-1.64,0-.65.92-.96,1.89-.66.55.18,1.81.31,2.79.3h1.79s-.76-.83-.76-.83c-.88-.94-1.58-2.18-1.23-2.18.13,0,.69.27,1.23.6.54.33.99.74.99.91,0,.47,1.2.36,1.72-.15.61-.61,6.04-.64,8.69-.05,1.86.42,5.63.55,13.76.48,2.88-.02,4.15.08,4.78.41.47.24,1.63.44,2.57.44,1.04,0,2.64.3,4.05.78,1.96.65,3.09.81,6.98.94,2.55.09,4.64.26,4.65.38,0,.75-1.01.95-3.89.75ZM81.85,83.13c-.65.13-2.46-.06-2.89-.32-.59-.34,1.35-.33,2.43.01h0c.42.13.63.27.46.3ZM153.66,14.4c-.42-.12.47-.15,1.98-.07,1.51.08,2.95.27,3.2.41.53.29-4.03,0-5.18-.34ZM440.46,74.21c.32-.01.5.06.4.16h0c-.1.1-.36.11-.58.02-.24-.1-.17-.17.18-.18ZM420.65,33.63c.21-.22,7.77-.08,14.89.26,3.97.19,4.58.36,4.27,1.18-.17.45-.49.5-2.4.33-1.21-.1-5.16-.24-8.78-.3-7.19-.12-8.98-.45-7.98-1.46ZM426.8,74.69c-1.42-.22-1.52-.28-1.28-.9.22-.57,3.08-.68,3.42-.13.4.64-.84,1.23-2.14,1.03ZM415.89,73.23c.18.55-1.43.7-2.54.23-.56-.23-1.02-.5-1.02-.59,0-.32,3.46.02,3.57.35ZM410.07,71.92c.1.1.11.36.03.58-.1.24-.17.17-.18-.18-.01-.32.06-.5.16-.4ZM406.66,71.37c.35.09.94.17,1.32.17.38,0,.68.15.69.33,0,.18-.5.31-1.14.28-1.63-.07-1.77-.03-1.35.38.44.44.48.85.07.85-.16,0-.45-.28-.63-.63-.44-.82.16-1.62,1.05-1.38ZM395.28,33.09c.77.29.24.73-.9.73-.73,0-1.05-.14-1.05-.45,0-.47,1.05-.62,1.95-.28ZM385.91,70.39c2.49,0,4.1.11,4.47.35.42.26.78.27,1.29.04.44-.2,1.33-.24,2.38-.09.92.13,2.47.24,3.45.25,1.66.02,1.77.06,1.68.7-.08.6-.27.69-1.47.68-2.75-.01-7.64-.42-8.98-.76-.95-.24-1.49-.25-1.76-.03-.52.43-5.01.28-5.48-.18-.71-.7.43-.95,4.42-.97ZM379.28,71.01c.34-.15.64-.27.68-.29.04-.01.08.11.08.28,0,.17-.31.3-.68.29-.65-.02-.66-.03-.08-.28ZM311.9,24.44c1.82.11,4.55.25,6.05.32,1.51.07,3.05.13,3.43.13.39,0,.68.19.69.43,0,.36-.87.41-5.4.28-6.17-.17-7.74-.36-7.93-.95-.12-.34.43-.38,3.17-.22ZM311.55,74.25c-.39-.25-.39-.29.06-.3.28,0,.6.13.71.3.24.38-.16.39-.76,0ZM302.91,61.92c.63.11,1.76.26,2.51.34h0c2.21.24,2.74.41,2.74.89,0,.55.16.54-2.19.03-1.06-.23-2.44-.51-3.07-.61-.63-.11-1.14-.34-1.14-.52,0-.21.41-.25,1.14-.13ZM300.89,73.07c.34,0,.61.14.61.3,0,.17-.27.3-.61.3-.34,0-.61-.13-.61-.3,0-.17.27-.3.61-.31ZM292.24,73.09c-1.21,0-2-.25-2.01-.64,0-.32.35-.33,1.9-.08,1.43.23,1.5.71.1.72ZM290.2,70.65c-.87-.46-1.9.16-1.63.99.13.42.09.56-.14.42-.19-.11-.34-.39-.34-.62,0-.6-1.75-1.14-2.47-.75-.74.4-.74.9,0,.9.69,0,1.39.75,1.11,1.2-.3.5-.93.38-1.53-.29-.3-.33-.74-.61-.96-.61-.48,0-.55-.49-.11-.76.49-.3.35-.71-.31-.91-.73-.23-.48-.85.26-.64.28.08,2.39.3,4.7.5h0c2.3.2,4.19.48,4.19.62,0,.36-2.05.33-2.76-.05ZM267.14,23.02c.65.09,2,.25,3.01.35,2.36.23,5.05.33,14.01.55,8.1.2,8.68.26,8.68.91,0,.43-.68.59-2.28.55-13.47-.32-17.66-.62-22.61-1.58-1.9-.37-2.59-1.03-.81-.77ZM272.97,28.76c-.15.43-2.02.36-2.49-.09-.18-.17.28-.28,1.17-.28,1.03,0,1.42.11,1.33.38ZM254.64,57.19c1.72.12,4.63.26,6.47.31,8.09.24,9.9.33,12.48.62,1.69.18,2.88.19,3.11.02.21-.16.8-.18,1.37-.04.55.13,1.76.28,2.68.32,1.57.07,4.21.25,5.12.34.72.07.04.65-.79.68-.48.01-.63.1-.36.2.57.21.92.73.73,1.06-.28.46-2.09.25-4.23-.5-1.44-.5-2.48-.69-3.21-.57-.77.12-1.19.04-1.48-.3-.34-.41-1.07-.45-5.16-.29-3.83.15-5.85.06-10.25-.46-3.02-.35-5.69-.64-5.94-.64-1.44.03-3.65-.35-3.65-.63,0-.23.96-.26,3.12-.11ZM282.92,71.53c0,.67-.08.69-2.05.61-1.82-.08-2.05-.15-2.06-.69,0-.4-.24-.64-.69-.71-.55-.08-.79.13-1.14.99-.25.6-.5,1.09-.56,1.09-.34,0-3.21-1.38-3.96-1.91-1.45-1.01-.47-1.4,3.58-1.4,2.84,0,3.55.1,4.39.61.83.5,1.08.54,1.47.21.57-.47,1.02.05,1.03,1.18ZM270.43,69.8c-1.1.36-2.43.36-2.44,0,0-.17.71-.29,1.6-.28,1.26.02,1.44.08.84.27ZM265.26,70.27c0,.27-.18.38-.46.27-.25-.09-.46-.3-.46-.45,0-.15.21-.27.46-.27.25,0,.46.2.46.45ZM258.56,71.61c.56-.19,3.96.09,3.97.33,0,.33-2.65.67-3.53.45-.75-.19-.97-.59-.43-.78ZM258.25,69.45c0-.4,3.61-.09,4.05.35.24.24.04.33-.72.33-1.65,0-3.33-.34-3.34-.68ZM245.77,74.14c.33,0,.68.14.78.3.11.17-.15.3-.59.31-.43,0-.78-.14-.78-.3,0-.17.26-.31.59-.31ZM225.71,57.15c.49.22.04.25-1.59.12-1.25-.1-2.49-.31-2.74-.47-.6-.39,3.37-.07,4.33.35ZM208.52,72.35c.25-.4,16.84-.12,17.26.29.55.54-2.4.7-9.62.52-4.05-.1-7.47-.25-7.6-.33-.13-.08-.15-.29-.04-.47ZM267.87,79.3c-1.17-.2-3.43-.57-5.03-.8-1.59-.24-3.29-.52-3.78-.63-.8-.18-.87-.14-.71.46.17.64.11.66-1.24.48-.78-.1-2.07-.39-2.86-.64-1.85-.58-2.8-.45-2.92.41-.09.63-.2.65-2.43.5-1.29-.09-2.59-.29-2.9-.45-.39-.2-.78-.14-1.3.21-.59.39-.99.43-1.88.2-1.97-.5-8.96-1.28-11.26-1.26-1.21.01-2.74-.17-3.4-.4-.66-.23-1.28-.33-1.38-.23-.35.35-3.74.09-4.59-.34-.57-.29-1.07-.35-1.54-.17-.4.16-2.01.13-3.84-.05-2.75-.28-3.59-.54-3.6-1.15,0-.3,5.67-.33,7.25-.03,1.05.2,1.82.2,2.17.01.3-.16,3.16-.33,6.35-.37,3.19-.04,5.75-.17,5.68-.28-.07-.11-1.61-.38-3.41-.58-3.94-.45-5.97-1.31-4.58-1.94.53-.24,6.98.11,7.55.41h0c.26.14.67.64.92,1.11.76,1.46,1.63,1.76,1.92.66.13-.52.31-.6.87-.44.39.12,1.26.33,1.94.47.68.14,1.36.29,1.52.34.16.04.79-.02,1.4-.14.63-.13,1.47-.08,1.97.1.48.18,3.75.38,7.27.45,3.69.07,7.49.31,8.99.57,1.42.25,4.37.65,6.55.88,2.18.24,4.78.57,5.79.73,1.01.16,2.58.38,3.5.48,2.24.24,2.74.4,2.74.89,0,.79-8.13,1.17-11.72.55ZM320.33,80.12c-1.56-.07-4.2-.16-5.88-.21-7.37-.22-13.1-.51-13.38-.68-.16-.1-1.54-.28-3.05-.41-1.52-.12-4.95-.51-7.63-.86-2.68-.35-5.83-.75-7.01-.89-2.57-.31-4.39-.75-4.78-1.14-.16-.16-.88-.22-1.61-.14-.73.08-2.19.01-3.25-.16-1.06-.17-3.54-.48-5.49-.69-1.96-.21-3.5-.48-3.42-.61.08-.13,2.08-.22,4.46-.21,3.83.01,4.5.1,5.94.73h0c.89.39,1.86.71,2.15.7.49-.01.49-.03,0-.41-.29-.22-.53-.48-.53-.58,0-.35,4.43.17,4.9.58.31.27,1.9.52,4.42.71,2.16.16,5.07.44,6.46.62,1.39.18,2.61.26,2.69.17.4-.4-.31-.74-1.86-.89-3.52-.35-2.26-.67,3.33-.85,5.73-.18,5.79-.17,6.58.53.74.66.96.69,3.27.49,2.43-.21,2.9-.06,2.15.7-.58.58.04,1.08,1.1.9,1.18-.2,6.52.43,10.35,1.21,1.95.4,2.77.7,2.84,1.04.08.42-.28.46-2.74.36ZM342.86,85c-.1.1-.36.11-.58.02-.24-.1-.17-.17.18-.18.32-.01.5.06.4.16ZM353.9,85.58c-2.59.02-5.1.15-5.56.28-.83.23-1.75-.18-1.75-.79,0-.16,2.57-.23,6.09-.17,3.35.06,6.06.22,6.01.37-.04.15-2.2.29-4.79.31ZM364.62,85.97c-3.62.01-4.33-.19-3.19-.9.76-.47,5.88-.11,6.46.46.39.38-.05.43-3.27.44ZM369.27,82.4c-2.35-.06-7.35-.15-11.11-.2-3.77-.05-8.08-.23-9.59-.4-1.51-.17-4.39-.44-6.4-.6-10.22-.83-18.47-2.01-19.18-2.76-.23-.24.33-.28,1.97-.15,1.26.1,4.34.26,6.85.35,2.51.09,4.91.17,5.33.16.42,0,2.06.13,3.66.3,1.59.17,3.71.28,4.72.25,1-.03,4.36.14,7.46.38,12.81.98,16.24,1.1,17.32.56.77-.39,1.5-.46,3.33-.31,1.29.1,5.41.24,9.15.31,9.01.17,16.49.86,16.72,1.55.13.4-.78.38-9.21-.22-3.79-.27-8.04-.08-14.46.64-1.26.14-4.2.21-6.54.15ZM401.81,85.73c-.12.32-.59.39-1.88.29-6.26-.5-13.79-.62-18.47-.3-3.85.26-3.71.26-6.01.04-2.06-.2-2.05-.72.02-.73.79,0,1.59-.11,1.78-.23.57-.37,14.88-.24,18.66.16,1.91.2,3.86.29,4.34.2,1.09-.22,1.78.04,1.58.59ZM411.5,86.99c-1.28.02-2.74-.09-3.24-.23-.5-.15-1.98-.44-3.28-.64-3.92-.62-2.8-.96,2.43-.74,2.64.11,5,.26,5.25.33.25.07.62.38.81.69.33.53.21.56-1.98.6ZM421.49,86.72c-.51,0-1.16.15-1.45.33-.39.24-.77.22-1.44-.07-.5-.22-1.59-.4-2.41-.4-.82,0-1.54-.14-1.6-.31-.15-.43,1.7-1.03,2.64-.85.42.08,1.76.21,2.97.3,1.61.11,2.21.27,2.21.58,0,.27-.34.42-.92.43ZM421.34,73.97c-.78-.85-.08-.99,2.48-.47.38.07.69.34.69.59,0,.71-2.5.61-3.17-.12ZM431.57,89.07c-.18.06-.33-.12-.33-.4,0-.28.15-.46.33-.4.18.06.33.24.33.4s-.15.34-.33.4ZM453.46,87.57c-1.19-.18-2.27-.27-2.4-.19-.27.17-11.78.25-15.71.11-1.51-.05-3.22-.25-3.81-.44-.6-.19-1.69-.26-2.5-.15-1.72.23-5.42-.11-5.42-.5,0-.15.31-.28.68-.29.38,0,.89-.14,1.14-.31.25-.17.73-.24,1.07-.17.34.08,4.45.21,9.14.29,4.77.09,8.88.29,9.34.47.51.2,1.02.21,1.37.04.32-.16,1.7-.19,3.15-.07,1.42.11,3.58.14,4.8.04,1.84-.14,2.21-.09,2.21.3,0,1-.77,1.22-3.05.87ZM668.48,57.39c-.1.17-.45.3-.78.31-.32,0-.59-.14-.59-.3,0-.17.35-.31.78-.31.44,0,.7.13.59.3ZM705.51,58.29c-.16.16-.53.21-.81.1-.42-.16-.44-.28-.13-.65.29-.35.47-.38.81-.1.28.23.33.46.13.65ZM755.75,58.97c-.17,0-.39-.13-.49-.3-.1-.17-.05-.31.11-.31.17,0,.39.14.49.3.1.17.05.3-.11.3ZM759.21,60.24c-.24.24-1.66-.1-1.66-.4,0-.35,1.43-.36,1.65-.01h0c.09.15.09.33.01.41ZM777.36,63.17c-.18,0-.32-.14-.32-.3,0-.17.06-.3.13-.3.07,0,.22.14.32.3s.04.3-.13.3ZM787.61,60.89c-.1.1-.36.11-.58.03-.24-.1-.17-.17.18-.18.32-.01.5.06.4.16ZM828.17,59.97h0c.36.23.29.34-.37.59-.86.33-2.66-.07-2.67-.6,0-.36,2.46-.35,3.03,0ZM820.18,59.51c.08.08.06.29-.05.47-.25.41-7.06.46-7.31.06-.39-.64,6.74-1.15,7.36-.53ZM807.63,59.54c.45-.33,1.01-.4,2.13-.25.84.11,1.58.25,1.65.32.46.42-2.92.96-3.84.6-.52-.2-.52-.24.06-.67ZM800.4,58.95c2.74.1,3.08.18,4.41,1.07.79.53,1.51,1.08,1.6,1.23.19.31,3.48.43,7.31.27,1.51-.06,3.36-.09,4.11-.06,2.48.09,11.07.29,13.55.32,3.28.03,8.14.56,8.51.92.34.33.4.32-2.94.47-1.3.05-2.98.34-3.74.63-1.22.47-1.75.49-4.34.21-1.62-.18-3.36-.3-3.87-.28-.5.02-3.7.02-7.11,0-5.91-.04-6.2-.07-6.36-.65-.13-.49-.41-.6-1.42-.59l-1.26.02.92.42c1.02.46.9.53-1.06.62-6.25.28-10.66.04-10.66-.59,0-.47,1.06-.88,1.53-.59.18.11.65-.02,1.06-.29.41-.27,1.21-.49,1.79-.49,1.32,0,1.57-.36.75-1.1-.49-.44-1.02-.55-2.37-.47-1.81.09-3.39-.3-3.39-.84,0-.2,1.05-.28,2.97-.21ZM789.95,60.16c.43-.34.78-.84.78-1.11,0-.33.27-.49.84-.5.46,0,1.04-.14,1.29-.3.57-.37.93-.26,1.35.4.41.65-.1,1.03-1.74,1.31-.65.11-1.1.34-1.03.53.16.46,3.17.24,4.23-.31.75-.39.93-.37,1.83.17.55.33.97.69.93.79-.04.1-.96.22-2.03.26-1.08.04-2.14.22-2.36.4-.29.24-.95.21-2.34-.07-2.43-.5-2.75-.79-1.74-1.59ZM784.52,57.91c.22-.35,2.48-.31,2.7.05h0c.1.17.66.3,1.24.3,1.1,0,1.48.68.57,1.03-1.75.68-5.14-.37-4.51-1.39ZM782.64,60.11c.27,0,.48.22.48.48,0,.54-.65.45-.84-.12-.07-.2.1-.36.36-.36ZM774.99,57.27c.23-.6.6-.61,2.51-.06h0c.83.24,2.15.52,2.95.64,1.6.23,1.72.4.85,1.19-.49.45-.76.48-1.53.22-.52-.18-1.14-.52-1.38-.76-.29-.29-.84-.39-1.59-.3-1.33.16-2.08-.22-1.81-.92ZM773.24,57.71c.79,0,.83.05.34.34-.4.23-.66.23-.9,0-.25-.24-.09-.33.56-.33ZM761.52,56.23c.41-.17,1.22-.23,1.81-.13.59.1,2.23.22,3.65.26,3.54.12,4.44.41,4.33,1.42-.11,1.04.26,1.22,2.65,1.28,2.25.06,3.38.33,3.38.8,0,.38-6.66.07-8.14-.38-.57-.17-1.15-.63-1.37-1.09-.37-.76-.51-.8-3.28-.89-1.99-.07-3.03-.23-3.33-.53-.38-.38-.34-.48.3-.74ZM760.84,58.68c.98-.72,1.51-.5.77.32h0c-.79.88-.28,1.05,3.65,1.28,5.8.34,7.95.51,8.19.66.12.08,2.05.21,4.27.29,3.62.13,4.64.19,5.94.35.21.03.38.18.38.35,0,.19-1.67.3-4.49.29-2.47,0-4.72.08-5,.19-.28.11-.81.04-1.18-.15-.37-.2-1.17-.41-1.78-.46-.61-.06-2.47-.25-4.15-.43-1.67-.18-3.93-.35-5-.38-1.85-.05-1.97-.1-2.18-.89-.19-.69-.09-.93.58-1.42ZM727.77,54.69c.38-.09,1.91-.18,3.4-.2,1.5-.02,2.75-.07,2.79-.11.08-.08,3.26,0,8.65.18,1.93.07,4.46.27,5.63.45,1.17.18,2.31.25,2.54.17.61-.23,8.67.7,9.01,1.04.34.34-.6,1.19-1.34,1.21-.25.01-1.4-.25-2.54-.58-2.45-.69-8.51-.94-9.08-.37-.24.24-.53.26-.9.06-.71-.38-5.23-.15-5.37.27-.06.18.04.41.22.52.56.35.35.77-.4.77-.88,0-1.49-.65-1.23-1.33.12-.3.03-.5-.22-.52-.23-.01-1.99-.15-3.91-.31-1.93-.16-4.5-.36-5.71-.44-2.19-.15-2.84-.49-1.53-.81ZM744.54,57.63c.03.17-.18.35-.47.4-.33.07-.53-.08-.53-.4,0-.53.9-.54,1,0h0ZM742.62,57.77h0c0,.41-.55.7-.92.48-.17-.1-.23-.32-.14-.47.23-.37,1.05-.37,1.05,0ZM731.11,57.94c-.38.24-2.49-.15-2.49-.46,0-.36,2.35-.35,2.58.01h0c.1.16.06.35-.09.45ZM674.98,43.22c.41-.5.96-.57,2.06-.28,1.09.29.8.67-.7.89-1.55.24-1.93.07-1.36-.62ZM661.13,48.58c.07,0,.22.14.32.3s.04.3-.13.3c-.18,0-.32-.14-.32-.3,0-.17.06-.3.13-.3ZM638.58,42.89c.32-.01.5.06.4.16-.1.1-.36.11-.58.03-.24-.1-.17-.17.18-.18ZM601.65,47.54c.14,0,.33.13.43.29.2.32-1,1.08-1.28.81-.2-.2.49-1.1.85-1.1ZM580.52,48.71c.32-.32.95-.24,1.08.14.06.19.44.36.84.38.4.02.78.21.85.42.09.27-.32.38-1.42.38-1.3,0-1.55-.08-1.55-.55,0-.31.09-.65.2-.76ZM576.47,49.3c.48.07,1.19.14,1.57.14.82,0,2.66,1.43,2.4,1.87-.11.18-.38.12-.69-.15-.96-.85-3.27-.77-3.55.11-.1.34-.4.61-.66.61-.26,0-.81.28-1.23.61-1.16.92-1.52.36-.43-.66.55-.51.95-1.2.95-1.61,0-.85.44-1.1,1.63-.92ZM561.52,48.17c1.29-.24,13.93-.22,13.93.03,0,.14-.2.42-.45.63-.37.3-.61.28-1.23-.13-.74-.48-.83-.47-1.85.16-.76.47-1.03.83-.93,1.23.08.31-.03.71-.25.89-.3.26-.6.08-1.26-.76l-.87-1.09-3.51.09c-1.93.05-3.68-.02-3.88-.14-.58-.36-.45-.75.31-.89ZM542.26,48.62c.6-.39,2.13-.4,2.13,0,0,.17-.58.3-1.29.3-.95,0-1.17-.08-.84-.3ZM534.96,50.47c.17,0,.3.06.3.13s-.14.22-.3.32c-.17.1-.3.04-.3-.13,0-.18.14-.32.3-.32ZM517.29,48.84h0c.3.36.29.49-.05.62-.63.24-2.77-.26-2.92-.69-.19-.56,2.49-.49,2.97.07ZM465.24,76.78c.09.27-.32.38-1.42.39-.85,0-1.55-.12-1.55-.28,0-.66,2.76-.75,2.97-.11ZM478.96,89.02c-.12-.01-.63-.02-1.13-.02-.61,0-.91-.15-.91-.45,0-.31-.35-.47-1.07-.51-.59-.02-1.29-.06-1.57-.07-.32-.01-.53.23-.56.66-.03.38-.14.78-.25.89-.11.11-1.36,0-2.77-.24-1.41-.24-2.84-.34-3.18-.21-.95.35-5.38-.13-5.28-.57.05-.25-.38-.37-1.32-.37-1.14,0-1.56-.16-2.31-.9-.5-.5-.83-1.05-.72-1.22.22-.36,1.77-.42,2.11-.08h0c.34.34,4.22.51,8.04.37,2.46-.09,2.34-.13,2.63.82.19.61.11.68-.72.69-1.15,0-1.27.78-.15.99,1.28.24,3.43-.12,3.62-.61.11-.28-.06-.51-.44-.61-1.21-.31-.58-.7,1.14-.69.96,0,2.02-.03,2.36-.08.46-.07.63.11.71.75.09.74.23.84,1.17.83.63,0,1.03.13.96.32-.06.18-.21.32-.33.3ZM480.71,86.57c.16-.26,1.07-.12,1.07.17,0,.07-.28.12-.63.12-.34,0-.55-.13-.45-.29ZM483.31,88.66c0,.5-.61.69-1.46.46l-.82-.23.91-.22c1.33-.32,1.37-.32,1.37-.01h0ZM483.73,86.59c.19-.3,2.83-.17,3.21.16.29.25-.77.7-1.66.7-1.1,0-1.83-.4-1.55-.86ZM499.88,89.33c-.87-.2-2.27-.22-3.73-.06-3.03.33-11.07-.01-11.23-.48-.08-.25,1.09-.33,4.18-.3,2.36.02,4.36-.07,4.45-.21.08-.14.26-.18.4-.09.14.08,1.7.17,3.48.19,2.09.02,3.42.17,3.76.43.85.62.21.88-1.31.53ZM495.09,87.02c.08.24-.3.33-1.19.27-1.68-.11-1.7-.11-1.16-.47.59-.39,2.2-.26,2.35.2ZM494.1,82.56c.1-.17.51-.31.91-.31s.81.13.92.3c.11.18-.26.3-.91.31-.66,0-1.03-.12-.91-.3ZM503.05,82.97c-.23-.14-.21-.29.08-.47.54-.35.87-.34.87.01,0,.42-.56.69-.95.46ZM507.95,82.82c-.6.39-2.43.4-2.44,0,0-.17.65-.3,1.44-.3,1.05,0,1.32.08.99.3ZM547.69,85.75c-.25,0-.46-.14-.46-.3s.2-.31.46-.31c.25,0,.46.14.46.3,0,.17-.2.31-.45.31ZM570.93,85.69c-.49,0-1.17.15-1.5.33-.43.23-.9.23-1.63-.01-.56-.18-2.51-.39-4.32-.45-3.95-.14-6.39-.43-5.96-.7.26-.16,13.99-.29,14.8-.14.63.12-.58.97-1.39.97ZM591.69,85.98c-6.06.06-7.55.12-7.78.35-.49.48-.67-.12-.28-.92l.42-.84,4.93.05c4.56.05,4.98.1,5.57.69l.64.64-3.5.03ZM610.57,86.3c-.75,0-2.74-.1-4.42-.23-1.68-.13-4-.26-5.18-.28-1.17-.02-2.34-.17-2.59-.32-.83-.51,1.74-1.07,4.11-.9,1.17.09,2.75.18,3.5.2h0c.75.02,2.4.02,3.65-.01,4.45-.1,10.21.07,10.6.31,1.26.77-1.96,1.19-9.68,1.24ZM627.46,85.83c-.16.27-.79.31-2.25.16-2.21-.23-2.57-.35-2.31-.78.22-.36,3.8-.38,4.36-.02.23.15.32.43.19.64ZM647.96,59.23c-1.03.15-2.06-.18-2.27-.73-.32-.82.12-1.11.9-.6.4.26,1.08.47,1.52.47.98,0,.86.71-.14.86ZM659.74,60.77c-.86,0-3.12-1.49-2.77-1.82.69-.65,2.23-.53,2.24.18,0,.23.28.59.61.8.81.5.77.84-.08.84ZM659.51,56.5c-.16.69-.35.77-1.91.86-1.78.1-2.97-.28-2.97-.95,0-.35-1.65-.39-5.18-.12-.25.02-1.08-.07-1.84-.19-1.09-.18-1.47-.12-1.79.26-.54.65-1.11.61-1.85-.12-.87-.86-1.58-.8-1.35.12.17.67.08.74-1.09.85-2.08.2-3.39-.04-3.28-.61.07-.38.38-.48,1.31-.41.91.06,1.1,0,.76-.23-.25-.17-1.17-.31-2.04-.31-1.4,0-1.59.08-1.67.68-.06.46-.4.76-1.05.95-.55.16-1.1.59-1.29,1.02-.36.8-1.01.69-.88-.15.09-.57.02-.57-3.09-.05-1.32.22-2.06.22-2.27.02-.17-.17-1.41-.32-2.76-.34-3.84-.04-6.35-.35-6.49-.8-.1-.31.14-.35,1.04-.18.65.12,1.38.2,1.63.17.25-.02,1.48-.05,2.74-.05,1.26,0,2.48-.14,2.73-.3.32-.21.62-.14,1.02.22.53.48.59.48,1.01-.09.4-.55.37-.62-.41-.84-.47-.13-2.63-.28-4.81-.33-5.81-.12-5.87-.13-5.83-.55.02-.21-.08-.42-.24-.46-.39-.11-.51,1.44-.16,2.08.21.39.15.58-.19.71-.26.1-.62.1-.79,0-.17-.11-3.36-.16-7.08-.12-6.89.07-8.1-.08-8.88-1.1-.36-.47-.4-.47-.41-.02,0,.28-.32.58-.69.67-.86.21-4.06.03-4.53-.26-.19-.12-2.08-.23-4.19-.24-2.98-.02-3.92.07-4.18.41-.29.37-.52.36-1.6-.07-.7-.28-1.55-.5-1.9-.5-.99,0-.49-.76.51-.79,2.6-.08,3.17-.17,3.17-.47,0-.24-.89-.28-2.93-.14-1.97.13-3.27.08-3.95-.17-.56-.2-1.12-.26-1.25-.13-.31.31.77,1.09,1.82,1.3.46.09.76.28.68.41-.15.25-6.44.18-12.8-.14-2.11-.11-3.88-.04-4.74.18-1.03.26-1.98.26-3.79.01-1.33-.19-5.55-.39-9.4-.45-3.84-.06-7.11-.23-7.26-.38-.15-.15-1.06-.2-2.02-.11-1.92.18-3.14-.24-3-1.04.06-.36-.25-.57-1.12-.75-.66-.14-1.39-.18-1.62-.09-.62.24-.13.77.71.77.46,0,.74.17.74.45,0,.25-.03.46-.08.47-.04,0-1.11.09-2.39.18-2.13.16-2.38.11-3.2-.57-.8-.67-1.86-1.02-3.63-1.21-.42-.04-.64.14-.7.62-.12.83-1.11.93-1.94.18-.49-.45-.65-.45-1.37-.07-.82.44-4.39.5-5.07.08-.19-.12-1.45-.23-2.8-.26-3.31-.06-6.49-.37-9.55-.91-1.4-.25-2.86-.37-3.25-.27-.39.1-2.05.05-3.7-.1-1.65-.16-5.32-.35-8.17-.44-2.85-.09-6.27-.3-7.61-.47s-3.53-.37-4.87-.44c-2.86-.15-3.81-.32-3.81-.7,0-.16,3.78-.2,9.21-.1,5.07.1,11.13.17,13.47.17h4.26s.4-.85.4-.85c.24-.51.64-.84,1.02-.84.52,0,.59.14.43.84l-.18.85h2.3c1.38-.01,2.26-.13,2.19-.31-.06-.17-.72-.26-1.47-.21-.92.06-1.49-.06-1.75-.36-.48-.57-.06-.86,1.63-1.15,2.12-.36,2.9-.31,3.09.19h0c.11.28-.06.66-.39.9-.47.35-.5.5-.17.82.28.29,1.57.41,4.51.43,3.42.03,4.21.12,4.7.56.41.37.83.46,1.43.31,2.14-.53,4.06-.71,5.27-.49.82.15,2.27.08,3.87-.18,2.52-.41,3.75-.37,5.26.19.57.21,1.23.12,2.51-.32,1.71-.59,1.77-.6,3.46-.04,1.02.33,2.13.49,2.73.39,1.33-.22,3.09.6,3.22,1.5.16,1.1,1.88,1.34,6.95.97,1.59-.12,3.99-.2,5.33-.17,2.08.03,2.51.13,2.93.67.64.82,1.63.52,1.39-.42-.16-.61-.1-.63,1.41-.42.87.12,1.72.2,1.88.18.17-.02,4.89-.12,10.5-.21,5.61-.09,10.78-.25,11.49-.36,1.28-.2,1.29-.19,1.3.71,0,.5.19.99.42,1.07.46.17,1.1-.33,1.1-.86,0-.18.43-.59.96-.9.92-.54.93-.59.38-.99-.32-.23-.82-.36-1.12-.28-.6.16-6.96-.33-7.18-.55-.08-.08.25-.45.73-.83.86-.69,3.1-1.24,4.85-1.2.5.01,2.08.04,3.5.05,1.42.02,2.76.17,2.97.34.28.22.55.17.94-.19.79-.71,1.77-.64,1.97.16.15.58.23.61.69.23.42-.35,2.3-.45,9.53-.54,7.69-.09,9.16-.18,10.01-.61.74-.38,1.08-.42,1.34-.17.26.26.24.46-.04.81-.34.42-.15.47,1.72.46,1.16,0,2.24-.14,2.4-.3.18-.19,1.04-.17,2.34.05,1.91.32,2.14.3,3.32-.34,1-.54,1.33-.6,1.52-.29.18.29,1.01.36,3.16.28,1.99-.08,3.05,0,3.36.26.25.2.45.24.45.08,0-.45,3.64-.4,5.18.07,1.09.34,1.74.35,3.2.08,2.13-.4,4.11-.38,5.26.05.45.17,2.19.3,3.87.29,3.66-.02,9.04.36,9.56.68.2.12.57.06.81-.14.26-.22.9-.3,1.58-.2.63.09,3.75.23,6.93.31,9.15.22,15.77.6,16.64.97.47.19,1.53.26,2.51.16,1.13-.12,1.85-.06,2.15.19.29.24.87.3,1.65.17.75-.13,1.78-.04,2.76.25,1.17.34,1.75.38,2.27.14.54-.25.93-.21,1.7.19.71.37,1.36.46,2.28.32.71-.11,2.5-.06,3.99.11,1.49.17,4.08.35,5.76.4,1.68.05,3.36.25,3.73.46.41.22,1.12.29,1.75.17,1.44-.27,3.19.08,3.19.64,0,.8-1.33,1.17-2.85.79-.75-.19-2.11-.34-3.02-.34-.91,0-2.09-.21-2.62-.48-.91-.45-1.02-.45-1.58.06-.66.6-.34,1.03.79,1.04.33,0,1,.21,1.48.46.48.25,1.17.45,1.52.45,1.1,0,2.02.35,2.02.75,0,.63,2.33.84,3.17.29.66-.43.77-.43,1.25.05.49.49.54.49.81.01.38-.68,1.07-.65,1.46.06.23.43.66.58,1.76.59.8,0,2.16.08,3.02.16,1.97.18,2.85-.04,2.85-.74,0-1.11,1.72-1.22,2.96-.18.78.65,1.2.74,3.91.79,3.25.06,4.16-.13,3.89-.81-.28-.73.84-.5,1.54.31.5.57,1.07.79,2.47.95,1.01.11,1.93.35,2.07.54.13.18.15-.04.04-.5-.25-1.07.35-1.11,1.82-.12,1.25.84,1.13,1.1-.48,1.1-.64,0-1.17.14-1.17.31,0,.44-.84.38-.99-.07-.08-.25-.85-.39-2.23-.41-1.16-.02-6.7-.11-12.31-.2-14.68-.23-17.88-.48-17.74-1.37.1-.64-1.68-1.12-3.08-.83-.68.14-1.38.12-1.72-.06-.31-.17-.95-.3-1.43-.31-.47,0-1.05-.12-1.29-.27-.44-.28-1.85.19-1.85.61,0,.12.82.32,1.83.43,1.01.11,1.9.31,1.97.44.29.47-2.16.59-3.8.19-.92-.22-1.44-.42-1.14-.44.89-.06.59-.8-.48-1.19-.56-.2-1.7-.36-2.53-.36-1.48,0-2.93-.63-2.47-1.08.12-.12,2.18-.09,4.57.08,4.22.3,5.1.26,5.1-.22,0-.23-2.33-.75-2.85-.64-.14.03-1.34-.09-2.66-.27-1.72-.23-2.74-.23-3.63.01-1.22.33-1.92.22-5.6-.91-.61-.19-1.19-.14-1.92.17-1.01.42-1.14,1.06-.22,1.06.43,0,.61.64.26.99-.1.1-.67-.03-1.27-.27-1.27-.53-4.76-.28-4.56.32.12.36.37.4,4.33.59,2.11.1,5.39.52,7.7.97,1.18.23.51.58-1.05.54-2.39-.06-7.12-.42-9.09-.69-1.49-.2-1.89-.16-2.19.22-.33.42-.49.42-1.63-.03-.78-.31-1.99-.48-3.14-.45-1.03.03-2.15-.02-2.48-.12-.6-.18-6.52-.57-7.53-.5-1.05.08-2.53.07-3.73-.03-1.01-.08-1.21-.2-1.15-.71.11-1-.52-1.92-1.19-1.75-.34.09-.87-.1-1.26-.45-.86-.78-1.8-1.25-2.53-1.28-.32-.01-4.21-.07-8.65-.12-4.44-.06-8.71-.19-9.5-.3-1.09-.15-1.65-.06-2.35.36-.89.53-.98.53-2.43,0-1.16-.42-1.65-.46-2.13-.2-.39.21-1.35.27-2.55.15-1.5-.15-2.15-.08-2.91.32-1.1.57-1.22,1.63-.17,1.43,1.44-.27,4.83-.33,5.13-.09.36.28,2.72.2,4.38-.15.7-.15,1.16-.07,1.52.25.37.33,1.25.47,2.96.5,3.07.04,6,.17,6.4.29.17.05.89.07,1.61.05,1.07-.03,1.35-.17,1.57-.76.35-.92,1.09-1.21,1.94-.75.64.34.63.36-.32.62-1.17.31-1.27.76-.25,1.15.68.26,2.56-.05,3.37-.56.17-.1.52-.15.79-.11.27.04.66-.13.87-.39.53-.65,1.12-.59,2.24.21.53.38,1.37.82,1.88.98.51.17.89.44.86.61-.08.38-2.81.83-3.44.57-.25-.11-1.42-.24-2.59-.3-1.17-.06-2.47-.14-2.87-.17-.57-.05-.79.11-.92.7ZM699.69,55.49c0,.16-.55.3-1.22.3-1.35,0-1.58-.35-.54-.83.71-.33,1.75-.01,1.75.53ZM662.67,53.78c-.1.16-.31.21-.47.11-.16-.1-.21-.31-.11-.47.1-.16.31-.21.47-.11.16.1.21.31.11.47ZM648.53,53.31c0,.6-1.47.91-2.05.44-.41-.34-.38-.41.26-.59,1.21-.34,1.79-.29,1.79.16ZM662.79,60.97c-1.55-.2-2.14-.7-1.74-1.46.32-.6,1.5-.82,1.5-.28,0,.17.21.3.46.3.25,0,.46-.2.45-.43,0-.63,1.04-1.02,1.35-.51.1.16-.1.37-.44.48-.74.24-.79.63-.12.89.41.16.43.26.09.67-.29.35-.73.44-1.57.33ZM665.87,93.94c-.74,0-1.44-.13-1.54-.3-.12-.19.4-.31,1.35-.31.85,0,1.54.13,1.54.3,0,.17-.61.31-1.35.31ZM668.13,93.93c-.34-.18-.54-.47-.43-.64.25-.41,2.95-.22,3.09.21.16.49-1.91.82-2.66.42ZM714.7,95.48c-1.55-.08-2.89-.22-2.97-.3-.33-.33,1.05-1.02,1.77-.88.42.08,1.44.24,2.26.35.82.11,1.56.38,1.63.59.1.3-.49.35-2.69.24ZM733.45,96.49c-1.12.07-3.92.03-8.07-.14-.92-.04-2.63-.08-3.81-.1-2.55-.04-3.36-.4-2.44-1.11.44-.34.94-.41,1.83-.26.67.11,1.77.24,2.44.29,1.94.13,7.76.74,9.59,1,1.61.23,1.63.24.46.32ZM759.35,97.91c-.34-.33,1.2-.37,4.17-.1,1.13.1,2.06.29,2.06.42,0,.33-5.87.02-6.23-.33ZM836.63,71.17c-.47.06-1.08.01-1.36-.1-.45-.18-.44-.23.1-.44.34-.13.95-.08,1.36.1l.76.33-.85.1ZM840.02,71.42c-.29.08-.77.08-1.07,0-.29-.08-.05-.14.53-.14.59,0,.83.06.53.14ZM861.53,73.09c-6.22.25-12.59-.27-12.14-1,.19-.3,12.46-.18,15.9.16,3.04.3,1.58.63-3.76.84ZM871.74,72.95c-.49,0-.9-.14-.9-.3,0-.17.49-.31,1.08-.31.64,0,1.01.12.9.3-.1.17-.59.31-1.08.31ZM949.78,98.05c-1.25.48-14.51.79-22.99.53-4.35-.13-13.74-.25-20.86-.27-11.52-.02-13.06-.08-14.01-.54l-1.07-.52,1.37.13c.75.07,1.82.04,2.37-.08.55-.12,3.98-.18,7.61-.15,3.63.04,7.29.03,8.13,0h0c2.34-.11,3.44-.09,10.79.27,7.46.36,25.69.45,26.22.12.18-.11.97-.11,1.75.01,1.31.2,1.37.24.67.51Z"/>
  <path class="uuid-eb7e5fa4-ead8-42bd-b3f5-efce7ac55a11" d="M670.68,53.64c.6-.04.92.13,1.14.62.25.56.55.68,1.69.68.76,0,1.54.15,1.72.33.5.5.8-.19.4-.93-.3-.56-.24-.62.61-.62.8,0,.93.1.85.68-.08.59.06.7,1.07.78,1.07.09,1.14.05.84-.5-.41-.77.05-.96,2.3-.97,1.66,0,3,.42,2.72.86-.2.33,1.59,1.33,1.96,1.1.17-.1.3-.45.3-.76,0-.72.52-1.06,1-.66.44.36,5.86.2,5.82-.17-.05-.35-2.04-.67-4.29-.68-1.04,0-2.26-.16-2.73-.33-.62-.23-1.03-.22-1.54.05-.56.3-1.18.27-3.24-.15-3.43-.71-9.49-.8-10.63-.15h0c-1.06.6-1.06.91,0,.83ZM684.92,54.3c.25,0,.46.14.46.3,0,.17-.2.31-.46.31-.25,0-.46-.14-.46-.3,0-.17.2-.31.46-.31ZM673.93,53.75c.32-.01.5.06.4.16-.1.1-.36.11-.58.03-.24-.1-.17-.17.18-.19Z"/>
  <path class="uuid-eb7e5fa4-ead8-42bd-b3f5-efce7ac55a11" d="M576.21,54.38c-.8-.03-1.31.06-1.21.23.1.16.4.2.67.09.29-.11.65.03.89.35.41.56,1.04.41,1.04-.24,0-.23-.53-.39-1.39-.43Z"/>
  <path class="uuid-eb7e5fa4-ead8-42bd-b3f5-efce7ac55a11" d="M522.05,53.17c-.37.37-.16.69.43.69.34,0,.61-.12.61-.27,0-.34-.79-.66-1.04-.42Z"/>
  <path class="uuid-eb7e5fa4-ead8-42bd-b3f5-efce7ac55a11" d="M592.69,52c-.13.34-.03.45.32.38.28-.05.56-.27.63-.48.18-.56-.74-.46-.96.1Z"/>
  <path class="uuid-eb7e5fa4-ead8-42bd-b3f5-efce7ac55a11" d="M606.23,55.14c-.99,0-1.89.14-2,.31-.12.19.56.3,1.81.3,1.13,0,2-.14,2-.31,0-.17-.81-.3-1.81-.3Z"/>
  <path class="uuid-eb7e5fa4-ead8-42bd-b3f5-efce7ac55a11" d="M210.24,13.51c-.22-.08-.73.04-1.12.26-.67.38-.63.4.69.45.77.03,1.4-.09,1.4-.26,0-.17-.13-.31-.28-.3-.15,0-.46-.06-.69-.14Z"/>
  <path class="uuid-eb7e5fa4-ead8-42bd-b3f5-efce7ac55a11" d="M145.13,10.75h0c0,.57,2.97.85,4.52.44.53-.14.61-.26.3-.45-.54-.34-4.82-.33-4.82.01Z"/>
  <path class="uuid-eb7e5fa4-ead8-42bd-b3f5-efce7ac55a11" d="M160.2,9.51c1.68.16,4.14.29,5.47.29,2.19,0,2.38-.04,1.95-.47-.71-.7-3.53-1.01-11.99-1.31-4.19-.15-8.37-.42-9.29-.61-.92-.19-3.88-.38-6.57-.42-2.69-.04-5.16-.14-5.48-.23-.32-.09-.88-.05-1.23.1-.36.14-1.62.36-2.81.48-1.19.12-2.09.32-2.02.44.07.12,2.85.31,6.16.41,3.31.11,7.94.32,10.29.48,2.34.16,6.11.34,8.37.42,2.26.07,5.48.27,7.16.43Z"/>
  <path class="uuid-eb7e5fa4-ead8-42bd-b3f5-efce7ac55a11" d="M167.92,4.82c-.22-.2-4.49-.47-11.96-.76-3.99-.16-7.36-.35-7.49-.42-.12-.07-2.68-.21-5.68-.3-3-.09-5.8-.22-6.22-.3-.42-.08-.96-.01-1.21.15-1.33.86,1.01,1.15,14,1.72,13.55.6,19.29.57,18.55-.09Z"/>
  <path class="uuid-eb7e5fa4-ead8-42bd-b3f5-efce7ac55a11" d="M258.7,13.97c1.93.06,4.6.19,5.94.28,1.34.09,4.77.23,7.61.31,8.71.24,11.41.33,15.68.51,2.26.1,7.06.24,10.66.31,3.6.07,8.88.19,11.72.26,2.85.07,9.49.18,14.77.24,5.27.06,15.21.2,22.07.31,10.39.17,18.13.19,23.44.07,4.85-.11,23.8.19,27.25.42,4.14.29,7.32.13,7.82-.38.12-.12-.25-.22-.83-.21-.58,0-2.36-.05-3.95-.12-5.56-.26-19.99-.5-25.73-.43-3.18.04-6.61-.04-7.61-.17-1.65-.21-1.38-.26,2.89-.52,2.59-.16,7-.27,9.79-.24,3.65.04,5.14-.05,5.3-.31.15-.25.03-.31-.42-.19-.35.09-2.26,0-4.23-.21-1.98-.21-3.7-.32-3.83-.24-.13.08-2.6.13-5.48.12-2.88-.02-7.37-.01-9.96,0-6.67.05-9.7-.04-13.25-.37-1.68-.16-2.98.14-2.54.58.1.1,2.16.24,4.58.32s4.8.27,5.29.43c.6.2-.82.23-4.28.1-2.85-.1-5.55-.16-6.01-.14-4.19.26-4.61.19-3.89-.69.44-.53,1.34-.48-11.26-.62-4.27-.05-11.67-.08-16.44-.08-4.77,0-9.29-.01-10.05-.03-4.99-.13-5.63-.08-5.59.47.04.46-.24.53-2.13.52-2.74-.02-4.21-.52-1.64-.56.96-.01,1.75-.15,1.75-.31,0-.79-5.14-.72-6.02.08-.74.67-1.48.67-1.86,0-.25-.44-.82-.55-3.29-.61-1.95-.05-2.84.02-2.57.21.62.42.18,1.39-.5,1.11-.29-.12-1.04-.32-1.66-.44-.62-.12-1.45-.43-1.85-.69-.96-.63-4.03-1-4.32-.53-.23.38-3.39.15-3.97-.29-.17-.13-3.32-.29-7-.37-3.68-.08-6.94-.23-7.23-.35-.68-.27-.7.33-.02.71.46.25.44.3-.11.48-.87.28-1.61-.08-1.94-.92-.26-.68-.41-.72-2.34-.64-1.13.05-3.36-.08-4.96-.28-1.59-.2-3.81-.4-4.93-.43-1.75-.06-2.14.03-2.77.62-.71.67-.74.68-1.46.12-.41-.31-1.15-.68-1.65-.82-.88-.24-10.99-.5-15.59-.4-1.21.02-3.37-.17-4.81-.44-1.44-.26-2.73-.41-2.87-.32-.14.09-1.88.02-3.87-.15-1.99-.17-4.49-.29-5.55-.26-1.06.02-2.61-.13-3.44-.34-1.33-.34-1.61-.32-2.41.16-.5.3-1.04.46-1.2.36-.16-.1-3.31-.24-7-.3-3.69-.07-8.08-.32-9.75-.57-3.29-.48-4-.5-6.1-.12-.75.14-1.81.18-2.34.09-.91-.15-.97-.1-.88.67.05.46.33.96.62,1.12.58.32,6.83.37,8.45.06.56-.1,2.59.08,4.51.41,1.93.33,4.19.67,5.03.76,1.58.17,12.21.77,16.44.92,1.34.05,5.04.27,8.22.49,3.18.22,10.65.42,16.59.45,5.95.03,11.49.09,12.33.14.84.05,4.13.24,7.31.43,3.18.19,7.36.39,9.29.46ZM361.27,14.73c1.51,0,2.83.13,2.93.3.12.19-.8.31-2.55.31-1.51,0-2.82-.13-2.93-.3-.12-.19.8-.31,2.55-.31ZM315.64,13.95c.84,0,1.52.13,1.52.3,0,.17-.68.31-1.52.31-.84,0-1.52-.13-1.52-.3,0-.17.68-.31,1.52-.31ZM311.15,13.99c.98-.02,1.75.1,1.75.27,0,.35-1.63.36-2.74,0-.58-.18-.35-.25.99-.28ZM302.32,13.99c.77,0,1.49.14,1.61.32.14.23-.25.26-1.28.12-1.94-.28-2.06-.43-.33-.44ZM299.02,14.02c.32-.01.5.06.4.16-.1.1-.36.11-.58.02-.24-.1-.17-.17.18-.18ZM208.32,10.6c-.07,0-.22-.14-.32-.3s-.04-.3.13-.3c.18,0,.32.14.32.3,0,.17-.06.3-.13.3Z"/>
  <path class="uuid-eb7e5fa4-ead8-42bd-b3f5-efce7ac55a11" d="M171.57.44c-.9-.38-12.2-.62-13.11-.28-.33.12-.53.35-.44.5.25.4,8.72.66,11.75.36,2.26-.22,2.49-.29,1.81-.58Z"/>
  <path class="uuid-eb7e5fa4-ead8-42bd-b3f5-efce7ac55a11" d="M245.7,17.41c.3.08.71.07.91-.01.21-.08-.04-.15-.54-.14-.5.01-.67.08-.38.15Z"/>
  <path class="uuid-eb7e5fa4-ead8-42bd-b3f5-efce7ac55a11" d="M805.95,62.32c.4-.4.26-.45-1.12-.45-.86,0-1.66.16-1.78.34-.57.94,1.98,1.03,2.9.1Z"/>
  <path class="uuid-eb7e5fa4-ead8-42bd-b3f5-efce7ac55a11" d="M917.92,51.61c1.92.3,6.62.58,6.44.38-.14-.15-6.2-1.1-7.02-1.09-.13,0-.31.12-.4.27-.09.15.35.35.98.45Z"/>
  <path class="uuid-eb7e5fa4-ead8-42bd-b3f5-efce7ac55a11" d="M872.83,41.48c-.45-.11-.9-.06-1.01.11-.11.18.27.3.95.3,1.27,0,1.28-.13.06-.42Z"/>
  <path class="uuid-eb7e5fa4-ead8-42bd-b3f5-efce7ac55a11" d="M467.51,87.51c-.34,0-.69.14-.8.31-.1.17.09.3.42.3.34,0,.69-.14.8-.31.1-.17-.09-.3-.42-.3Z"/>
  <path class="uuid-eb7e5fa4-ead8-42bd-b3f5-efce7ac55a11" d="M866.36,48.61c.87.37,2.97.36,2.74,0-.1-.17-.9-.29-1.77-.28-1.16.02-1.42.09-.97.29Z"/>
  <path class="uuid-eb7e5fa4-ead8-42bd-b3f5-efce7ac55a11" d="M907.87,52.35c.22.09.48.07.58-.03.1-.1-.08-.17-.4-.16-.35.02-.43.09-.18.19Z"/>
  <path class="uuid-eb7e5fa4-ead8-42bd-b3f5-efce7ac55a11" d="M901.83,49.79c0-.29-12.62-.99-16.14-.89-1.28.04-1.68.1-.91.15,3.34.2,11.66.69,14.24.84,1.55.09,2.82.04,2.82-.1Z"/>
  <path class="uuid-eb7e5fa4-ead8-42bd-b3f5-efce7ac55a11" d="M901.69,52.12c.69.02.8-.05.45-.27-.25-.16-1-.28-1.67-.26-1.06.02-1.12.06-.46.27.42.13,1.17.25,1.68.26Z"/>
  <path class="uuid-eb7e5fa4-ead8-42bd-b3f5-efce7ac55a11" d="M862.26,45.34c.91.13,1.38-.1.99-.49-.29-.29-1.55-.23-1.75.08-.09.15.25.33.76.4Z"/>
  <path class="uuid-eb7e5fa4-ead8-42bd-b3f5-efce7ac55a11" d="M862.4,48.92c1.27,0,1.95-.12,1.83-.31-.1-.17-.93-.3-1.83-.3-.9,0-1.72.14-1.83.31-.12.19.56.3,1.83.3Z"/>
  <path class="uuid-eb7e5fa4-ead8-42bd-b3f5-efce7ac55a11" d="M630.57,52.32c-.99.33-1.44.34-2.38.03q-1.33-.44-6.68-.18l-4.03.19-.5-.76c-.58-.88-.68-.9-1.49-.27h0c-.46.35-1.23.45-3.11.39-1.38-.04-2.58,0-2.67.1-.22.23-12.25.05-13.01-.19-.84-.26-2.73.72-2.61,1.34.08.42.39.49,1.69.4,1.28-.09,1.63,0,1.79.41.13.34.01.63-.34.83-.41.23-.45.36-.15.54.46.28,1.21.05,1.21-.38,0-.17.27-.65.61-1.08s.61-.64.61-.46c0,.52.84.68,1.79.34.68-.24,1.24-.2,2.3.16,1.53.51,5.95.64,5.95.17,0-.16-.24-.43-.53-.6-.44-.26-.36-.31.46-.32.91-.01.98.05.81.75-.24.98.22.98,1.28-.01.88-.82,1.85-1.18,2.74-1.01.38.07.56.41.6,1.12.03.56.29,1.24.58,1.52.49.47.51.45.31-.22-.24-.8.28-2.04.96-2.31.58-.23,1.92.69,1.92,1.31,0,.42.36.52,1.96.56,1.71.04,1.99-.02,2.15-.55.22-.69,1.22-.81,1.47-.18.21.55,3.59.59,6.14.07,1.36-.28,1.85-.51,1.93-.94.18-.98-.41-1.25-1.77-.8Z"/>
  <path class="uuid-eb7e5fa4-ead8-42bd-b3f5-efce7ac55a11" d="M633.77,55.67c-.11.18.26.3.91.3s1.03-.13.91-.31c-.1-.17-.52-.3-.91-.3-.4,0-.81.14-.91.31Z"/>
  <path class="uuid-eb7e5fa4-ead8-42bd-b3f5-efce7ac55a11" d="M631.18,55.67c-.17,0-.3.15-.3.32,0,.18.14.24.31.13s.3-.25.3-.32c0-.07-.14-.13-.3-.13Z"/>
  <polygon class="uuid-eb7e5fa4-ead8-42bd-b3f5-efce7ac55a11" points="861.5 44.93 861.5 44.93 861.5 44.93 861.5 44.93"/>
  <path class="uuid-eb7e5fa4-ead8-42bd-b3f5-efce7ac55a11" d="M909.53,50.52c.3.08.71.07.91-.01.21-.08-.04-.15-.54-.14-.5.01-.67.08-.38.15Z"/>
  <path class="uuid-eb7e5fa4-ead8-42bd-b3f5-efce7ac55a11" d="M5.79,47.26c-1.93-.1-4.32-.3-5.33-.45-.13-.02-.28-.04-.46-.06v2c.74.05.91.24,1.27.64.41.46,1.23.87,2.17,1.07,2.14.45,9.1.68,10.03.32.54-.21,1.64-.13,3.78.28,3.35.64,12.8,1.12,12.5.64-.1-.16-1.73-.38-3.62-.49-1.89-.11-3.98-.31-4.66-.45-1.12-.24-1.05-.26.91-.3,2.97-.06,6.87.47,11.88,1.6,1.33.3,2.67.41,3.54.29.77-.11,2.25-.03,3.28.17,1.86.36,2.71.2,1.85-.34-.64-.4.76-.39,2.14.02,2.7.8,6.22,1.19,10.75,1.17,3.08,0,4.75-.12,4.63-.31-.37-.6-5.29-1.78-9.3-2.24-7.15-.8-13.42-1.34-17.51-1.5-4.23-.17-12.34-.76-19.79-1.46-2.51-.24-6.14-.51-8.07-.6ZM47.36,51.9c.5-.01,1.12.11,1.37.28.36.23.3.29-.3.28-.42,0-1.04-.13-1.37-.28-.52-.22-.48-.26.3-.28ZM40.36,51.67c.84,0,1.22.05.84.12h0c-.37.08-1.06.08-1.52,0-.46-.07-.16-.13.68-.13Z"/>
  <path class="uuid-eb7e5fa4-ead8-42bd-b3f5-efce7ac55a11" d="M608.79,55.58c.73.56,2.41.62,2.23.07-.07-.21-.73-.41-1.47-.46-1.25-.07-1.31-.04-.75.38Z"/>
  <path class="uuid-eb7e5fa4-ead8-42bd-b3f5-efce7ac55a11" d="M736.86,59.02c.16,0,.29-.14.28-.31,0-.17-.21-.3-.47-.3s-.39.14-.29.31.32.3.48.3Z"/>
  <path class="uuid-eb7e5fa4-ead8-42bd-b3f5-efce7ac55a11" d="M26.49,47.06c-.6-.39-1.52-.38-1.52,0,0,.17.45.3.99.3.75,0,.88-.08.53-.3Z"/>
  <path class="uuid-eb7e5fa4-ead8-42bd-b3f5-efce7ac55a11" d="M669.72,34.56c1.31-.64,2.24-.78,2.63-.39.13.12.97.23,1.88.24,1.4.01,1.65-.07,1.65-.54,0-.35.22-.56.59-.56.94,0,1.08-.64.29-1.25-.46-.35-1.25-.56-2.14-.56-.99,0-1.74-.23-2.53-.76-1.22-.82-1.57-.91-1.84-.47-.1.15.13.33.51.38.89.12,1.51,1.67.84,2.09-.31.2-.56.13-.82-.22-.54-.71-2.05-.04-1.82.81.08.32-.04.86-.28,1.21-.54.77-.51.78,1.04.02Z"/>
  <path class="uuid-eb7e5fa4-ead8-42bd-b3f5-efce7ac55a11" d="M713.33,55.65c.22.09.48.08.58-.03.1-.1-.08-.17-.4-.16-.35.01-.43.09-.18.18Z"/>
  <path class="uuid-eb7e5fa4-ead8-42bd-b3f5-efce7ac55a11" d="M682.78,54.72c-.57-.27-.81-.26-1.06.04-.24.29-.11.43.52.55,1.12.22,1.46-.16.53-.59Z"/>
  <path class="uuid-eb7e5fa4-ead8-42bd-b3f5-efce7ac55a11" d="M915.01,51.11c.3.08.71.07.91-.01.21-.08-.04-.15-.54-.14-.5.01-.67.08-.37.15Z"/>
  <path class="uuid-eb7e5fa4-ead8-42bd-b3f5-efce7ac55a11" d="M954.43,48.25c.21.08.55.08.76,0,.21-.08.04-.15-.38-.15-.42,0-.59.07-.38.16Z"/>
  <path class="uuid-eb7e5fa4-ead8-42bd-b3f5-efce7ac55a11" d="M921.15,47.82c1.07-.02,1.15-.07.65-.38-.32-.2-.96-.67-1.43-1.05-1.53-1.24-4.13-1.96-7.29-2.02-1.59-.03-4.13-.21-5.63-.41-3.22-.41-12.28-.52-13.94-.17-.88.19-1.28.13-1.68-.23-.41-.37-1.78-.53-6.31-.72-5.16-.22-6.02-.19-7.99.31-2.29.59-2.61.56-5.81-.38-1.06-.31-2.09-.55-2.28-.53-.19.02-.99.13-1.78.25-1.39.2-2.35.64-1.39.64.26,0,.64.2.85.45.21.25.77.46,1.24.45.47,0,1.23.14,1.68.31.78.29.79.34.27.72-.49.36-.37.43,1.1.58.91.1,4.55.17,8.09.17,6.32,0,6.44-.02,6.6-.66.16-.63.27-.64,2.85-.41,1.47.13,3.44.21,4.37.17.93-.04,2.02.07,2.44.24.61.25.52.27-.53.13-1.44-.2-3.06.11-2.65.5.3.28,9.23,1.03,9.46.8.25-.25-1.14-.56-3.38-.77l-2.16-.2,2.8-.21c1.54-.11,3.66-.07,4.72.09,1.76.27,4.86.56,11.82,1.09,1.7.13,2.85.38,3.34.73.43.3,1.28.52,1.98.51Z"/>
  <path class="uuid-eb7e5fa4-ead8-42bd-b3f5-efce7ac55a11" d="M983.46,61.2c-.75-.09-1.55-.04-1.78.11-.3.21-.19.33.46.46.98.21,5.98.36,9.86.37v-.57c-.2,0-.4-.01-.62-.02-3.6-.1-7.16-.26-7.92-.35Z"/>
  <path class="uuid-eb7e5fa4-ead8-42bd-b3f5-efce7ac55a11" d="M38.98,48.3c0-.31-1.08-.52-4.27-.81l-1.37-.13,1,.45c1.31.59,4.63.94,4.63.49Z"/>
  <path class="uuid-eb7e5fa4-ead8-42bd-b3f5-efce7ac55a11" d="M39.45,37.33c.47-.27.49-.35.11-.48-1.86-.66-8.22-1.03-8.22-.47,0,.72,7.06,1.55,8.11.96Z"/>
  <path class="uuid-eb7e5fa4-ead8-42bd-b3f5-efce7ac55a11" d="M10.53,31.15c.1-.1-.08-.17-.4-.16-.35.02-.43.09-.18.18h0c.22.09.48.08.58-.02Z"/>
  <path class="uuid-eb7e5fa4-ead8-42bd-b3f5-efce7ac55a11" d="M865.58,42.82c0-.4-1.53-.64-2.85-.44-.69.1-1.88.03-2.63-.16-2.34-.6-7.87-.91-10.18-.56-1.4.21-2.62.22-3.65.03-4.86-.92-18.37-1.72-25.97-1.53-2.21.05-4.27-.03-4.57-.19-.3-.16-1.37-.38-2.38-.48-1.77-.18-1.8-.18-.99.29.46.26.84.61.84.77,0,.44-1.6.36-2.29-.11-.92-.64-4.39-.89-6.48-.47-1.7.34-1.88.32-2.73-.3-.76-.56-1.2-.65-2.7-.53-.98.07-2.23.33-2.78.56-.87.37-1.11.36-1.98-.07-1.45-.73-2.4-.86-6.62-.94-2.09-.04-4.66-.28-5.71-.53l-1.9-.46v.99c0,.76-.15,1.05-.66,1.21-.52.17-.86,0-1.55-.77l-.88-.98-2.64.11c-2.54.11-2.64.09-2.74-.57-.07-.49-.3-.68-.82-.68-.4,0-.81.15-.92.33-.11.18-.53.25-.93.15-.4-.1-1.11.02-1.59.27-.59.31-1.18.37-1.9.21-1.32-.29-1.8-.13-1.8.61,0,.44-.21.58-.85.59-1.04,0-1.58-.49-1.59-1.44,0-.79-.78-1.25-1.28-.75-.22.22-.65.2-1.43-.06-.82-.28-2.19-.31-5.21-.14-2.52.15-4.31.13-4.65-.05-.39-.21-.74-.16-1.22.18-.92.65-1.36.6-2.42-.28-1.11-.93-2.42-.97-3.55-.13-.79.59-.93.6-2.19.19-2.56-.83-9.12-1.14-9.37-.46-.15.43-1.35.32-2.01-.18-.65-.49-2.77-.6-3.04-.16-.23.37-3.88.36-4.34,0-.24-.19-.58-.18-.99.04-.47.25-.8.24-1.31-.04-1.16-.64-3.96-1.11-5.58-.93-1.1.12-1.82.03-2.52-.33-.66-.34-1.14-.41-1.47-.22-.34.19-.9.1-1.74-.28-1.28-.58-2.59-.75-2.65-.34h0c-.02.13-.05.57-.07.99-.04.62-.18.75-.81.67-5.52-.63-5.99-.65-7.08-.31-.63.2-1.14.48-1.14.63,0,.47.91.63,1.38.23.37-.31.91-.28,2.81.18,1.3.31,2.94.56,3.65.57,1.75,0,1.67.64-.11.91-1.6.24-1.45.62.37.91,1.16.18,1.31.12,2.19-.89,1.03-1.18,2.14-1.42,2.81-.62.26.31.65.41,1.14.29.8-.2,2.91,1.01,3.24,1.86.13.33.42.4,1.06.26.49-.11,1.48-.04,2.21.16.73.2,2.62.39,4.21.43,1.59.04,3.41.17,4.05.29,1.14.22,1.16.21,1.06-.65l-.1-.87h2.36c2.18-.01,3.01.26,1.91.61-1.46.46-1.46.57,0,.78.84.12,2.55.23,3.81.24,1.26.01,2.77.16,3.35.33.95.27,1.13.23,1.67-.43.6-.73.65-.74,5.48-.67,4.69.07,10.8.63,11.12,1.02.61.76,1.99,1.16,4.57,1.34,3.49.24,4.5.36,5.42.65.63.2.68.14.51-.55-.24-.95.18-1.25,1.4-.99.59.13,1.03.47,1.21.93.39,1.02,1.71,1,2.18-.03.29-.64.55-.76,1.67-.77.73,0,1.32.13,1.32.3,0,.17-.2.3-.46.31-.6,0-.59.5.03.73.95.36,1.65.19,1.65-.39,0-.73,1.61-1,3.96-.67.92.13,2.91.1,4.42-.07,1.92-.21,3-.21,3.6.03,1.26.48.68.99-1.03.91-2.04-.1-2.17.22-.26.62,1.76.37,3.51.16,3.74-.45.12-.3.76-.36,2.69-.25,2.54.16,3.55.49,2.59.86-.75.29-.3.74.73.74.68,0,.9-.14.89-.59,0-.82.44-1.02,1.81-.79.8.13,1.23.38,1.33.78.12.47.43.59,1.54.58,1.17,0,1.36-.08,1.19-.51-.17-.45.03-.48,1.91-.3,3.17.3,4.09.51,4.09.93,0,.22.59.46,1.42.57,2,.27,2.85.23,2.85-.12,0-.17-.54-.3-1.2-.3-1.51,0-1.77-.38-.73-1.07.69-.46,1.02-.48,2.36-.2,1.46.32,7.71.65,14.19.76,4.74.08,11.82.71,12.87,1.14.97.4.96.4-.69.31-.92-.05-3.09-.14-4.82-.2-2.88-.1-3.1-.06-2.65.38.49.48,3.8.76,7.17.6,2.14-.1,2.62-.08,7.25.3,2.4.2,4.44.27,4.54.17.1-.1-.08-.38-.4-.62-.56-.41-.53-.46.54-.91,1.35-.57,1.86-.59,3.14-.14,1.31.47,3.08.11,3.28-.67.19-.74,1.73-.87,1.74-.15,0,.32.32.46,1.08.45,1.32,0,6.23-1.22,6.23-1.54ZM719.2,39.23c-.47.07-.68-.06-.69-.4s.21-.47.68-.4c.38.05.68.23.69.4,0,.17-.31.35-.68.4ZM721.97,39.37c-.22-.09-.41-.34-.41-.57,0-.38.51-.34,1.33.1.4.22-.45.64-.92.47ZM759.86,41.33c-3.54-.07-4.02-.16-3.71-.67.18-.29,5.12-.14,6.79.2,1.56.32.17.53-3.08.46Z"/>
  <path class="uuid-eb7e5fa4-ead8-42bd-b3f5-efce7ac55a11" d="M762.34,34.06c0-.31-3.06-1.29-4.01-1.28-.42,0-.85.09-.96.21-.39.4-.19.66.76.98,1.08.37,4.22.44,4.21.09Z"/>
  <path class="uuid-eb7e5fa4-ead8-42bd-b3f5-efce7ac55a11" d="M828.04,62.72c.11-.18-.19-.3-.73-.3-.5,0-1,.14-1.1.31-.11.18.19.3.73.3.5,0,1-.14,1.1-.31Z"/>
  <path class="uuid-eb7e5fa4-ead8-42bd-b3f5-efce7ac55a11" d="M769.12,33.87c.21-.09.04-.15-.38-.15-.42,0-.59.07-.38.16.21.08.55.08.76,0Z"/>
  <path class="uuid-eb7e5fa4-ead8-42bd-b3f5-efce7ac55a11" d="M816.01,62.46c0-.41-.82-.4-1.08.01h0c-.11.18-.12.4-.03.49.25.25,1.11-.14,1.11-.51Z"/>
  <path class="uuid-eb7e5fa4-ead8-42bd-b3f5-efce7ac55a11" d="M822.35,62.64c.22.09.48.07.58-.03.1-.1-.08-.17-.4-.16-.35.02-.43.09-.18.18Z"/>
  <path class="uuid-eb7e5fa4-ead8-42bd-b3f5-efce7ac55a11" d="M687.66,55.21c-.25,0-.46.14-.46.31,0,.17.21.3.46.3.25,0,.46-.14.45-.31,0-.17-.21-.3-.46-.3Z"/>
  <path class="uuid-eb7e5fa4-ead8-42bd-b3f5-efce7ac55a11" d="M783.05,34.54c-.59-.38-.83-.38-1.07,0-.11.18.17.3.67.3.66,0,.75-.07.4-.3Z"/>
  <path class="uuid-eb7e5fa4-ead8-42bd-b3f5-efce7ac55a11" d="M831.01,63.22c.21-.08.04-.15-.38-.15-.42,0-.59.07-.38.15.21.08.55.08.76,0Z"/>
  <path class="uuid-eb7e5fa4-ead8-42bd-b3f5-efce7ac55a11" d="M685.67,36.14h0c-.4.49-.15.81.62.81.62,0,.64-.04.37-.74-.23-.59-.55-.61-.99-.07Z"/>
  <path class="uuid-eb7e5fa4-ead8-42bd-b3f5-efce7ac55a11" d="M688.36,33.77c0-.41.08-.95.18-1.22.2-.51-.33-.68-.63-.2-.09.16-1.02.27-2.05.25-1.79-.04-1.9,0-2.38.87-.32.59-.78.94-1.31,1-.45.05-.81.28-.81.5,0,.47,1.78.75,3.46.54,1.09-.14,1.16-.2,1-.99-.23-1.11.02-1.3.74-.58.85.85,1.8.76,1.8-.16Z"/>
  <path class="uuid-eb7e5fa4-ead8-42bd-b3f5-efce7ac55a11" d="M838.03,37.46c-1.61-.4-1.72-.4-2.26-.06-.49.31-.09.47,1.99.78,1.73.26,1.94-.31.27-.73Z"/>
  <path class="uuid-eb7e5fa4-ead8-42bd-b3f5-efce7ac55a11" d="M680.44,33.31c0,.17.14.3.3.3s.3-.14.3-.3c0-.17-.14-.3-.31-.3-.17,0-.3.14-.3.3Z"/>
  <path class="uuid-eb7e5fa4-ead8-42bd-b3f5-efce7ac55a11" d="M690.56,34.43c-1.13-.03-1.65.29-1.52.93.07.33.41.5,1,.5.68,0,1,.2,1.31.83.51,1.06,1.9,1.2,1.89.2,0-.38.24-.7.61-.8.79-.21.77-.76-.04-1.49-.35-.32-.84-.95-1.08-1.41-.4-.76-1.29-1.16-1.36-.61-.02.13,0,.6.02,1.05.05.72-.05.81-.83.79Z"/>
  <path class="uuid-eb7e5fa4-ead8-42bd-b3f5-efce7ac55a11" d="M847,38.57c.86,0,.95-.05.46-.26-.33-.14-1.5-.25-2.59-.23l-1.98.02,1.52.23h0c.84.13,2,.24,2.59.24Z"/>
  <path class="uuid-eb7e5fa4-ead8-42bd-b3f5-efce7ac55a11" d="M752.26,41.23c.22.09.48.08.58-.02.1-.1-.08-.17-.4-.16-.35.02-.43.09-.18.18Z"/>
  <path class="uuid-eb7e5fa4-ead8-42bd-b3f5-efce7ac55a11" d="M801.8,43.95l.92.43c1.16.54,2.38.58,2.21.07-.07-.22-.74-.4-1.62-.44l-1.5-.06Z"/>
  <path class="uuid-eb7e5fa4-ead8-42bd-b3f5-efce7ac55a11" d="M816.75,44.45c-.18.3,3.76.77,4.04.48.1-.1-.02-.31-.27-.46-.57-.36-3.55-.37-3.77-.02Z"/>
  <path class="uuid-eb7e5fa4-ead8-42bd-b3f5-efce7ac55a11" d="M823.86,44.47c-.49,0-.9.12-.9.27,0,.29,4.51.79,4.76.54.2-.2-2.73-.81-3.87-.81Z"/>
  <path class="uuid-eb7e5fa4-ead8-42bd-b3f5-efce7ac55a11" d="M821.6,47.21c.33.14,1.91.25,3.5.24,2.33-.02,2.66-.07,1.67-.27-1.66-.34-5.98-.31-5.18.03Z"/>
  <path class="uuid-eb7e5fa4-ead8-42bd-b3f5-efce7ac55a11" d="M831.27,47.7c.29.08.77.07,1.07,0,.29-.08.05-.14-.53-.14-.59,0-.83.06-.53.14Z"/>
  <path class="uuid-eb7e5fa4-ead8-42bd-b3f5-efce7ac55a11" d="M846.42,48.1c-1.54,0-2.09.09-1.67.27.33.14,1.64.26,2.89.25,1.54,0,2.08-.09,1.67-.27-.34-.14-1.64-.26-2.89-.25Z"/>
  <path class="uuid-eb7e5fa4-ead8-42bd-b3f5-efce7ac55a11" d="M748.61,40.93c.22.09.48.07.58-.03.1-.1-.08-.17-.4-.16-.35.02-.43.09-.18.19Z"/>
  <path class="uuid-eb7e5fa4-ead8-42bd-b3f5-efce7ac55a11" d="M703.28,33.85c0-.17-.14-.3-.31-.3-.17,0-.3.14-.3.31,0,.17.14.3.31.3.17,0,.3-.14.3-.31Z"/>
  <path class="uuid-eb7e5fa4-ead8-42bd-b3f5-efce7ac55a11" d="M744.09,40.43c0,.17.21.3.46.3.25,0,.46-.14.46-.3,0-.17-.21-.3-.46-.3-.25,0-.46.14-.46.3Z"/>
  <path class="uuid-eb7e5fa4-ead8-42bd-b3f5-efce7ac55a11" d="M728.95,32.15c-.3-.3-.8-.22-1.39.23-.73.55-.67.8.19.79.76,0,1.55-.68,1.2-1.02Z"/>
  <path class="uuid-eb7e5fa4-ead8-42bd-b3f5-efce7ac55a11" d="M853.78,48.38c-2.59.04-2.77.08-1.43.28,2.27.35,4.79.33,4.57-.03-.11-.17-1.46-.28-3.14-.25Z"/>
  <path class="uuid-eb7e5fa4-ead8-42bd-b3f5-efce7ac55a11" d="M747.39,40.94c.22.09.48.08.58-.03.1-.1-.08-.17-.4-.16-.35.01-.43.09-.18.18Z"/>
  <path class="uuid-eb7e5fa4-ead8-42bd-b3f5-efce7ac55a11" d="M740.95,33.62c.31-.31-.79-1.09-1.53-1.09-.33,0-.52.17-.45.38.16.48,1.67,1.02,1.98.71Z"/>
</svg>