<?xml version="1.0" encoding="UTF-8"?>
<svg id="uuid-ce04a02d-cbfa-4e4e-b904-a53d4dd938d6" data-name="Layer 1" xmlns="http://www.w3.org/2000/svg" viewBox="0 0 992 105.85">
  <defs>
    <style>
      .border-bottom-shape {
        fill: #8f807d;
      }
    </style>
  </defs>
  <path class="border-bottom-shape" d="M304.34,55.21c-.25,0-.46.14-.46.3,0,.17.2.31.46.31.25,0,.46-.14.46-.3,0-.17-.21-.3-.46-.31Z"/>
  <path class="border-bottom-shape" d="M278.08,55.62c.1.1.36.11.58.03.24-.1.17-.17-.18-.18-.32-.02-.5.06-.4.16Z"/>
  <path class="border-bottom-shape" d="M255.33,58.42c-.26,0-.47.13-.47.3,0,.17.13.31.28.31.16,0,.37-.14.48-.3s-.03-.3-.29-.3Z"/>
  <path class="border-bottom-shape" d="M169.07,62.61c.1.1.36.11.58.03.24-.1.17-.17-.18-.18-.32-.01-.5.06-.4.16Z"/>
  <path class="border-bottom-shape" d="M309.22,54.72c-.93.43-.59.81.53.59.64-.12.77-.26.53-.55-.25-.3-.49-.31-1.06-.04Z"/>
  <path class="border-bottom-shape" d="M187.17,61.87c-1.38,0-1.52.05-1.12.45.92.92,3.47.83,2.9-.1-.11-.19-.91-.34-1.78-.34Z"/>
  <path class="border-bottom-shape" d="M177.07,62.47c-.26-.42-1.08-.43-1.08-.01,0,.36.86.76,1.11.51.09-.09.08-.32-.03-.49h0Z"/>
  <path class="border-bottom-shape" d="M161.37,63.07c-.42,0-.59.07-.38.15.21.08.55.09.76,0,.21-.08.04-.15-.38-.15Z"/>
  <path class="border-bottom-shape" d="M164.69,62.42c-.53,0-.84.12-.73.3.1.17.6.31,1.1.31.53,0,.84-.12.73-.3-.1-.17-.6-.31-1.1-.31Z"/>
  <path class="border-bottom-shape" d="M356.4,55.66c-.11.18.26.31.91.31s1.03-.12.91-.3c-.1-.17-.51-.31-.91-.31-.4,0-.81.13-.91.3Z"/>
  <path class="border-bottom-shape" d="M398.35,51.9c.07.21.35.42.63.48.35.07.45-.04.32-.38-.21-.56-1.14-.66-.96-.1Z"/>
  <path class="border-bottom-shape" d="M395.3,51.64c-.76.24-12.78.41-13.01.19-.1-.09-1.3-.14-2.67-.1-1.88.06-2.65-.04-3.11-.39h0c-.81-.63-.91-.61-1.49.27l-.5.76-4.03-.19q-5.35-.25-6.68.18c-.94.31-1.39.3-2.38-.03-1.36-.45-1.95-.18-1.77.8.08.42.57.66,1.93.94,2.55.52,5.93.48,6.14-.07.25-.63,1.25-.52,1.47.18.16.52.44.59,2.15.55,1.6-.04,1.96-.15,1.96-.56,0-.63,1.34-1.54,1.92-1.31.68.27,1.21,1.51.97,2.31-.21.67-.19.69.31.22.29-.27.55-.96.58-1.52.04-.71.22-1.05.6-1.12.89-.17,1.86.19,2.74,1.01,1.06.99,1.53.99,1.28.01-.17-.7-.1-.76.81-.75.82,0,.9.06.46.32-.29.17-.54.44-.54.6,0,.47,4.42.34,5.95-.17,1.06-.36,1.63-.4,2.3-.16.95.34,1.79.18,1.79-.34,0-.17.27.04.61.46.33.43.61.91.61,1.08,0,.43.74.66,1.21.38.3-.18.26-.31-.15-.54-.35-.2-.47-.49-.34-.83.16-.42.51-.5,1.79-.41,1.3.09,1.61.01,1.69-.4.12-.63-1.77-1.61-2.61-1.35Z"/>
  <path class="border-bottom-shape" d="M385.77,55.14c-1,0-1.81.13-1.81.3,0,.17.87.31,2,.31,1.25,0,1.93-.11,1.81-.3-.1-.17-1-.31-2-.31Z"/>
  <path class="border-bottom-shape" d="M415.79,54.38c-.86.04-1.39.2-1.39.43,0,.65.63.8,1.04.24.23-.32.59-.46.89-.35.27.11.57.06.67-.09.1-.17-.41-.26-1.21-.23Z"/>
  <path class="border-bottom-shape" d="M468.91,53.58c0,.15.27.27.61.27.59,0,.79-.32.43-.69-.24-.24-1.04.07-1.04.42Z"/>
  <path class="border-bottom-shape" d="M321.32,52.81h0c-1.14-.64-7.2-.56-10.63.15-2.06.42-2.68.46-3.24.15-.51-.27-.92-.29-1.54-.05-.47.18-1.69.32-2.73.33-2.25.01-4.24.33-4.29.68-.05.37,5.38.53,5.82.17.48-.4,1-.06,1,.66,0,.32.13.66.3.76.37.23,2.16-.77,1.96-1.1-.27-.45,1.06-.87,2.72-.87,2.24,0,2.71.2,2.3.97-.3.55-.23.59.84.5,1.01-.08,1.15-.18,1.07-.78-.08-.58.05-.69.85-.68.85,0,.91.06.61.62-.4.74-.1,1.43.4.93.18-.18.96-.33,1.72-.33,1.15,0,1.44-.12,1.7-.68.22-.49.53-.67,1.14-.62,1.06.08,1.06-.23,0-.83ZM307.08,54.91c-.25,0-.46-.14-.46-.3,0-.17.21-.3.46-.3.25,0,.46.14.46.31,0,.17-.21.3-.46.3ZM318.25,53.93c-.22.09-.48.08-.58-.03s.08-.17.4-.16c.35.02.43.09.18.18Z"/>
  <path class="border-bottom-shape" d="M524.49,87.51c-.33,0-.53.13-.42.3.1.17.46.3.8.31s.53-.13.42-.3c-.1-.17-.46-.31-.8-.31Z"/>
  <path class="border-bottom-shape" d="M382.46,55.2c-.74.04-1.4.25-1.47.46-.18.55,1.5.49,2.23-.07.55-.43.5-.45-.76-.38Z"/>
  <path class="border-bottom-shape" d="M355.97,53.83c-.16,0-.37.14-.48.3-.1.17.02.31.29.31.26,0,.48-.14.48-.3,0-.17-.13-.3-.29-.3Z"/>
  <path class="border-bottom-shape" d="M360.82,55.67c-.17,0-.3.06-.3.13,0,.07.14.22.3.32.17.1.3.04.3-.13,0-.18-.14-.32-.3-.32Z"/>
  <path class="border-bottom-shape" d="M210.02,34.54c-.23-.38-.48-.38-1.07,0-.35.23-.27.3.4.3.49,0,.78-.12.67-.3Z"/>
  <path class="border-bottom-shape" d="M129.74,45.34c.51-.07.85-.25.76-.4-.19-.31-1.46-.37-1.75-.08-.39.38.08.61.99.48Z"/>
  <polygon class="border-bottom-shape" points="130.5 44.93 130.5 44.93 130.5 44.93 130.5 44.93"/>
  <path class="border-bottom-shape" d="M135.08,48.63c-.22.36,2.3.37,4.57.03,1.34-.2,1.16-.24-1.43-.28-1.68-.03-3.03.08-3.14.25Z"/>
  <path class="border-bottom-shape" d="M129.6,48.92c1.27,0,1.95-.11,1.83-.3-.1-.17-.92-.31-1.83-.31-.9,0-1.72.13-1.83.3-.12.19.56.31,1.83.31Z"/>
  <path class="border-bottom-shape" d="M147.59,38.33h0s1.52-.23,1.52-.23l-1.98-.02c-1.09-.01-2.25.09-2.59.24-.49.21-.41.25.46.26.59,0,1.75-.11,2.59-.23Z"/>
  <path class="border-bottom-shape" d="M289.33,33.85c0-.17-.14-.31-.3-.31-.17,0-.31.14-.31.3,0,.17.14.3.3.3.17,0,.3-.14.31-.3Z"/>
  <path class="border-bottom-shape" d="M253.03,32.91c.07-.22-.12-.38-.45-.38-.74,0-1.83.79-1.53,1.09.31.31,1.81-.23,1.98-.71Z"/>
  <path class="border-bottom-shape" d="M156.23,37.4c-.54-.35-.65-.34-2.26.06-1.67.42-1.46.99.27.73,2.08-.32,2.48-.47,1.99-.78Z"/>
  <path class="border-bottom-shape" d="M264.44,32.38c-.59-.45-1.09-.53-1.39-.23-.35.35.44,1.02,1.2,1.02.86,0,.92-.24.19-.79Z"/>
  <path class="border-bottom-shape" d="M142.69,48.35c-.41.17.13.26,1.67.27,1.26,0,2.56-.11,2.89-.25.41-.17-.13-.26-1.67-.27-1.26,0-2.56.11-2.89.25Z"/>
  <path class="border-bottom-shape" d="M233.87,33.97c.95-.33,1.15-.59.76-.98-.11-.11-.54-.2-.96-.21-.95,0-4.01.98-4.01,1.28,0,.35,3.13.28,4.21-.09Z"/>
  <path class="border-bottom-shape" d="M223.64,33.87c.21-.08.04-.15-.38-.15-.42,0-.59.07-.38.15.21.08.55.09.76,0Z"/>
  <path class="border-bottom-shape" d="M244.03,40.91c.1.1.36.11.58.03.24-.1.17-.17-.18-.18-.32-.02-.5.06-.4.16Z"/>
  <path class="border-bottom-shape" d="M246.99,40.43c0,.17.2.31.46.31.25,0,.46-.13.46-.3,0-.17-.21-.3-.46-.3-.25,0-.46.13-.46.3Z"/>
  <path class="border-bottom-shape" d="M242.81,40.91c.1.1.36.11.58.03.24-.1.17-.17-.18-.18-.32-.01-.5.06-.4.16Z"/>
  <path class="border-bottom-shape" d="M159.66,47.7c.29.08.77.08,1.07,0,.29-.08.05-.14-.53-.14-.59,0-.83.06-.53.14Z"/>
  <path class="border-bottom-shape" d="M289.09,36.74c.71,0,2.35-.26,3.65-.57,1.9-.45,2.44-.49,2.81-.18.47.39,1.38.24,1.38-.23,0-.15-.51-.43-1.14-.63-1.09-.35-1.56-.33-7.08.31-.62.07-.77-.05-.8-.68-.02-.42-.06-.86-.07-.99h0c-.05-.41-1.36-.24-2.65.34-.85.38-1.41.47-1.74.28-.34-.19-.82-.12-1.47.22-.7.36-1.42.45-2.52.33-1.63-.18-4.42.29-5.58.93-.51.29-.85.3-1.31.04-.41-.22-.75-.24-.99-.04-.45.37-4.11.38-4.34,0-.27-.44-2.4-.32-3.04.16-.67.5-1.86.61-2.01.18-.25-.69-6.81-.37-9.37.46-1.27.41-1.41.4-2.2-.19-1.14-.85-2.45-.8-3.55.13-1.05.88-1.5.93-2.42.28-.48-.34-.83-.39-1.22-.18-.34.18-2.13.2-4.65.05-3.02-.18-4.39-.14-5.21.14-.77.26-1.2.28-1.43.06-.49-.5-1.27-.04-1.28.75,0,.94-.55,1.44-1.59,1.44-.64,0-.85-.15-.85-.59,0-.74-.48-.9-1.8-.61-.72.16-1.31.09-1.9-.21-.47-.25-1.18-.37-1.59-.27-.4.1-.82.03-.93-.15-.11-.18-.53-.33-.92-.33-.52,0-.75.19-.82.68-.1.66-.2.68-2.74.57l-2.64-.11-.88.98c-.68.76-1.03.93-1.55.77-.51-.16-.67-.45-.66-1.21v-.99s-1.9.46-1.9.46c-1.05.25-3.62.49-5.71.53-4.22.08-5.18.22-6.62.94-.86.43-1.11.44-1.98.07-.54-.23-1.8-.49-2.78-.56-1.49-.11-1.94-.03-2.7.53-.85.62-1.03.64-2.73.3-2.09-.42-5.56-.17-6.48.47-.69.47-2.29.55-2.29.11,0-.16.38-.51.84-.77.81-.46.78-.47-.99-.29-1.01.1-2.07.32-2.38.48-.3.16-2.36.25-4.57.19-7.61-.19-21.12.61-25.97,1.53-1.03.19-2.26.19-3.65-.03-2.3-.35-7.83-.05-10.17.56-.75.2-1.94.27-2.63.16-1.32-.2-2.85.04-2.85.44,0,.33,4.91,1.54,6.23,1.54.75,0,1.08-.13,1.08-.45,0-.72,1.55-.59,1.74.15.2.78,1.97,1.14,3.28.67,1.27-.46,1.79-.44,3.14.14,1.07.46,1.1.5.54.91-.32.24-.51.52-.4.62.1.1,2.15.03,4.54-.17,4.64-.38,5.11-.4,7.25-.3,3.37.16,6.68-.12,7.17-.6.45-.44.23-.48-2.65-.38-1.73.06-3.9.15-4.82.2-1.65.09-1.66.09-.69-.31,1.06-.43,8.13-1.06,12.87-1.14,6.48-.11,12.73-.44,14.19-.76,1.34-.29,1.66-.26,2.36.19,1.04.69.77,1.07-.73,1.07-.66,0-1.2.13-1.2.3,0,.35.85.39,2.85.12.83-.11,1.41-.35,1.41-.57,0-.42.92-.63,4.09-.93,1.88-.18,2.09-.15,1.91.3-.16.42.03.5,1.19.51,1.12,0,1.42-.11,1.54-.58.11-.4.53-.65,1.33-.78,1.37-.23,1.81-.03,1.81.79,0,.45.21.59.89.59,1.03,0,1.48-.45.73-.74-.96-.37.05-.71,2.59-.86,1.93-.12,2.57-.06,2.68.25.23.61,1.98.82,3.74.45,1.91-.4,1.78-.73-.26-.62-1.71.09-2.29-.42-1.03-.91.6-.23,1.68-.24,3.6-.02,1.51.17,3.49.2,4.42.07,2.35-.33,3.96-.06,3.96.67,0,.58.7.75,1.65.39.61-.23.63-.73.03-.73-.25,0-.46-.14-.46-.31,0-.17.6-.3,1.32-.3,1.11,0,1.38.12,1.67.77.47,1.04,1.78,1.06,2.18.04.18-.46.62-.81,1.21-.93,1.22-.26,1.64.04,1.4.99-.17.69-.12.74.51.55.92-.29,1.93-.41,5.42-.65,2.58-.18,3.96-.58,4.57-1.34.32-.39,6.42-.95,11.12-1.02,4.83-.07,4.88-.06,5.48.67.54.66.72.71,1.67.43.59-.17,2.09-.32,3.35-.33,1.26-.01,2.97-.12,3.81-.24,1.46-.21,1.46-.32,0-.78-1.11-.35-.27-.62,1.91-.61h2.36s-.1.88-.1.88c-.09.86-.08.87,1.06.65.64-.12,2.46-.25,4.05-.29,1.59-.04,3.49-.23,4.21-.43.73-.2,1.72-.27,2.21-.16.64.14.94.07,1.06-.26.33-.86,2.44-2.07,3.24-1.86.49.12.88.03,1.14-.29.67-.8,1.78-.56,2.81.62.88,1.01,1.04,1.07,2.2.89,1.82-.29,1.98-.67.37-.91-1.78-.27-1.85-.91-.11-.91ZM232.14,41.33c-3.25.07-4.64-.14-3.08-.46,1.67-.34,6.61-.49,6.79-.2.31.51-.17.59-3.71.67ZM270.03,39.37c-.47.18-1.31-.25-.92-.47.82-.44,1.33-.48,1.33-.1,0,.23-.18.48-.41.57ZM272.8,39.23c-.38-.06-.68-.24-.68-.4,0-.17.31-.35.69-.4.47-.06.69.06.68.4,0,.34-.22.47-.69.4Z"/>
  <path class="border-bottom-shape" d="M300.63,32.59c-.08-.55-.97-.16-1.36.6-.24.46-.72,1.1-1.08,1.42-.81.73-.82,1.28-.04,1.49.36.1.61.42.61.8,0,1,1.38.86,1.89-.2.31-.63.63-.83,1.31-.83.6,0,.93-.17,1-.5.13-.64-.39-.96-1.52-.93-.78.02-.88-.08-.84-.8.03-.45.04-.92.02-1.05Z"/>
  <path class="border-bottom-shape" d="M170.4,47.21c.81-.34-3.51-.37-5.18-.03-.98.2-.65.25,1.67.27,1.59.01,3.17-.09,3.5-.24Z"/>
  <path class="border-bottom-shape" d="M169.04,44.74c0-.15-.4-.27-.9-.27-1.14,0-4.06.61-3.87.81.26.26,4.76-.25,4.77-.54Z"/>
  <path class="border-bottom-shape" d="M171.21,44.93c.28.28,4.22-.19,4.04-.48-.22-.35-3.2-.34-3.77.02-.25.15-.37.36-.27.46Z"/>
  <path class="border-bottom-shape" d="M310.64,34.96c0-.22-.36-.44-.81-.5-.53-.06-.99-.42-1.31-1-.47-.86-.59-.9-2.38-.87-1.04.02-1.96-.09-2.05-.24-.3-.48-.82-.31-.63.2.1.27.18.81.18,1.22,0,.92.95,1,1.8.16.72-.71.96-.52.74.58-.16.79-.09.85,1,.99,1.67.21,3.46-.07,3.46-.54Z"/>
  <path class="border-bottom-shape" d="M239.16,41.2c.1.1.36.11.58.03h0c.24-.1.17-.17-.18-.19-.32-.01-.5.06-.4.16Z"/>
  <path class="border-bottom-shape" d="M187.07,44.44c-.17.51,1.05.47,2.21-.07l.92-.43-1.5.06c-.88.03-1.55.21-1.62.44Z"/>
  <path class="border-bottom-shape" d="M258.64,64.21c-.21-.34-.79-.34-2.13,0-.78.19-.67.24.7.27,1.01.03,1.55-.07,1.43-.26Z"/>
  <path class="border-bottom-shape" d="M298.08,61.09h0c0-.55-.8-.55-1.01,0-.09.24-.09.5,0,.59.28.28,1.01-.14,1.02-.59Z"/>
  <path class="border-bottom-shape" d="M303.17,61.48c.74-.1,1.69-.45,2.1-.77l.75-.59-1-.13c-1.84-.23-2.03-.23-2.79.06-.58.22-.72.44-.59.95.15.59.31.64,1.52.48Z"/>
  <path class="border-bottom-shape" d="M132.88,70.06c1.88-.14,2.55-.29,2.14-.46-.34-.14-1-.19-1.48-.11-.48.08-1.78.15-2.89.15-1.65.01-1.88.07-1.26.32.45.18,1.86.22,3.5.1Z"/>
  <path class="border-bottom-shape" d="M212.05,66.51c.1-.17-.02-.3-.27-.3-.25,0-.54.13-.65.3s.02.31.27.31c.25,0,.54-.14.64-.3Z"/>
  <path class="border-bottom-shape" d="M952.45,36.85c-.38.13-.36.22.11.48,1.05.59,8.11-.24,8.11-.96,0-.56-6.36-.19-8.22.47Z"/>
  <path class="border-bottom-shape" d="M981.47,31.15c.1.1.36.11.58.03h0c.24-.1.17-.17-.18-.19-.32-.01-.5.06-.4.16Z"/>
  <path class="border-bottom-shape" d="M52.57,74.66c.09-.27-.3-.38-1.34-.38-1.38,0-1.43.04-.86.47.69.53,2.02.47,2.21-.09Z"/>
  <path class="border-bottom-shape" d="M965.87,51.21c-1.89.11-3.52.33-3.62.49-.3.49,9.15,0,12.5-.63,2.14-.41,3.24-.49,3.78-.28.93.35,7.89.13,10.03-.32.95-.2,1.77-.6,2.17-1.07.35-.4.52-.59,1.27-.64v-2c-.18.02-.33.04-.46.06-1.01.15-3.4.35-5.33.44-1.93.1-5.56.37-8.07.6-7.45.7-15.57,1.3-19.79,1.46-4.09.16-10.36.7-17.51,1.5-4,.45-8.92,1.63-9.3,2.23-.12.19,1.55.3,4.63.31,4.53.01,8.05-.37,10.75-1.17,1.38-.41,2.78-.42,2.14-.02-.86.54-.01.7,1.85.34,1.03-.2,2.51-.28,3.28-.17.87.12,2.21.01,3.54-.29,5.01-1.14,8.91-1.66,11.88-1.6,1.97.04,2.04.06.91.3-.67.14-2.76.34-4.66.46ZM944.94,52.17c-.34.14-.95.27-1.37.27-.6.01-.66-.05-.3-.28.25-.16.87-.29,1.37-.27.79.02.83.06.3.28ZM952.32,51.8c-.46.07-1.15.07-1.52,0h0c-.37-.08,0-.13.84-.13.84,0,1.14.06.68.13Z"/>
  <path class="border-bottom-shape" d="M957.65,47.81l1-.45-1.37.13c-3.18.3-4.26.5-4.27.81,0,.45,3.32.1,4.63-.49Z"/>
  <path class="border-bottom-shape" d="M967.03,47.06c0-.39-.92-.39-1.52,0-.35.22-.22.3.53.3.54,0,.99-.13.99-.3Z"/>
  <path class="border-bottom-shape" d="M89.85,51.85c-.35.22-.24.29.45.27.5-.01,1.26-.13,1.68-.27.66-.21.6-.25-.46-.27-.67-.02-1.42.1-1.67.27Z"/>
  <path class="border-bottom-shape" d="M691.61,76.11c-1.24,0-1.76.14-2.18.6-.66.73-.19.8,1.06.16.54-.28,1.24-.38,1.81-.26.6.12.93.07.93-.15,0-.21-.62-.34-1.63-.35Z"/>
  <path class="border-bottom-shape" d="M83.54,52.32c.1.1.36.11.58.03.24-.1.17-.17-.18-.18-.32-.01-.5.06-.4.16Z"/>
  <path class="border-bottom-shape" d="M107.22,49.05c.77-.05.36-.11-.91-.15-3.52-.1-16.14.59-16.14.89,0,.14,1.27.19,2.82.1,2.57-.15,10.9-.64,14.24-.84Z"/>
  <path class="border-bottom-shape" d="M81.56,50.51c.21.08.62.09.91.02.3-.08.13-.14-.38-.15-.5,0-.74.05-.54.14Z"/>
  <path class="border-bottom-shape" d="M122.9,48.6c-.23.37,1.87.38,2.74,0,.45-.19.19-.27-.97-.29-.87-.01-1.67.11-1.77.28Z"/>
  <path class="border-bottom-shape" d="M0,62.15c3.87-.01,8.88-.16,9.86-.37.64-.14.76-.26.46-.46-.22-.15-1.02-.2-1.78-.11-.75.09-4.32.25-7.92.35-.22,0-.42.01-.62.02v.57Z"/>
  <path class="border-bottom-shape" d="M36.81,48.25c.21.08.55.09.76,0,.21-.08.04-.15-.38-.16-.42,0-.59.07-.38.15Z"/>
  <path class="border-bottom-shape" d="M27.88,66.55c.31-.49-2.77-.26-4.6.35l-1.83.61,1.52-.16c3.66-.38,4.75-.55,4.9-.8Z"/>
  <path class="border-bottom-shape" d="M120.18,41.59c-.1-.17-.56-.22-1.01-.11-1.22.29-1.2.41.06.41.68,0,1.06-.12.95-.3Z"/>
  <path class="border-bottom-shape" d="M76.07,51.1c.21.08.62.09.91.01.3-.08.13-.14-.37-.15-.5,0-.74.05-.54.14Z"/>
  <path class="border-bottom-shape" d="M67.65,51.99c-.18.2,4.52-.08,6.44-.38.63-.1,1.08-.3.98-.45-.09-.15-.27-.27-.4-.27-.82,0-6.88.94-7.02,1.09Z"/>
  <path class="border-bottom-shape" d="M124.35,42.49h0c-.79-.11-1.59-.22-1.78-.25-.19-.02-1.22.22-2.29.53-3.21.94-3.52.97-5.82.38-1.97-.5-2.84-.54-7.99-.31-4.53.19-5.89.35-6.31.72-.4.36-.8.41-1.68.23-1.66-.35-10.72-.25-13.94.17-1.51.19-4.04.38-5.63.41-3.16.06-5.76.78-7.29,2.02-.47.38-1.11.85-1.43,1.05-.5.32-.42.36.65.38.7.01,1.55-.2,1.98-.51.5-.35,1.64-.6,3.34-.73,6.96-.53,10.06-.82,11.82-1.09,1.06-.16,3.18-.2,4.72-.09l2.8.21-2.16.2c-2.24.2-3.62.52-3.38.77.23.23,9.17-.52,9.47-.8.42-.39-1.2-.69-2.65-.5-1.05.14-1.14.12-.53-.13.41-.17,1.51-.28,2.44-.24.93.04,2.89-.04,4.37-.17,2.58-.23,2.69-.21,2.85.41.17.64.28.65,6.6.66,3.54,0,7.18-.07,8.09-.17,1.47-.15,1.59-.22,1.1-.58-.52-.38-.5-.43.27-.72.46-.17,1.21-.31,1.68-.31.47,0,1.03-.2,1.24-.45.21-.25.59-.45.85-.45.96,0,0-.44-1.39-.64Z"/>
  <path class="border-bottom-shape" d="M305.34,36.21c-.27.69-.25.73.37.74.77,0,1.02-.32.62-.81h0c-.45-.54-.77-.52-.99.07Z"/>
  <path class="border-bottom-shape" d="M842.63,4.91c13-.58,15.33-.86,14-1.72-.25-.16-.79-.23-1.21-.15-.42.08-3.22.21-6.22.3-3,.09-5.55.22-5.68.3-.12.08-3.49.27-7.49.42-7.47.29-11.74.57-11.96.77-.74.66,5,.69,18.55.09Z"/>
  <path class="border-bottom-shape" d="M833.98.66c.09-.15-.11-.37-.44-.5-.91-.34-12.21-.1-13.11.28-.68.29-.45.36,1.81.58,3.03.29,11.5.03,11.75-.36Z"/>
  <path class="border-bottom-shape" d="M808.86.35c-5.05.01-9.23-.03-9.29-.09h0c-.06-.06-2.25-.09-4.86-.06-2.61.03-6.36.07-8.32.09-1.97.02-4.33.16-5.25.31-.92.15-4.83.33-8.68.4-9.67.17-12.66.31-13.55.67-.57.23.29.32,3.5.39,2.34.05,4.54.08,4.87.07,1.77-.05,26.54-.34,36.69-.43,11.65-.1,13.69-.25,13.94-.98.1-.3-1.8-.38-9.05-.36Z"/>
  <path class="border-bottom-shape" d="M759.16,8.27c3.84-.07,6.33-.24,6.54-.44.48-.48-11.32-.29-12.13.2-.48.28.7.34,5.6.25Z"/>
  <path class="border-bottom-shape" d="M753.93,10.42c.21.08.55.09.76,0,.21-.08.04-.15-.38-.15-.42,0-.59.07-.38.15Z"/>
  <path class="border-bottom-shape" d="M446.46,25.1c-.59.1-2.06.19-3.27.19-1.21,0-2.21.09-2.21.2,0,.34,6.53.64,7.32.34l.75-.28-.76-.32h0c-.42-.18-1.24-.23-1.83-.13Z"/>
  <path class="border-bottom-shape" d="M436.34,25.36c.38.07.99.07,1.37,0,.38-.07.07-.13-.68-.13-.75,0-1.06.06-.69.13Z"/>
  <path class="border-bottom-shape" d="M454.86,25.38c-.72.27-.27.73.73.73.94,0,1.47-.45.84-.71-.55-.22-1.03-.23-1.57-.02Z"/>
  <path class="border-bottom-shape" d="M458.71,25.9c.53.19,2.45-.1,2.8-.42.17-.15-.37-.27-1.27-.27-1.48,0-2.36.39-1.53.69Z"/>
  <path class="border-bottom-shape" d="M463.02,25.23c-.6.22-.74.41-.5.64.37.38,2.27-.3,2.01-.72-.2-.32-.52-.3-1.51.07Z"/>
  <path class="border-bottom-shape" d="M674.62,11.42c.38-.07.07-.13-.68-.13-.75,0-1.06.06-.69.13.38.07.99.08,1.37,0Z"/>
  <path class="border-bottom-shape" d="M803.48,11.1c.84-.09,3.1-.43,5.02-.76,1.93-.33,3.96-.51,4.51-.41,1.62.31,7.87.26,8.45-.06.29-.16.57-.67.62-1.12.08-.78.03-.82-.88-.67-.53.09-1.59.05-2.34-.09-2.1-.38-2.8-.36-6.1.12-1.68.25-6.06.5-9.75.57s-6.84.2-7,.3c-.16.1-.7-.06-1.2-.36-.8-.47-1.08-.49-2.41-.16-.83.21-2.38.36-3.44.34-1.06-.02-3.56.09-5.55.26-1.99.17-3.73.24-3.87.15-.14-.09-1.43.06-2.87.32s-3.6.46-4.81.44c-4.6-.1-14.72.17-15.59.4-.5.14-1.24.5-1.65.82-.72.56-.75.56-1.46-.12-.62-.59-1.01-.68-2.77-.62-1.12.04-3.34.23-4.93.43-1.59.2-3.82.33-4.96.28-1.92-.08-2.08-.04-2.34.64-.32.85-1.07,1.2-1.94.92-.55-.18-.56-.23-.11-.48.68-.38.66-.98-.02-.71-.29.12-3.55.27-7.23.35-3.68.07-6.83.24-7,.37-.57.44-3.73.67-3.97.29-.29-.47-3.36-.1-4.32.53-.4.26-1.23.57-1.85.69-.62.12-1.37.32-1.66.44-.68.28-1.12-.69-.5-1.11.28-.19-.62-.26-2.56-.21-2.47.07-3.04.17-3.29.61-.38.68-1.12.68-1.86,0-.88-.8-6.01-.87-6.01-.08,0,.15.79.29,1.75.31,2.57.04,1.1.54-1.64.56-1.89.01-2.17-.05-2.13-.52.04-.55-.6-.6-5.59-.47-.75.02-5.27.04-10.05.03-4.77,0-12.17.04-16.44.08-12.6.14-11.7.09-11.26.62.72.88.3.95-3.89.69-.46-.03-3.17.03-6.01.13-3.46.13-4.88.09-4.28-.1.49-.16,2.88-.35,5.29-.43,2.42-.08,4.48-.22,4.58-.32.44-.44-.86-.73-2.54-.58-3.55.33-6.58.42-13.25.37-2.59-.02-7.08-.02-9.96,0-2.88.02-5.35-.04-5.48-.12-.13-.08-1.86.03-3.83.24-1.98.21-3.88.31-4.23.21-.44-.12-.57-.06-.42.19.16.26,1.65.35,5.3.31,2.79-.03,7.2.08,9.79.24,4.27.26,4.55.31,2.89.52-1,.13-4.43.2-7.61.17-5.74-.06-20.17.18-25.73.43-1.59.07-3.37.13-3.95.12-.58,0-.95.09-.83.21.51.51,3.68.66,7.82.38,3.46-.24,22.41-.53,27.25-.42,5.32.12,13.06.1,23.44-.07,6.87-.11,16.8-.25,22.07-.31,5.28-.06,11.92-.17,14.77-.24,2.85-.07,8.12-.19,11.72-.26,3.6-.07,8.4-.21,10.66-.31,4.27-.19,6.97-.27,15.68-.51,2.85-.08,6.27-.22,7.61-.31,1.34-.09,4.01-.21,5.94-.28,1.93-.06,6.11-.27,9.29-.45,3.18-.19,6.47-.38,7.31-.43.84-.05,6.39-.11,12.33-.14,5.94-.03,13.41-.23,16.59-.45,3.18-.22,6.88-.44,8.22-.49,4.24-.15,14.86-.75,16.44-.92ZM630.35,15.34c-1.75,0-2.67-.12-2.55-.31.1-.17,1.42-.3,2.93-.3,1.75,0,2.67.12,2.55.31-.1.17-1.42.3-2.93.3ZM676.36,14.56c-.84,0-1.52-.14-1.52-.31,0-.17.69-.3,1.52-.3.84,0,1.52.14,1.52.31,0,.17-.69.3-1.52.3ZM681.84,14.27c-1.11.35-2.74.35-2.74,0,0-.17.77-.29,1.75-.27,1.34.03,1.57.09.99.28ZM689.34,14.43c-1.03.15-1.42.11-1.27-.12.11-.18.83-.33,1.61-.32,1.73,0,1.61.16-.33.44ZM693.16,14.21c-.22.09-.48.08-.58-.03-.1-.1.08-.17.4-.16.35.02.43.09.18.18ZM784,10.3c-.1.17-.25.3-.32.3-.07,0-.13-.14-.13-.31,0-.17.15-.3.32-.3.18,0,.24.14.13.3Z"/>
  <path class="border-bottom-shape" d="M842.05,10.74c-.3.19-.23.31.3.45,1.55.42,4.52.14,4.52-.43h0c0-.34-4.28-.36-4.82-.02Z"/>
  <path class="border-bottom-shape" d="M857.62,8.19c3.31-.11,6.09-.29,6.16-.41.07-.12-.83-.32-2.02-.44-1.19-.12-2.45-.34-2.81-.48-.36-.14-.91-.19-1.23-.1-.32.09-2.79.2-5.48.23-2.69.04-5.65.23-6.57.42-.92.19-5.1.47-9.29.61-8.46.3-11.29.61-11.99,1.31-.43.43-.24.47,1.95.47,1.33,0,3.79-.13,5.47-.29,1.68-.16,4.9-.35,7.16-.43,2.26-.07,6.03-.26,8.37-.42,2.34-.16,6.98-.37,10.29-.48Z"/>
  <path class="border-bottom-shape" d="M744.53,76.57c-.25,0-.46.2-.46.46,0,.25.2.46.45.46.25,0,.46-.21.46-.46,0-.25-.2-.46-.46-.46Z"/>
  <path class="border-bottom-shape" d="M931.47,105.41c-2.83-.01-4.03-.3-3.25-.78.21-.13,2.09-.3,4.18-.37l3.79-.13-.21.96c-.1.44-.14.67-.08.77h.35c.09-.03.18-.06.3-.11.43-.16,1.13-.52,1.54-.79h0c.53-.34,1.52-.5,3.28-.53,3.46-.05,9.9.26,10.12.49.14.14-.59.58-1.41.94h2.65c.22-.24.32-.61.23-.84h0c-.18-.46,1.6-.51,8.19-.2,2.2.1,2.85.55,2.01,1.04h7.44c.03-.13.08-.24.16-.29.19-.11,1.47-.08,2.86.07.87.1,1.54.17,2.13.22h14.27c.54-.14,1.25-.3,1.97-.43v-12.03c-7.07.6-25.41,1.09-25.41.58,0-.13.27-.48.6-.78.33-.3.68-.8.79-1.11.11-.34.47-.57.88-.57.39,0,1.28-.2,1.98-.44,1.03-.36,1.93-.39,4.64-.17,2.05.17,4.15.17,5.38,0,2.14-.3,9.97-.39,11.13-.14v-10.91c-6.23.09-11.72.45-13.99.92-4.01.83-5.81.13-3.7-1.44.84-.62,1.47-.78,3.89-.93,5.26-.33,10.75-.89,11.52-1.19.19-.07,1.04-.18,2.27-.3v-11.95c-.79.13-1.75.28-2.49.4-1.09.18-3.69.37-5.79.43-2.09.06-5.31.24-7.16.42-3.92.37-13.23.83-15.77.78-1.18-.02-1.85-.18-2.03-.47-.23-.38-.51-.37-2.05.05-2.1.57-5.03.8-12.28.93-2.93.05-5.53.15-5.77.2-.73.18-.72-.97.01-1.75l.69-.73h-1.26c-1.3,0-2.81-.53-2.81-.97,0-.14-.74-.26-1.65-.26-.91,0-1.73-.12-1.82-.27-.09-.14.16-.55.54-.92.74-.69,1.18-.75,11.31-1.53,6.43-.5,18.17-1.17,19.49-1.11,3.26.14,12.96-1.27,10.95-1.59-1.35-.22-5.14-.21-7.9.02-1.84.15-5.75.42-8.68.59-7.52.44-16.35,1.11-20.1,1.54-3.95.45-6.99.42-8.98-.08-1.01-.25-2.61-.32-4.77-.2-2.26.12-3.31.08-3.46-.16-.13-.22-1.18-.33-2.84-.31-5.25.07-21.98-.28-22.17-.47-.45-.45,2.25-1.13,5.6-1.41,8.11-.68,9.53-.97,9.53-1.94,0-.28-.5-.49-1.44-.62-2.37-.32-2.41-.34-1.09-.71.7-.2,4.6-.49,8.68-.66,11.82-.48,12.44-.54,13.49-1.27.51-.35,1-.69,1.08-.74.08-.05-.06-.23-.3-.39-.25-.17-1.27-.23-2.27-.14-2.03.18-3.13-.31-2.77-1.23.15-.38.37-.44.88-.25.38.14,1.73.23,3.01.2,1.74-.04,2.42.06,2.7.4.47.57,1.94.58,3.67.02.74-.24,2.13-.58,3.08-.77,1.75-.34,2.72-.97,2.09-1.36-.32-.2-8.63.21-13.86.69-4.46.41-10.94.23-11.61-.31-1.23-1-2.06-1.25-4.82-1.44-1.58-.11-2.81-.3-2.73-.42.29-.46,5.66-1.27,7.38-1.11.96.09,3.12.05,4.8-.09,7.99-.68,18.15-1.46,22.69-1.73,4.76-.29,8.56-.69,15.84-1.65,1.76-.23,6.21-.56,9.9-.72,3.68-.17,7.86-.42,9.29-.58,1.42-.15,5.47-.35,8.98-.44,1.52-.04,3.25-.13,5.01-.24v-3.83c-3.17.12-9.02.55-11.57.88-1.27.17-3.8.27-5.63.22-3.22-.07-8.56.27-13.86.89-1.41.17-6.13.45-10.48.62-4.35.17-9.29.52-10.96.77-1.68.25-4.9.5-7.16.55-2.26.06-5.07.3-6.24.55-1.17.24-4.05.51-6.39.61-2.35.09-4.61.23-5.03.31-1.54.29-12.46,1.38-16.29,1.62-2.18.14-4.99.33-6.24.44-1.44.12-2.11.09-1.83-.09.88-.54,7.52-1.55,13.25-2.02,3.18-.26,7.02-.74,8.53-1.07,1.51-.33,4.22-.72,6.03-.87,3.65-.3,4.6-.62,4.34-1.47-.14-.43.04-.59.79-.74,1.45-.29,3.32-.22,3.32.11,0,.35-1.33,1.05-2.55,1.34-1.74.41-.51.5,2.89.2,4.99-.44,5.74-.58,5.56-1.05-.08-.22-.66-.51-1.27-.64l-1.12-.23,1.22-.23c1.57-.3,8.52-.59,8.27-.35-.1.1-.84.29-1.65.41-.8.12-1.94.43-2.52.69-1.05.45-1.04.46,1.68.49,1.51.02,3.7-.16,4.87-.4,1.17-.23,3.67-.59,5.56-.78,1.88-.2,3.43-.48,3.43-.62,0-.33.4-.35-4.95.2-4.19.43-5.19.41-4.72-.05.28-.27,3.65-.69,8.46-1.03,2.43-.17,6.75-.52,9.59-.77,2.85-.25,6.82-.48,8.83-.52,2.01-.04,4.27-.21,5.02-.38,1.89-.42,4.97-.47,4.73-.07-.11.17-.84.32-1.62.31-1.98,0-6.14.75-6.56,1.19-.27.27.33.34,2.54.27,1.59-.05,3.04,0,3.21.12.18.11,2.92,0,6.09-.24,3.43-.26,7.12-.51,10.46-.71v-1.64c-4.57.14-12.43.66-12.76.86-.14.09-.33.04-.43-.11-.24-.4,2.86-1.14,6.37-1.54,1.68-.19,3.38-.41,3.78-.49.73-.15.73-.16.15-.74-.58-.58-.62-.58-3.93.14-3.52.77-10.43,1.35-15.91,1.35-3.35,0-4.7.1-14.99,1.15-3.27.33-8.13.67-10.81.75-4.63.14-6.67.29-13.7,1.05-1.68.18-5.47.37-8.42.42-4.98.09-5.43.05-6.14-.5-.42-.33-1.05-.6-1.41-.6-.36,0-.58-.12-.5-.26.09-.14,2.25-.34,4.81-.45,2.56-.11,5.03-.28,5.49-.37.64-.14.84-.06.84.32,0,.69,1.44.64,3.09-.1.73-.33,1.88-.6,2.55-.6.67,0,2.69-.23,4.5-.51,3.08-.48,3.36-.48,4.72.01,1.18.43,1.64.46,2.51.17.59-.19,2.09-.38,3.35-.42,3.06-.1,9.1-.6,11.72-.98,4.42-.64,9.28-1.02,13.7-1.06,3.49-.04,4.83-.17,5.7-.55,1.62-.72,2.34-.67,1.41.1l-.72.6h.95c1.35.03,2.85-.3,2.86-.62,0-.15-.51-.27-1.12-.27-2.05,0-.64-.55,2.65-1.03,2.59-.37,6.28-.73,9.7-.96v-8.71c-2.41.42-4.5.62-4.88.39-.4-.25-1.72-.21-5.03.12-2.47.25-4.69.52-4.94.59-.25.07-1.96.2-3.81.28-1.84.08-4.03.28-4.87.43-.84.16-1.87.22-2.28.14-.42-.08-2.53.06-4.69.31-2.16.25-4.04.38-4.17.3-.29-.18-18.11.6-23.33,1.01-3.48.28-7.25.35-6.63.13.44-.16,9.34-.98,14.16-1.32,2.26-.16,5.2-.49,6.52-.75,1.33-.25,2.64-.39,2.92-.3.28.09,1.59-.04,2.92-.28,2.39-.44,6.75-.85,12.92-1.22,1.76-.1,4.5-.52,6.09-.93,1.59-.41,3.24-.67,3.66-.58s5.15-.23,10.51-.71c1.57-.14,3.26-.28,4.94-.42v-2.63c-4.5.23-8.27.29-8.48.08-.22-.23.22-.47,1.46-.82,4.48-1.25,4.45-1.9-.05-1.21-1.94.29-4.63.43-7.45.37-2.43-.05-5.65.02-7.16.15-3.5.31-3.22-.08,1.08-1.47l3.19-1.03-1.63-.04c-1.32-.03-1.6-.12-1.45-.49h0c.21-.56-.3-.59-2.58-.16-.9.17-2.39.31-3.31.31-.92,0-4.14.21-7.16.48-3.02.26-7.88.51-10.81.56-8.84.14-14.65.3-23.44.64-4.61.18-9.81.38-11.57.44-3.28.13-14.98.79-22.84,1.3-2.43.16-7.84.48-12.03.72-4.19.24-8.62.56-9.84.73-2.82.38-3,.38-2.61,0,.17-.17,1.37-.51,2.67-.75,2.58-.48,3.66-.92,3.39-1.37-.1-.16-.73-.29-1.4-.29-1.5,0-2.51-.5-2.27-1.12.15-.39-.17-.43-2.22-.25-1.64.14-2.46.09-2.6-.14-.11-.19-.52-.34-.89-.34-.38,0-.95-.2-1.28-.45-1.15-.87-3.63-.33-3.64.79,0,.31-1,.44-4.26.54-2.34.08-4.44.26-4.66.4-.39.25-4.1.47-10.41.61-4.39.1-14.37.74-14.71.95-.15.09-1.87.21-3.82.26-1.95.05-4.58.16-5.83.25-1.26.09-3.86.24-5.79.33-5.73.27-6.51.33-7.27.58-.54.18-.69.13-.59-.18.08-.23.54-.52,1.03-.65.49-.13,1.31-.43,1.81-.67.5-.24,1.23-.55,1.61-.69.44-.16-1.3-.29-4.62-.35-3.48-.06-5.39.02-5.52.23-.13.2-.94.25-2.23.13-2.04-.19-3.05.09-2.66.72.15.24,1.47.3,4.36.21,2.28-.07,4.49-.05,4.9.06l.75.19-.79.41c-.85.44-4.75,1.07-5.14.83-.13-.08-1.79.05-3.68.3-6.34.82-19.79,1.49-33.35,1.65-3.3.04-3.73.1-3.73.56,0,1.24-.54,1.33-7.16,1.2-2.01-.04-4.23.06-4.92.22-.7.16-1.64.21-2.08.13-.45-.09-2,0-3.45.18-1.45.18-5.04.41-7.97.5-2.93.09-7.11.28-9.29.42-5.24.34-14.2.55-28.32.67-6.36.06-15.47.16-20.25.24-4.77.08-14.94.17-22.61.2-12.45.06-13.99.12-14.49.57-.75.68-2.06.63-3.1-.12-.6-.43-.93-.51-1.08-.27-.14.22-.7.28-1.54.16-1.11-.16-1.39-.09-1.71.42-.51.8-1.08.76-1.93-.16-.65-.71-.87-.75-3.19-.67-1.86.07-2.55.21-2.75.56-.21.38-.7.44-2.48.33-1.22-.08-2.52-.29-2.9-.48-.57-.28-.81-.22-1.43.36-.57.54-.94.65-1.6.49-1.42-.35-7.13-.45-8.96-.16-1.48.24-10.24.63-12.91.58-4.72-.09-11.87-.02-12.1.12-.26.16-5.2.26-22.15.45-3.29.04-6.5.24-7.71.48-1.38.28-2.25.32-2.59.12-.3-.18-5.25-.3-12.23-.3-12.02,0-18.64.22-20.25.69-1.11.33-2.98.34-14.14.12-5.95-.12-8.79-.07-9.06.16-.22.18-.4.65-.4,1.05,0,.95-.71.93-1.33-.03-.71-1.1-2.35-1.48-5.05-1.19l-2.28.24-1,1.52c-.55.84-1.14,1.56-1.3,1.62-.47.16-.92-1.37-.7-2.41l.19-.94-1.59.17c-.88.09-1.73.26-1.9.36-.46.28.37.71,1.38.72.48,0,.81.15.75.34-.15.43-3.18,1.49-4.27,1.48-.47,0-.85.15-.85.35,0,.24-.52.29-1.64.17-.9-.1-1.77-.04-1.93.12-.46.46-12.25.4-16.79-.08-3.76-.4-4.09-.39-4.35.08-.2.36-.51.45-1.03.32-.91-.23-2.27.07-2.27.51,0,.18.27.24.62.12.36-.11.93,0,1.35.28.65.42,1.99.57,4.8.51,1.58-.03,3.12-.03,4.49,0,.75.02,2.91.05,4.8.08,2.37.03,3.42.16,3.42.4,0,.19-.47.81-1.05,1.36-.76.74-1.2.95-1.6.78-.97-.4-3.27-.59-4.81-.4-.46.06-.61-.1-.61-.66,0-.95-.62-1.15-1.39-.46-.57.52-.62.52-.99,0-.35-.48-.81-.52-4.17-.39-3.05.12-3.85.25-4.15.65-.25.34-.58.44-1.01.3-.74-.24-3.62,1.47-3.06,1.82.18.12,2.37.19,4.87.18,4.31-.03,4.55,0,4.87.61.45.84,2.33.77,2.19-.08-.09-.54.27-.71.66-.32.19.19,2.83.38,6.18.43.81.01,1.33.18,1.44.46.11.29.61.44,1.42.44,1,0,1.29-.12,1.42-.6.09-.33.34-.61.56-.61.22,0,.6-.2.86-.45.63-.63,1.93-1.08,2.48-.87.79.3.52,1.02-.38,1.03-.8,0-.81.03-.25.46.74.57,1.36.57,1.98.02,1.02-.92,7-1.24,7.51-.41.09.14.49.18.9.08.55-.14.89,0,1.31.52.53.65.64.68,1.44.29.48-.23,2.11-.53,3.62-.66,1.51-.14,2.95-.27,3.2-.29.25-.03.72.07,1.04.2.47.2.55.15.38-.26-.11-.28-.29-.72-.39-.97-.27-.68.6-.57,1.25.16.3.34.88.61,1.27.61.4,0,1.04.21,1.43.47,1.25.82,12.66.83,23.93.02,2.95-.21,8.21-.11,8.78.16.28.14,2.96.15,5.97.03,4.53-.18,5.55-.15,5.94.21.26.24.95.64,1.53.89l1.06.46h-1.08c-.59.01-1.23-.13-1.4-.31-.23-.23-.76-.19-1.81.12-1.72.52-10.6,1.01-21.89,1.2-4.19.07-9.87.19-12.64.26-2.76.07-8.93.2-13.7.28-4.77.08-10.25.24-12.18.35-3.55.21-8.04.18-25.87-.19-5.44-.11-9.8-.12-9.7-.01.27.27,18.49.91,25.93.91,5.81,0,6.4.05,6.92.57.53.54.54.59.04.84-.51.26-32.52.07-40.28-.24-4.57-.18-9.33.23-9.97.86-.3.3-.66.36-1.09.2-1.81-.69-4.32-.91-10.81-.95-3.92-.02-7.46-.12-7.87-.23-.67-.17-.73-.11-.64.69l.1.88h-3.88c-2.36-.02-3.88-.14-3.89-.33,0-.17.92-.34,2.06-.39,1.13-.05,2.18-.21,2.33-.36.48-.46-1.29-.7-2.9-.38-.91.18-2.01.19-2.69.03-.64-.15-3.4-.19-6.14-.11-7.86.24-10.49.45-11.39.93-.75.4-5.22,1.07-5.58.85-.15-.09-1.83-.01-3.73.17-1.91.19-3.74.33-4.07.32-7.41-.24-9.04-.42-9.54-1.04-.41-.51-.66-.58-1.27-.35-.46.17-1.52.18-2.69.01-1.06-.15-2.09-.18-2.27-.06-.19.11-4.18.23-8.88.25-8.79.04-9.68.1-10.78.68-.83.44-4.71.53-9.41.21-3.46-.24-3.79-.21-4.5.34-1.03.8-3.83,1.06-5.78.52-.88-.24-1.79-.32-2.16-.18-.35.13-1.39.23-2.31.22-.92-.01-1.96.13-2.31.32-.46.24-.7.25-.85.02-.12-.2-.65-.25-1.31-.15-.61.1-1.89.23-2.85.3-.96.06-2.06.33-2.46.59-.44.29-1.79.54-3.44.65-3.09.2-2.86.2-5.92-.06-1.51-.13-2.9-.06-4.11.22-1.15.26-2.28.33-3.05.19-.67-.13-1.65-.1-2.18.07-.53.17-1.83.36-2.89.44-2.15.15-1.94.16-5.25-.08-2-.14-2.45-.09-2.68.31-.35.62-1.27.62-1.78,0-.31-.38-.73-.44-1.94-.28-.85.11-1.68.3-1.85.43-.65.48-3.29.62-3.78.2-.37-.32-1.01-.36-2.77-.18-1.26.13-2.92.16-3.69.06-.88-.11-1.49-.04-1.62.17-.11.19-.61.34-1.1.34-.49,0-1.52.16-2.28.36-.97.26-1.54.27-1.91.05-.61-.37-6.87,0-7.83.47-.34.16-1.02.28-1.52.26-.5-.02-1.45.06-2.1.19-1.11.22-1.18.19-1.02-.4.15-.57.06-.62-.94-.48-.61.08-1.51.27-1.99.43-.49.15-1.49.27-2.23.27-.82,0-1.27.11-1.16.3.26.42-2.58.39-4.28-.05-1.08-.28-1.45-.26-1.86.07-.3.25-1.32.43-2.51.45-1.1.02-2.72.13-3.59.25-1.95.28-3.19.02-2.94-.62.13-.34-.05-.45-.75-.46-.51,0-1.01.13-1.12.3-.11.17.18.31.67.31.67,0,.76.07.4.31-.25.16-1.42.29-2.59.27-2.56-.04-8.92.41-13.01.91-2.66.33-3.04.31-3.75-.15-.62-.41-.99-.46-1.76-.22-1,.3-7.3.67-13,.77-1.76.03-4.71.29-6.55.58-2.18.34-5.7.57-10.05.65-9.99.17-12.95.28-14.42.52-.99.17-1.39.12-1.59-.2-.31-.5-1.95-.48-11.4.14-3.52.23-9.89.56-14.16.73-4.27.17-9.75.5-12.18.73-2.43.23-6.06.56-8.07.74-15.32,1.32-18.23,1.68-19.71,2.45-.97.5-1.51.57-3.07.41-1.04-.11-2.3-.2-2.81-.2-.98,0-6.53.74-9.29,1.24-1.74.32-9.11.92-10.96.9-.59,0-2.5.2-4.26.45-1.98.29-4.06.39-5.48.28-1.26-.1-2.9-.04-3.66.13-.75.17-3.02.41-5.03.52-3.65.21-4.58.42-4.24.96.22.36,8.13.37,13.54.01,2.26-.15,5.41-.35,7-.44,1.59-.09,4.56-.36,6.6-.6,4.95-.57,5.49-.54,3.78.21-.96.42-2.54.67-5.48.87-2.27.15-5.91.41-8.09.57-2.18.16-5.26.36-6.85.46-1.59.09-4.81.42-7.16.73-4.95.66-16.64,1.47-20.92,1.46-.79,0-1.52.02-2.08.07v.61c1.56.19,4.72.18,8.59-.05,3.23-.19,7.73-.45,9.99-.58,2.26-.13,5.55-.45,7.31-.73,2.28-.36,4.6-.47,8.07-.4,4.8.1,13.1-.35,16.72-.91,1.02-.16,4.94-.34,8.7-.41,3.77-.07,7.47-.21,8.22-.31.95-.13,1.23-.09.91.12-.43.27-2.18.51-9.13,1.25-1.42.15-4.19.27-6.15.27-1.96,0-4.91.12-6.55.27-1.64.15-5.17.43-7.85.63-4.93.35-6.32.63-5.25,1.05.34.13.48.4.37.74-.16.5.21.54,5.09.56,2.89.01,6.54-.16,8.11-.38,2.9-.41,3.9-.73,2.3-.75-.49,0-1.07-.12-1.3-.27-.75-.48,1.27-.62,2.21-.16.75.37,1.98.39,8.03.13,3.93-.17,7.31-.24,7.52-.16.56.22,8.9-.29,13.4-.82,2.18-.25,5.6-.46,7.61-.46,2.01,0,5.18-.22,7.04-.48,3.62-.52,4.38-.43,4.38.49,0,.32.24.64.53.71.29.07,2.86-.12,5.71-.42,6.48-.69,12.22-.8,13.18-.25.6.35.84.31,1.74-.24.78-.48,1.31-.59,2.09-.44.63.12,1.12.07,1.25-.13.13-.21-.12-.33-.69-.33-.49,0-1.05-.19-1.24-.42-.28-.34-.11-.46.9-.61,1.42-.22,1.75-.09,2.11.88.21.57.58.73,2.03.92,2.5.32,14.13.22,21.6-.19l3.38-.19-.15.78c-.14.74-.09.78,1.03.73,2.78-.12,2.97.14.44.61-1.03.19-1.79.19-2.11,0-.28-.16-.36-.3-.2-.31.17,0,.1-.15-.15-.31-.67-.44-2-.37-3.28.16-2.1.88-4.16,1.05-11.64.99-4.1-.04-7.87-.07-8.37-.07-.5,0-3.76.01-7.23.03-6.03.04-6.33.07-6.65.66-.31.58-.51.61-2.82.4-3.8-.34-10.34-.19-13.9.32-1.76.25-5.66.56-8.68.68-3.01.12-5.87.38-6.34.56-.47.19-1.84.33-3.04.32-1.2,0-3.9.19-6,.43-2.09.24-5.16.58-6.81.75-1.65.17-3.23.44-3.5.59-1.05.58.54.68,5.65.33,8.07-.55,13.09-.66,14.1-.3.93.33,9.4-.13,15.76-.84,2.82-.32,13.72-.91,15.45-.84,4.29.18,7.8.17,16.9,0,5.78-.11,13.24-.36,16.59-.54,10.98-.6,12.59-.65,29.08-.94,11.3-.19,21.56-.55,25.27-.87,2.08-.18,2.28-.19,8.83-.53,2.26-.12,4.7-.36,5.41-.54.72-.18,1.38-.25,1.47-.16.09.09-.05.59-.32,1.11-.48.93-.48.94.24.94.52,0,.84-.25,1.1-.88.43-1.02,1.31-1.33,3.01-1.05.81.13,1.41.05,1.91-.27.67-.43,3.98-.76,9.56-.95,1.01-.04,3.91-.21,6.46-.39,2.55-.18,7.55-.32,11.11-.31,6.79.01,16.73-.37,22.16-.85,1.76-.16,4.57-.28,6.24-.29,1.68,0,4.21-.2,5.63-.45,3.54-.61,7.31-.87,7.31-.5,0,.56-.91,1.05-1.67.9-.43-.08-.91.03-1.11.27-.39.47-.03.55,1.94.44.78-.04,1.2.08,1.31.39.26.68,2.27-.64,2.18-1.43-.04-.32.1-.64.32-.71.24-.08.38.16.38.64,0,.95.2,1.08,1.44.89,1.18-.18,1.42-1.24.33-1.53-1.18-.31,2.16-.99,3.9-.79.86.1,1.82.05,2.13-.12.31-.16,1.82-.38,3.35-.5,2.64-.19,2.78-.17,2.94.43.18.71.83.86.83.19,0-.6.6-.92.99-.52.23.23.21.47-.08.81-.66.8.03,1.15,1.27.63.59-.24,1.38-.36,1.75-.27.59.16.66.07.58-.7l-.09-.88,1.96-.09c1.54-.07,2.12.04,2.74.49.43.32,1.29.66,1.9.76,1.04.17,1.13.13,1.22-.63.09-.76.18-.81,1.46-.72.75.05,1.6.31,1.9.58.3.27.97.5,1.51.52,1.17.04,1.48.69.51,1.05-2.28.85-2.78.9-5.79.59-2.19-.23-3.29-.22-3.81.01-.67.3-1.65.23-2.83-.2-.88-.33-2.87-.03-3.59.53-.81.63-3.87.77-4.55.21-.25-.21-.51-.21-.76-.02-.21.17-1.03.38-1.82.48-1.23.16-1.48.1-1.76-.42-.46-.87-1.3-.74-2.1.33-.68.92-.73.93-2.61.72-1.19-.13-2.15-.09-2.53.12-.79.42-2.39.6-8.75.96-2.85.16-5.86.42-6.7.58-1.7.32-7.28.56-16.52.7-3.39.05-6.29.17-6.44.26-.48.3-12.28-.15-12.67-.48-.24-.2-.64-.21-1.11-.03-.45.17-1.35.16-2.31-.01-1.27-.24-1.72-.2-2.3.18-.47.31-1.3.45-2.37.41-.9-.04-2.49.04-3.54.18-1.37.17-1.9.15-1.9-.1,0-.51-2.31-.44-3.38.11-.5.26-1.56.46-2.35.44-.79-.01-1.64-.02-1.89,0-.25.01-.82-.07-1.26-.17-.65-.16-.85-.07-1.01.44-.22.69-.45.74-2.75.65-.84-.04-2.55.15-3.81.41-2.75.57-3.72.59-4.21.09-.29-.29-.5-.29-.95-.01-.69.43-4.31.87-9.15,1.13-1.92.1-3.84.26-4.26.34-.42.09-7.54.19-15.83.23-8.29.04-16.03.12-17.2.19-6.39.33-8.79.5-8.99.62-.31.19-14.03.77-21.16.89-3.18.06-7.5.15-9.59.22-2.09.06-6.2.16-9.14.22-2.93.06-6.63.26-8.22.45-6.8.8-9.18.94-18.27,1.08-7.03.11-10.89.32-14.46.77-2.68.34-6.72.64-8.98.67-2.77.04-5.06.25-7,.67-1.59.34-3.85.7-5.03.81-1.17.11-3.07.39-4.21.63-2.84.58-3.62.56-3.51-.11.17-1.04-.32-1.29-2.58-1.3-4.45-.02-10.36.62-11.36,1.22-1.5.9-4.86.58-5.75-.55-.24-.31-1.96-.31-8.83.03-7.41.36-11.54.64-14.43.99v1.33c1.8.02,3.84.04,5.98.05,13.28.07,18.85.42,20.43,1.28.73.4.52.44-2.7.47-1.93.02-8.36.11-14.31.2-2.69.04-6.04.07-9.39.07v1.26c28.78-.06,35.66-.2,36.03-.7.43-.59,1.07-.63,2.68-.18.67.19,1.1.48,1.03.69-.07.2.08.6.33.89.43.5.37.53-.91.53-.75,0-1.84.23-2.41.53-1.07.55-3.48.61-12.61.35-1.89-.05-3.68.05-4.11.23-.63.27-.38.33,1.52.35,3.06.04,7.65.55,9.89,1.09,1,.24,2.67.53,3.71.65,1.04.11,2.13.4,2.43.63.47.36-.65.39-7.82.21-8.98-.23-14.1.12-20.99,1.4-1.77.33-4.45.8-5.94,1.04-1.13.19-2.24.42-2.85.59v1.8c1.23.19,2.14.35,2.28.42.3.17-.32.32-2.28.49v2.33c8.86-.37,23.97-.23,26.76.31,1.53.29,1.99.5,1.87.82-.12.3.09.44.7.46,1.6.06,3.29-.06,4.49-.32.91-.2,1.66-.1,3.2.39l2.01.65-1.22.24c-1.78.35-14.93-.1-16.74-.58-1.61-.42-11.05-.22-19.94.42-.29.02-.67.04-1.12.06v1.27c1.22.05,2.11.12,2.34.18.71.22.69.25-.4.46-.37.07-1.08.12-1.94.13v6.48h934.26c-.07-.35-.88-.43-2.79-.44ZM918.83,23.76c.13.22-.63.32-2.31.31-1.38,0-2.45-.06-2.38-.12.35-.31,4.51-.49,4.69-.2ZM468.61,30.41c-2.56.04-6.47.65-6.76,1.05-.3.4-.43.41-.92.04-.92-.68-.4-1.43.99-1.42h0c.65,0,2.42-.08,3.92-.18,1.91-.13,2.81-.08,2.96.16.12.19.03.35-.19.35ZM474,30.32c-.75-.03-1.37-.16-1.37-.29,0-.12.62-.23,1.37-.22.75,0,1.37.13,1.37.28,0,.16-.62.26-1.37.22ZM488.23,25.84c.07-.22.45-.45.83-.5.47-.07.65.03.56.31-.07.22-.45.45-.83.51-.47.07-.65-.03-.56-.31ZM486.95,25.59c.17,0,.3.14.3.3,0,.17-.14.3-.31.3-.17,0-.3-.14-.3-.31,0-.17.14-.3.31-.3ZM481.4,25.32c.88-.08.99,0,.99.68,0,.58-.2.82-.78.97-.92.23-1.01.16-1.12-.81-.07-.63.06-.75.91-.83ZM501.49,30.96c-.34-.74-.44-.76-3.72-.82-4.9-.08-11.24-.01-13.94.15-1.4.08-2.42.02-2.54-.17-.12-.19-1.04-.23-2.45-.11-1.61.14-2.26.1-2.26-.15,0-.31,2.37-.53,4.42-.41.34.02.95.04,1.37.05h0c.42.01,4.9-.01,9.97-.05,9.08-.07,9.21-.06,9.82.59.34.36.61.89.61,1.17,0,.78-.88.61-1.27-.25ZM62.01,59.53c-5.62.44-7.56.24-3.69-.38,3.68-.58,8.98-.82,8.98-.41,0,.42.71.32-5.29.78ZM41.1,64.52c-2.03.35-4.22.34-3.65-.03.25-.16,1.48-.27,2.74-.25,2.13.04,2.19.06.91.28ZM70.72,62.96c-.21.08-.55.08-.76,0-.21-.09-.04-.15.38-.15.42,0,.59.07.38.16ZM100.07,97.77c-.95.46-2.49.52-14.01.54-7.12.01-16.5.13-20.86.27-8.47.26-21.73-.04-22.99-.52-.7-.27-.65-.31.66-.51.78-.12,1.57-.12,1.75-.01.53.33,18.76.25,26.22-.12,7.36-.36,8.45-.39,10.79-.27h0c.84.04,4.5.04,8.13,0,3.63-.04,7.06.03,7.61.15.55.12,1.62.15,2.37.08l1.37-.13-1.07.52ZM120.26,72.95c-.49,0-.98-.14-1.08-.31-.11-.18.25-.3.9-.3.6,0,1.08.14,1.08.31,0,.17-.4.3-.9.3ZM130.47,73.09c-5.33-.22-6.8-.55-3.76-.85,3.44-.34,15.71-.46,15.9-.16.45.73-5.92,1.25-12.14,1ZM153.05,71.43c-.29.08-.77.07-1.07,0-.29-.08-.05-.14.53-.14.59,0,.83.07.53.14ZM156.73,71.07c-.28.12-.89.16-1.36.1l-.86-.1.76-.33c.42-.19,1.03-.23,1.36-.1.54.2.55.25.1.44ZM232.65,97.91c-.36.35-6.23.66-6.23.33,0-.13.93-.32,2.06-.42,2.97-.27,4.51-.24,4.17.1ZM270.43,96.24c-1.17.02-2.89.06-3.81.1-4.15.17-6.95.22-8.07.14-1.17-.08-1.16-.09.46-.32,1.83-.26,7.65-.87,9.59-1,.67-.04,1.77-.18,2.44-.29.88-.15,1.39-.08,1.83.26.92.7.11,1.07-2.44,1.11ZM280.27,95.18c-.09.09-1.43.22-2.97.31-2.19.11-2.79.06-2.68-.24.07-.21.8-.48,1.63-.59.82-.11,1.84-.27,2.26-.35.73-.14,2.11.54,1.77.88ZM526.76,76.78c.21-.65,2.97-.55,2.97.11,0,.16-.7.28-1.55.28-1.1,0-1.51-.12-1.42-.39ZM474.71,48.84h0c.47-.57,3.16-.63,2.97-.07-.14.43-2.29.94-2.92.69-.34-.13-.35-.25-.05-.62ZM457.04,50.47c.17,0,.3.15.3.32,0,.18-.14.24-.3.13-.17-.1-.3-.25-.3-.32s.14-.13.31-.13ZM449.74,48.62c.33.22.11.3-.84.3-.71,0-1.29-.14-1.29-.3,0-.39,1.53-.38,2.13,0ZM430.48,48.17c.76.14.89.54.31.89-.21.13-1.95.19-3.88.14l-3.51-.09-.87,1.09c-.66.84-.96,1.02-1.26.76-.22-.18-.33-.58-.25-.89.1-.39-.17-.75-.93-1.23-1.02-.63-1.11-.64-1.85-.16-.63.41-.87.43-1.23.13-.25-.21-.45-.49-.45-.63,0-.25,12.64-.27,13.93-.03ZM413.95,49.43c.38,0,1.09-.06,1.58-.13,1.19-.19,1.64.06,1.63.92,0,.41.4,1.1.95,1.61,1.09,1.02.73,1.58-.43.66-.42-.33-.98-.61-1.23-.61-.26,0-.55-.28-.66-.61-.28-.89-2.59-.96-3.55-.11-.3.27-.58.33-.69.15-.27-.43,1.58-1.87,2.4-1.87ZM408.71,49.65c.07-.21.45-.4.85-.42.4-.02.78-.19.84-.38.13-.38.76-.46,1.08-.14.11.11.2.46.2.76,0,.47-.25.56-1.55.55-1.1,0-1.51-.11-1.42-.38ZM389.93,47.82c.1-.16.29-.29.43-.29.36,0,1.05.9.85,1.1-.27.27-1.47-.49-1.27-.81ZM353.42,42.89c.35.02.43.09.18.19-.22.09-.48.08-.58-.03-.1-.1.08-.17.4-.16ZM330.54,48.89c.1-.17.25-.3.32-.3s.13.14.13.3-.15.3-.32.3c-.18,0-.24-.14-.13-.31ZM314.96,42.95c1.1-.29,1.65-.22,2.06.28.56.69.19.85-1.36.62-1.5-.23-1.79-.6-.7-.89ZM218.76,57.71c.66,0,.81.08.56.33-.24.24-.5.24-.9,0-.49-.29-.45-.33.34-.34ZM218.04,59.07c2.39-.07,2.76-.24,2.65-1.28-.1-1.01.79-1.3,4.33-1.42,1.42-.05,3.07-.17,3.65-.26.59-.1,1.4-.04,1.81.13.64.27.68.36.3.74-.3.3-1.34.47-3.33.53-2.77.09-2.91.13-3.28.89-.23.46-.8.92-1.37,1.1-1.48.45-8.14.76-8.14.38,0-.47,1.14-.74,3.38-.8ZM211.55,57.85c.8-.11,2.12-.4,2.95-.63h0c1.91-.55,2.28-.54,2.51.06.27.7-.48,1.08-1.81.92-.75-.09-1.3.01-1.59.3-.24.24-.86.59-1.38.76-.77.27-1.04.23-1.53-.22-.87-.79-.75-.96.85-1.19ZM209.36,60.11c.26,0,.43.16.36.36-.19.56-.85.66-.84.12,0-.27.22-.48.48-.48ZM180.59,59.61c.07-.06.81-.21,1.65-.32,1.12-.15,1.68-.08,2.13.25.58.43.58.46.05.67-.92.35-4.3-.18-3.84-.6ZM171.82,59.51c.62-.62,7.76-.11,7.36.53-.25.4-7.06.35-7.31-.06-.11-.18-.13-.39-.05-.47ZM163.83,59.97h0c.58-.36,3.03-.37,3.03,0,0,.53-1.8.93-2.67.6-.66-.25-.73-.37-.37-.59ZM183.29,63.54c-1.97-.09-2.09-.16-1.06-.62l.91-.42-1.26-.02c-1.01-.01-1.29.1-1.42.59-.15.58-.44.61-6.35.65-3.41.02-6.6.03-7.11,0-.5-.02-2.24.1-3.87.28-2.59.28-3.12.25-4.34-.21-.76-.29-2.45-.58-3.74-.63-3.35-.14-3.28-.13-2.94-.46.36-.36,5.22-.89,8.51-.92,2.48-.02,11.07-.23,13.55-.32.75-.03,2.6,0,4.11.06,3.84.16,7.12.04,7.32-.27.09-.14.81-.7,1.6-1.23,1.33-.89,1.67-.98,4.41-1.07,1.91-.07,2.97,0,2.97.21,0,.55-1.58.94-3.39.85-1.35-.07-1.88.03-2.37.48-.81.73-.57,1.09.75,1.1.58,0,1.39.22,1.79.49.41.27.88.4,1.06.29.47-.29,1.53.12,1.53.59,0,.63-4.4.87-10.66.59ZM200.31,61.75c-1.39.28-2.06.31-2.34.07-.22-.18-1.28-.36-2.36-.4s-1.99-.16-2.03-.26c-.04-.1.38-.46.93-.79.9-.54,1.09-.56,1.83-.17,1.06.55,4.06.77,4.23.31.07-.19-.38-.42-1.03-.54-1.64-.28-2.15-.66-1.74-1.31h0c.42-.67.78-.77,1.35-.4.25.16.83.3,1.29.3.56,0,.84.17.84.5,0,.27.35.77.78,1.11,1.01.8.69,1.09-1.74,1.59ZM204.97,60.92c-.22.09-.48.08-.58-.02-.1-.1.08-.17.4-.16.35.02.43.09.18.18ZM202.97,59.3c-.91-.35-.53-1.03.57-1.03.58,0,1.13-.13,1.24-.3h0c.22-.36,2.49-.4,2.7-.05.63,1.02-2.76,2.06-4.51,1.39ZM214.63,63.17c-.18,0-.24-.14-.13-.31s.25-.3.32-.3c.07,0,.13.14.13.3,0,.17-.15.3-.32.3ZM231.74,60.1c-.21.79-.33.83-2.18.89-1.08.03-3.33.2-5,.38-1.68.18-3.54.37-4.15.43-.61.06-1.41.27-1.78.46-.37.2-.9.27-1.18.15-.28-.11-2.53-.2-5-.19-2.82.01-4.49-.1-4.49-.29,0-.17.17-.33.38-.35,1.3-.16,2.33-.22,5.94-.35,2.22-.08,4.14-.21,4.27-.29.24-.14,2.39-.32,8.19-.66,3.93-.23,4.44-.41,3.65-1.28h0c-.74-.82-.22-1.04.77-.32.66.49.77.74.58,1.42ZM232.21,56.22c.34-.34,8.4-1.27,9.01-1.04.22.08,1.36,0,2.54-.17,1.17-.18,3.71-.38,5.63-.45,5.39-.19,8.57-.26,8.65-.18.04.04,1.3.09,2.79.11,1.49.02,3.03.11,3.4.2,1.32.31.66.66-1.53.81-1.21.08-3.78.28-5.71.44-1.93.16-3.69.3-3.91.31-.25.01-.34.21-.22.52.26.67-.35,1.33-1.23,1.33-.75,0-.97-.43-.4-.77.18-.11.27-.34.22-.52-.14-.42-4.66-.65-5.37-.27-.38.2-.67.18-.9-.06-.57-.57-6.63-.33-9.08.37-1.15.32-2.29.59-2.54.58-.74-.02-1.68-.87-1.34-1.21ZM263.38,57.49c0,.31-2.1.7-2.49.46-.14-.09-.18-.29-.09-.45h0c.22-.36,2.58-.37,2.57-.01ZM250.29,58.25c-.36.22-.92-.06-.92-.47h0c0-.37.83-.37,1.05,0,.1.16.04.37-.14.47ZM248.46,57.63c0,.31-.2.46-.53.4-.29-.06-.51-.24-.47-.4h0c.11-.53,1.01-.52,1.01,0ZM232.79,60.24c-.08-.08-.08-.27.01-.41h0c.21-.35,1.65-.33,1.65.01,0,.3-1.42.64-1.66.4ZM236.74,58.67c-.1.17-.33.3-.49.3-.17,0-.22-.14-.11-.3.1-.17.32-.3.49-.3.17,0,.22.14.11.31ZM287.29,58.39c-.28.11-.64.06-.81-.1-.19-.19-.14-.42.13-.65.33-.27.52-.25.81.1.31.37.28.5-.13.65ZM324.29,57.7c-.32,0-.68-.14-.78-.31-.11-.17.15-.3.59-.3.43,0,.78.14.78.31,0,.17-.27.3-.59.3ZM323.87,93.93c-.75.4-2.82.07-2.66-.42.15-.44,2.84-.62,3.09-.21.1.17-.09.45-.44.64ZM327.67,93.64c-.1.17-.8.3-1.54.3-.74,0-1.35-.14-1.35-.31,0-.17.69-.3,1.54-.3.95,0,1.47.12,1.35.31ZM329.21,60.97c-.84.11-1.28.02-1.57-.33-.34-.41-.32-.52.09-.67.67-.25.62-.65-.12-.89-.34-.11-.53-.32-.44-.48.32-.51,1.36-.12,1.35.51,0,.24.2.43.46.43.25,0,.46-.14.46-.3,0-.54,1.19-.32,1.5.28.4.76-.19,1.25-1.74,1.46ZM332.26,60.77c-.85,0-.89-.34-.08-.84.34-.21.61-.57.61-.8,0-.71,1.55-.83,2.24-.18.35.33-1.91,1.82-2.77,1.82ZM346.31,58.5c-.21.55-1.25.88-2.27.73-1-.15-1.12-.87-.14-.86.44,0,1.12-.21,1.52-.47.78-.51,1.21-.22.9.6ZM366.78,85.99c-1.46.15-2.08.1-2.25-.16-.13-.21-.04-.49.19-.63.56-.35,4.15-.34,4.37.02.26.43-.1.55-2.31.78ZM393.61,85.46c-.25.16-1.42.3-2.59.32-1.17.02-3.5.15-5.18.28-1.67.13-3.66.23-4.41.23-7.72-.05-10.94-.47-9.68-1.24.39-.24,6.15-.4,10.6-.3,1.26.03,2.9.03,3.65,0h0c.75-.02,2.33-.11,3.5-.2,2.37-.18,4.94.38,4.11.9ZM408.09,86.33c-.23-.23-1.72-.29-7.78-.35l-3.5-.03.64-.64c.59-.59,1.01-.64,5.57-.69l4.93-.05.42.84c.39.79.21,1.4-.28.92ZM428.53,85.55c-1.81.06-3.76.27-4.33.45-.73.24-1.2.24-1.63.01-.33-.18-1.01-.33-1.5-.33-.81,0-2.02-.85-1.39-.97.81-.15,14.53-.03,14.8.14.43.27-2.01.55-5.96.69ZM444.31,85.75c-.25,0-.46-.14-.45-.31,0-.17.21-.3.46-.3.25,0,.46.14.46.31s-.21.3-.46.3ZM484.05,82.82c-.33-.21-.06-.3.99-.3.8,0,1.45.14,1.44.3,0,.39-1.83.38-2.44,0ZM488.95,82.97c-.39.24-.95-.03-.94-.46,0-.35.33-.36.87-.01.29.18.31.32.07.47ZM495.85,89.27c-1.46-.16-2.86-.14-3.73.06-1.52.34-2.16.08-1.31-.53.35-.25,1.68-.4,3.77-.43,1.78-.02,3.34-.1,3.48-.19.14-.08.32-.04.4.09.08.14,2.09.23,4.45.21,3.09-.03,4.27.05,4.18.3-.16.47-8.2.81-11.23.48ZM496.99,82.86c-.66,0-1.03-.13-.91-.31.1-.17.52-.3.92-.3.4,0,.81.14.91.31.11.18-.26.3-.91.3ZM499.26,86.82c.54.36.52.37-1.16.47-.89.06-1.27-.03-1.19-.27.15-.46,1.76-.6,2.35-.2ZM506.72,87.45c-.89,0-1.95-.45-1.66-.7.38-.33,3.03-.46,3.21-.16.28.46-.45.86-1.55.86ZM501.03,52.27c-2.85.09-6.52.29-8.17.44-1.65.15-3.31.2-3.7.1-.39-.1-1.85.02-3.25.27-3.06.54-6.23.85-9.55.91-1.35.03-2.61.14-2.8.26-.68.42-4.25.36-5.07-.08-.71-.38-.87-.37-1.37.07-.83.74-1.82.65-1.94-.18-.07-.48-.28-.67-.7-.62-1.77.19-2.83.54-3.63,1.21-.82.68-1.07.73-3.2.57-1.27-.09-2.34-.17-2.39-.18-.04,0-.07-.22-.07-.47,0-.28.29-.46.74-.45.84,0,1.33-.53.71-.77-.23-.09-.95-.05-1.62.09-.87.18-1.18.39-1.12.75.14.8-1.08,1.23-3,1.04-.96-.09-1.87-.04-2.02.11-.15.15-3.42.32-7.26.38-3.84.06-8.07.26-9.4.45-1.81.25-2.76.25-3.79-.01-.86-.22-2.63-.29-4.74-.18-6.35.32-12.65.39-12.8.14-.08-.13.22-.32.68-.41,1.04-.21,2.13-.99,1.82-1.3-.13-.13-.69-.07-1.25.13-.69.25-1.98.3-3.95.17-2.05-.14-2.93-.1-2.93.14,0,.3.57.39,3.17.47,1.01.03,1.5.79.51.79-.35,0-1.2.23-1.9.5-1.09.43-1.32.44-1.61.07-.26-.33-1.2-.43-4.18-.41-2.11.01-4,.12-4.19.24-.47.29-3.66.47-4.53.26-.38-.09-.69-.39-.69-.67,0-.45-.05-.45-.41.02-.78,1.02-1.99,1.17-8.88,1.1-3.72-.04-6.91.02-7.08.12-.17.1-.53.11-.79,0-.35-.14-.4-.33-.19-.71.35-.64.22-2.19-.16-2.08-.15.04-.26.25-.24.46.05.42-.02.42-5.83.55-2.18.04-4.34.19-4.81.33-.78.22-.81.29-.41.84.41.57.47.57,1.01.09.4-.36.7-.42,1.02-.22.25.16,1.48.3,2.73.3,1.26,0,2.49.03,2.74.05.25.02.98-.05,1.63-.17.91-.17,1.14-.13,1.04.18-.15.45-2.65.76-6.49.8-1.35.02-2.59.17-2.76.34-.21.21-.95.2-2.27-.02-3.11-.51-3.19-.51-3.09.05.14.84-.52.95-.88.15-.19-.43-.74-.86-1.29-1.02-.65-.19-.99-.5-1.05-.95-.09-.6-.27-.67-1.67-.67-.87,0-1.78.14-2.03.31-.34.23-.15.29.76.23.93-.06,1.24.03,1.31.41.11.57-1.19.81-3.28.61-1.17-.12-1.26-.19-1.09-.85.23-.92-.48-.99-1.35-.12-.74.73-1.31.77-1.85.12-.31-.38-.69-.44-1.79-.26-.76.12-1.59.21-1.84.19-3.53-.26-5.18-.22-5.18.12,0,.67-1.19,1.05-2.97.95-1.55-.09-1.74-.17-1.91-.86-.14-.58-.36-.75-.92-.7-.41.04-1.7.11-2.87.17-1.17.06-2.34.19-2.59.3-.62.26-3.36-.19-3.43-.57-.03-.17.35-.44.86-.61.51-.17,1.35-.61,1.88-.98,1.12-.8,1.71-.86,2.24-.21.21.26.61.43.87.39.27-.04.62,0,.79.11.81.51,2.69.81,3.37.56,1.02-.38.92-.83-.25-1.15-.96-.25-.97-.27-.33-.62.85-.45,1.59-.16,1.94.75.22.59.5.73,1.57.76.72.02,1.44,0,1.61-.05.4-.12,3.32-.25,6.39-.29,1.71-.02,2.59-.17,2.96-.5.37-.32.82-.4,1.52-.25,1.66.35,4.02.42,4.38.15.31-.24,3.7-.18,5.13.1,1.05.2.92-.86-.17-1.43-.77-.4-1.41-.47-2.91-.32-1.2.12-2.16.07-2.55-.15-.48-.26-.97-.21-2.13.2-1.45.52-1.55.52-2.43,0-.7-.42-1.26-.5-2.35-.36-.79.11-5.06.24-9.5.3-4.44.06-8.33.11-8.65.12-.73.03-1.66.5-2.53,1.28-.39.35-.92.54-1.26.45-.67-.18-1.3.75-1.19,1.75.06.5-.14.63-1.15.71-1.2.09-2.68.11-3.73.03-1.01-.07-6.93.32-7.53.5-.33.1-1.45.16-2.48.12-1.16-.04-2.37.14-3.14.44-1.13.45-1.3.45-1.63.03-.3-.38-.7-.42-2.19-.22-1.97.27-6.7.62-9.09.69-1.56.04-2.23-.3-1.05-.54,2.32-.45,5.59-.87,7.7-.97,3.96-.19,4.21-.23,4.33-.59.2-.6-3.29-.85-4.56-.32-.6.25-1.17.37-1.27.27-.34-.34-.17-.99.26-.99.92,0,.78-.64-.22-1.06-.73-.31-1.31-.36-1.92-.17-3.68,1.13-4.38,1.24-5.6.91-.88-.24-1.91-.24-3.63-.01-1.32.18-2.52.3-2.66.27-.52-.11-2.85.41-2.85.64,0,.48.88.52,5.1.22,2.39-.17,4.44-.2,4.57-.08.45.46-.99,1.09-2.47,1.08-.84,0-1.98.16-2.53.36-1.07.39-1.38,1.13-.48,1.19.29.02-.22.22-1.14.44-1.64.4-4.09.27-3.8-.19.08-.13.97-.33,1.97-.44,1.01-.11,1.83-.31,1.83-.43,0-.42-1.41-.89-1.85-.61-.24.15-.81.27-1.29.27-.47,0-1.11.14-1.43.31-.33.18-1.04.2-1.72.06-1.4-.29-3.18.18-3.08.83.14.89-3.06,1.14-17.74,1.37-5.61.09-11.15.18-12.31.19-1.38.02-2.15.16-2.23.41-.15.45-.99.51-.99.07,0-.17-.52-.31-1.17-.31-1.61,0-1.72-.26-.48-1.1,1.47-.99,2.08-.96,1.82.12-.11.46-.09.69.04.5.13-.18,1.06-.43,2.07-.54,1.4-.16,1.98-.38,2.47-.95.7-.81,1.82-1.04,1.54-.31-.26.68.64.87,3.89.81,2.71-.05,3.12-.13,3.91-.79,1.24-1.04,2.96-.93,2.96.18,0,.69.87.92,2.85.73.86-.08,2.22-.15,3.02-.16,1.1-.01,1.53-.15,1.76-.59.38-.71,1.08-.74,1.46-.06.27.48.32.48.81-.01.48-.48.59-.48,1.25-.05.84.55,3.17.34,3.17-.29,0-.4.93-.74,2.02-.75.36,0,1.04-.21,1.52-.46.48-.25,1.15-.46,1.48-.46,1.12,0,1.45-.44.79-1.04-.55-.51-.67-.51-1.58-.06-.54.27-1.72.48-2.62.48-.9,0-2.26.15-3.02.34-1.53.38-2.86.01-2.85-.79,0-.56,1.75-.92,3.19-.64.63.12,1.34.05,1.75-.17.38-.2,2.06-.41,3.73-.46,1.67-.05,4.27-.23,5.76-.4,1.49-.17,3.29-.22,3.99-.11.92.14,1.57.05,2.28-.32.77-.39,1.16-.44,1.7-.19.52.24,1.11.2,2.27-.14.99-.29,2.01-.38,2.76-.25.78.13,1.35.07,1.65-.17.3-.25,1.02-.31,2.15-.19.98.1,2.04.04,2.51-.16.88-.37,7.5-.75,16.64-.97,3.18-.08,6.3-.21,6.93-.31.69-.1,1.32-.02,1.58.2.24.2.61.26.81.14.52-.32,5.9-.7,9.56-.68,1.68,0,3.42-.12,3.87-.29,1.15-.44,3.13-.46,5.26-.06,1.46.27,2.1.26,3.2-.08,1.53-.47,5.18-.53,5.18-.07,0,.16.2.12.45-.08.31-.25,1.37-.33,3.36-.26,2.14.08,2.98.01,3.15-.28.19-.31.52-.24,1.52.29,1.19.64,1.42.66,3.32.34,1.3-.22,2.15-.24,2.34-.05.16.16,1.24.29,2.4.3,1.86,0,2.06-.05,1.72-.47-.29-.35-.3-.56-.04-.81.26-.25.6-.21,1.34.17.85.43,2.32.52,10.01.61,7.23.08,9.11.19,9.53.54.46.38.54.36.69-.23.21-.79,1.19-.87,1.97-.16.39.36.66.41.94.19.21-.17,1.55-.33,2.97-.34,1.42-.02,3-.04,3.5-.05,1.75-.04,3.99.51,4.85,1.2.48.38.8.76.73.83-.22.22-6.58.71-7.18.55-.3-.08-.8.05-1.12.28-.56.41-.54.45.38.99.53.31.96.72.96.9,0,.53.64,1.03,1.1.86.23-.09.42-.57.42-1.07,0-.9.02-.91,1.3-.71.71.11,5.88.27,11.49.36,5.61.09,10.34.18,10.5.21s1.02-.06,1.88-.18c1.51-.21,1.57-.19,1.41.42-.25.94.74,1.24,1.39.42.42-.54.85-.64,2.93-.67,1.34-.02,3.74.06,5.33.17,5.07.37,6.79.13,6.95-.97.13-.9,1.89-1.72,3.22-1.5.6.1,1.72-.06,2.73-.39,1.69-.55,1.75-.55,3.46.04,1.28.45,1.95.53,2.51.32,1.51-.56,2.75-.6,5.26-.19,1.6.26,3.05.33,3.87.18,1.21-.22,3.12-.04,5.27.49.6.15,1.02.06,1.43-.31.49-.44,1.27-.53,4.7-.56,2.94-.02,4.23-.15,4.51-.43.32-.33.29-.47-.17-.82-.33-.25-.49-.62-.39-.89h0c.19-.5.97-.55,3.09-.19,1.69.29,2.11.57,1.63,1.15-.25.3-.82.42-1.75.36-.75-.05-1.42.05-1.47.21-.06.18.81.3,2.19.31h2.3s-.18-.84-.18-.84c-.15-.71-.08-.85.43-.84.37,0,.78.33,1.02.84l.4.84h4.26c2.34.02,8.4-.06,13.47-.15,5.43-.1,9.21-.06,9.21.1,0,.38-.95.55-3.81.7-1.34.07-3.53.27-4.87.44-1.34.17-4.77.38-7.61.47ZM329.44,53.32c.16-.1.37-.05.47.11.1.16.05.37-.11.47-.16.1-.37.05-.47-.11-.1-.16-.05-.37.11-.46ZM343.47,53.31c0-.45.59-.5,1.79-.15.64.18.67.25.26.59-.58.48-2.05.16-2.05-.44ZM292.31,55.49c0-.54,1.04-.86,1.75-.53,1.05.48.82.83-.53.83-.67,0-1.22-.13-1.22-.3ZM510.15,89.12c-.85.24-1.46.04-1.46-.46h0c0-.31.04-.31,1.37,0l.91.22-.82.23ZM510.85,86.86c-.34,0-.63-.06-.63-.12,0-.29.91-.43,1.07-.17.1.16-.1.29-.45.29ZM533.4,87.23c-.75.74-1.16.91-2.31.9-.94,0-1.37.12-1.32.37.09.45-4.33.93-5.29.57-.34-.13-1.77-.03-3.18.21-1.41.24-2.66.35-2.77.24-.11-.11-.23-.51-.25-.89-.03-.43-.24-.68-.56-.66-.28.01-.99.05-1.57.07-.72.03-1.07.19-1.07.5,0,.3-.3.46-.91.45-.5,0-1.01,0-1.13.02-.12.01-.27-.12-.33-.31-.06-.19.33-.33.96-.33.94,0,1.08-.1,1.17-.83.08-.64.24-.82.71-.75.33.05,1.4.09,2.36.08,1.71,0,2.35.38,1.14.69-.38.1-.55.33-.44.61.19.49,2.34.85,3.62.61,1.12-.21,1-.99-.15-.99-.83,0-.91-.08-.72-.69.3-.95.17-.91,2.63-.82,3.81.15,7.7-.03,8.04-.37h0c.34-.33,1.89-.27,2.11.09.1.17-.22.72-.72,1.22ZM766.29,57.15c.96-.42,4.94-.74,4.33-.35-.25.16-1.49.38-2.74.47-1.63.13-2.08.09-1.59-.12ZM745.45,74.44c.1-.17.45-.3.78-.3.32,0,.59.14.59.31,0,.17-.35.3-.78.3-.44,0-.7-.13-.59-.31ZM730.89,57.51c1.84-.06,4.75-.2,6.47-.31,2.16-.15,3.12-.11,3.12.11,0,.28-2.21.66-3.66.63-.25,0-2.92.28-5.94.63-4.4.52-6.42.61-10.25.46-4.09-.16-4.82-.12-5.16.29-.28.34-.71.42-1.48.3-.73-.12-1.77.07-3.21.57-2.13.74-3.95.96-4.23.5-.2-.32.16-.84.73-1.06.27-.1.12-.18-.36-.2-.84-.03-1.52-.6-.79-.67.9-.09,3.55-.26,5.12-.34.92-.04,2.13-.19,2.68-.32.57-.14,1.16-.12,1.37.04.23.18,1.42.17,3.11-.01,2.58-.28,4.4-.37,12.48-.62ZM730.41,70.13c-.76,0-.96-.09-.72-.33.44-.44,4.06-.75,4.05-.35,0,.34-1.68.67-3.34.68ZM733.01,72.39c-.88.22-3.53-.11-3.53-.45,0-.24,3.41-.52,3.97-.33.54.18.31.59-.44.78ZM727.66,70.09c0,.15-.21.35-.46.45-.28.11-.46,0-.46-.27,0-.25.21-.45.46-.45s.46.12.46.27ZM724,69.81c0,.35-1.33.35-2.44,0-.6-.19-.42-.25.84-.27.88-.01,1.6.11,1.6.28ZM719.55,70.92c-.75.52-3.63,1.91-3.96,1.91-.06,0-.31-.49-.56-1.09-.36-.86-.6-1.07-1.14-.99-.46.06-.69.3-.69.71,0,.54-.23.62-2.06.69-1.97.08-2.05.05-2.05-.62.01-1.13.47-1.65,1.03-1.18.39.32.64.29,1.47-.22.84-.51,1.55-.61,4.39-.61,4.04,0,5.03.38,3.58,1.4ZM720.35,28.39c.89,0,1.34.11,1.17.28-.47.45-2.34.52-2.49.09-.09-.27.29-.38,1.33-.38ZM707.85,23.92c8.95-.22,11.65-.32,14.01-.55,1-.1,2.36-.25,3.01-.35,1.78-.26,1.1.4-.81.77-4.95.96-9.14,1.26-22.61,1.58-1.61.04-2.28-.12-2.28-.55,0-.65.58-.71,8.68-.91ZM703.22,70.08h0c2.3-.2,4.42-.42,4.7-.5.74-.2.99.42.26.64-.66.21-.8.61-.31.91.44.27.37.76-.11.76-.23,0-.66.27-.96.61-.61.67-1.23.78-1.53.29-.27-.45.43-1.2,1.11-1.2.74,0,.74-.5,0-.9-.72-.39-2.47.15-2.47.75,0,.23-.15.5-.34.62-.23.14-.27,0-.14-.42.27-.83-.76-1.45-1.63-.99-.71.38-2.76.41-2.76.05,0-.14,1.89-.42,4.19-.62ZM699.87,72.37c1.55-.25,1.9-.24,1.9.08,0,.39-.8.64-2.01.64-1.39,0-1.33-.49.1-.72ZM691.11,73.07c.33,0,.61.14.61.31,0,.17-.27.3-.61.3-.33,0-.61-.14-.61-.31,0-.17.27-.3.61-.3ZM683.83,63.15c0-.48.53-.65,2.74-.89h0c.75-.08,1.88-.23,2.51-.34.73-.12,1.14-.08,1.14.13,0,.18-.51.41-1.14.52-.63.1-2.01.38-3.06.61-2.34.51-2.19.52-2.19-.03ZM670.62,24.89c.38,0,1.92-.06,3.43-.13,1.51-.07,4.23-.22,6.05-.32,2.74-.16,3.29-.12,3.17.22-.2.59-1.76.78-7.93.95-4.53.13-5.4.08-5.4-.28,0-.24.3-.43.69-.43ZM680.45,74.25c-.6.38-1,.38-.76,0,.1-.17.42-.3.71-.3.44,0,.45.05.06.3ZM612.03,70.73s.35.14.69.28c.58.25.58.26-.08.28-.38,0-.69-.12-.68-.29,0-.17.03-.3.08-.28ZM596.72,33.09c.9-.34,1.95-.19,1.95.28,0,.32-.32.46-1.05.45-1.14,0-1.67-.44-.9-.73ZM594.5,70.94c.97-.01,2.53-.12,3.45-.25,1.05-.15,1.94-.11,2.38.09.51.23.87.22,1.29-.04.37-.23,1.98-.35,4.47-.35,3.99.02,5.12.27,4.42.97-.47.47-4.96.61-5.48.18-.26-.22-.81-.21-1.76.03-1.34.33-6.23.75-8.98.76-1.19,0-1.38-.08-1.47-.68-.09-.64.02-.69,1.68-.7ZM584.02,71.54c.38,0,.97-.08,1.32-.17.89-.24,1.5.56,1.05,1.38-.19.34-.47.63-.63.63-.4,0-.37-.41.07-.85.41-.41.27-.45-1.35-.38-.65.03-1.14-.09-1.14-.28,0-.18.31-.33.69-.33ZM581.93,71.92c.1-.1.17.08.16.4-.02.35-.09.43-.18.18-.09-.22-.08-.48.03-.58ZM579.68,72.88c0,.09-.46.35-1.02.59-1.11.46-2.73.31-2.54-.23.11-.33,3.57-.68,3.57-.35ZM556.46,33.89c7.13-.34,14.68-.47,14.89-.26,1,1.01-.79,1.34-7.98,1.46-3.62.06-7.57.2-8.78.31-1.91.17-2.23.12-2.4-.33-.31-.82.3-.99,4.27-1.18ZM565.2,74.69c-1.3.2-2.54-.4-2.15-1.03.34-.55,3.21-.44,3.42.13.24.62.14.69-1.28.9ZM551.54,74.21c.35.02.43.09.18.19-.22.09-.48.07-.58-.03h0c-.1-.1.08-.17.4-.16ZM560.43,89.07c-.18-.06-.33-.24-.33-.4s.15-.34.33-.4c.18-.06.33.12.33.4,0,.28-.15.46-.33.4ZM562.95,86.89c-.81-.11-1.9-.04-2.5.15-.59.19-2.3.39-3.81.44-3.93.14-15.44.06-15.71-.11-.13-.08-1.2,0-2.4.19-2.28.35-3.05.13-3.05-.87,0-.39.37-.44,2.21-.3,1.21.09,3.37.07,4.8-.04,1.45-.12,2.83-.09,3.15.07.35.18.86.16,1.37-.04.45-.18,4.57-.38,9.34-.47,4.69-.08,8.8-.22,9.14-.29.33-.08.81,0,1.06.17.25.17.76.31,1.14.31.38,0,.68.13.68.29,0,.39-3.7.74-5.42.5ZM567.5,74.09c0-.25.31-.51.69-.59,2.56-.51,3.26-.38,2.48.47-.66.73-3.17.82-3.17.12ZM575.8,86.59c-.82,0-1.91.18-2.41.4-.67.29-1.06.31-1.44.07-.29-.18-.94-.33-1.45-.33-.58,0-.92-.16-.92-.43,0-.31.6-.47,2.21-.58,1.21-.08,2.55-.22,2.97-.3.94-.17,2.79.42,2.64.85-.06.17-.78.32-1.6.31ZM587.02,86.11c-1.3.2-2.77.49-3.27.64-.5.15-1.96.25-3.24.23-2.19-.03-2.31-.07-1.98-.6.19-.31.56-.62.81-.69.25-.07,2.62-.22,5.25-.33,5.23-.21,6.35.13,2.43.74ZM616.56,85.76c-2.31.22-2.16.22-6.01-.04-4.68-.32-12.21-.19-18.47.3-1.29.1-1.76.03-1.88-.29-.21-.55.49-.81,1.58-.59.47.09,2.42,0,4.33-.2,3.77-.4,18.08-.52,18.66-.16.19.12.99.23,1.78.23,2.06.01,2.08.53.02.73ZM616.19,82.26c-6.42-.72-10.67-.91-14.46-.63-8.44.6-9.35.62-9.21.22.23-.68,7.71-1.37,16.72-1.55,3.74-.07,7.86-.21,9.15-.31,1.83-.14,2.56-.07,3.33.31,1.07.54,4.51.43,17.31-.56,3.1-.24,6.46-.41,7.46-.38,1.01.03,3.13-.08,4.72-.25,1.59-.17,3.24-.3,3.66-.3.42,0,2.82-.07,5.33-.16,2.51-.09,5.6-.25,6.85-.35,1.64-.13,2.2-.09,1.97.15-.71.75-8.96,1.93-19.18,2.76-2.01.16-4.89.43-6.4.6-1.51.17-5.82.35-9.59.4-3.77.05-8.77.14-11.11.2-2.34.06-5.29,0-6.54-.15ZM627.38,85.97c-3.22,0-3.66-.07-3.27-.44.58-.56,5.71-.92,6.46-.46,1.14.71.44.91-3.19.9ZM643.66,85.86c-.46-.13-2.96-.25-5.56-.28-2.6-.02-4.75-.16-4.8-.31-.04-.15,2.66-.31,6.01-.37,3.52-.06,6.09.01,6.09.17,0,.61-.92,1.02-1.75.79ZM649.73,85.03c-.22.09-.48.08-.58-.02-.1-.1.08-.17.4-.16.35.02.43.09.18.18ZM701.6,77.96c-2.68.35-6.11.73-7.63.86-1.52.12-2.89.31-3.05.41-.27.17-6,.46-13.38.68-1.68.05-4.32.15-5.88.21-2.46.11-2.82.06-2.74-.36.07-.34.89-.64,2.83-1.04,3.83-.78,9.18-1.4,10.35-1.21,1.07.18,1.68-.32,1.1-.9-.75-.76-.28-.91,2.15-.7,2.32.2,2.54.17,3.28-.49.78-.7.85-.7,6.57-.52,5.58.17,6.85.49,3.33.85-1.55.16-2.26.5-1.86.89.09.09,1.3.02,2.69-.17,1.39-.18,4.3-.46,6.46-.62,2.52-.19,4.11-.44,4.42-.71.47-.41,4.9-.93,4.9-.58,0,.1-.24.36-.53.58-.5.38-.5.4,0,.42.29,0,1.25-.31,2.15-.7,1.44-.63,2.11-.71,5.94-.73,2.37-.01,4.38.09,4.46.21.08.13-1.46.4-3.42.61-1.96.21-4.43.52-5.49.69-1.06.17-2.53.24-3.25.16-.73-.08-1.45-.02-1.61.13-.39.39-2.21.82-4.78,1.14-1.17.14-4.32.54-7,.89ZM775.18,76.6c-1.83.19-3.44.21-3.84.05-.47-.18-.97-.12-1.54.17-.85.44-4.24.69-4.59.34-.1-.1-.72,0-1.38.23s-2.19.41-3.4.4c-2.3-.02-9.29.76-11.26,1.26-.9.23-1.29.19-1.88-.2-.52-.34-.91-.41-1.3-.21-.31.16-1.61.36-2.9.45-2.23.15-2.35.13-2.44-.5-.12-.86-1.06-.99-2.92-.41-.79.25-2.08.54-2.86.64-1.35.18-1.41.15-1.24-.48.16-.6.09-.65-.71-.47-.49.11-2.19.4-3.78.63-1.59.24-3.85.6-5.03.8-3.59.62-11.72.24-11.72-.55,0-.49.5-.65,2.74-.89.92-.1,2.5-.31,3.5-.48,1.01-.16,3.61-.49,5.79-.73,2.18-.24,5.12-.63,6.55-.88,1.49-.26,5.29-.5,8.99-.57,3.52-.06,6.79-.27,7.27-.45.5-.19,1.34-.23,1.97-.1.61.12,1.24.19,1.4.14.16-.04.85-.2,1.52-.34.68-.14,1.55-.35,1.94-.47.56-.17.74-.08.87.44.28,1.1,1.16.79,1.92-.66.25-.47.66-.97.92-1.11h0c.57-.3,7.01-.65,7.55-.41,1.39.63-.64,1.49-4.58,1.94-1.81.21-3.34.47-3.41.58-.07.11,2.49.24,5.68.28,3.2.04,6.05.21,6.35.37.35.19,1.12.19,2.17-.01,1.58-.3,7.26-.27,7.25.03-.02.6-.85.87-3.6,1.15ZM783.44,72.83c-.13.08-3.55.23-7.6.33-7.22.18-10.17.03-9.62-.52.41-.41,17.01-.69,17.26-.29.11.18.09.39-.04.47ZM838.34,14.4c-1.15.33-5.7.63-5.18.34.25-.14,1.69-.32,3.2-.41,1.51-.08,2.4-.05,1.98.07ZM935.21,102.38c-.6.39-1.61.38-1.37,0,.1-.17.56-.3,1.01-.3.64,0,.72.07.36.3ZM934.35,82.05c.59,0,.83.06.53.14-.29.08-.77.08-1.06,0-.29-.08-.05-.14.53-.14ZM916.05,63.02c.25-.25,2.09-.41,5.7-.5,4.38-.11,5.36-.06,5.45.29.58,2.1.64,2.18,2.17,2.63,2.52.74,2.94.97,2.83,1.53-.2,1.03-3.59,1.86-9.82,2.39l-2.1.18.2-.73c.11-.4.2-.88.2-1.06,0-.18.97-.93,2.14-1.66,1.18-.73,2.09-1.47,2.04-1.64-.05-.17-.71-.35-1.45-.41-.74-.06-1.58-.32-1.87-.58-.44-.4-.99-.44-3.2-.27-2.1.16-2.59.13-2.3-.16ZM931.69,82.5c-.54.07-1.44.06-1.98,0-.54-.07-.1-.12.99-.12,1.09,0,1.53.06.99.12ZM916.08,82.55c0,.16-.5.3-1.12.29s-1.06-.05-.99-.11c.34-.29,2.11-.45,2.11-.18ZM910.14,83.13c-.17-.03.04-.17.46-.3h0c1.08-.34,3.02-.35,2.44-.01-.43.25-2.24.45-2.89.32ZM921.43,97.33l-1.76.19.19-.76c.27-1.06-.5-1.24-4.18-.99-2.89.2-3.9,0-3.89-.75,0-.12,2.09-.29,4.65-.38,3.89-.13,5.02-.28,6.98-.94,1.41-.47,3.01-.78,4.05-.77.94,0,2.1-.19,2.57-.44.63-.32,1.9-.43,4.78-.41,8.13.07,11.9-.06,13.76-.48,2.65-.59,8.08-.57,8.69.04.51.52,1.72.62,1.72.15,0-.17.45-.58.99-.91.54-.33,1.1-.6,1.23-.6.35,0-.35,1.24-1.23,2.18l-.76.81,1.79.02c.98,0,2.24-.13,2.79-.3.97-.31,1.89.01,1.89.66,0,.77-4.57,1.2-17.21,1.64-2.34.08-5.63.34-7.31.57-3.01.42-11.25,1.05-15.68,1.2-1.26.04-3.08.17-4.05.27Z"/>
  <path class="border-bottom-shape" d="M434.85,30.15c-.18-.11-.26-.38-.17-.59.08-.21,0-.54-.19-.73-.41-.41-.54-.42-1.1-.06-.36.23-.37.43-.04,1.22.21.52.33,1.02.24,1.1-.08.08-.67-.07-1.31-.34-.83-.35-1.34-.4-1.8-.19-1.28.6-4.17,1.32-4.6,1.15-.25-.1-.45-.38-.45-.64,0-.26-.14-.47-.3-.47s-.3.14-.31.31c0,.17-.24.4-.53.5-.29.1-.78.4-1.07.65-.49.42-.65.41-1.58-.03-.62-.3-1.07-.76-1.13-1.16l-.1-.66-.78.71c-.43.39-1.23,1.1-1.79,1.56-.56.46-.94.92-.85,1.01.09.09,1.57.18,3.28.2,2.56.02,3.18-.06,3.48-.47.46-.63,1.67-.66,1.67-.04,0,.51.33.54,3,.27,1.52-.15,1.81-.27,1.53-.6-.26-.32-.21-.46.23-.64.31-.13.57-.44.57-.69,0-.7,1.19-.71,1.81,0,.31.34.81.62,1.12.63.67,0,1.65-1.69,1.16-1.99Z"/>
  <path class="border-bottom-shape" d="M819.49,4.51c-.42-.07-1.24-.06-1.83.03-.59.09-3.94.19-7.46.22-3.52.03-7.83.2-9.59.38-1.76.18-5.59.41-8.51.5-2.92.09-5.64.29-6.04.44-.4.15-1.28.27-1.95.27-.68,0-2.07.22-3.1.49-1.44.38-3.16.48-7.5.45-5.94-.05-7.31.07-7.31.6,0,.23,2.09.26,7.23.09,3.98-.13,8.26-.26,9.52-.29,1.26-.03,3.52-.2,5.02-.38,1.51-.18,5.28-.47,8.37-.63,3.1-.17,7.42-.42,9.59-.57,2.18-.15,6.08-.34,8.68-.43,5.96-.2,7.8-.64,4.88-1.17Z"/>
  <path class="border-bottom-shape" d="M808.91,7.44c-.43.43.23.44,2.51.04,1.33-.23,2.6-.43,2.82-.44.22,0,.31-.15.21-.31-.1-.17-.49-.3-.85-.3-.9.01-4.46.77-4.7,1.01Z"/>
  <path class="border-bottom-shape" d="M781.76,13.51c-.22.08-.53.14-.69.14-.15,0-.28.14-.28.3,0,.17.62.29,1.4.26,1.32-.05,1.36-.07.69-.45-.39-.22-.9-.33-1.12-.26Z"/>
  <path class="border-bottom-shape" d="M592.33,14.77c1.59-.04,4.52-.08,6.52-.1,3.82-.02,4.47-.35,1.3-.66-1.03-.1-2.08-.15-2.33-.11-.25.04-2.51.17-5.02.28-2.6.11-4.31.3-3.96.43.33.13,1.91.2,3.5.15Z"/>
  <path class="border-bottom-shape" d="M745.38,17.4c.21.08.62.09.91.01.3-.08.13-.14-.38-.15-.5,0-.75.06-.54.14Z"/>
  <path class="border-bottom-shape" d="M584.31,16.71c.7.02,1.36-.1,1.47-.27.22-.35-.87-.36-1.98,0-.65.21-.58.25.51.28Z"/>
  <path class="border-bottom-shape" d="M424.46,24.92c-2.55.09-6.91.23-9.67.32-5.35.17-6.51.3-6.27.69.23.38,4.91.42,6.94.05,1.01-.18,4.32-.36,7.36-.41,6.61-.1,6.28-.07,6.28-.48,0-.23-1.4-.28-4.64-.17Z"/>
  <path class="border-bottom-shape" d="M351.62,40.54c1.09-.21,1.12-.24.41-.45h0c-1.05-.3-1.01-.31-1.51,0-.73.46-.16.68,1.1.44Z"/>
  <path class="border-bottom-shape" d="M350.34,37.65c-.32-.13-.77-.17-.99-.1-.22.07-.61.13-.85.13-.25,0-.37.14-.26.3.21.35,1.37.4,2.16.1.5-.19.49-.22-.05-.44Z"/>
  <path class="border-bottom-shape" d="M425.6,29.09c.2.33,3.58.4,3.9.08.11-.11-.17-.38-.63-.6-1.18-.54-3.68-.15-3.27.51Z"/>
  <path class="border-bottom-shape" d="M397.53,25.83c-.45-.46-2.35-.05-2.05.44.09.15.56.27,1.04.27.88,0,1.37-.35,1.01-.71Z"/>
  <path class="border-bottom-shape" d="M402,25.97c0-.39-.91-.4-1.51-.02-.39.24-.37.31.07.48.62.24,1.44-.02,1.44-.46Z"/>
  <path class="border-bottom-shape" d="M310.95,33.31c0,.17.14.3.3.31.17,0,.31-.14.31-.3,0-.17-.14-.31-.3-.31-.17,0-.31.14-.31.3Z"/>
  <path class="border-bottom-shape" d="M321.24,30.65c.38-.05.61-.22.51-.38-.27-.44-.63-.35-1.84.47-.79.53-1.54.75-2.53.76-.89,0-1.67.21-2.14.56-.8.61-.65,1.25.29,1.25.37,0,.59.21.59.56,0,.47.25.55,1.65.54.91-.01,1.75-.12,1.88-.24.39-.39,1.32-.25,2.63.39,1.56.76,1.58.76,1.05-.02-.24-.35-.37-.89-.29-1.21.22-.85-1.28-1.53-1.82-.81-.26.35-.51.41-.82.22-.66-.42-.04-1.96.84-2.09Z"/>
  <path class="border-bottom-shape" d="M420.04,29.58c.49.49.55.49,1.04,0,.49-.49.47-.52-.52-.52-.99,0-1.02.03-.52.52Z"/>
  <path class="border-bottom-shape" d="M339.37,35.52c.41,0,.8-.15.86-.33.12-.36,4.11-1.28,4.5-1.03.13.08.4-.04.6-.28.28-.33.25-.64-.12-1.36l-.48-.93-2.36.1c-1.3.06-2.93.11-3.63.13-1.14.03-1.28.11-1.37.84-.08.67-.34.88-1.57,1.23-1.64.47-2.65.34-1.34-.18.83-.33,1.04-.98.66-2-.2-.53-.73-.66-.73-.18,0,.54-1.2,1.52-1.86,1.52-.38,0-.7-.25-.79-.61-.09-.34-.41-.61-.74-.61-.32,0-.82-.15-1.11-.34-.42-.26-.91-.16-2.28.49-1.72.81-2.04,1.14-1.44,1.51.2.13.2.39-.02.79-.43.79-.18,1.11,1.13,1.48,1.21.34,2.94-.17,3.6-1.07.3-.41.48-.43,1.06-.11.51.28,1.4.31,3.32.13,3.57-.33,3.55-.34,3.45.27-.07.39.11.53.66.54ZM328.23,34.93c-.07.22-.45.45-.83.51-.47.07-.65-.03-.56-.31.07-.22.45-.45.83-.51.47-.07.65.03.56.31Z"/>
  <path class="border-bottom-shape" d="M328.68,38.11c.1.1.36.11.58.02.24-.1.17-.17-.18-.18-.32-.01-.5.06-.4.16Z"/>
  <path class="border-bottom-shape" d="M394.66,39.64c0,.17.21.31.47.31.26,0,.39-.14.29-.3-.1-.17-.32-.31-.47-.31-.16,0-.29.14-.29.3Z"/>
  <path class="border-bottom-shape" d="M397.1,37.2h0c-.41-.27-5.42-.11-5.76.18-.07.06,1.3.11,3.04.12,2.19,0,3.03-.09,2.72-.3Z"/>
  <path class="border-bottom-shape" d="M415.68,34.35c0,.07.14.22.3.32s.3.04.31-.13c0-.18-.14-.32-.3-.32-.17,0-.3.06-.3.13Z"/>
  <path class="border-bottom-shape" d="M421,37.26c-.92.19-.31.26,2.49.29,2.18.03,3.79-.08,3.9-.26.23-.37-4.61-.4-6.39-.04Z"/>
  <path class="border-bottom-shape" d="M416.92,32.07c.39-.71.22-1.07-.61-1.29-.37-.1-.72.02-.88.31-.21.37-.55.43-1.6.25-1.94-.32-3.27-.23-4.06.29-.72.47-1.43.32-2.7-.56-.48-.33-.65-.26-1.29.53-.65.8-.81.86-1.35.53-.34-.21-1.01-.38-1.51-.39-.49,0-.98-.14-1.09-.31-.25-.41-2.5-.4-2.76.02-.2.33-1.5.24-3.3-.21-.74-.19-.86-.14-.7.27.1.27.06.57-.11.67-.16.1-.38-.07-.49-.37-.11-.3-.4-.79-.65-1.09h0c-.59-.69-.63-.68-.96.19-.37.96-1.96,1.35-2.72.66-.69-.63-1.15-.62-1.52.04-.29.51-.34.51-1.2,0-1.05-.62-1.77-.69-1.95-.17-.09.28-.53.24-1.73-.16-2.25-.73-4.09-.69-5.2.13-.84.62-.93.63-1.46.15-.7-.63-1.24-.65-1.47-.06-.21.54-1.67.6-2.17.09-.42-.43-7.03-.38-7.55.05-.18.15-1.74.42-3.45.6-2.99.32-3.15.31-3.8-.31-.86-.82-1.51-.84-1.26-.06.16.5,0,.62-1.18.79-1.15.17-1.48.09-2.06-.46-.57-.54-1.01-.64-2.35-.57-1.51.08-1.69.17-2.14,1.04-.42.83-.61.93-1.41.8-.62-.1-1.06,0-1.33.33-.35.42-.3.49.39.49.47,0,.95.25,1.17.61.43.69,1.45.83,1.45.19,0-.23.24-.51.53-.61.29-.1.88-.39,1.3-.64.96-.56,2.36-.56,3.35,0,1.04.6,2.04.57,2.4-.06.26-.47.42-.48,1.4-.12.86.32,1.2.32,1.55.04.24-.2.73-.29,1.09-.19.35.09.91,0,1.23-.19.58-.36.89-.15,1.28.86.06.17.42-.01.8-.4.45-.46.85-.63,1.18-.49,1.28.56,2.11.51,2.32-.14.17-.52.45-.64,1.57-.63.75,0,1.66.2,2.04.45.37.25.95.45,1.28.45.33,0,2.6,0,5.05.01,3.62,0,4.51.09,4.83.47.26.31.55.38.89.21.28-.14.78-.15,1.11-.01.33.14.86.26,1.18.27.48.02.51-.05.17-.46-.58-.7.11-1.03,1.5-.7,1.18.28,3.81.07,4.66-.36.31-.16.97-.09,1.71.17,1.73.61,2.96.69,3.53.21.43-.35.58-.34,1.05.09.63.58,1.44.66,1.74.17.13-.2.69-.26,1.46-.15.69.1,1.67.16,2.17.14.5-.03,1.39-.03,1.97-.01.58.02,1.23-.11,1.46-.29.3-.25.58-.16,1.14.37.64.6.93.67,2.2.49.8-.11,1.78-.2,2.18-.19.63.02.69-.08.52-.79l-.2-.81,1.54.19c1.32.16,1.58.1,1.86-.41Z"/>
  <path class="border-bottom-shape" d="M432.03,32.78c-1.4-.06-.78.71.66.82,1.25.1,1.78-.37.74-.64-.29-.08-.92-.16-1.4-.18Z"/>
  <path class="border-bottom-shape" d="M367.65,37.31c.1.1.36.11.58.03h0c.24-.1.17-.17-.18-.19-.32-.01-.5.06-.4.16Z"/>
  <path class="border-bottom-shape" d="M355.44,40.5c.28-.28.2-.37-.36-.37-.57,0-.65.08-.37.36.28.28.45.28.73,0Z"/>
  <path class="border-bottom-shape" d="M377.19,37.53c2.13-.15,2.48-.24,1.65-.4h0c-1.42-.27-3.32-.28-4.26-.02-1.45.4-.09.62,2.61.42Z"/>
  <path class="border-bottom-shape" d="M358.89,37.71c-.51.22-.45.26.38.28.54.01.99-.11.99-.28,0-.36-.53-.36-1.37,0Z"/>
  <path class="border-bottom-shape" d="M355.14,37.9c.24-.1.17-.17-.18-.19-.32-.01-.5.06-.4.16.1.1.36.11.58.03Z"/>
  <path class="border-bottom-shape" d="M375.2,34.81c.87-.17.93-.24.43-.44-.79-.31-.83-.31-1.35.01-.69.43-.22.65.92.42Z"/>
</svg>