<?xml version="1.0" encoding="UTF-8"?>
<svg id="uuid-0d3f11dd-54e4-4402-97e4-8d68fee95371" data-name="Layer 1" xmlns="http://www.w3.org/2000/svg">
  <path d="M650.4,908.64c-.88,0-1.81.29-2.23.92-.51.77-.06,1.13,1.6,1.27,1.26.11,2.41-.3,2.56-.92.19-.81-.83-1.27-1.93-1.27Z" style="fill: #ffffff;"/>
  <path d="M630.66,902.33s-.03,0-.04,0c-.4,0-.7.48-.68,1.09.02.63.24,1.17.49,1.19.25.02.58-.47.73-1.09.15-.62-.08-1.16-.5-1.19Z" style="fill: #ffffff;"/>
  <path d="M748.62,902.32c-.69-.06-1.25-.09-1.66-.09-.89,0-1.1.13-.41.35,1.01.32,2.77.48,3.91.33h0c1.14-.14.32-.42-1.83-.6Z" style="fill: #ffffff;"/>
  <path d="M635.09,901.6c-.35,0-.84.33-1.28.99-.57.86-.5,1.09.37,1.17.59.06,1.19-.4,1.34-1.02.18-.75-.05-1.13-.43-1.13Z" style="fill: #ffffff;"/>
  <path d="M641.34,900.93s-.08,0-.11,0c-.63,0-1.12.46-1.1,1.05.02.63.46,1.19.99,1.23.52.04,1.07-.43,1.21-1.05.15-.64-.27-1.17-.99-1.24Z" style="fill: #ffffff;"/>
  <path d="M1153.24,900.55c-.13-.02-.25-.02-.36-.02-.55,0-.78.19-.49.48.34.34,1,.42,1.47.17.47-.25.19-.52-.62-.63Z" style="fill: #ffffff;"/>
  <path d="M1110.58,900.46c-.14-.01-.26-.02-.38-.02-.66,0-.87.19-.46.47.48.33,1.25.4,1.71.14.46-.25.07-.52-.87-.6Z" style="fill: #ffffff;"/>
  <path d="M1145.67,899.96c-.14-.01-.26-.02-.38-.02-.66,0-.87.19-.46.47.48.33,1.25.4,1.71.14.46-.25.07-.52-.87-.6Z" style="fill: #ffffff;"/>
  <path d="M722.94,899.75c-.05,0-.11,0-.16,0-.73,0-1.29.44-1.27,1.04.02.63.7,1.21,1.5,1.28.81.07,1.45-.4,1.43-1.03-.02-.64-.7-1.21-1.5-1.28Z" style="fill: #ffffff;"/>
  <path d="M1160.33,898.72c-.38,0-.57.23-.42.57.18.4.6.48.94.17.38-.34.25-.62-.32-.72-.07-.01-.14-.02-.21-.02Z" style="fill: #ffffff;"/>
  <path d="M713.21,898.53c-.24,0-.57.04-1,.1-1.09.16-2.08.73-2.21,1.29-.37,1.56,2.46,1.43,3.38-.16.52-.91.57-1.22-.16-1.22Z" style="fill: #ffffff;"/>
  <path d="M1182.91,899.23c-.19-.65-.63-.98-1.19-.98-.49,0-1.08.25-1.68.77-.88.76-.88.83.17,1.55,1.36.94,3.1.08,2.7-1.33v-.02Z" style="fill: #ffffff;"/>
  <path d="M616.61,898.45h0c-.68-.3-2.99-.37-5.12-.17-2.14.21-5.65.12-7.81-.19-11.41-1.65-20.89-2.55-26.04-2.55-2.47,0-3.94.21-4.16.64-.45.89-1.88,1.26-3.81.97-7.24-1.08-21.84-.47-37.37,1.57-2.78.36-7.56.2-10.6-.36-3.16-.58-6.08-.58-6.79.02-.87.73-1.74.6-2.85-.41-1.21-1.1-2.95-1.24-7.15-.56-6.97,1.13-7.97,1.09-16.08-.52-6.48-1.29-16.6-.77-19.96,1.02-.92.49-6.73.8-12.9.68-7.08-.14-12.3.31-14.15,1.21-2.45,1.19-3.25,1.15-4.88-.23-2.35-1.99-12.66-1.94-13.48.08-.67,1.63-2.18,1.49-4.98-.47-1.74-1.22-3.88-1.37-9.9-.67-8.88,1.03-13.46,1.02-33.59-.11-8.08-.45-14.97-.42-15.32.07-.34.5-4.38.71-8.96.48-9.23-.46-21.64-.45-25.39.04-1.34.17-5.39.36-9.01.42-3.62.06-9.86.26-13.88.44-4.02.19-7.85.31-8.53.25-1.18-.09-5.83.84-13.81,2.77-6.32,1.53-7.35,1.61-16.65,1.37-4.9-.13-10.59.13-12.66.58-2.07.45-6.49,1.12-9.83,1.49-3.34.38-7.82.96-9.95,1.3-2.33.37-4.44.13-5.28-.6-.91-.79-2.69-.89-5.13-.27-6.5,1.66-19.5,2.52-27.59,1.84-4.3-.36-7.94-.24-8.09.26-.54,1.88-3.14,1.37-5.3-1.04-1.53-1.71-2.76-2.32-3.96-1.96-.96.29-2.72.77-3.92,1.08-1.2.31-2.43,1.03-2.74,1.62-.31.58-1.61,1.14-2.89,1.23-1.28.1-3.52.6-4.98,1.11-1.46.52-4.74.87-7.29.79-.33,0-.63-.02-.91-.03v1.31c1.12.28,2.31.38,3.02.23.99-.22,3.86.38,6.38,1.32,3.03,1.14,5.64,1.45,7.73.94,1.73-.43,3.6-.4,4.15.07.55.47,3.41.77,6.36.66,2.95-.1,6.3.27,7.45.83,6.28,3.05,14.35,3.16,30.62.42,3.73-.63,8.11-1.17,9.71-1.21,1.61-.04,4.88-.5,7.28-1.04,2.4-.54,6.77-.98,9.72-1,10.62-.07,26.38-.74,30.35-1.29,2.22-.31,5.3-.12,6.84.43,1.54.55,3.01.59,3.27.11.72-1.35,7.96-2.76,14.76-2.86,3.35-.05,7.4-.49,8.99-.98,1.59-.48,7.28-.99,12.64-1.13,5.36-.14,11.05-.41,12.66-.58,5.73-.64,14.29-.65,25.6-.03,6.31.34,18.61.68,27.33.75,8.72.07,16.4.2,17.07.29,4.17.58,40.45-.66,49.9-1.7,3.27-.36,5.8-.13,6.56.59.68.65,1.55.92,1.93.59.83-.7,3.33-.88,25.39-1.81,9.24-.39,21.52-.41,27.3-.05,5.78.36,13.79.46,17.8.21,4.02-.24,10.8-.64,15.09-.87,4.28-.23,9.83-.81,12.32-1.29,2.49-.48,5.62-.44,6.95.08,1.33.52,5.54.64,9.34.26,3.81-.38,11.32-.59,16.69-.46,27.49.66,28.05.63,27.98-1.62-.03-.91-2.99-3.27-5.5-4.39Z" style="fill: #ffffff;"/>
  <path d="M697.55,895.16h0c-3.75-.68-8.45-1.16-11.15-1.16-.35,0-.66,0-.94.03-2.41.14-5.48.24-6.82.22-1.34-.02-2.9.64-3.45,1.47-.75,1.11-1.32,1.17-2.19.23-1.37-1.49-7.61-1.62-8.38-.17-.29.55-2.17,1.15-4.17,1.34-3.24.31-6.26,2.12-6.22,3.73,0,.32,2.27.63,5.02.69,11.01.26,18.05.29,25.72.1,4.42-.11,9.68-.17,11.7-.13,4.12.07,9.34-.76,9.66-1.53.11-.28-.08-1.17-.43-1.96-.41-.94-3.34-1.94-8.35-2.85Z" style="fill: #ffffff;"/>
  <path d="M1364.15,882.45c-.07,0-.14-.01-.2-.01-.78,0-1.37.43-1.35,1.01.05,1.47,1.53,1.59,2.44.21.53-.8.31-1.11-.89-1.21Z" style="fill: #ffffff;"/>
  <path d="M1372.43,882.1c-.17-.02-.34-.04-.51-.04-.9,0-1.55.36-1.54.9.04,1.33,1.22,1.43,2.93.25,1.01-.7.88-.86-.89-1.11Z" style="fill: #ffffff;"/>
  <path d="M1195.35,880.89c-.56,0-1.04.24-1.02.75.02.48.25,1.6.51,2.5.4,1.38.63,1.38,1.45.02.54-.89.82-1.97.63-2.4-.25-.57-.96-.87-1.58-.87Z" style="fill: #ffffff;"/>
  <path d="M932.63,881.5c-.83-.45-2.82-.7-4.46-.7-1.37,0-2.5.17-2.49.53.03.99,5.94,3.43,7.04,2.91.46-.22.83-.82.81-1.33-.02-.51-.42-1.15-.9-1.41Z" style="fill: #ffffff;"/>
  <path d="M935.22,880.8s-.03,0-.04,0c-.39,0-.82.47-.96,1.07-.15.62.06,1.16.47,1.19.4.03.85-.45,1-1.07.15-.62-.07-1.16-.47-1.19Z" style="fill: #ffffff;"/>
  <path d="M1399.54,877.45c-.38,0-.57.23-.42.57.18.4.6.48.94.17.38-.34.25-.62-.32-.72-.07-.01-.14-.02-.2-.02Z" style="fill: #ffffff;"/>
  <path d="M1410.92,877.42c-.12,0-.25-.01-.39-.01-1.03,0-2.31.26-3.01.63-1.29.68-1.21.77.76.96,1.21.11,2.74-.16,3.39-.61,1.02-.7.9-.86-.76-.96Z" style="fill: #ffffff;"/>
  <path d="M1418.81,876.68c-.26-.02-.52-.03-.77-.03-1.44,0-2.6.35-2.72.88-.26,1.11,6.06,1.06,6.51-.05.12-.29-1.24-.65-3.02-.8Z" style="fill: #ffffff;"/>
  <path d="M1433.57,876.77c-.42-.65-1.98-1.22-3.45-1.28l-2.68-.1,2.23,1.11c3.29,1.64,4.87,1.75,3.91.27h0Z" style="fill: #ffffff;"/>
  <path d="M1073.93,874.44c-1.81.25-3.27-.05-3.45-.7h0c-.22-.77-.6-1.15-1.07-1.15s-1.03.4-1.57,1.19c-.68.99-1.33.94-2.75-.18-1.2-.94-2.16-1.11-2.68-.47-.45.55-3.09.86-5.88.68-11.37-.73-21.01-.75-26.75-.06-7.96.96-11.07,1.16-18.97,1.23-3.62.03-7.67.46-9.01.96-1.33.5-3.31.56-4.38.15-1.08-.42-4.18-.14-6.91.61-2.72.75-5.28,1.05-5.69.65-.41-.39-2.14.29-3.84,1.52-1.71,1.23-3.3,1.95-3.53,1.61-.23-.34-3.58-.11-7.43.5-3.86.62-7.99.75-9.19.3-1.62-.62-2.39-.36-3,.98-.64,1.41-1.35,1.6-3.18.85-1.3-.53-3.14-1.27-4.09-1.64-.95-.37-2.46-1.02-3.34-1.45-.89-.43-2.91-.54-4.49-.25-2.65.49-2.91.8-3.28,3.98-.51,4.34-.52,4.25.33,4.32.39.03.98-.97,1.33-2.23.59-2.17.81-2.2,4.03-.63,3.79,1.85,20.41,3.43,21.33,2.03.57-.87,10.88-.81,19.56.12,2.38.25,4.57,0,4.86-.55.29-.56,1.88-1.12,3.55-1.25,2.06-.16,3.32-.91,3.97-2.33.75-1.64,1.93-2.12,5.43-2.22,4.39-.12,6.39.06,11.34.99,1.35.25,2.88.06,3.4-.42.52-.49,5.23-.61,10.47-.29,6.03.38,10.01.13,10.86-.66.73-.69,3.02-1.13,5.09-.96,2.07.16,4.72-.16,5.89-.71,1.87-.87,2.31-.69,3.58,1.52.99,1.72,1.71,2.24,2.28,1.63.99-1.06,3.81-.73,5.39.62.66.56,1.89.42,2.92-.34.98-.72,2.43-1.39,3.24-1.47,2.75-.29,9.13-1.98,9.33-2.47.11-.27.03-1.38-.18-2.47-.32-1.67-.85-1.91-3.51-1.54Z" style="fill: #ffffff;"/>
  <path d="M1524.01,857.6v.02c.73-.2.24-.48-1.11-.59-.3-.03-.56-.04-.79-.04-.77,0-1.02.16-.55.41.61.31,1.71.41,2.44.21Z" style="fill: #ffffff;"/>
  <path d="M1538.33,859.11c-3.34.43-7.48,1.17-9.21,1.64-1.73.47-5.95,1.12-9.37,1.43-3.43.32-6.43.87-6.68,1.23s-2.03.94-3.95,1.28c-1.92.34-5.24,1.06-7.36,1.59-2.13.53-6.72,1.17-10.19,1.43-3.48.26-10.02,1.51-14.54,2.78s-9.16,2.24-10.33,2.15c-1.16-.09-2.47.28-2.92.83-1.05,1.29-15.55,3.33-21.49,3.04l-4.58-.23,3.7,1.26c4.53,1.55,14.48.69,21.11-1.82,2.67-1.02,6.61-2,8.75-2.2,2.14-.19,5.63-.92,7.75-1.6,2.12-.69,8.02-1.48,13.11-1.76,5.09-.29,9.99-1.14,10.91-1.89.91-.75,6.26-1.82,11.87-2.39,5.61-.56,12.71-1.55,15.78-2.2,3.06-.65,7.97-1.57,10.9-2.04,2.94-.47,6.31-1.24,7.5-1.72.72-.29,2.19-.65,3.86-.98v-3.28c-.95.28-1.89.56-2.75.83-3.18,1-8.52,2.18-11.86,2.61Z" style="fill: #ffffff;"/>
  <path d="M1408.21,98.43H152.94v793.46c8.17.9,13.46,1.23,15.67.98,1.6-.18,4.35-.13,6.1.12,9.63,1.37,24.54,2,30.27,1.27,6.89-.88,13.56-1.65,24.05-2.79,3.47-.38,8.72-1.02,11.66-1.43,6.87-.95,9.45-1.12,22.14-1.45,11.04-.29,12.71-.48,20.97-2.38,3.9-.9,5.55-.84,6.76.23,1.15,1.02,2.09,1.11,3.35.32,2.75-1.71,9.88-2.79,23.37-3.53,1.47-.08,6.4-.34,10.95-.58,4.55-.24,8.92-.71,9.72-1.04.8-.33,2.01-.07,2.7.58.73.68,1.85.81,2.69.3,1.59-.97,8.02-1.23,21.67-.9,4.97.12,11.66.2,14.88.19,3.22-.02,9.58-.01,14.14.01,9.53.05,26.87-.15,44.11-.51,6.57-.14,14.13-.2,16.82-.15,2.68.05,7.18-.06,9.99-.26,2.81-.2,7.96-.35,11.45-.35,3.49,0,8.86-.05,11.94-.11,3.08-.06,10,.03,15.37.21,20.41.68,29.36.67,31.93-.07,1.46-.41,5.09-.22,8.06.44,2.97.66,6.82.89,8.55.52,3.81-.82,9.15-.91,24.85-.42,11.76.37,14.67.3,21.92-.52,3.82-.43,13.22-.49,26.81-.17,15.36.36,19.27.22,20.71-.74.79-.53,4.3-.54,7.8-.04,3.8.55,6.88.46,7.65-.22.71-.62,1.7-.7,2.19-.18,1.01,1.09,9.27,1.71,9.94.74.24-.35,2.24-.68,4.45-.75,7.3-.21,22.04-.15,23.16.1,1.7.37,13.73,1.64,22.14,2.35.67.06,5.5.07,10.73.03,5.23-.04,11.49.21,13.91.56,5.45.79,5.4.79,10.72-.21,2.4-.45,7.54-.78,11.43-.74,3.89.04,9.92-.19,13.39-.5,3.48-.32,9.82-.85,14.1-1.19,4.28-.33,9.97-.93,12.63-1.32,2.67-.39,7.71-.76,11.19-.82,3.48-.06,7.97-.47,9.97-.93,2-.45,6.04-.83,8.99-.83,2.95,0,9.52-.46,14.59-1.01,8.63-.94,15.99-1.51,30.16-2.35,3.21-.19,7.27-.11,9.02.17,4.32.7,5.13.74,8.79.41,1.74-.16,6.56-.23,10.72-.15,4.16.07,8.32-.13,9.25-.45.93-.32,4.21-.59,7.29-.6,5.77-.02,15.15-.5,29.24-1.5,4.43-.32,10.68-.56,13.88-.55,5.35.03,19.12-.54,27.96-1.15,4.46-.31,11.87-.54,19.92-.64,3.32-.04,8.42-.4,11.32-.81,2.9-.4,8.08-.54,11.5-.3,3.42.24,7.04-.05,8.03-.65,1.34-.79,1.97-.71,2.42.32.85,1.94,2.46,1.89,3.67-.13.83-1.38,1.52-1.45,3.63-.38,1.43.73,4.69,1.24,7.23,1.15,2.55-.09,10.34.12,17.32.49,6.98.36,17.63.51,23.66.32,14.25-.44,22.54-.48,30.96-.16,3.76.14,7.63-.07,8.61-.47,1.09-.45,2.47-.15,3.58.79,1.4,1.18,1.95,1.23,2.46.21.42-.85,3.32-1.25,8.11-1.14,4.1.1,9.75.05,12.56-.11,2.81-.16,5.66-.25,6.33-.19.67.05,2.49-.28,4.04-.74,1.55-.46,8.35-.6,15.1-.31,6.76.29,15.57.28,19.58-.02,4.01-.29,13.45-.28,20.97.04,14.4.61,18.24.36,20.21-1.27,1.41-1.17,7.69-1.74,15.3-1.39,3.31.15,5.8-.29,6.48-1.14.7-.88,1.86-1.06,3.15-.5,2.83,1.23,3.52,1.24,7.39.18,1.86-.51,5.7-.9,8.52-.85,2.83.04,5.41-.31,5.73-.77.33-.47,3.6-.68,7.28-.47s6.8.02,6.93-.44c.13-.45,2.97-.86,6.31-.9,3.34-.04,8.46-.7,11.39-1.47,4.57-1.19,11.57-1.35,17.78-.39,4.88.75,8.67.07,9.87-1.79.96-1.48,1.42-1.62,1.88-.59.85,1.93,1.9,1.8,2.88-.35.72-1.58,1.02-1.61,2.08-.23,1.37,1.78,10.67,1.84,16.11.11,2.62-.84,13.83-1.68,25.29-1.92,4.9-.1,21.6.43,38.55,1.22,8.65.4,11.61.16,12.89-1.08,2.24-2.17,4.13-2.38,28.18-3.2,12.23-.41,14.38-.64,17.01-1.82,1.19-.53,3.49-.76,5.1-.5,3.55.57,12.41-.86,18.68-3.02,3.9-1.34,10.45-1.49,15.11-.77V98.43h-144.73Z" style="fill: #ffffff;"/>
</svg>