<?xml version="1.0" encoding="UTF-8"?>
<svg id="uuid-d112f862-a5ea-476f-9678-a4bbbbcc2460" data-name="Layer 1" xmlns="http://www.w3.org/2000/svg" xmlns:xlink="http://www.w3.org/1999/xlink" viewBox="0 0 120.59 46.66">
  <defs>
    <clipPath id="uuid-34f8e3cc-7159-4ede-9758-5e253aef7d8d">
      <rect width="120.59" height="46.66" style="fill: none;"/>
    </clipPath>
  </defs>
  <g style="clip-path: url(#uuid-34f8e3cc-7159-4ede-9758-5e253aef7d8d);">
    <path d="M66.43,9.78c1.2.33,2.39.73,3.55,1.12.07.02.15.05.22.08-1.86-1.3-3.27-2.67-4.28-3.71-.13-.14-.26-.28-.39-.42.11.9.24,1.84.39,2.8.17.04.34.09.51.13" style="fill: #f2f2f2;"/>
    <path d="M65.17,3.37c1.65.15,3.33.53,4.98.9.98.22,2.01.45,3,.63,1.4.25,2.79.4,4.18.52-.3-.24-.59-.5-.74-.78-.08-.15-.12-.29-.15-.43l-.36-1.47-11.02-1.49c.02.64.06,1.35.12,2.11" style="fill: #f2f2f2;"/>
    <path d="M77.08,4.65c.15.28.51.56.86.82.84.06,1.67.11,2.5.16.4.02.8.05,1.2.08l-.74-2.31-4.32-.58.37,1.47c.03.12.06.25.13.37" style="fill: #f2f2f2;"/>
    <path d="M69.51,12.33c-1.15-.4-2.24-.77-3.33-1.08.08.5.17,1,.26,1.5.04.2.07.4.12.6.39-.29.98-.46,1.79-.52.94-.08,1.91-.02,2.89.09-.36-.12-.72-.24-1.08-.36-.22-.08-.44-.15-.65-.23" style="fill: #f2f2f2;"/>
    <path d="M61.74,5.2c.11.02.24.05.32.11.09.07.11.16.11.24.05.71.06,1.42.02,2.15,0,.13-.02.27-.17.34-.13.06-.32.05-.49.04-.31-.02-.62-.05-.93-.08v.65c.99.15,2,.32,3.03.51-.19-1.58-.33-3.08-.43-4.44l-2.6-.37v.66c.38.07.76.14,1.14.2" style="fill: #f2f2f2;"/>
    <path d="M78.6,29.66c-.17-.6-.35-1.22-.56-1.82l-15.62-2.44c-.59-.09-1.18-.18-1.77-.28l.03,13.13,20.6,3.99c-.82-4.49-1.61-8.72-2.68-12.57" style="fill: #f2f2f2;"/>
    <path d="M85.79,42.17c.05.01-2.05-8.32-2.24-9.02-.37-1.4-.74-2.76-1.1-4.08-.45-1.65-.33-1.61,1.67-1,1.69.51,3.39.96,5.08,1.35l-2.57-8.06c-.64-.13-1.27-.26-1.89-.38-3.8-.73-7.55-1.27-11.23-1.71.78.44,1.54.92,2.27,1.47,1.5,1.16,2.72,2.57,3.73,4.36.99,1.76,1.62,3.63,2.02,4.92,1.23,3.98,2.18,8.29,3.16,12.88l9.39,1.82-.3-.96c-2.68-.52-5.34-1.05-7.99-1.59" style="fill: #f2f2f2;"/>
    <path d="M63.17,4.23c-.08-1.21-.12-2.3-.11-3.25l-2.47-.33v3.22s2.58.36,2.58.36Z" style="fill: #f2f2f2;"/>
    <path d="M80.71,6.18c-1.98-.12-4.01-.24-6.08-.53-.48-.07-.95-.14-1.43-.23-1.04-.19-2.09-.42-3.09-.65-1.71-.39-3.32-.75-4.89-.89.03.32.06.65.09.99h.1c.03.7.74,1.47,1.4,2.15,1.39,1.42,3.59,3.47,6.59,5.01,3.66,1.16,7.42,2.21,11.26,3.16l-2.85-8.94c-.37-.02-.74-.05-1.1-.07" style="fill: #f2f2f2;"/>
    <polygon points="63.06 .82 64.06 .96 80.84 3.22 80.67 2.69 60.59 0 60.59 .49 63.06 .82" style="fill: #fff;"/>
    <polygon points="84.78 43.35 81.36 42.68 60.68 38.66 60.69 39.98 94.7 46.66 94.23 45.18 84.78 43.35" style="fill: #fff;"/>
    <path d="M84.29,19.11c.57.11,1.15.22,1.73.34l-.79-2.48c-3.26-.81-6.48-1.7-9.61-2.65l-2.62-.36c-1.42-.2-2.89-.4-4.18-.29-.7.06-1.17.21-1.4.46-.34.36-.19.94.17,1.5.43.5,1.02.94,1.71,1.37,4.85.53,9.86,1.13,14.99,2.11" style="fill: #f2f2f2;"/>
    <path d="M60.63,17.83l.02,6.74c.58.1,1.17.19,1.75.28l15.43,2.4c-.75-1.99-1.82-3.9-3.63-5.34-1.01-.8-2.26-1.46-3.55-2.14-.66-.35-1.31-.69-1.95-1.06-.77-.08-1.54-.16-2.3-.25-1.91-.21-3.83-.41-5.77-.64" style="fill: #f2f2f2;"/>
    <path d="M62.65,10.89c.08.01.17.02.22.07.04.04.05.08.06.12.25,1.34.51,2.72.78,4.16-1.03-.21-2.06-.43-3.09-.64v1.45c1.77.2,3.54.39,5.29.57-.14-.15-.28-.31-.41-.47-.98-1.22-1.23-2.45-1.41-3.66-.09-.61-.18-1.22-.26-1.82-1.08-.22-2.16-.39-3.22-.56v.51c.68.08,1.36.16,2.04.25" style="fill: #f2f2f2;"/>
    <path d="M73.5,19.26c3.68.45,7.43.98,11.23,1.71.63.12,1.26.25,1.89.38l-.61-1.91c-.58-.12-1.15-.23-1.73-.34-5.13-.98-10.14-1.58-14.99-2.11.69.43,1.49.84,2.31,1.26.62.32,1.26.65,1.89,1.01" style="fill: #cbccce;"/>
    <path d="M60.63,17.83c1.93.23,3.86.43,5.77.64.76.08,1.53.16,2.3.25-1.04-.61-2.01-1.27-2.78-2.08-1.75-.18-3.52-.37-5.29-.57v1.77Z" style="fill: #cbccce;"/>
    <path d="M62.93,11.09s-.02-.09-.06-.12c-.06-.05-.14-.06-.22-.07-.68-.09-1.36-.17-2.04-.25v3.97c1.04.21,2.06.43,3.1.64-.27-1.44-.53-2.83-.78-4.16" style="fill: #e9e9ea;"/>
    <path d="M82.45,29.07c.36,1.32.74,2.68,1.1,4.08.18.7,2.29,9.03,2.24,9.02,2.64.54,5.3,1.07,7.99,1.59l-4.57-14.34c-1.7-.4-3.39-.84-5.08-1.35-2-.61-2.12-.65-1.67,1" style="fill: #e9e9ea;"/>
    <path d="M62.02,8.03c.14-.07.16-.21.17-.34.04-.73.03-1.44-.02-2.15,0-.08-.02-.17-.11-.24-.08-.06-.21-.08-.32-.11-.38-.07-.76-.14-1.14-.2v2.99c.32.03.62.06.93.08.18.01.37.03.49-.04" style="fill: #e9e9ea;"/>
    <path d="M63.17,4.23l-2.57-.37v.46s2.61.37,2.61.37c.1,1.36.24,2.86.43,4.44-1.02-.2-2.03-.36-3.02-.51v1.5c1.07.17,2.15.34,3.22.56.08.6.17,1.21.26,1.82.18,1.21.43,2.43,1.41,3.66.13.16.27.32.41.47.06,0,.12.01.17.02,1.06.11,2.14.22,3.22.34-.68-.42-1.27-.87-1.71-1.37-.36-.56-.51-1.14-.17-1.5.23-.25.7-.4,1.4-.46,1.29-.11,2.76.09,4.18.29l2.62.36c3.13.96,6.34,1.85,9.61,2.66l-.57-1.79c-3.84-.94-7.6-2-11.26-3.16-3-1.55-5.2-3.6-6.59-5.01-.67-.68-1.37-1.45-1.4-2.14h-.1c-.03-.35-.07-.68-.09-1,1.57.14,3.18.51,4.89.89,1.01.23,2.06.46,3.09.65.48.09.96.16,1.43.23,2.07.29,4.1.41,6.08.53.36.02.73.05,1.1.07l-.17-.54c-.4-.03-.81-.05-1.2-.08-.82-.05-1.66-.1-2.5-.16-.35-.26-.7-.54-.86-.82-.07-.12-.1-.24-.13-.37l-.37-1.47-.5-.07.36,1.47c.03.14.07.28.15.43.15.28.44.54.74.78-1.39-.11-2.78-.27-4.18-.52-1-.18-2.02-.41-3-.63-1.65-.37-3.33-.75-4.98-.9-.06-.76-.1-1.47-.12-2.11l-2-.27c0,.95.04,2.05.11,3.25M71.25,12.92c-.98-.11-1.95-.17-2.89-.09-.81.07-1.4.24-1.79.52-.04-.2-.08-.39-.12-.6-.09-.51-.18-1.01-.26-1.51,1.09.31,2.18.68,3.33,1.08.22.07.44.15.65.23.36.12.72.24,1.08.36M65.92,7.26c1.01,1.05,2.43,2.41,4.28,3.71-.07-.02-.15-.05-.22-.07-1.16-.39-2.35-.79-3.55-1.12-.17-.05-.34-.09-.51-.13-.15-.97-.28-1.91-.39-2.81.13.14.26.28.39.42" style="fill: #414042;"/>
    <path d="M81.53,30.02c-.4-1.29-1.03-3.16-2.02-4.92-1.01-1.79-2.23-3.2-3.73-4.36-.72-.56-1.49-1.04-2.27-1.47-1.62-.19-3.22-.37-4.81-.55.63.37,1.29.72,1.95,1.06,1.3.68,2.54,1.34,3.55,2.14,1.81,1.44,2.88,3.35,3.63,5.34l-15.43-2.4c-.58-.09-1.16-.18-1.75-.28v.54c.59.1,1.18.19,1.77.29l15.62,2.44c.21.61.39,1.22.56,1.82,1.07,3.85,1.86,8.08,2.68,12.57l3.41.66c-.98-4.58-1.93-8.9-3.16-12.88" style="fill: #414042;"/>
    <path d="M68.7,18.72c1.59.17,3.19.35,4.81.55-.63-.35-1.27-.68-1.89-1-.82-.42-1.61-.83-2.31-1.26-1.08-.12-2.15-.23-3.21-.34-.06,0-.12-.01-.17-.02.77.81,1.74,1.47,2.78,2.08" style="fill: #414042;"/>
    <path d="M84.69,42.89c.03.15.07.3.1.46l9.44,1.83-.15-.47-9.39-1.82Z" style="fill: #ccc;"/>
    <path d="M60.68,38.24v.42s20.68,4.02,20.68,4.02c-.03-.15-.06-.3-.08-.45l-20.6-3.99Z" style="fill: #ccc;"/>
    <path d="M65.05,1.11s0,.1,0,.14l11.02,1.49-.02-.1.5.07.02.1,4.32.58-.06-.17-16.78-2.26.99.15Z" style="fill: #ccc;"/>
    <path d="M63.06.98c0-.05,0-.11,0-.16l-2.47-.33v.16l2.47.33Z" style="fill: #ccc;"/>
    <polygon points="76.55 2.71 76.05 2.65 76.08 2.74 76.57 2.81 76.55 2.71" style="fill: #ccc;"/>
    <path d="M81.28,42.23c.03.15.05.3.08.45l3.43.67c-.03-.15-.06-.3-.1-.45l-3.41-.66Z" style="fill: #ccc;"/>
    <path d="M65.05,1.25s0-.1,0-.14l-.99-.15-1-.13c0,.05,0,.11,0,.16l2,.27Z" style="fill: #ccc;"/>
    <path d="M33.18,9.42c.64.79,1.57,1.52,2.9,2.26.5.09,1.01.18,1.52.27l2.69-8.56-6.32-1.05c-.41,1.57-.97,3.27-1.67,5.07.06.67.36,1.36.88,2.01M35.43,2.96c1.43.33,2.91.58,4.41.74.08,0,.16.02.21.07.03.03.02.07.02.11-.07.53-.17,1.1-.71,1.5-.25.18-.56.31-.88.44-.33.13-.69.27-1.08.25-.28-.02-.53-.12-.79-.2-.42-.12-.87-.19-1.32-.19-.28,0-.57.02-.85,0-.28-.03-.56-.14-.65-.31-.09-.16-.01-.34.06-.51.22-.53.36-1.05.43-1.58.08-.65.32-.49,1.16-.29" style="fill: #f2f2f2;"/>
    <path d="M33.31,13.16c.3-.04.61-.07.91-.1-1.36-.25-2.72-.49-4.07-.73-.29.61-.6,1.22-.92,1.84.08-.04.17-.07.25-.11,1.33-.54,2.74-.76,3.82-.9" style="fill: #f2f2f2;"/>
    <path d="M26.89,12.76c.11.24.21.5.28.76.28-.52.56-1.04.82-1.54-.6-.08-1.2-.18-1.8-.29.28.33.52.68.7,1.07" style="fill: #f2f2f2;"/>
    <path d="M28.52,8.47c.58-.18,1.03-.35,1.4-.58.01,0,.02-.02.04-.02.91-2.08,1.63-4.04,2.14-5.82l-7.33-1.21-4.75,8.2c1.05.09,2.11.24,3.16.42,1.65-.06,3.45-.39,5.34-.98" style="fill: #f2f2f2;"/>
    <path d="M32.24,9.83c-.23-.29-.42-.58-.57-.88-.25.59-.51,1.2-.79,1.81.95.17,1.91.34,2.87.51-.62-.47-1.11-.94-1.51-1.44" style="fill: #f2f2f2;"/>
    <polygon points="2.02 39.34 7.71 29.58 8.29 28.59 14.44 18.06 15.5 16.23 18.82 10.55 19.72 9 24.61 .62 40.35 3.22 40.51 2.69 24.13 0 0 40.39 26.71 46.66 27.17 45.18 2.02 39.34" style="fill: #fff;"/>
    <path d="M33.46,14.01c-1.49.19-2.56.44-3.48.82-.6.24-1.12.55-1.56.89-.06.11-.12.22-.18.34,2.53.45,5.07.92,7.63,1.42l1.17-3.73c-1.19.02-2.39.1-3.58.26" style="fill: #f2f2f2;"/>
    <path d="M28.77,10.42c.24-.49.47-.98.69-1.45-.19.07-.38.13-.57.19-1.05.33-2.09.59-3.09.78,1.02.19,2.01.36,2.97.49" style="fill: #f2f2f2;"/>
    <path d="M26.2,15.25c.01-.82-.12-1.52-.4-2.14-.34-.74-.91-1.36-1.62-1.79-1.69-.32-3.42-.65-5.05-.76l-3.29,5.68c3.15.09,6.2.46,9.18.99.41-.67.8-1.33,1.18-1.99" style="fill: #f2f2f2;"/>
    <path d="M25.48,20.77c2.88.64,5.79,1.33,8.71,2.07l.43-1.37c-2.78-.74-5.55-1.45-8.33-2.02-.26.44-.53.87-.8,1.31" style="fill: #f2f2f2;"/>
    <path d="M35.64,18.22c-2.61-.52-5.21-1.01-7.79-1.46-.17.3-.34.61-.52.92,2.64.54,5.26,1.2,7.89,1.88l.42-1.34Z" style="fill: #fff;"/>
    <path d="M17.92,31.89c-3.36-.72-6.64-1.48-9.84-2.22l-5.41,9.34,24.66,5.71,3.27-10.43c-4.31-.68-8.54-1.51-12.68-2.4" style="fill: #f2f2f2;"/>
    <path d="M30.93,33.21l2.57-8.2c-3.47-.9-6.93-1.74-10.34-2.49l-1.38-.3.76-1.13c.47-.7.93-1.39,1.37-2.08-2.98-.53-6.01-.88-9.14-.94l-6.14,10.61c7.08,1.62,14.57,3.33,22.29,4.53" style="fill: #f2f2f2;"/>
    <path d="M25.03,17.24c-2.99-.53-6.03-.9-9.18-1l-1.05,1.82c3.12.06,6.15.42,9.14.94.38-.59.75-1.18,1.1-1.77" style="fill: #cbccce;"/>
    <path d="M27.33,17.68c-.34.59-.69,1.18-1.04,1.78,2.78.57,5.56,1.28,8.33,2.02l.6-1.92c-2.62-.69-5.25-1.34-7.89-1.88" style="fill: #cbccce;"/>
    <path d="M33.83,4.83c-.07.17-.15.35-.06.51.1.18.38.28.65.31.28.03.56,0,.84,0,.46,0,.91.07,1.32.19.26.08.51.18.79.2.39.02.75-.11,1.08-.25.32-.13.64-.26.88-.44.54-.4.64-.97.71-1.5,0-.03,0-.07-.02-.1-.04-.05-.13-.06-.2-.07-1.5-.16-2.99-.41-4.42-.74-.84-.2-1.08-.35-1.16.29-.07.53-.21,1.06-.43,1.58" style="fill: #cbccce;"/>
    <path d="M26.28,19.46c-.78-.16-1.57-.31-2.36-.45-.44.69-.9,1.39-1.37,2.08l-.76,1.13,1.38.3c3.41.75,6.87,1.58,10.34,2.49l.68-2.16c-2.92-.74-5.83-1.44-8.71-2.07.27-.44.54-.88.8-1.31" style="fill: #414042;"/>
    <path d="M30.59,34.29l.34-1.08c-7.72-1.2-15.21-2.91-22.29-4.53l-.57.99c3.2.74,6.48,1.5,9.84,2.22,4.14.89,8.38,1.72,12.68,2.4" style="fill: #414042;"/>
    <path d="M24.18,11.32c.71.43,1.29,1.04,1.62,1.79.28.62.41,1.33.4,2.14-.38.66-.77,1.32-1.18,1.99.77.14,1.54.29,2.3.44.17-.31.35-.61.52-.92,2.58.46,5.18.94,7.79,1.46l.23-.74c-2.56-.5-5.11-.98-7.64-1.42.06-.11.12-.23.18-.34.43-.34.96-.64,1.56-.89.92-.38,2-.63,3.48-.82,1.19-.15,2.39-.24,3.58-.26l.56-1.8c-.51-.09-1.01-.18-1.52-.27-1.33-.74-2.26-1.47-2.9-2.26-.53-.65-.82-1.35-.88-2.01.7-1.8,1.26-3.5,1.67-5.07l-1.87-.31c-.51,1.78-1.23,3.74-2.14,5.83-.01,0-.02.02-.04.02-.37.23-.82.4-1.4.58-1.89.59-3.69.93-5.34.98-1.05-.18-2.11-.34-3.16-.42l-.89,1.54c1.63.11,3.36.44,5.04.76M31.68,8.95c.15.3.34.59.57.88.4.5.89.98,1.51,1.44-.96-.17-1.91-.34-2.87-.51.28-.61.54-1.21.79-1.81M30.15,12.33c1.35.24,2.7.49,4.07.73-.3.03-.61.06-.91.1-1.08.14-2.49.36-3.82.9-.09.03-.17.07-.25.11.32-.62.62-1.23.92-1.84M27.17,13.53c-.07-.27-.17-.52-.28-.76-.18-.38-.41-.74-.7-1.07.6.11,1.2.2,1.8.28-.26.51-.54,1.02-.82,1.54M28.89,9.15c.19-.06.38-.12.57-.19-.22.48-.45.96-.69,1.45-.96-.12-1.95-.3-2.97-.49,1-.18,2.04-.44,3.09-.78" style="fill: #414042;"/>
    <path d="M26.28,19.46c.36-.6.71-1.19,1.04-1.78-.76-.16-1.53-.31-2.3-.44-.36.59-.72,1.18-1.1,1.77.79.14,1.57.29,2.36.45" style="fill: #414042;"/>
    <path d="M24.77.83l7.33,1.21s0-.02.01-.04l1.9.18c-.01.05-.03.11-.04.16l6.32,1.05.05-.17L24.61.62l-4.89,8.38c.1,0,.2.01.3.02L24.77.83Z" style="fill: #ccc;"/>
    <path d="M14.79,18.06c-.12,0-.24,0-.35,0l-6.15,10.54c.12.03.24.05.36.08l6.14-10.61Z" style="fill: #ccc;"/>
    <path d="M19.13,10.56c-.1,0-.21-.01-.31-.02l-3.32,5.69c.11,0,.23,0,.34,0l3.29-5.68Z" style="fill: #ccc;"/>
    <path d="M2.66,39.01l5.41-9.34c-.12-.03-.24-.05-.36-.08l-5.7,9.76,25.16,5.84.15-.47-24.66-5.71Z" style="fill: #ccc;"/>
    <path d="M15.84,16.24c-.11,0-.23,0-.34,0l-1.06,1.82c.12,0,.24,0,.35,0l1.05-1.82Z" style="fill: #ccc;"/>
    <path d="M34.01,2.19l-1.9-.18s0,.02-.01.04l1.87.31c.01-.05.03-.11.04-.16" style="fill: #ccc;"/>
    <path d="M20.02,9.02c-.1,0-.2-.02-.3-.02l-.9,1.54c.1,0,.21.01.31.02l.89-1.54Z" style="fill: #ccc;"/>
    <path d="M8.65,28.67c-.12-.03-.24-.05-.36-.08l-.58.99c.12.03.24.06.36.08l.57-.99Z" style="fill: #ccc;"/>
    <path d="M31.5,44.28l3.52-.94s.01-.08.02-.12l-3.47.67c-.03.13-.05.26-.08.39" style="fill: #dcdcdc;"/>
    <path d="M52.09,5.65c-.23.08-.46.17-.71.26-.23.09-.47.18-.71.26-.82.28-1.67.42-2.47.54-.22.03-.43.06-.64.09l-7.56,1c-.76,1.31-1.16,2.66-1.53,4.03,7.33-1.08,14.52-2.12,21.49-3.11.21-.03.43-.06.64-.09v-.65c-2.62.51-5.26.84-7.92,1.17-1.49.18-2.99.37-4.5.56-2.48.31-4.98.62-7.5.93-.29.04-.62.06-.74-.07-.08-.09-.03-.23.01-.35.15-.42.22-1.41.69-1.79.45-.36,1.26-.4,1.8-.49,1.93-.32,3.83-.56,5.7-.72,1.44-.12,2.94-.22,4.32-.77.59-.24,1.13-.55,1.75-.73.43-.12.87-.17,1.3-.21,1.7-.17,3.39-.35,5.08-.52v-.66s-6.22.87-6.22.87c-.76.11-1.55.22-2.29.46" style="fill: #fff;"/>
    <path d="M53.88,11.11c-3.21.47-6.47.95-9.75,1.43l-1.22,3.95c3.76-.5,7.48-.96,11.15-1.36l-.17-4.02Z" style="fill: #fff;"/>
    <path d="M41.59,5.55c-.18.27-.39.55-.6.82-.17.22-.35.45-.51.68-.05.07-.1.15-.15.22l7.33-.96c.94-.12,1.91-.25,2.82-.56.21-.07.43-.15.65-.24.25-.1.51-.2.78-.28.85-.27,1.73-.4,2.51-.5l6.17-.86V.65s-18.05,2.44-18.05,2.44c-.05.76-.38,1.61-.96,2.47" style="fill: #fff;"/>
    <path d="M54.82,10.97l.34,6.15c1.84-.33,3.66-.69,5.47-1.06v-1.45c-.31.03-.61.07-.92.1-.77.08-1.55.16-2.32.32-.68.13-1.35.32-2.02.56.46-1.14-.54-3.39.18-4.29.3-.38,2.51-.24,3.33-.36.58-.09,1.16-.19,1.73-.29v-.51c-.23.03-.45.06-.67.1-1.7.25-3.4.49-5.12.74" style="fill: #fff;"/>
    <path d="M37.86,11.92c.46-1.66.97-3.29,2.1-4.89.17-.24.35-.47.52-.7.2-.26.41-.53.59-.79.56-.82.88-1.64.93-2.38l-1.71.23-2.69,8.56c.08-.01.17-.02.26-.04" style="fill: #fff;"/>
    <path d="M60.35,25.17c-1.57.27-3.16.49-4.72.5.22,3.99.4,8.5-.46,13.64l5.52-1.07-.03-13.13c-.1.02-.2.04-.3.05" style="fill: #fff;"/>
    <path d="M54.48,25.2l-.26-6.12c-1.16.21-2.33.4-3.49.57-4.27.65-8.6,1.08-12.82,1.5-1.09.11-2.19.22-3.29.33l-.43,1.37c2.26-.26,4.5-.51,6.72-.73l1.21-.12-.19.94c-.51,2.49-1.73,5.47-2.99,8.56-1.53,3.74-3.25,7.94-3.88,11.71l18.81-3.65c1-5.42.79-10.19.62-14.37M35.98,41.89c.3-3.4,2.67-6.89,4.2-10.04.8-1.64,1.37-3.22,1.83-4.74.4-1.31.4-2.9,1.06-4.12.63-1.16,2.22-1.02,3.5-1.22,1.74-.27,3.47-.54,5.2-.81.17-.03.34-.05.49-.02.35.07.4.43.4.74.04,3.17.24,6.56.64,10.17-2.98,1.22-6.32.73-9.08,2.74-1.47,1.07-2.44,2.61-3.6,4.05-1.2,1.48-2.93,3.05-4.64,3.25M52.94,37.92c-.2.76-1.18,1.26-1.99,1.41-1.26.24-2.41.02-3.61.03-1.3,0-2.68.27-4.06.53-1.48.28-2.8,1.15-2.02-.48.43-.89,1.62-2.29,2.36-3.02,1.08-1.08,2.47-1.84,3.83-2.3,1.35-.46,2.69-.68,4.02-.9.35-.06.72-.11,1,0,.71.27.47,1.28.35,2.09-.09.58-.07,1.16.04,1.7.07.3.17.61.08.96" style="fill: #fff;"/>
    <path d="M32.03,32.96c.99-.22,2.21-.5,3.31-1.03.25-.12.49-.25.71-.39,1.17-2.66,2.22-5.05,2.83-7.13-1.78.19-3.58.39-5.39.6l-2.57,8.2c.37-.08.74-.16,1.1-.25" style="fill: #fff;"/>
    <path d="M43.55,12.62c-1.8.27-3.61.54-5.43.81-.36.1-.72.21-1.08.32l-1.17,3.73c2.16-.32,4.31-.62,6.43-.91l1.25-3.95Z" style="fill: #fff;"/>
    <polygon points="55.08 39.75 53.77 40.01 27.17 45.18 26.71 46.66 60.69 39.97 60.68 38.66 55.08 39.75" style="fill: #fff;"/>
    <polygon points="60.59 .49 60.59 0 40.51 2.69 40.35 3.22 60.59 .49" style="fill: #fff;"/>
    <path d="M55.25,18.89l.33,6.04c0,.06,0,.12.01.18,1.65,0,3.36-.24,5.05-.54l-.02-6.74c-1.77.37-3.57.73-5.38,1.06" style="fill: #fff;"/>
    <path d="M38.64,19.22c4.08-.4,8.26-.81,12.35-1.42,1.05-.16,2.11-.33,3.16-.51l-.06-1.47c-6.01.66-12.17,1.47-18.45,2.4l-.42,1.34c1.15-.12,2.29-.23,3.43-.34" style="fill: #fff;"/>
    <path d="M35.49,32.85c-1.2.57-2.38.87-3.7,1.17-.4.09-.8.18-1.2.27l-3.27,10.43,4.26-.83c.77-3.68,2.37-7.53,3.91-11.04" style="fill: #fff;"/>
    <path d="M50.99,17.81c-4.08.61-8.27,1.02-12.35,1.42-1.13.11-2.28.22-3.43.34l-.6,1.92c1.1-.11,2.2-.22,3.29-.33,4.22-.42,8.55-.85,12.82-1.5,1.17-.18,2.33-.37,3.49-.57l-.07-1.78c-1.05.18-2.11.35-3.16.51" style="fill: #dcddde;"/>
    <path d="M60.63,16.06c-1.81.37-3.63.73-5.47,1.05l.1,1.77c1.81-.33,3.6-.69,5.38-1.06v-1.77Z" style="fill: #dcddde;"/>
    <path d="M58.88,10.93c-.82.13-3.03-.02-3.33.36-.72.91.27,3.16-.18,4.29.66-.24,1.34-.42,2.02-.56.78-.15,1.55-.24,2.32-.32.31-.03.61-.07.92-.1v-3.97c-.59.1-1.16.2-1.74.29" style="fill: #e9e9ea;"/>
    <path d="M55.52,5.52c-.43.05-.87.09-1.3.21-.61.17-1.15.49-1.75.72-1.37.55-2.88.65-4.32.77-1.87.16-3.77.4-5.7.72-.54.09-1.35.13-1.8.49-.47.38-.54,1.37-.69,1.79-.04.13-.09.26-.01.35.12.14.45.11.74.07,2.51-.31,5.01-.62,7.5-.93,1.5-.19,3-.37,4.5-.56,2.66-.33,5.3-.66,7.92-1.17v-2.99c-1.69.17-3.39.35-5.08.52" style="fill: #f1f2f2;"/>
    <path d="M44.22,34.58c2.76-2.01,6.1-1.52,9.08-2.74-.4-3.61-.61-6.99-.64-10.17,0-.31-.05-.66-.4-.74-.15-.03-.32,0-.49.02-1.72.27-3.46.54-5.2.81-1.27.2-2.86.06-3.5,1.22-.67,1.22-.67,2.81-1.06,4.12-.46,1.52-1.04,3.1-1.83,4.74-1.53,3.15-3.9,6.64-4.19,10.04,1.71-.2,3.44-1.77,4.64-3.26,1.16-1.44,2.14-2.99,3.6-4.05" style="fill: #f1f2f2;"/>
    <path d="M52.82,35.27c.12-.81.36-1.82-.35-2.08-.28-.11-.65-.05-1,0-1.33.21-2.67.43-4.02.9-1.36.47-2.76,1.22-3.83,2.31-.73.74-1.93,2.13-2.36,3.02-.78,1.63.53.76,2.02.48,1.38-.26,2.75-.52,4.06-.53,1.21,0,2.36.21,3.61-.03.81-.15,1.79-.65,1.99-1.41.09-.34,0-.65-.08-.96-.12-.54-.13-1.11-.04-1.7" style="fill: #dcddde;"/>
    <path d="M41.07,5.54c-.18.26-.39.53-.59.79-.18.23-.36.46-.53.7-1.13,1.59-1.64,3.23-2.1,4.89-.08.01-.17.02-.26.04l-.56,1.8c.36-.11.72-.22,1.08-.32,1.82-.27,3.63-.54,5.43-.81l-1.25,3.95c-2.13.29-4.27.59-6.43.91l-.23.74c6.28-.93,12.44-1.74,18.45-2.4l.06,1.47c.34-.06.67-.12,1.01-.18l-.34-6.15c1.72-.25,3.43-.5,5.12-.74.22-.03.45-.06.67-.1v-1.5c-.22.03-.43.06-.64.09-6.97.99-14.16,2.03-21.49,3.11.37-1.37.77-2.72,1.53-4.03l7.56-1c.21-.03.42-.06.63-.09.8-.11,1.65-.26,2.47-.54.25-.08.49-.17.71-.26.25-.1.48-.18.71-.26.74-.24,1.53-.35,2.29-.46l6.22-.87v-.46s-6.17.85-6.17.85c-.78.11-1.66.23-2.51.5-.27.09-.53.19-.78.28-.22.09-.43.17-.65.24-.91.3-1.88.43-2.82.55l-7.33.96c.05-.07.1-.15.15-.22.16-.23.34-.46.51-.68.2-.27.42-.54.6-.82.58-.85.9-1.7.96-2.47l-.55.07c-.05.74-.36,1.56-.93,2.38M44.13,12.54c3.29-.49,6.54-.96,9.75-1.43l.17,4.02c-3.66.4-7.38.86-11.15,1.36l1.22-3.95Z" style="fill: #58595b;"/>
    <path d="M55.63,25.67c1.56-.01,3.15-.23,4.72-.5.1-.02.2-.03.3-.05v-.54c-1.69.3-3.4.54-5.05.54,0-.06,0-.12,0-.19l-.33-6.04c-.35.06-.69.12-1.04.19l.26,6.12c.18,4.18.38,8.95-.62,14.37l1.3-.25c.86-5.14.68-9.66.47-13.65" style="fill: #58595b;"/>
    <path d="M38.92,31.51c1.26-3.09,2.49-6.08,2.99-8.56l.19-.94-1.21.12c-2.22.22-4.46.46-6.72.73l-.68,2.16c1.81-.21,3.61-.41,5.39-.6-.61,2.08-1.66,4.47-2.83,7.13-.22.14-.46.27-.71.4-1.1.53-2.32.81-3.31,1.03-.37.08-.73.17-1.1.25l-.34,1.08c.4-.09.8-.18,1.19-.27,1.32-.3,2.5-.6,3.7-1.17-1.54,3.51-3.14,7.35-3.91,11.04l3.47-.67c.63-3.77,2.35-7.97,3.88-11.71" style="fill: #58595b;"/>
    <path d="M54.14,17.3l.07,1.78c.35-.06.69-.12,1.03-.19l-.1-1.77c-.34.06-.67.12-1.01.18" style="fill: #58595b;"/>
    <path d="M55.16,39.31c-.02.15-.05.29-.08.44l5.6-1.09v-.42s-5.52,1.07-5.52,1.07Z" style="fill: #dcdcdc;"/>
    <path d="M35.04,43.22s-.01.08-.02.12l-3.53.94c.03-.13.05-.26.08-.39l-4.25.82-.15.47,26.6-5.18c.03-.15.06-.3.08-.44l-18.81,3.65Z" style="fill: #dcdcdc;"/>
    <path d="M42,3.16s0-.08,0-.11l.55-.12c0,.05,0,.11,0,.16L60.59.65v-.16s-20.24,2.73-20.24,2.73l-.05.17,1.71-.23Z" style="fill: #dcdcdc;"/>
    <path d="M42.56,2.93l-.55.12s0,.08,0,.11l.55-.07c0-.05,0-.11,0-.16" style="fill: #dcdcdc;"/>
    <path d="M53.85,39.57c-.03.15-.05.29-.08.44l1.31-.25c.03-.15.05-.29.08-.44l-1.3.25Z" style="fill: #dcdcdc;"/>
    <path d="M83.61,5.25c1.33-.32,2.66-.58,3.67-.78,3.32-.64,6.68-1.18,10.01-1.61l-1.18-2.04-15.22,2.57.76,2.37c.65-.18,1.31-.35,1.96-.51" style="fill: #fff;"/>
    <path d="M87.51,4.99c-1.01.19-2.33.46-3.65.78-.45.11-.9.23-1.36.35.51.34.79.86.98,1.28.59,1.34.93,2.8,1.27,4.28.26,1.12.53,2.3.93,3.49,5.93-.5,11.68-1.45,17.11-2.79l-5.21-9c-3.36.44-6.74.98-10.07,1.63" style="fill: #fff;"/>
    <path d="M88.42,16.74c-1.05.11-2.13.15-3.19.24l.79,2.48c3-.43,6.04-.67,8.97-.96l10.73-1.05-1.96-3.4c-1.61.4-3.26.78-4.95,1.11-3.37.67-6.85,1.2-10.39,1.58" style="fill: #fff;"/>
    <path d="M86.63,21.36l2.57,8.06c3.89-.56,7.64-1.45,11.29-2.37,2.85-.72,5.66-1.44,8.52-2,2.14,3.84,4.6,8.01,7.41,12.55-7.23,2.15-14.79,4.2-22.65,6.16l.3.96,23.93-6.05-11.21-19.39-11.26,1.12c-2.92.29-5.94.53-8.9.96" style="fill: #fff;"/>
    <path d="M84.11,11.76c-.32-1.46-.65-2.91-1.21-4.23-.28-.65-.62-1.05-1.05-1.24,0,0-.02,0-.03,0l2.83,8.88c.11,0,.23.04.34.03-.38-1.18-.64-2.36-.89-3.46" style="fill: #fff;"/>
    <polygon points="96.74 0 80.67 2.69 80.84 3.22 96.27 .62 97.56 2.83 97.82 3.28 103.08 12.3 104.05 13.97 106.05 17.4 107.03 19.08 118.63 38.99 94.23 45.18 94.7 46.66 120.59 40.01 96.74 0" style="fill: #fff;"/>
    <path d="M86.02,19.45l.61,1.91c2.96-.43,5.98-.67,8.9-.96l11.26-1.12-1.07-1.84-10.73,1.05c-2.93.29-5.98.53-8.97.96" style="fill: #dcddde;"/>
    <path d="M116.42,37.6c-2.81-4.54-5.27-8.71-7.41-12.55-2.86.56-5.67,1.28-8.52,2-3.65.92-7.41,1.81-11.29,2.37l4.57,14.34c7.86-1.96,15.42-4.01,22.65-6.16" style="fill: #f1f2f2;"/>
    <path d="M87.28,4.48c-1.01.19-2.34.46-3.67.78-.65.16-1.33.27-1.98.45l.19.6s.02,0,.03,0c.43.19.77.59,1.05,1.24.56,1.32.89,2.77,1.21,4.23.25,1.11.51,2.28.89,3.46-.11,0-.23-.04-.34-.03l.57,1.79c1.06-.08,2.14-.12,3.19-.24,3.54-.38,7.02-.91,10.39-1.58,1.68-.34,3.34-.71,4.95-1.11l-.97-1.67c-5.44,1.35-11.19,2.29-17.12,2.79-.4-1.19-.67-2.37-.93-3.49-.34-1.47-.68-2.94-1.27-4.28-.18-.42-.46-.94-.98-1.28.45-.12.91-.24,1.36-.35,1.32-.32,2.64-.58,3.65-.78,3.34-.64,6.72-1.19,10.07-1.63l-.29-.5c-3.34.43-6.7.97-10.01,1.61" style="fill: #58595b;"/>
    <path d="M97.59,3.37l5.21,9c.09-.02.19-.05.28-.07l-5.26-9.02.02.05c-.09.01-.17.02-.26.03" style="fill: #dcdcdc;"/>
    <path d="M105.72,17.44l.33-.03-2-3.44c-.1.03-.19.05-.29.07l1.96,3.4Z" style="fill: #dcdcdc;"/>
    <polygon points="106.79 19.28 118.01 38.67 94.08 44.71 94.23 45.18 118.63 38.99 107.03 19.08 107.1 19.25 106.79 19.28" style="fill: #dcdcdc;"/>
    <path d="M96.12.82l1.18,2.04c.09-.01.18-.02.26-.03l-1.29-2.21-15.43,2.6.05.17,15.22-2.57Z" style="fill: #dcdcdc;"/>
    <polygon points="106.79 19.28 107.1 19.25 107.03 19.08 106.05 17.4 105.72 17.44 106.79 19.28" style="fill: #dcdcdc;"/>
    <path d="M103.76,14.04c.1-.02.19-.05.29-.07l-.97-1.67c-.09.02-.19.05-.28.07l.97,1.67Z" style="fill: #dcdcdc;"/>
    <path d="M97.59,3.37c.09-.01.17-.02.26-.03l-.02-.05-.26-.45c-.09.01-.18.02-.26.03l.29.5Z" style="fill: #dcdcdc;"/>
  </g>
</svg>