<?xml version="1.0" encoding="UTF-8"?>
<svg id="uuid-b1744f63-6327-4e34-9256-dfbf8c3a67ae" data-name="Layer 1" xmlns="http://www.w3.org/2000/svg" xmlns:xlink="http://www.w3.org/1999/xlink" viewBox="0 0 76.5 77.28">
  <defs>
    <clipPath id="uuid-50041d36-f244-45b0-b1d8-b3f6e6ec505e">
      <path d="M26.5,18.41c-4.35,1.33-7.4,5.5-7.4,10.16,0,.69.06,1.37.19,2.04,2.11,11.31,7.79,21.38,16.41,29.14.7.62,1.6.96,2.54.96s1.84-.34,2.54-.96c8.63-7.76,14.3-17.83,16.41-29.14.13-.67.19-1.36.19-2.04,0-4.65-3.04-8.83-7.39-10.16-3.86-1.22-7.8-1.83-11.75-1.83s-7.89.61-11.75,1.83" style="fill: none;"/>
    </clipPath>
    <linearGradient id="uuid-6b0f0325-710a-4175-895e-0ccdbd7c6a42" x1="-169.9" y1="337.19" x2="-168.9" y2="337.19" gradientTransform="translate(9390.01 18653.75) scale(55.21 -55.21)" gradientUnits="userSpaceOnUse">
      <stop offset="0" stop-color="#8f807d"/>
      <stop offset=".33" stop-color="#3dadbf"/>
      <stop offset=".66" stop-color="#d11a6f"/>
      <stop offset="1" stop-color="#51247f"/>
      <stop offset="1" stop-color="#51247f"/>
      <stop offset="1" stop-color="#51247f"/>
    </linearGradient>
  </defs>
  <g style="clip-path: url(#uuid-50041d36-f244-45b0-b1d8-b3f6e6ec505e);">
    <rect x="10.64" y="9.96" width="55.22" height="57.36" transform="translate(-14.2 24.3) rotate(-30)" style="fill: url(#uuid-6b0f0325-710a-4175-895e-0ccdbd7c6a42);"/>
  </g>
  <path d="M37.88,44.85c5.57,0,10.09-4.52,10.09-10.09s-4.52-10.1-10.09-10.1-10.09,4.52-10.09,10.1,4.52,10.09,10.09,10.09Z" style="fill: none; stroke: #fff;"/>
  <path d="M37.88,44.85c5.57,0,10.09-4.52,10.09-10.09s-4.52-10.1-10.09-10.1-10.09,4.52-10.09,10.1,4.52,10.09,10.09,10.09" style="fill: #231f20;"/>
  <path d="M49.85,18.52c-7.71-2.44-15.79-2.44-23.49,0-4.35,1.33-7.4,5.51-7.4,10.16,0,.69.07,1.37.19,2.04,2.11,11.31,7.79,21.38,16.41,29.14.7.62,1.6.96,2.54.96s1.84-.34,2.54-.96c8.63-7.76,14.3-17.83,16.41-29.14.13-.67.19-1.35.19-2.04,0-4.65-3.04-8.83-7.39-10.16" style="fill: none; stroke: #231f20; stroke-miterlimit: 10;"/>
</svg>