<?xml version="1.0" encoding="UTF-8"?>
<svg id="Layer_1" data-name="Layer 1" xmlns="http://www.w3.org/2000/svg" viewBox="0 0 790.21 356.96">
  <defs>
    <style>
      .cls-1 {
        fill: #929292;
      }

      .cls-2 {
        fill: #1d1d1b;
      }

      .cls-3 {
        fill: #95817b;
      }
    </style>
  </defs>
  <g>
    <path class="cls-2" d="M103.08,193.53c5.47-1.07,12.42-1.74,19.09-1.74,9.61,0,18.16,1.34,24.03,6.68,5.47,4.94,7.08,10.95,7.08,18.69,0,9.61-4.67,18.29-13.89,22.57v.27c6.14,2.4,9.21,8.14,10.95,17.76,1.74,10.01,4.14,21.1,5.74,24.43h-18.29c-1.07-2.54-3.07-11.62-4.41-21.5-1.6-11.22-4.41-14.42-10.28-14.42h-2.54v35.92h-17.49v-88.66ZM120.57,232.78h3.07c7.61,0,12.02-6.14,12.02-14.02s-3.07-13.09-10.95-13.35c-1.47,0-3.2.13-4.14.53v26.84Z"/>
    <path class="cls-2" d="M217.51,235.59c0,33.91-12.02,47.67-29.11,47.67-20.43,0-28.44-21.63-28.44-46.33s9.75-45.8,29.64-45.8c21.76,0,27.91,23.9,27.91,44.46ZM178.12,237.19c0,20.43,3.87,30.84,10.95,30.84s10.15-13.35,10.15-31.64c0-15.76-2.4-30.04-10.28-30.04-6.94,0-10.82,11.48-10.82,30.84Z"/>
    <path class="cls-2" d="M271.57,280.85c-2.54,1.2-7.48,2.14-13.62,2.14-22.97,0-33.91-18.96-33.91-44.46,0-33.91,18.83-47.13,36.32-47.13,6.14,0,10.41,1.2,12.15,2.4l-2.94,14.69c-2-.93-4.27-1.74-8.15-1.74-9.88,0-18.83,8.55-18.83,30.84s8.15,29.91,18.83,29.91c2.94,0,6.28-.67,8.41-1.33l1.74,14.69Z"/>
    <path class="cls-2" d="M279.98,192.2h17.49v40.46h.27c1.47-3.74,2.94-7.74,4.41-11.62l12.02-28.84h19.23l-20.16,39.12,20.43,50.87h-19.09l-13.09-37.25-4,7.34v29.91h-17.49v-89.99Z"/>
    <path class="cls-2" d="M340.73,264.29c3.61,2,9.75,3.47,14.82,3.47,8.28,0,12.28-4.27,12.28-10.15,0-6.54-4-9.75-11.62-14.69-12.28-7.48-16.96-16.96-16.96-25.1,0-14.42,9.61-26.44,28.44-26.44,5.87,0,11.48,1.6,14.15,3.2l-2.8,15.09c-2.54-1.6-6.41-3.07-11.48-3.07-7.48,0-11.08,4.54-11.08,9.34,0,5.34,2.67,8.15,12.42,14.02,11.88,7.21,16.29,16.29,16.29,25.77,0,16.42-12.15,27.24-29.77,27.24-7.21,0-14.29-1.87-17.22-3.61l2.54-15.09Z"/>
    <path class="cls-2" d="M438.33,280.85c-2.54,1.2-7.48,2.14-13.62,2.14-22.97,0-33.91-18.96-33.91-44.46,0-33.91,18.83-47.13,36.32-47.13,6.14,0,10.41,1.2,12.15,2.4l-2.94,14.69c-2-.93-4.27-1.74-8.15-1.74-9.88,0-18.83,8.55-18.83,30.84s8.15,29.91,18.83,29.91c2.94,0,6.27-.67,8.41-1.33l1.74,14.69Z"/>
    <path class="cls-2" d="M464.23,192.2v36.05h18.29v-36.05h17.49v89.99h-17.49v-37.65h-18.29v37.65h-17.49v-89.99h17.49Z"/>
    <path class="cls-2" d="M567.7,235.59c0,33.91-12.02,47.67-29.11,47.67-20.43,0-28.44-21.63-28.44-46.33s9.75-45.8,29.64-45.8c21.76,0,27.91,23.9,27.91,44.46ZM528.31,237.19c0,20.43,3.87,30.84,10.95,30.84s10.15-13.35,10.15-31.64c0-15.76-2.4-30.04-10.28-30.04-6.94,0-10.82,11.48-10.82,30.84Z"/>
    <path class="cls-2" d="M631.79,235.59c0,33.91-12.02,47.67-29.11,47.67-20.43,0-28.44-21.63-28.44-46.33s9.75-45.8,29.64-45.8c21.76,0,27.91,23.9,27.91,44.46ZM592.4,237.19c0,20.43,3.87,30.84,10.95,30.84s10.15-13.35,10.15-31.64c0-15.76-2.4-30.04-10.28-30.04-6.94,0-10.82,11.48-10.82,30.84Z"/>
    <path class="cls-2" d="M641.93,192.2h17.49v75.17h23.1v14.82h-40.59v-89.99Z"/>
  </g>
  <g>
    <path class="cls-1" d="M219.22,341.46c-.07-9.42,5.27-12.53,10.01-12.53,3.41,0,6.16,1.41,9.86,3.71,3.63,2.23,4.97,3.04,6.53,3.04,2.15,0,3.19-1.85,3.19-6.08h6.16c.37,8.08-2.97,12.61-9.05,12.61-3.26,0-5.34-.74-9.71-3.41-4-2.52-5.71-3.48-7.34-3.48-2,0-3.41,1.41-3.41,6.16h-6.23Z"/>
    <path class="cls-1" d="M296.43,334.41h-11.42v13.5h12.9v8.45h-22.62v-49.98h21.73v8.45h-12.01v11.5h11.42v8.08Z"/>
    <path class="cls-1" d="M303.71,346.42c2,1.11,5.41,1.93,8.23,1.93,4.6,0,6.82-2.37,6.82-5.64,0-3.63-2.23-5.42-6.45-8.16-6.82-4.15-9.42-9.42-9.42-13.94,0-8.01,5.34-14.69,15.8-14.69,3.26,0,6.38.89,7.86,1.78l-1.56,8.38c-1.41-.89-3.56-1.71-6.38-1.71-4.15,0-6.16,2.52-6.16,5.19,0,2.97,1.48,4.52,6.9,7.79,6.6,4,9.05,9.05,9.05,14.31,0,9.12-6.75,15.13-16.54,15.13-4,0-7.93-1.04-9.57-2l1.41-8.38Z"/>
    <path class="cls-1" d="M339.75,315.35h-8.83v-8.97h27.44v8.97h-8.9v41.01h-9.71v-41.01Z"/>
    <path class="cls-1" d="M365.2,356.96c-2.97,0-5.56-2.52-5.56-6.45,0-3.71,2.74-6.45,5.71-6.45,3.11,0,5.64,2.45,5.64,6.45s-2.3,6.45-5.71,6.45h-.07Z"/>
    <path class="cls-1" d="M398.42,317.28h-.15l-8.16,4.23-1.63-7.64,11.05-5.71h8.53v48.2h-9.64v-39.08Z"/>
    <path class="cls-1" d="M419.79,348.87c1.85,0,2.82-.07,4.45-.37,1.85-.37,4-1.33,5.64-2.89,2.08-2,3.86-5.41,4.67-9.71h-.22c-1.56,1.71-3.78,2.97-6.9,2.97-6.23,0-11.35-5.56-11.35-14.39,0-8.31,5.12-16.91,14.39-16.91s13.64,8.16,13.64,19.8c0,10.9-3.48,18.54-7.93,23.29-2.97,3.19-7.19,5.34-11.87,6.08-1.56.22-3.04.22-4.52.22v-8.08ZM429.87,314.61c-2.45,0-4.3,3.19-4.23,9.05.07,4.67,1.56,8.53,4.52,8.53,1.71,0,3.19-1.26,3.71-2.52.37-.96.44-1.93.44-5.12,0-6.38-1.78-9.94-4.38-9.94h-.07Z"/>
    <path class="cls-1" d="M451.9,348.87c1.85,0,2.82-.07,4.45-.37,1.85-.37,4-1.33,5.64-2.89,2.08-2,3.86-5.41,4.67-9.71h-.22c-1.56,1.71-3.78,2.97-6.9,2.97-6.23,0-11.35-5.56-11.35-14.39,0-8.31,5.12-16.91,14.39-16.91s13.64,8.16,13.64,19.8c0,10.9-3.48,18.54-7.93,23.29-2.97,3.19-7.19,5.34-11.87,6.08-1.56.22-3.04.22-4.52.22v-8.08ZM461.99,314.61c-2.45,0-4.3,3.19-4.23,9.05.07,4.67,1.56,8.53,4.52,8.53,1.71,0,3.19-1.26,3.71-2.52.37-.96.44-1.93.44-5.12,0-6.38-1.78-9.94-4.38-9.94h-.07Z"/>
    <path class="cls-1" d="M490.32,317.28h-.15l-8.16,4.23-1.63-7.64,11.05-5.71h8.53v48.2h-9.64v-39.08Z"/>
    <path class="cls-1" d="M524.67,341.46c-.07-9.42,5.27-12.53,10.01-12.53,3.41,0,6.16,1.41,9.86,3.71,3.63,2.23,4.97,3.04,6.53,3.04,2.15,0,3.19-1.85,3.19-6.08h6.16c.37,8.08-2.97,12.61-9.05,12.61-3.26,0-5.34-.74-9.71-3.41-4.01-2.52-5.71-3.48-7.34-3.48-2,0-3.41,1.41-3.41,6.16h-6.23Z"/>
  </g>
  <g>
    <path class="cls-3" d="M97.2,75.18c.51-1.94-.02-3.8-1.58-5.59-1.56-1.79-3.42-3.25-5.56-4.38-2.15-1.14-4.21-1.88-6.18-2.24-1.97-.36-3.17-.12-3.58.72-3.14,5.57-6.48,11.95-10.01,19.14-3.53,7.2-7.05,14.74-10.56,22.63-3.51,7.89-6.86,15.99-10.03,24.29-3.18,8.31-5.95,16.35-8.33,24.13-2.38,7.78-4.23,15.16-5.54,22.14-1.32,6.98-1.87,13.1-1.66,18.34.18.88.92,2.05,2.2,3.51,1.28,1.46,2.71,2.84,4.27,4.13,1.56,1.29,2.98,2.3,4.24,3.02s1.91.73,1.94.04c.1-5.18.82-11.11,2.16-17.8,1.34-6.69,3.15-13.76,5.41-21.24,2.26-7.47,4.95-15.18,8.06-23.13,3.11-7.95,6.52-15.85,10.24-23.71,3.71-7.86,7.64-15.54,11.79-23.04,4.14-7.5,8.39-14.49,12.73-20.97Z"/>
    <path class="cls-3" d="M53.83,62.81c3.86-1.17,7.72-2.08,11.58-2.75,3.86-.67,7.81-1.2,11.85-1.59,6.4-.62,12.85-.94,19.36-.97,6.5-.03,12.94,0,19.31.08,5.96.02,11.85.03,17.66.01,5.81-.01,11.42-.28,16.84-.8,4.82-.47,9.54-1.24,14.16-2.33,4.61-1.09,8.82-2.51,12.63-4.27.64-.56,1.16-1.62,1.55-3.2.39-1.58.66-3.17.81-4.77.14-1.6.11-2.99-.1-4.16-.21-1.17-.65-1.58-1.31-1.21-3.58,2.04-7.56,3.56-11.93,4.58-4.37,1.02-9.17,1.78-14.39,2.28-4.23.41-8.72.72-13.47.92-4.75.21-9.5.34-14.27.4-5.36.02-11.06.17-17.09.45-6.03.28-11.86.7-17.47,1.24-6.7.64-13.33,1.63-19.91,2.96-6.58,1.33-12.89,3.13-18.93,5.4-3.45,1.33-7.17,2.9-11.17,4.73-4,1.83-7.96,4.02-11.89,6.58-3.93,2.56-7.69,5.51-11.29,8.84-3.61,3.33-6.69,7.15-9.25,11.47-2.57,4.32-4.51,9.18-5.83,14.57-1.32,5.4-1.61,11.39-.88,17.97.46.65,1.57,1.31,3.32,1.99,1.75.68,3.59,1.2,5.52,1.56,1.92.36,3.6.52,5.04.48,1.44-.04,2.11-.5,2.03-1.39-.5-9.29.19-17.33,2.07-24.12,1.88-6.79,4.58-12.51,8.11-17.18,3.52-4.66,7.66-8.41,12.4-11.25,4.74-2.84,9.73-5.01,14.95-6.51Z"/>
    <path class="cls-3" d="M228.69,127.57c-.86-.16-1.78-.1-2.74.19-.97.3-1.7.86-2.22,1.71-.89,2.07-1.88,4.26-2.95,6.54-1.07,2.29-2.29,4.64-3.64,7.06-2.54,4.62-5.23,8.62-8.08,12.03-2.85,3.41-5.66,6.21-8.43,8.41-2.77,2.2-5.45,3.8-8.03,4.8-2.59.99-4.84,1.39-6.74,1.17-2.74-.63-4.88-2.39-6.39-5.27-1.52-2.88-2.43-5.9-2.73-9.05l-.11-1.18c8.61-3.41,16.22-8.04,22.8-13.9,6.59-5.85,11.63-12.82,15.13-20.9,2.01-3.87,2.88-7.23,2.61-10.09-.3-3.05-1.66-5.4-4.11-7.06-2.45-1.65-5.54-2.35-9.29-2.09-3.85.27-7.63,1.23-11.35,2.88-3.72,1.65-7.18,3.65-10.38,5.99-3.2,2.35-6.04,4.88-8.51,7.6-2.47,2.72-4.39,5.19-5.77,7.41-4.37,7.18-7.43,13.61-9.17,19.29-.34,1.1-.61,2.2-.86,3.3-.38.73-.75,1.46-1.15,2.18-3.37,6.29-6.81,11.31-10.32,15.08-3.51,3.77-6.49,6.41-8.92,7.94-1.06.4-1.78.37-2.17-.09-.39-.46-.56-.94-.51-1.44-.07-2.77.01-5.32.24-7.62.22-2.31.6-4.55,1.14-6.74.53-2.19,1.16-4.41,1.89-6.67.73-2.25,1.51-4.71,2.34-7.38,1-2.98,2.18-6.54,3.52-10.7,1.34-4.15,2.63-8.57,3.86-13.26.19-1.11-.1-2.32-.87-3.64-.77-1.32-1.78-2.53-3.03-3.66-1.25-1.12-2.61-2.03-4.06-2.74-1.46-.7-2.78-1-3.96-.89-4.5.73-8.7,2.5-12.6,5.31-3.9,2.81-7.51,6.11-10.82,9.91l.37-.78,5.2-12.57c1.28-3.2,2.6-6.56,3.95-10.07,1.35-3.51,2.62-6.86,3.8-10.05,1.18-3.19,2.25-6.08,3.19-8.65.95-2.57,1.6-4.52,1.97-5.85.33-1.72-.17-3.36-1.52-4.92-1.34-1.56-2.98-2.84-4.92-3.85-1.94-1.01-3.94-1.66-6-1.96-2.07-.3-3.71-.09-4.93.63-.89,5.25-2.43,11.41-4.63,18.48-2.2,7.07-4.6,14.11-7.21,21.11l-3.44,9.13c-2.14,5.67-4.27,11.39-6.4,17.16-2.13,5.77-3.99,11.49-5.58,17.15-1.59,5.67-2.82,11.25-3.68,16.75-.86,5.5-1.19,10.82-1,15.97.19.98,1.08,1.93,2.66,2.87,1.58.94,3.24,1.7,4.99,2.28,1.74.58,3.37.89,4.86.95,1.5.06,2.25-.36,2.26-1.26-.14-6.64.4-13.1,1.64-19.38,1.23-6.28,2.84-12.49,4.84-18.65,2.59-4.02,5.17-7.7,7.73-11.03,2.56-3.33,5.42-6.63,8.58-9.92,2.61-2.83,4.51-4.48,5.71-4.95,1.19-.46,1.84-.2,1.94.78.13,1.38.01,2.96-.37,4.73-.38,1.78-.86,3.68-1.46,5.73-1.37,4.31-2.56,8.2-3.57,11.67-1.01,3.47-1.87,6.66-2.58,9.56-.72,2.9-1.25,5.61-1.6,8.13-.36,2.52-.46,5.01-.32,7.48.15,2.57.71,4.75,1.67,6.54.97,1.8,2.2,3.22,3.69,4.27,1.49,1.05,3.15,1.78,4.98,2.2,1.83.42,3.73.53,5.7.34,3.35-.32,6.57-1.7,9.66-4.13,3.09-2.43,5.98-5.27,8.64-8.51,2.27-2.75,4.3-5.57,6.12-8.46,1.01,5.62,3.57,9.95,7.72,12.94,4.38,3.15,10.21,4.38,17.49,3.68,1.18-.11,2.8-.32,4.86-.62,2.06-.3,4.31-.89,6.76-1.77,2.45-.88,4.99-2.09,7.62-3.64,2.63-1.54,5.21-3.63,7.74-6.26,4.48-5.1,8.21-10.2,11.19-15.31,2.99-5.1,5.48-9.69,7.47-13.76l2.36-4.85c.5-1.04.54-1.89.13-2.55-.41-.66-1.05-1.07-1.91-1.23ZM179.89,137.71c1.52-4.32,3.45-8.53,5.79-12.63,2.34-4.1,5.11-7.77,8.33-11.01,3.21-3.24,6.7-5.44,10.47-6.6,1.16-.31,2.05-.1,2.67.64.62.74,1,1.84,1.14,3.32.17,1.77-.05,3.58-.67,5.43-3.06,7.45-7.23,13.89-12.52,19.31-5.29,5.43-11.36,9.71-18.21,12.86.48-3.22,1.49-7,3.01-11.32Z"/>
    <path class="cls-3" d="M377.41,60.12c-.58-6-2-11.53-4.28-16.58-2.27-5.05-5.39-9.32-9.35-12.81-3.97-3.49-8.73-6.06-14.31-7.71-5.58-1.65-11.96-2.13-19.14-1.43-5.19.8-10.54,2.53-16.04,5.2-5.51,2.67-10.87,6.04-16.09,10.12-5.22,4.08-10.14,8.73-14.75,13.94-4.62,5.22-8.68,10.77-12.18,16.67-3.51,5.9-6.29,12.06-8.36,18.47-2.06,6.41-3.09,12.79-3.07,19.15-3.6,6.01-6.21,12.37-7.85,19.09-1.64,6.71-2.15,13.27-1.53,19.67.47,4.92,1.66,9.53,3.57,13.81,1.9,4.29,4.65,8,8.23,11.13,3.58,3.13,8.01,5.51,13.28,7.14,5.27,1.63,11.51,2.19,18.72,1.7,8.79-.55,17.04-2.81,24.76-6.78,7.72-3.97,14.78-9.05,21.19-15.23,6.41-6.18,12.09-13.24,17.04-21.16,4.95-7.93,9.03-16.15,12.23-24.65,3.2-8.5,5.51-17.05,6.92-25.63,1.41-8.58,1.75-16.61,1.03-24.09ZM356.5,80.54c-1.28,7.83-3.33,15.75-6.13,23.77-2.8,8.02-6.23,15.8-10.27,23.34-4.04,7.54-8.51,14.31-13.4,20.29-4.89,5.99-10.1,10.91-15.64,14.77-5.54,3.86-11.12,6.06-16.73,6.6-5.32.51-9.93.31-13.84-.6-3.91-.91-7.15-2.34-9.73-4.28-2.57-1.94-4.54-4.33-5.91-7.18-1.37-2.85-2.21-5.95-2.53-9.3-.6-6.2.37-12.6,2.92-19.21l.56,1.14c.39.95.83,1.96,1.33,3,.5,1.05,1.32,2.36,2.47,3.94.46.65,1.5,1.15,3.12,1.49,1.62.34,3.25.51,4.89.5,1.64,0,3.04-.17,4.2-.48,1.16-.31,1.56-.84,1.19-1.6-2.89-3.2-5.14-6.71-6.75-10.53-1.61-3.82-2.73-7.93-3.35-12.35,3.32-4.69,7.15-8.83,11.47-12.43,4.32-3.59,8.99-6.23,13.99-7.9.85-.48.87-1.3.06-2.47-.81-1.16-2.08-2.28-3.83-3.36-1.74-1.07-3.75-2-6-2.77-2.26-.78-4.42-1.07-6.49-.87l-.59.06c-1.23.62-2.43,1.28-3.61,1.99-1.18.71-2.26,1.51-3.27,2.4,1.7-7.12,4.37-14.01,8-20.67,3.63-6.66,7.88-12.63,12.73-17.92,4.86-5.28,10.2-9.6,16.04-12.95,5.84-3.34,11.91-5.27,18.22-5.78,4.44-.33,8.31.12,11.6,1.34,3.3,1.22,6.08,3.07,8.36,5.53,2.27,2.46,4.05,5.47,5.34,9.03,1.29,3.55,2.14,7.49,2.55,11.82.64,6.6.31,13.81-.97,21.63Z"/>
    <path class="cls-3" d="M451.77,64.73c.89,1.01,1.95,2,3.19,2.97,1.24.98,2.56,1.82,3.97,2.52,1.41.71,2.66,1.11,3.77,1.2.46-2.43,1.04-4.65,1.74-6.65.7-2.01,1.45-4.04,2.24-6.1.88-2.17,1.74-4.34,2.58-6.51.84-2.17,1.37-4.06,1.62-5.67-.06-.59-.73-1.59-2.01-3.01-1.28-1.42-2.8-2.81-4.57-4.18-1.77-1.37-3.57-2.51-5.4-3.43-1.83-.92-3.27-1.22-4.34-.92l-1.48.14c.02,2.28-.12,4.71-.42,7.27-.3,2.56-.68,5.11-1.13,7.64-.37,2.32-.68,4.51-.93,6.57-.25,2.06-.34,3.93-.28,5.62.07.69.54,1.54,1.44,2.55Z"/>
    <path class="cls-3" d="M458.95,88.18c.51-1.47.86-2.47,1.05-3-.17.4-.45,1.05-.85,1.94l-.2,1.06Z"/>
    <path class="cls-3" d="M460.18,84.71c.01-.06-.05.1-.18.47.1-.25.17-.41.18-.47Z"/>
    <path class="cls-3" d="M538.38,176.37c-4.07-1-8.02-2.23-11.83-3.71-3.82-1.47-7.44-2.99-10.87-4.54-1.25-.58-2.47-1.13-3.66-1.66-1.19-.53-2.46-1.03-3.8-1.5l27.73-61.84c.44-1.63-.11-3.2-1.64-4.69-1.54-1.49-3.39-2.73-5.57-3.71-2.18-.98-4.41-1.66-6.68-2.04-2.27-.38-3.97-.22-5.09.49.02,1.29-.11,2.74-.4,4.36-.29,1.62-.7,3.32-1.22,5.11-.52,1.79-1.09,3.61-1.71,5.45-.62,1.85-1.24,3.65-1.86,5.4-1.28,2.21-2.72,4.53-4.32,6.97-1.61,2.44-3.23,4.71-4.86,6.8-1.64,2.1-3.23,3.91-4.76,5.45-1.54,1.54-2.89,2.52-4.04,2.92-1.74.56-3.16.73-4.28.49-1.12-.24-2.06-.77-2.84-1.59-.78-.82-1.35-1.83-1.71-3.04-.37-1.21-.61-2.5-.75-3.88-.15-1.57-.16-3.17-.01-4.77.14-1.6.3-3.01.49-4.22.45-2.53,1.13-5.3,2.03-8.32.9-3.02,2.03-6.06,3.37-9.12,1.35-3.06,2.87-6.02,4.59-8.86,1.71-2.85,3.6-5.41,5.67-7.7,2.06-2.28,4.24-4.16,6.54-5.62,2.29-1.46,4.72-2.27,7.29-2.42,1.48-.04,2.73.28,3.74.98,1.01.7,1.82,1.59,2.42,2.67.6,1.09,1.06,2.29,1.39,3.59.33,1.31.59,2.5.79,3.58.04.39.12.76.25,1.1.13.34.22.7.25,1.09.08.79.53,1.34,1.35,1.66.82.32,1.73.41,2.71.26.98-.14,1.87-.45,2.67-.93.8-.47,1.17-1.05,1.1-1.74-.1-2.08-.38-4.14-.82-6.18-.44-2.05-1.15-3.94-2.11-5.68-.96-1.75-2.23-3.24-3.78-4.48-1.56-1.24-3.45-2.05-5.67-2.43-2.42-.36-4.96-.42-7.62-.16-4.23.41-8.26,1.62-12.1,3.62-3.83,2.01-7.44,4.54-10.82,7.6-3.38,3.06-6.46,6.48-9.22,10.28-2.76,3.79-5.13,7.67-7.08,11.63-1.71,3.46-3.09,6.89-4.2,10.3-1.22,2.06-2.51,4.17-3.88,6.35-2.03,3.23-4.16,6.34-6.4,9.34-2.24,3-4.62,5.69-7.12,8.06-2.5,2.38-5.09,4.19-7.75,5.44l-1.18.11c-1.18.11-1.82-.57-1.91-2.05-.1-1.48.16-3.47.77-5.96.6-2.49,1.5-5.33,2.68-8.53,1.18-3.19,2.46-6.47,3.82-9.83,1.36-3.36,2.78-6.7,4.25-10.02,1.47-3.32,2.82-6.33,4.05-9.03l4.38-10.26c.14-1.6-.38-3.17-1.57-4.69-1.19-1.52-2.63-2.77-4.31-3.76-1.69-.98-3.41-1.63-5.18-1.96-1.77-.33-3.17-.19-4.21.4l-.89.09c-.79,3.16-1.89,6.74-3.29,10.75-1.4,4.01-2.88,8.23-4.44,12.65-1.18,3.19-2.34,6.39-3.48,9.57-.56,1.58-1.1,3.13-1.62,4.65-.32.67-.66,1.36-1.01,2.09-1.46,2.97-2.94,5.87-4.45,8.7-1.45,2.52-3.06,4.89-4.83,7.1-1.78,2.21-3.53,4.16-5.25,5.87-1.72,1.71-3.38,3.06-4.97,4.05-1.6,1-2.93,1.55-4.01,1.65-1.88.08-2.94-1.11-3.18-3.57-.14-1.48.07-3.14.64-4.98.57-1.84,1.3-3.73,2.21-5.65.91-1.92,1.87-3.78,2.89-5.57,1.02-1.79,1.97-3.32,2.84-4.6,1.12-1.8,2.24-3.57,3.36-5.32,1.12-1.75,2.24-3.52,3.36-5.32,1.9-2.96,3.73-5.85,5.5-8.65,1.76-2.8,3.23-5.38,4.4-7.73,1.16-2.35,1.91-4.43,2.23-6.25.32-1.82.03-3.23-.86-4.24-.11-.09-.53-.34-1.27-.77-.74-.42-1.57-.84-2.5-1.25-.93-.41-1.86-.76-2.79-1.07-.92-.31-1.68-.43-2.27-.38-.44.64-1.42,1.5-2.96,2.59-1.53,1.1-3.26,2.23-5.19,3.41-1.92,1.18-3.95,2.34-6.07,3.49-2.13,1.15-4.04,2.13-5.76,2.94-1.71.81-3.02,1.36-3.94,1.65-.92.29-1.21.12-.87-.51l5.72-10.24c.53-1.74.74-3.15.64-4.23-.23-2.36-1.63-4.24-4.2-5.63-2.57-1.39-5.23-2.5-8-3.33-.36,1.43-.8,2.81-1.31,4.15-.52,1.34-1.11,2.64-1.78,3.9-.75,1.47-1.5,3-2.24,4.61-.74,1.61-1.41,3.19-2,4.74s-1.07,3.06-1.43,4.53c-.36,1.48-.48,2.76-.38,3.84.18,1.87,1.06,3.28,2.64,4.22-.92,1.78-1.82,3.53-2.7,5.25-.88,1.72-1.69,3.37-2.43,4.93-.67,1.36-1.37,2.82-2.11,4.38-.75,1.56-1.45,3.02-2.11,4.38-.43.74-.39,1.33.1,1.78.49.45,1.14.76,1.95.93.81.17,1.64.22,2.47.14.84-.08,1.43-.39,1.78-.92,1.49-3.13,3.11-6.38,4.87-9.79,1.76-3.4,3.58-6.68,5.46-9.84l1.77-.17c1.88-.08,3.38-.27,4.49-.58,1.11-.31,2.2-.66,3.25-1.06.86-.38,1.74-.71,2.66-1,.91-.29,1.95-.58,3.12-.9-.47.34-1.35,1.49-2.65,3.46-1.3,1.96-2.72,4.26-4.25,6.89l-2.96,4.91c-.45.54-.88,1.23-1.29,2.06-.42.84-.8,1.52-1.14,2.05-1.37,2.32-2.73,4.66-4.09,7.03-1.36,2.37-2.55,4.77-3.55,7.2-1.01,2.43-1.84,4.87-2.5,7.32-.66,2.45-.92,4.91-.78,7.38.22,3.36,1.49,6.21,3.81,8.57,2.31,2.36,5.64,3.43,10,3.21,3.95-.18,7.68-1.21,11.18-3.09,3.49-1.88,6.7-4.2,9.61-6.96,2.51-2.38,4.82-4.98,6.96-7.77-.13,1.46-.14,2.84-.01,4.12.3,3.09,1.39,5.62,3.27,7.61,1.88,1.99,4.6,2.86,8.15,2.62,1.77-.17,3.5-.56,5.18-1.18,1.68-.62,3.23-1.32,4.64-2.11,1.41-.8,2.67-1.65,3.78-2.56,1.1-.91,2.02-1.71,2.75-2.39,5.16-4.99,9.63-10.19,13.42-15.6.02.23.02.46.04.7.19,1.97.68,3.98,1.48,6.04.79,2.06,1.97,3.93,3.52,5.62,1.55,1.69,3.6,3.11,6.15,4.25,2.54,1.15,5.6,1.7,9.17,1.65,2.95-.28,5.81-1.3,8.57-3.06,2.76-1.76,5.46-3.9,8.1-6.44l-2.76,8.46-5.04,14.19c-1.93-.41-3.8-.78-5.62-1.1-1.82-.32-3.76-.56-5.81-.71-2.05-.15-4.25-.21-6.58-.18-2.33.02-4.97.18-7.93.46-5.22.5-10.21,1.75-14.99,3.75-4.77,2-8.93,4.54-12.46,7.61-3.53,3.07-6.2,6.56-8.01,10.46-1.81,3.9-2.41,8-1.8,12.32.53,3.43,1.71,6.19,3.56,8.3,1.84,2.11,4.06,3.71,6.65,4.8,2.59,1.09,5.43,1.73,8.53,1.94,3.1.2,6.18.15,9.23-.14,5.4-.62,10.21-1.83,14.4-3.62,4.2-1.8,8-4.07,11.41-6.84,3.41-2.76,6.48-5.94,9.22-9.53,2.73-3.59,5.34-7.45,7.83-11.56l9.08,4.49h-.15s9.71,4.89,9.71,4.89c1.56.75,3.52,1,5.89.78,1.87-.18,3.62-.8,5.26-1.85,1.64-1.05,3.02-2.18,4.15-3.38,1.12-1.2,1.94-2.32,2.43-3.37.5-1.04.49-1.64-.02-1.79ZM479.47,189.04c-3.81,5.33-8.26,9.44-13.35,12.31-1.43.63-2.96,1.2-4.6,1.71-1.64.5-3.25.83-4.82.98-1.97.19-3.91.13-5.83-.18-1.92-.32-3.67-.94-5.25-1.88-1.58-.94-2.92-2.23-4.02-3.86-1.1-1.64-1.82-3.68-2.15-6.13-.43-3.44.26-6.53,2.09-9.29,1.82-2.76,4.23-5.13,7.21-7.11,2.99-1.98,6.34-3.54,10.05-4.69,3.71-1.15,7.3-1.85,10.75-2.08,3.75-.26,7.24-.17,10.46.26,3.22.43,6.47,1.19,9.76,2.26-3.06,6.45-6.48,12.35-10.29,17.68Z"/>
    <path class="cls-3" d="M572.26,73.92c.01-.06-.05.1-.18.47.11-.25.17-.41.18-.47Z"/>
    <path class="cls-3" d="M571.02,77.39c.51-1.47.86-2.46,1.05-3-.17.4-.45,1.05-.85,1.94l-.2,1.06Z"/>
    <path class="cls-3" d="M563.85,53.94c.89,1.01,1.96,2,3.19,2.97,1.24.98,2.56,1.82,3.97,2.52,1.41.71,2.66,1.11,3.77,1.2.46-2.43,1.04-4.65,1.74-6.65.7-2.01,1.45-4.04,2.24-6.1.88-2.17,1.74-4.34,2.58-6.51.83-2.17,1.37-4.06,1.61-5.67-.06-.59-.73-1.59-2.01-3.01-1.28-1.42-2.8-2.81-4.57-4.18-1.77-1.37-3.57-2.51-5.4-3.43-1.83-.92-3.28-1.22-4.34-.92l-1.48.14c.02,2.28-.12,4.71-.42,7.27-.3,2.56-.68,5.11-1.13,7.64-.37,2.32-.68,4.51-.93,6.57-.25,2.06-.34,3.93-.28,5.61.07.69.55,1.54,1.44,2.55Z"/>
    <path class="cls-3" d="M789.64,75.72c-.54-.44-1.22-.78-2.03-1-.82-.22-1.64-.26-2.47-.14-.83.13-1.37.46-1.62.98-.42.84-.84,1.64-1.26,2.43-.42.79-.84,1.6-1.26,2.43h.15c-1.4,3-2.96,6.13-4.68,9.38-1.72,3.24-3.56,6.33-5.52,9.25-1.95,2.92-4.06,5.56-6.32,7.91-2.26,2.35-4.67,4.15-7.23,5.39l-1.18.11c-.54-.44-.91-1.75-1.12-3.91-.2-2.07.01-4.77.64-8.11.62-3.34,1.49-6.97,2.6-10.91,1.11-3.93,2.38-8,3.82-12.22,1.43-4.21,2.86-8.25,4.27-12.11,1.42-3.86,2.74-7.36,3.98-10.52,1.24-3.15,2.22-5.6,2.94-7.36l.72-1.86c1.28-3.2,2.62-6.61,4.01-10.22,1.39-3.61,2.7-7.04,3.93-10.29,1.23-3.25,2.29-6.13,3.19-8.65.9-2.52,1.49-4.34,1.78-5.46.43-1.73-.03-3.38-1.37-4.94-1.34-1.56-3.01-2.84-4.99-3.84-1.98-1-4.03-1.65-6.15-1.94-2.12-.29-3.74-.09-4.86.62-.89,5.25-2.43,11.41-4.63,18.48-2.2,7.07-4.6,14.11-7.21,21.11l-4.66,11.93c-3.42,8.68-6.55,17.37-9.41,26.09-.5,1.54-.96,3.07-1.39,4.6-.11.21-.22.42-.34.63-1.5,3.03-3.1,6.21-4.82,9.56-1.72,3.35-3.57,6.53-5.56,9.55-2,3.03-4.12,5.74-6.37,8.14-2.25,2.4-4.67,4.18-7.24,5.32l-1.33.13c-.32-.27-.58-1.43-.78-3.5-.13-1.38-.07-3,.2-4.86.27-1.86.62-3.81,1.08-5.84.45-2.03.97-4.07,1.57-6.11.6-2.04,1.2-3.99,1.82-5.84.22-.82.46-1.61.74-2.38.27-.77.48-1.46.62-2.07.33-1.72-.13-3.39-1.38-5.01-1.25-1.62-2.8-2.98-4.64-4.1-1.85-1.11-3.76-1.9-5.74-2.35-1.98-.45-3.53-.33-4.66.38l-1.03.1c.02,2.28-.23,4.84-.75,7.67-.52,2.83-1.19,5.73-2,8.69-1.08,2.19-2.5,4.71-4.26,7.56-1.76,2.85-3.61,5.62-5.54,8.28-1.93,2.67-3.84,5.01-5.73,7.03-1.89,2.02-3.51,3.24-4.86,3.67-1.73.57-3.16.73-4.28.49-1.12-.24-2.06-.77-2.83-1.59-.78-.82-1.35-1.83-1.71-3.04-.36-1.21-.61-2.5-.75-3.88-.15-1.57-.16-3.16-.01-4.77.14-1.6.3-3.01.49-4.22.45-2.53,1.13-5.3,2.03-8.32.9-3.02,2.03-6.06,3.37-9.12,1.34-3.06,2.87-6.02,4.59-8.86,1.71-2.85,3.6-5.41,5.67-7.7,2.06-2.28,4.24-4.16,6.54-5.62,2.29-1.46,4.72-2.27,7.29-2.42,1.49-.04,2.73.28,3.74.98,1.01.7,1.82,1.59,2.42,2.67.6,1.09,1.06,2.29,1.39,3.59.32,1.31.59,2.5.79,3.57.04.39.12.76.25,1.1.13.34.22.7.25,1.09.08.79.53,1.34,1.35,1.66.82.32,1.73.41,2.71.26.98-.14,1.87-.45,2.67-.93.8-.47,1.17-1.06,1.1-1.75-.1-2.08-.38-4.14-.82-6.18-.44-2.04-1.15-3.94-2.11-5.68-.96-1.75-2.22-3.24-3.78-4.48-1.56-1.24-3.46-2.05-5.68-2.43-2.42-.37-4.96-.42-7.61-.16-4.23.41-8.26,1.62-12.1,3.62-3.83,2.01-7.44,4.54-10.82,7.6-3.38,3.06-6.45,6.48-9.22,10.28-2.76,3.79-5.12,7.67-7.07,11.64-1.95,3.97-3.51,7.89-4.68,11.78-.14.48-.25.93-.38,1.4-.46.88-.91,1.77-1.39,2.65-3.37,6.29-6.81,11.31-10.32,15.08-3.51,3.77-6.49,6.41-8.92,7.94-1.06.4-1.78.37-2.17-.09-.39-.46-.56-.94-.51-1.44-.07-2.78.01-5.32.24-7.62.22-2.31.6-4.55,1.14-6.74.53-2.19,1.16-4.41,1.89-6.67.73-2.25,1.51-4.71,2.35-7.38,1.01-2.98,2.18-6.54,3.52-10.7,1.34-4.15,2.63-8.57,3.86-13.26.19-1.11-.1-2.32-.87-3.64-.77-1.32-1.78-2.53-3.03-3.66-1.25-1.12-2.6-2.03-4.06-2.74-1.46-.7-2.78-1-3.96-.89-4.5.73-8.7,2.5-12.6,5.31-3.9,2.81-7.51,6.11-10.82,9.91.09-.1.13-.26.1-.46h-.15c.43-1.71-.03-3.36-1.37-4.92-1.34-1.56-3.01-2.84-4.99-3.84-1.98-1-4.04-1.67-6.16-2.02-2.12-.34-3.74-.16-4.87.54-.76,4.45-1.64,8.55-2.61,12.32-.98,3.77-1.99,7.44-3.04,11.02-.91,3.41-1.78,6.8-2.63,10.17l-1.5,2.6c-1.7,2.95-3.57,6.03-5.59,9.26-2.03,3.23-4.16,6.34-6.4,9.34-2.24,3-4.62,5.69-7.12,8.06-2.5,2.38-5.09,4.19-7.75,5.44l-1.18.11c-1.18.11-1.82-.57-1.91-2.05-.09-1.48.16-3.47.77-5.96.6-2.49,1.5-5.33,2.68-8.53,1.18-3.19,2.46-6.47,3.82-9.83,1.36-3.36,2.78-6.7,4.25-10.02,1.47-3.32,2.82-6.33,4.05-9.03l4.38-10.26c.14-1.6-.38-3.17-1.57-4.69-1.19-1.52-2.63-2.78-4.31-3.76-1.69-.98-3.41-1.63-5.18-1.96-1.77-.33-3.17-.19-4.21.41l-.89.09c-.79,3.16-1.89,6.74-3.29,10.75-1.4,4.01-2.89,8.23-4.45,12.65-1.18,3.19-2.34,6.39-3.47,9.57-1.14,3.19-2.18,6.27-3.13,9.24-.96,2.97-1.81,5.76-2.55,8.37-.74,2.6-1.27,4.87-1.58,6.78h.15c-.69,3.13-.92,5.94-.68,8.4.3,3.09,1.39,5.62,3.27,7.61,1.88,1.99,4.6,2.86,8.15,2.62,1.77-.17,3.5-.56,5.18-1.18,1.68-.62,3.23-1.32,4.64-2.11,1.41-.79,2.67-1.65,3.78-2.56,1.1-.91,2.02-1.71,2.75-2.38,5.64-5.44,10.45-11.14,14.45-17.09.04-.06.08-.13.13-.19-.72,5.06-.99,10.12-.77,15.16.19.98,1.08,1.93,2.66,2.87,1.58.94,3.24,1.7,4.99,2.28,1.74.58,3.37.89,4.86.95,1.5.06,2.25-.36,2.26-1.26-.13-6.54.39-12.95,1.58-19.23,1.18-6.27,2.77-12.44,4.78-18.49,2.69-4.03,5.31-7.74,7.87-11.12,2.56-3.37,5.41-6.75,8.56-10.14,2.61-2.83,4.51-4.48,5.71-4.95,1.2-.46,1.84-.2,1.94.78.13,1.38.01,2.96-.36,4.73-.38,1.78-.86,3.68-1.46,5.73-1.37,4.31-2.56,8.2-3.57,11.67-1.01,3.47-1.87,6.66-2.58,9.56-.71,2.9-1.25,5.61-1.6,8.13-.35,2.52-.46,5.01-.32,7.48.15,2.57.7,4.75,1.67,6.54.97,1.8,2.2,3.22,3.69,4.27,1.49,1.05,3.15,1.78,4.98,2.2,1.83.42,3.73.53,5.7.34,3.34-.32,6.57-1.7,9.66-4.13,3.09-2.43,5.97-5.27,8.64-8.51,2.11-2.56,4.02-5.18,5.75-7.87.26,1.36.65,2.74,1.19,4.14.79,2.06,1.97,3.94,3.52,5.62,1.55,1.69,3.6,3.11,6.15,4.25,2.55,1.15,5.6,1.7,9.17,1.65,2.17-.21,4.29-.84,6.38-1.88,2.08-1.04,4.12-2.36,6.1-3.94,1.98-1.58,3.9-3.36,5.75-5.32,1.85-1.97,3.61-4.02,5.29-6.17l.2,2.07c.34,3.54,1.72,6.49,4.13,8.84,2.41,2.35,6.05,3.49,10.91,3.42,2.08-.1,3.95-.46,5.64-1.07,1.68-.61,3.17-1.32,4.49-2.15,1.31-.82,2.47-1.68,3.48-2.57,1.01-.89,1.83-1.67,2.46-2.32,4.12-4.29,7.69-8.94,10.71-13.94-.1.89-.16,1.87-.15,2.94.01,1.09.05,2.03.13,2.82.36,3.74,1.57,6.8,3.62,9.19,2.05,2.39,5.09,3.48,9.11,3.3,1.95-.19,3.79-.59,5.51-1.2,1.72-.61,3.26-1.31,4.63-2.09,1.36-.78,2.55-1.61,3.56-2.5,1.01-.89,1.83-1.67,2.46-2.32,2.08-2.09,4.05-4.39,5.89-6.9s3.58-5.12,5.21-7.81c1.63-2.69,3.13-5.39,4.51-8.11,1.38-2.71,2.69-5.32,3.94-7.83l3.11-6.41c.23-.72.07-1.3-.47-1.74Z"/>
  </g>
</svg>