<?xml version="1.0" encoding="UTF-8"?>
<svg id="Layer_1" data-name="Layer 1" xmlns="http://www.w3.org/2000/svg" viewBox="0 0 751.94 679.91">
  <defs>
    <style>
      .cls-1 {
        fill: #414042;
      }

      .cls-2 {
        fill: #fff;
      }

      .cls-3 {
        fill: #8f807d;
      }
    </style>
  </defs>
  <path class="cls-1" d="M556.51,28.1c-118.54-37.48-242.67-37.45-361.07,0-66.92,20.4-113.66,84.61-113.66,156.14,0,10.55.99,21.11,2.94,31.37,32.44,173.74,119.66,328.6,252.24,447.83,10.69,9.53,24.54,14.78,39,14.78s28.31-5.25,39-14.79c132.57-119.22,219.79-274.08,252.23-447.81,1.96-10.27,2.96-20.83,2.96-31.39,0-71.52-46.73-135.73-113.64-156.13"/>
  <g>
    <path class="cls-3" d="M232.34,443.07c-.06-8.25,4.55-10.99,8.65-10.99,2.95,0,5.32,1.24,8.52,3.25,3.14,1.95,4.29,2.67,5.64,2.67,1.86,0,2.75-1.62,2.75-5.33h5.32c.32,7.08-2.56,11.05-7.82,11.05-2.82,0-4.61-.65-8.39-2.99-3.46-2.21-4.93-3.06-6.34-3.06-1.73,0-2.95,1.24-2.95,5.4h-5.38Z"/>
    <path class="cls-3" d="M299.04,436.89h-9.87v11.83h11.15v7.41h-19.54v-43.81h18.77v7.41h-10.38v10.08h9.87v7.09Z"/>
    <path class="cls-3" d="M304.14,447.42c1.73.97,4.68,1.69,7.11,1.69,3.97,0,5.89-2.08,5.89-4.94,0-3.18-1.92-4.75-5.57-7.15-5.89-3.64-8.14-8.26-8.14-12.22,0-7.02,4.61-12.87,13.64-12.87,2.82,0,5.51.78,6.79,1.56l-1.35,7.35c-1.22-.78-3.07-1.5-5.51-1.5-3.59,0-5.32,2.21-5.32,4.55,0,2.6,1.28,3.96,5.96,6.83,5.7,3.51,7.82,7.93,7.82,12.55,0,8-5.83,13.26-14.29,13.26-3.46,0-6.85-.91-8.26-1.75l1.22-7.34Z"/>
    <path class="cls-3" d="M334.09,420.18h-7.62v-7.87h23.7v7.87h-7.69v35.95h-8.39v-35.95Z"/>
    <path class="cls-3" d="M354.5,456.65c-2.56,0-4.8-2.21-4.8-5.65,0-3.25,2.37-5.66,4.93-5.66,2.69,0,4.87,2.14,4.87,5.66s-1.99,5.65-4.93,5.65h-.06Z"/>
    <path class="cls-3" d="M383.2,421.87h-.13l-7.05,3.71-1.41-6.7,9.54-5.01h7.37v42.25h-8.33v-34.26Z"/>
    <path class="cls-3" d="M400.15,449.57c1.6,0,2.43-.06,3.84-.33,1.6-.32,3.46-1.17,4.87-2.54,1.79-1.75,3.33-4.75,4.04-8.51h-.19c-1.35,1.5-3.27,2.6-5.96,2.6-5.38,0-9.8-4.88-9.8-12.61,0-7.28,4.42-14.82,12.43-14.82s11.79,7.15,11.79,17.36c0,9.56-3.01,16.25-6.85,20.41-2.56,2.79-6.21,4.68-10.25,5.33-1.35.19-2.63.19-3.91.19v-7.08ZM408.86,419.53c-2.11,0-3.72,2.8-3.65,7.93.06,4.09,1.35,7.48,3.91,7.48,1.47,0,2.75-1.11,3.2-2.21.32-.85.38-1.69.38-4.49,0-5.59-1.54-8.71-3.78-8.71h-.06Z"/>
    <path class="cls-3" d="M426.76,449.57c1.6,0,2.43-.06,3.84-.33,1.6-.32,3.46-1.17,4.87-2.54,1.79-1.75,3.33-4.75,4.04-8.51h-.19c-1.35,1.5-3.27,2.6-5.96,2.6-5.38,0-9.8-4.88-9.8-12.61,0-7.28,4.42-14.82,12.43-14.82s11.79,7.15,11.79,17.36c0,9.56-3.01,16.25-6.85,20.41-2.56,2.79-6.21,4.68-10.25,5.33-1.35.19-2.63.19-3.91.19v-7.08ZM435.48,419.53c-2.11,0-3.72,2.8-3.65,7.93.06,4.09,1.35,7.48,3.91,7.48,1.47,0,2.75-1.11,3.2-2.21.32-.85.38-1.69.38-4.49,0-5.59-1.54-8.71-3.78-8.71h-.06Z"/>
    <path class="cls-3" d="M458.58,421.87h-.13l-7.05,3.71-1.41-6.7,9.54-5.01h7.37v42.25h-8.33v-34.26Z"/>
    <path class="cls-3" d="M488.25,443.07c-.06-8.25,4.55-10.99,8.65-10.99,2.95,0,5.32,1.24,8.52,3.25,3.14,1.95,4.29,2.67,5.64,2.67,1.86,0,2.75-1.62,2.75-5.33h5.32c.32,7.08-2.56,11.05-7.82,11.05-2.82,0-4.61-.65-8.39-2.99-3.46-2.21-4.93-3.06-6.34-3.06-1.73,0-2.95,1.24-2.95,5.4h-5.38Z"/>
  </g>
  <path class="cls-3" d="M590.56,152.23c.82-1.8,1.66-3.71,2.55-5.75.89-2.03,1.72-3.96,2.5-5.79.78-1.83,1.46-3.45,2.04-4.87.58-1.42.96-2.45,1.16-3.08.29-.98.07-1.93-.66-2.86-.73-.92-1.65-1.7-2.76-2.32-1.11-.62-2.27-1.04-3.47-1.27-1.2-.22-2.13-.14-2.8.23-.64,2.98-1.67,6.47-3.11,10.46-1.44,3.99-2.98,7.96-4.65,11.9l-2.97,6.71c-2.17,4.88-4.19,9.78-6.04,14.69-1.85,4.92-3.04,9.83-3.57,14.74-.09.52-.14,1.08-.17,1.71-.02.63-.02,1.16,0,1.62.11,2.15.73,3.93,1.84,5.35,1.11,1.42,2.82,2.12,5.13,2.11,1.12-.06,2.18-.24,3.18-.55s1.9-.67,2.7-1.08c.8-.41,1.5-.86,2.1-1.35.6-.48,1.09-.91,1.47-1.27,1.24-1.14,2.42-2.41,3.54-3.8,1.12-1.39,2.18-2.84,3.18-4.33,1-1.5,1.93-3.01,2.78-4.53.86-1.52,1.67-2.98,2.45-4.38l1.94-3.59c.15-.4.07-.74-.22-1.01-.3-.27-.68-.47-1.14-.62-.46-.15-.93-.19-1.41-.14-.48.05-.8.23-.95.52-.26.47-.52.92-.78,1.36-.26.44-.52.9-.78,1.36h.09c-.88,1.69-1.85,3.44-2.92,5.25-1.07,1.81-2.2,3.53-3.39,5.15-1.19,1.62-2.46,3.08-3.81,4.37-1.35,1.29-2.77,2.26-4.27,2.9l-.68.04c-.3-.27-.48-1.02-.55-2.27-.06-1.19.13-2.73.57-4.62.44-1.89,1.03-3.95,1.76-6.17.74-2.22,1.57-4.52,2.49-6.89.92-2.37,1.84-4.65,2.75-6.82.91-2.18,1.75-4.15,2.54-5.92.79-1.77,1.41-3.15,1.87-4.14l.45-1.05ZM557.75,161.78c-.2-1.18-.56-2.28-1.07-3.31-.51-1.02-1.19-1.91-2.05-2.66-.86-.75-1.92-1.26-3.18-1.53-1.38-.27-2.83-.36-4.35-.28-2.43.13-4.77.72-7.01,1.77-2.24,1.05-4.37,2.41-6.38,4.08-2.01,1.67-3.85,3.55-5.53,5.65-1.67,2.1-3.12,4.26-4.34,6.48-1.22,2.22-2.21,4.43-2.97,6.62-.76,2.2-1.21,4.2-1.34,6.03-.04.34-.06.74-.07,1.19,0,.45,0,.91.03,1.36.06,1.13.29,2.3.69,3.49.4,1.2,1.03,2.3,1.87,3.31.85,1,1.98,1.87,3.41,2.59,1.43.72,3.16,1.11,5.21,1.17,1.24-.07,2.48-.37,3.7-.92,1.22-.55,2.41-1.24,3.59-2.1,1.17-.86,2.32-1.82,3.42-2.9,1.11-1.08,2.17-2.21,3.18-3.4l.06,1.19c.11,2.04.82,3.76,2.14,5.16,1.32,1.41,3.38,2.15,6.16,2.23,1.19,0,2.27-.16,3.25-.47.98-.31,1.85-.68,2.62-1.12.77-.44,1.46-.9,2.05-1.38.6-.48,1.08-.91,1.46-1.27,2.65-2.52,4.94-5.29,6.88-8.32,1.94-3.02,3.71-6.02,5.31-9,.31-.58.6-1.15.89-1.71.28-.55.58-1.09.89-1.62.2-.41.16-.74-.14-1.01-.3-.27-.69-.47-1.18-.62-.49-.15-.99-.19-1.49-.14-.51.06-.84.23-1,.52-.2.41-.4.8-.58,1.18-.18.38-.4.77-.66,1.19-.93,1.69-1.93,3.47-3,5.34-1.06,1.87-2.21,3.65-3.42,5.33-1.22,1.68-2.5,3.18-3.85,4.5-1.35,1.32-2.77,2.27-4.27,2.86l-.76.04c-.18-.16-.3-.83-.36-2.02-.04-.79.04-1.72.24-2.78.2-1.06.45-2.16.76-3.31.31-1.15.66-2.3,1.05-3.46.39-1.16.79-2.25,1.19-3.3.15-.46.31-.91.48-1.34.17-.44.31-.82.41-1.17.23-.98,0-1.94-.66-2.9-.67-.96-1.53-1.78-2.55-2.46-1.03-.68-2.1-1.18-3.23-1.49-1.12-.31-2.01-.28-2.67.1l-.59.03c-.05,1.31-.25,2.77-.62,4.37-.37,1.61-.82,3.25-1.36,4.92-.68,1.23-1.55,2.63-2.63,4.22-1.08,1.59-2.21,3.12-3.38,4.6-1.17,1.48-2.32,2.77-3.45,3.88-1.13,1.11-2.09,1.77-2.88,1.98-1,.28-1.83.34-2.46.17-.63-.17-1.16-.49-1.58-.98-.42-.49-.72-1.08-.9-1.78-.18-.7-.29-1.45-.33-2.24-.05-.9-.01-1.81.11-2.73.12-.92.25-1.72.39-2.4.32-1.43.78-3,1.37-4.71.59-1.7,1.31-3.41,2.15-5.13.85-1.72,1.79-3.37,2.85-4.96,1.05-1.59,2.2-3.01,3.44-4.26,1.24-1.26,2.53-2.27,3.88-3.05,1.35-.78,2.76-1.18,4.23-1.2.85.01,1.56.23,2.12.66.56.42,1,.95,1.32,1.59.32.64.55,1.33.71,2.09.15.76.27,1.45.36,2.07.01.23.05.44.12.63.07.2.11.41.12.63.02.45.27.78.73.98.46.2.98.28,1.54.22.56-.06,1.08-.21,1.55-.47.47-.25.69-.58.67-.97,0-1.19-.11-2.38-.31-3.56M523.4,182.3l4.03-7.62c.2-.41.16-.74-.14-1.01-.3-.27-.68-.47-1.14-.62s-.93-.19-1.41-.14c-.48.05-.79.23-.95.52l-1.23,2.45c-.87,1.69-1.81,3.36-2.8,5-2.08,3.51-4.18,6.3-6.28,8.37-2.1,2.07-3.87,3.51-5.3,4.32-.61.2-1.03.17-1.24-.1-.21-.27-.3-.55-.26-.84.03-1.59.14-3.04.33-4.35.19-1.32.46-2.59.82-3.83.36-1.24.78-2.49,1.25-3.77.47-1.27.98-2.66,1.53-4.16.65-1.68,1.41-3.69,2.28-6.03.87-2.34,1.72-4.84,2.54-7.49.14-.63,0-1.33-.41-2.1s-.96-1.49-1.65-2.17c-.69-.67-1.44-1.23-2.26-1.67-.82-.44-1.57-.64-2.24-.6-2.59.31-5.04,1.22-7.34,2.72-2.3,1.51-4.45,3.31-6.44,5.4.05-.06.08-.15.07-.26h-.09c.29-.97.07-1.92-.66-2.85-.73-.92-1.65-1.7-2.76-2.32-1.11-.62-2.27-1.06-3.47-1.31-1.2-.25-2.13-.18-2.8.19-.55,2.53-1.15,4.86-1.81,6.99-.65,2.13-1.33,4.21-2.01,6.23-1.36,4.32-2.63,8.6-3.79,12.83-1.17,4.23-1.75,8.47-1.76,12.73.09.56.57,1.14,1.45,1.71.88.58,1.81,1.06,2.8,1.43.98.37,1.9.6,2.76.66.85.07,1.3-.15,1.32-.66.09-3.75.55-7.4,1.38-10.96.84-3.56,1.9-7.05,3.2-10.46,1.64-2.24,3.23-4.3,4.78-6.16,1.55-1.87,3.26-3.73,5.15-5.59,1.57-1.56,2.69-2.45,3.39-2.69.7-.23,1.06-.07,1.09.5.04.79-.07,1.69-.33,2.7-.26,1.01-.58,2.09-.98,3.24-.89,2.43-1.67,4.62-2.33,6.59-.66,1.97-1.24,3.77-1.72,5.41-.48,1.64-.86,3.18-1.12,4.61-.26,1.43-.39,2.86-.37,4.27.02,1.47.28,2.74.79,3.79.51,1.05,1.17,1.89,2,2.53.83.64,1.76,1.1,2.8,1.39,1.03.28,2.12.4,3.25.34,1.92-.1,3.8-.81,5.63-2.12,1.83-1.32,3.55-2.87,5.16-4.65,1.61-1.78,3.04-3.63,4.3-5.54,1.26-1.91,2.26-3.51,2.98-4.79M471.57,134.9c-.05,1.31-.19,2.69-.42,4.15-.24,1.46-.52,2.91-.84,4.34-.27,1.32-.5,2.57-.7,3.74-.2,1.17-.3,2.24-.3,3.21.02.4.28.89.76,1.49.49.6,1.07,1.19,1.75,1.78.68.59,1.42,1.1,2.21,1.54.79.44,1.5.7,2.13.78.33-1.38.71-2.63,1.16-3.76.45-1.13.93-2.27,1.44-3.44.56-1.22,1.11-2.44,1.64-3.66.53-1.22.89-2.29,1.07-3.2-.02-.34-.38-.93-1.07-1.78-.7-.84-1.53-1.67-2.51-2.5-.98-.83-1.98-1.53-3-2.1-1.02-.57-1.84-.78-2.46-.64l-.85.04ZM462.59,164.81c-.9,2.26-1.86,4.64-2.86,7.13-.76,1.8-1.5,3.6-2.23,5.39-.73,1.8-1.41,3.53-2.02,5.21-.62,1.68-1.18,3.25-1.67,4.72-.49,1.47-.85,2.75-1.08,3.84h.09c-.47,1.78-.68,3.38-.6,4.79.09,1.75.65,3.21,1.68,4.38,1.03,1.17,2.56,1.73,4.6,1.67,1.02-.05,2.01-.23,2.99-.54.98-.31,1.88-.66,2.71-1.08.83-.41,1.57-.86,2.23-1.35.66-.49,1.2-.91,1.63-1.28,3.36-2.96,6.26-6.08,8.7-9.39,2.43-3.31,4.69-6.77,6.77-10.4h-.08c.32-.41.36-.76.11-1.06s-.58-.51-1.01-.63c-.43-.12-.9-.15-1.41-.09-.51.06-.87.23-1.08.52l-1.18,1.85c-1.05,1.65-2.19,3.36-3.43,5.16-1.24,1.8-2.54,3.52-3.9,5.18-1.36,1.66-2.79,3.14-4.28,4.43-1.49,1.3-3.01,2.27-4.57,2.92l-.68.04c-.68.04-1.03-.37-1.04-1.22-.01-.85.18-1.98.59-3.39.41-1.41.99-3.01,1.75-4.81.76-1.8,1.57-3.64,2.43-5.53.87-1.89,1.76-3.76,2.68-5.63.92-1.86,1.77-3.55,2.54-5.07l2.76-5.76c.12-.91-.14-1.82-.78-2.72-.64-.9-1.45-1.65-2.41-2.26-.97-.6-2-1.01-3.09-1.24-1.09-.23-1.99-.18-2.72.14-.53,1.79-1.25,3.81-2.15,6.07M407.8,234.59c-.95.25-1.88.4-2.78.44-1.13.06-2.24-.02-3.33-.25-1.09-.23-2.07-.63-2.96-1.2-.88-.58-1.62-1.35-2.21-2.31-.59-.96-.95-2.15-1.08-3.56-.16-1.98.31-3.73,1.43-5.26,1.11-1.54,2.55-2.83,4.3-3.88,1.76-1.06,3.72-1.87,5.87-2.44,2.15-.57,4.22-.87,6.21-.92,2.15-.06,4.14.08,5.98.41,1.83.33,3.67.84,5.53,1.54-1.91,3.62-4.02,6.9-6.33,9.86-2.31,2.96-4.96,5.19-7.94,6.71-.83.33-1.73.61-2.68.86M452.88,179.27c.29-.92.01-1.83-.82-2.72-.84-.89-1.87-1.65-3.1-2.26-1.22-.62-2.48-1.06-3.77-1.33-1.29-.27-2.26-.22-2.93.15-.02.74-.13,1.57-.34,2.48-.21.92-.48,1.89-.83,2.9s-.72,2.04-1.11,3.08c-.4,1.04-.8,2.06-1.2,3.04-.79,1.23-1.67,2.53-2.65,3.88-.98,1.35-1.96,2.61-2.95,3.77-.99,1.16-1.94,2.16-2.86,3-.92.84-1.71,1.37-2.38,1.57-1.01.28-1.83.34-2.46.17-.63-.17-1.16-.49-1.58-.98-.42-.49-.73-1.08-.9-1.78-.18-.7-.29-1.45-.33-2.24-.05-.9,0-1.81.11-2.73.12-.92.25-1.72.39-2.4.32-1.43.78-3,1.37-4.71.59-1.7,1.31-3.41,2.15-5.13.84-1.72,1.79-3.37,2.85-4.96,1.05-1.59,2.2-3.01,3.44-4.26,1.24-1.26,2.53-2.27,3.88-3.05,1.35-.78,2.76-1.18,4.23-1.2.85.01,1.56.23,2.12.66.56.42,1,.95,1.32,1.59.32.64.55,1.33.71,2.09.15.76.27,1.45.36,2.07.01.23.05.44.12.63.07.2.1.41.12.63.02.45.27.78.73.98.47.2.98.28,1.54.22.56-.06,1.08-.21,1.55-.47.47-.25.69-.58.67-.97,0-1.19-.11-2.38-.31-3.56-.2-1.18-.56-2.28-1.06-3.31-.51-1.02-1.19-1.91-2.05-2.66-.86-.75-1.92-1.26-3.19-1.53-1.38-.27-2.82-.36-4.35-.28-2.43.13-4.77.72-7.01,1.77-2.24,1.05-4.37,2.41-6.38,4.07-2.01,1.66-3.86,3.54-5.53,5.64-1.68,2.1-3.12,4.26-4.34,6.47-1.22,2.22-2.21,4.42-2.97,6.61-.76,2.19-1.21,4.2-1.34,6.02-.04.34-.06.74-.07,1.19,0,.45,0,.9.03,1.36.06,1.13.29,2.29.69,3.49.4,1.19,1.03,2.29,1.87,3.3.85,1,1.98,1.86,3.41,2.58,1.43.72,3.16,1.11,5.21,1.17,1.7-.09,3.36-.6,4.98-1.53,1.62-.94,3.22-2.1,4.79-3.48l-1.79,4.76-3.24,7.99c-1.09-.28-2.16-.54-3.19-.77-1.03-.23-2.13-.41-3.3-.55-1.17-.14-2.42-.23-3.76-.27-1.34-.04-2.85-.02-4.55.07-3,.16-5.89.75-8.67,1.78-2.78,1.03-5.22,2.38-7.32,4.05-2.09,1.67-3.71,3.61-4.84,5.8-1.13,2.19-1.58,4.53-1.33,7.02.22,1.98.83,3.6,1.83,4.86,1,1.25,2.23,2.23,3.68,2.92,1.46.69,3.07,1.13,4.83,1.33,1.77.19,3.53.24,5.28.15,3.11-.22,5.89-.79,8.33-1.71,2.45-.92,4.68-2.13,6.7-3.63,2.02-1.5,3.86-3.24,5.51-5.22,1.65-1.99,3.24-4.13,4.77-6.42l5.08,2.8h-.09s5.43,3.04,5.43,3.04c.88.47,1.99.66,3.35.59,1.07-.06,2.09-.36,3.06-.92.96-.56,1.78-1.17,2.46-1.83.67-.66,1.17-1.28,1.48-1.86.31-.58.32-.92.03-1.02-2.31-.67-4.53-1.48-6.68-2.41-2.15-.94-4.18-1.9-6.11-2.87-.7-.36-1.38-.71-2.05-1.04-.67-.33-1.38-.65-2.13-.95l17.41-34.69ZM407.17,138.27c-.04,1.31-.19,2.69-.42,4.15-.23,1.46-.52,2.9-.84,4.34-.27,1.32-.5,2.56-.7,3.74s-.29,2.24-.3,3.2c.02.4.27.9.76,1.49.48.6,1.07,1.19,1.75,1.78.68.59,1.42,1.1,2.21,1.54.79.44,1.49.7,2.13.78.32-1.38.71-2.63,1.16-3.76.45-1.13.93-2.27,1.44-3.44.56-1.22,1.11-2.44,1.64-3.66.53-1.22.89-2.29,1.07-3.2-.02-.34-.38-.93-1.07-1.77-.7-.84-1.53-1.68-2.51-2.5-.98-.83-1.98-1.53-3-2.1-1.02-.57-1.84-.78-2.46-.64l-.85.04ZM398.19,168.18c-.9,2.26-1.86,4.64-2.86,7.13-.76,1.8-1.5,3.6-2.23,5.39-.73,1.8-1.4,3.53-2.02,5.21-.62,1.68-1.18,3.25-1.67,4.72-.49,1.47-.85,2.75-1.08,3.84h.09c-.47,1.78-.67,3.38-.6,4.79.09,1.75.65,3.21,1.67,4.38s2.56,1.72,4.6,1.67c1.02-.05,2.02-.23,2.99-.54.98-.31,1.88-.66,2.71-1.08.83-.41,1.57-.86,2.23-1.35.66-.49,1.2-.91,1.63-1.27,3.36-2.96,6.26-6.09,8.7-9.39,2.44-3.3,4.69-6.77,6.77-10.39h-.09c.32-.41.36-.76.12-1.07-.24-.3-.58-.51-1.01-.63-.43-.12-.9-.15-1.41-.1-.51.06-.87.23-1.08.52l-1.18,1.85c-1.05,1.64-2.19,3.36-3.43,5.15-1.24,1.8-2.54,3.52-3.9,5.18-1.36,1.66-2.78,3.14-4.27,4.44-1.49,1.3-3.02,2.27-4.57,2.92l-.68.04c-.68.04-1.03-.37-1.04-1.22-.02-.85.18-1.98.59-3.39.41-1.41.99-3.01,1.75-4.81.76-1.8,1.57-3.64,2.43-5.53.87-1.89,1.76-3.76,2.68-5.63.92-1.86,1.77-3.55,2.54-5.07l2.76-5.76c.12-.91-.14-1.82-.78-2.72-.64-.9-1.45-1.65-2.42-2.26-.97-.6-2-1.02-3.09-1.24-1.09-.23-1.99-.18-2.72.14-.53,1.78-1.25,3.81-2.15,6.07M393.88,188.15c.47-.88.93-1.78,1.39-2.71.36-.64.71-1.3,1.05-1.97.33-.67.68-1.33,1.05-1.97.2-.41.16-.74-.14-1.01-.3-.27-.68-.47-1.14-.62-.46-.15-.93-.19-1.41-.14-.48.05-.82.23-1.03.52-.57,1.11-1.3,2.49-2.21,4.16-.91,1.66-1.83,3.29-2.77,4.87-.89,1.41-1.87,2.72-2.94,3.94-1.07,1.22-2.12,2.29-3.15,3.23-1.03.93-2.01,1.67-2.95,2.2-.94.53-1.72.81-2.34.84-1.08,0-1.65-.71-1.73-2.12-.04-.85.12-1.79.49-2.83s.84-2.1,1.41-3.18c.57-1.08,1.16-2.12,1.79-3.11.63-1,1.21-1.85,1.74-2.56.68-1,1.37-1.99,2.06-2.96.68-.97,1.37-1.96,2.06-2.96,1.16-1.65,2.28-3.25,3.36-4.81,1.08-1.56,1.99-3,2.71-4.31.73-1.31,1.2-2.49,1.43-3.52.23-1.03.1-1.85-.39-2.45-.06-.05-.3-.21-.71-.47-.41-.26-.88-.52-1.4-.78-.52-.25-1.05-.48-1.57-.68-.52-.2-.95-.29-1.29-.27-.27.36-.85.82-1.75,1.41-.9.59-1.92,1.19-3.05,1.82s-2.32,1.24-3.56,1.84c-1.24.6-2.37,1.12-3.36,1.54-1,.42-1.77.7-2.3.84-.53.14-.69.04-.48-.32l3.53-5.72c.35-.98.5-1.78.47-2.41-.07-1.35-.83-2.47-2.26-3.33-1.44-.86-2.93-1.56-4.49-2.1-.24.81-.52,1.59-.85,2.34-.33.76-.7,1.49-1.12,2.19-.47.82-.93,1.68-1.4,2.58-.46.9-.88,1.79-1.26,2.66-.38.87-.69,1.72-.93,2.56s-.34,1.56-.31,2.18c.06,1.08.52,1.9,1.41,2.48-.58,1-1.13,1.97-1.68,2.94-.54.97-1.05,1.89-1.51,2.76-.41.76-.85,1.58-1.32,2.45-.47.87-.9,1.69-1.32,2.45-.26.41-.26.75.01,1.02.27.27.63.47,1.09.58.46.12.93.17,1.41.14.48-.02.83-.18,1.04-.48.93-1.75,1.94-3.57,3.03-5.47,1.09-1.9,2.21-3.73,3.37-5.5l1.02-.05c1.08,0,1.94-.07,2.58-.22.64-.15,1.27-.32,1.89-.52.5-.2,1.02-.36,1.55-.51.53-.14,1.14-.28,1.81-.43-.28.18-.81.82-1.6,1.91-.79,1.09-1.66,2.37-2.61,3.84l-1.81,2.73c-.27.3-.53.68-.79,1.15-.26.47-.5.85-.71,1.14-.84,1.29-1.68,2.6-2.52,3.92-.84,1.32-1.58,2.66-2.21,4.03-.64,1.37-1.18,2.74-1.61,4.13-.44,1.38-.65,2.79-.63,4.2.04,1.93.7,3.6,1.96,5,1.27,1.41,3.15,2.1,5.64,2.09,2.27,0,4.43-.5,6.47-1.49,2.05-.99,3.94-2.24,5.67-3.74,1.73-1.51,3.33-3.18,4.8-5.02,1.46-1.83,2.74-3.63,3.84-5.39.52-.82,1.02-1.67,1.49-2.54M307.18,162.09c-.72.32-1.43.67-2.11,1.05-.69.38-1.33.81-1.93,1.29,1.15-4.03,2.85-7.91,5.09-11.63,2.24-3.72,4.82-7.04,7.73-9.95,2.91-2.91,6.08-5.25,9.5-7.01,3.42-1.77,6.95-2.72,10.57-2.85,2.55-.08,4.75.28,6.6,1.06,1.86.78,3.4,1.91,4.64,3.38,1.24,1.47,2.18,3.24,2.83,5.3.65,2.07,1.03,4.35,1.16,6.84.2,3.79-.17,7.91-1.1,12.36-.93,4.45-2.29,8.94-4.1,13.46-1.81,4.52-3.96,8.89-6.46,13.11-2.5,4.22-5.23,7.98-8.17,11.29-2.95,3.31-6.05,5.99-9.32,8.07-3.27,2.07-6.51,3.19-9.73,3.36-3.05.16-5.69-.07-7.91-.69-2.22-.62-4.03-1.52-5.46-2.69-1.42-1.18-2.49-2.6-3.2-4.26-.71-1.67-1.12-3.46-1.22-5.39-.19-3.57.53-7.21,2.15-10.93l.29.67c.2.56.43,1.14.69,1.75.26.61.69,1.38,1.31,2.32.25.39.83.69,1.75.93.92.24,1.85.37,2.79.41.94.04,1.74-.02,2.42-.17.67-.15.91-.44.72-.89-1.58-1.9-2.78-3.97-3.6-6.2-.83-2.23-1.36-4.61-1.61-7.16,2.02-2.6,4.31-4.88,6.87-6.83,2.56-1.95,5.3-3.34,8.21-4.18.5-.25.53-.72.09-1.41-.43-.68-1.14-1.36-2.1-2.02-.97-.66-2.09-1.24-3.37-1.74-1.27-.5-2.5-.72-3.69-.66l-.34.02ZM289.61,203.48c.98,2.5,2.46,4.7,4.43,6.57,1.97,1.88,4.44,3.36,7.42,4.42,2.98,1.06,6.53,1.54,10.67,1.44,5.04-.09,9.82-1.18,14.34-3.26,4.51-2.08,8.68-4.81,12.5-8.18,3.82-3.38,7.24-7.27,10.28-11.68,3.03-4.41,5.57-9.01,7.62-13.8,2.05-4.79,3.58-9.62,4.6-14.49,1.02-4.87,1.42-9.46,1.19-13.76-.18-3.45-.86-6.65-2.03-9.59-1.18-2.94-2.85-5.47-5.03-7.56-2.18-2.1-4.84-3.69-7.99-4.77-3.15-1.08-6.79-1.51-10.92-1.3-2.99.33-6.09,1.18-9.31,2.57-3.22,1.39-6.37,3.18-9.46,5.39-3.09,2.2-6.02,4.74-8.79,7.61-2.77,2.87-5.23,5.95-7.39,9.24-2.15,3.29-3.9,6.74-5.24,10.35-1.34,3.62-2.09,7.24-2.24,10.88-2.21,3.35-3.86,6.92-4.97,10.72-1.11,3.8-1.56,7.54-1.37,11.22.15,2.83.71,5.49,1.7,7.99M264.03,173.94c.33.44.52,1.08.57,1.93.05,1.02-.12,2.05-.52,3.09-1.94,4.19-4.48,7.76-7.65,10.74-3.16,2.97-6.74,5.27-10.74,6.9.36-1.83,1.03-3.97,2-6.4.98-2.43,2.18-4.79,3.63-7.08,1.44-2.29,3.12-4.32,5.04-6.09,1.92-1.77,3.97-2.94,6.15-3.51.67-.15,1.18,0,1.51.43M269.73,174.75c-.09-1.75-.82-3.13-2.17-4.14-1.36-1-3.11-1.48-5.26-1.43-2.21.06-4.4.52-6.57,1.36-2.17.85-4.2,1.91-6.09,3.17-1.89,1.26-3.57,2.64-5.06,4.14-1.48,1.5-2.64,2.86-3.49,4.1-2.68,4-4.59,7.6-5.73,10.81s-1.56,6.42-1.28,9.64c.35,3.5,1.74,6.2,4.17,8.12,2.43,1.91,5.73,2.76,9.92,2.54.68-.04,1.61-.11,2.8-.23s2.49-.4,3.91-.84c1.42-.44,2.9-1.08,4.45-1.89,1.54-.82,3.07-1.95,4.59-3.39,2.69-2.81,4.95-5.63,6.79-8.48,1.83-2.85,3.37-5.41,4.62-7.69l1.48-2.72c.31-.58.35-1.07.14-1.45-.22-.39-.58-.63-1.06-.75-.49-.12-1.01-.1-1.57.04-.56.14-1,.45-1.31.92-.57,1.16-1.18,2.39-1.85,3.67-.67,1.28-1.43,2.6-2.26,3.95-1.57,2.58-3.21,4.8-4.92,6.68-1.72,1.88-3.39,3.41-5.03,4.6-1.64,1.19-3.21,2.04-4.72,2.55-1.51.5-2.8.67-3.89.5-1.55-.43-2.73-1.49-3.52-3.18-.8-1.69-1.24-3.44-1.34-5.25l-.04-.68c5.01-1.74,9.48-4.2,13.4-7.38,3.92-3.18,6.97-7.04,9.18-11.58,1.25-2.16,1.83-4.07,1.74-5.71M237.73,197.27l4.03-7.61c.2-.41.16-.74-.14-1.01-.3-.27-.68-.47-1.14-.62-.46-.15-.93-.19-1.41-.14-.48.05-.8.23-.95.52l-1.23,2.45c-.87,1.69-1.81,3.36-2.8,4.99-2.08,3.51-4.18,6.3-6.28,8.37-2.1,2.07-3.87,3.51-5.3,4.32-.62.2-1.03.17-1.24-.11-.21-.27-.3-.55-.26-.84.03-1.59.14-3.04.33-4.36.18-1.31.46-2.59.82-3.83.36-1.24.78-2.49,1.25-3.76.47-1.27.98-2.66,1.52-4.16.65-1.68,1.41-3.69,2.28-6.03.87-2.34,1.72-4.84,2.54-7.49.14-.63,0-1.33-.41-2.11-.41-.77-.96-1.49-1.65-2.17-.69-.67-1.44-1.23-2.26-1.67-.82-.44-1.57-.64-2.24-.6-2.59.31-5.04,1.21-7.35,2.72-2.3,1.51-4.45,3.31-6.44,5.4l.23-.44,3.29-7.06c.81-1.8,1.65-3.69,2.51-5.66.86-1.97,1.67-3.86,2.43-5.66.76-1.8,1.43-3.42,2.04-4.87.6-1.45,1.03-2.55,1.27-3.3.23-.98-.01-1.93-.74-2.85-.73-.92-1.64-1.7-2.72-2.32-1.08-.63-2.21-1.05-3.39-1.27-1.17-.22-2.12-.15-2.84.23-.64,2.98-1.67,6.47-3.11,10.46-1.44,3.99-2.99,7.95-4.65,11.9l-2.2,5.13c-1.36,3.19-2.73,6.41-4.09,9.66-1.36,3.25-2.57,6.47-3.62,9.68-1.05,3.2-1.89,6.37-2.52,9.49-.63,3.12-.95,6.16-.97,9.11.09.56.57,1.13,1.45,1.71.88.58,1.81,1.05,2.8,1.43.98.38,1.9.6,2.76.66.86.07,1.3-.15,1.33-.66.08-3.8.56-7.49,1.42-11.05.86-3.56,1.94-7.08,3.23-10.55,1.58-2.24,3.15-4.28,4.7-6.12,1.55-1.84,3.27-3.66,5.16-5.46,1.56-1.56,2.69-2.45,3.39-2.69s1.06-.07,1.09.5c.04.79-.07,1.69-.33,2.7-.26,1-.58,2.09-.98,3.24-.89,2.43-1.67,4.63-2.34,6.59-.66,1.96-1.23,3.76-1.71,5.41-.48,1.64-.86,3.18-1.12,4.61-.27,1.43-.39,2.85-.37,4.27.02,1.48.28,2.74.79,3.79.51,1.05,1.18,1.89,2.01,2.53.83.64,1.76,1.1,2.79,1.38,1.04.29,2.12.4,3.25.34,1.92-.1,3.8-.81,5.63-2.13,1.83-1.31,3.55-2.87,5.16-4.65,1.61-1.79,3.04-3.63,4.3-5.54,1.26-1.91,2.26-3.51,2.98-4.79M186.36,156.06c-2.2,4.03-4.4,8.26-6.61,12.68-2.21,4.43-4.32,8.98-6.35,13.65-2.02,4.67-3.81,9.2-5.37,13.6-1.56,4.39-2.8,8.57-3.73,12.53-.93,3.96-1.4,7.45-1.41,10.45.08.5.47,1.19,1.17,2.07.7.87,1.48,1.69,2.34,2.47.86.77,1.65,1.39,2.35,1.83.71.44,1.07.47,1.11.07.19-2.96.75-6.34,1.68-10.13.93-3.79,2.14-7.8,3.62-12.01,1.48-4.22,3.21-8.56,5.19-13.03,1.98-4.47,4.13-8.91,6.45-13.31,2.32-4.4,4.76-8.7,7.32-12.89,2.56-4.19,5.16-8.08,7.81-11.68.34-1.09.08-2.17-.76-3.23-.85-1.06-1.88-1.94-3.07-2.65-1.2-.7-2.36-1.18-3.48-1.43-1.12-.25-1.81-.15-2.07.32-1.94,3.11-4,6.68-6.2,10.71M156.28,163.29c1.24-3.84,2.93-7.05,5.07-9.62,2.13-2.58,4.59-4.62,7.38-6.13,2.78-1.51,5.69-2.62,8.71-3.35,2.24-.57,4.47-1,6.7-1.29,2.22-.28,4.5-.49,6.82-.61,3.68-.19,7.38-.22,11.1-.07,3.72.15,7.4.32,11.04.53,3.41.16,6.78.31,10.11.45,3.33.14,6.54.12,9.65-.04,2.77-.15,5.49-.47,8.16-.98,2.67-.51,5.11-1.22,7.33-2.13.38-.3.7-.9.97-1.79.26-.89.46-1.8.58-2.71.12-.91.14-1.71.04-2.39s-.33-.92-.72-.73c-2.1,1.07-4.41,1.85-6.94,2.32-2.53.47-5.29.79-8.29.95-2.43.13-5.01.19-7.73.19-2.72,0-5.45-.04-8.17-.12-3.07-.12-6.33-.18-9.79-.17-3.46.01-6.8.1-10.03.27-3.85.2-7.67.6-11.47,1.19s-7.45,1.47-10.96,2.62c-2.01.67-4.18,1.48-6.51,2.42-2.33.95-4.65,2.1-6.96,3.47-2.31,1.37-4.54,2.96-6.68,4.78-2.15,1.81-4,3.92-5.58,6.33-1.57,2.41-2.81,5.14-3.7,8.19-.89,3.05-1.21,6.47-.95,10.26.25.39.87.79,1.85,1.22.99.43,2.03.77,3.12,1.03,1.09.25,2.05.39,2.87.4.82.01,1.22-.23,1.19-.74-.05-5.33.55-9.91,1.79-13.75"/>
  <g>
    <path class="cls-2" d="M65.3,358.74c0,3.68.21,6.82.64,9.43.42,2.62.99,4.77,1.7,6.47.56,1.98,1.34,3.68,2.33,5.09l-24.59-.21c-.99-1.27-1.73-2.72-2.23-4.35-.5-1.62-.99-3.78-1.48-6.47-.5-2.68-.74-6.01-.74-9.96v-32.86c0-2.97-1.08-5.54-3.22-7.74-2.15-2.19-4.8-3.36-7.94-3.5h-5.37v65.08H0v-150.52h33.6c4.65,0,9.01.88,13.1,2.65,4.09,1.77,7.68,4.17,10.78,7.21,3.1,3.04,5.53,6.61,7.29,10.71,1.76,4.1,2.64,8.48,2.64,13.14v18.02c0,4.66-.88,9.05-2.65,13.14-1.77,4.1-4.21,7.71-7.31,10.81,2.4,2.97,4.31,6.29,5.72,9.96,1.41,3.68,2.12,7.56,2.12,11.66v32.22ZM24.38,292.6h7.29c3.14,0,5.82-1.09,8.04-3.27,2.22-2.18,3.33-4.82,3.33-7.91v-18.77c0-3.23-1.11-5.94-3.33-8.12-2.22-2.18-4.97-3.27-8.25-3.27h-7.08v41.34Z"/>
    <path class="cls-2" d="M111.72,381c-4.66,0-9.05-.88-13.14-2.65-4.1-1.77-7.67-4.17-10.71-7.21-3.04-3.04-5.44-6.61-7.21-10.71-1.77-4.1-2.65-8.48-2.65-13.14v-85.86c0-4.66.88-9.04,2.65-13.14,1.77-4.1,4.17-7.7,7.21-10.81,3.04-3.11,6.6-5.54,10.71-7.31,4.1-1.77,8.48-2.65,13.14-2.65s9.04.88,13.14,2.65c4.1,1.77,7.67,4.21,10.71,7.31,3.04,3.11,5.44,6.71,7.21,10.81,1.77,4.1,2.65,8.48,2.65,13.14v85.86c0,4.66-.88,9.05-2.65,13.14-1.77,4.1-4.17,7.67-7.21,10.71-3.04,3.04-6.61,5.44-10.71,7.21-4.1,1.77-8.48,2.65-13.14,2.65ZM102.39,349.64c0,2.54.92,4.73,2.76,6.56,1.83,1.83,4.03,2.75,6.57,2.75s4.73-.91,6.57-2.75c1.83-1.83,2.76-4.02,2.76-6.56v-90.98c0-2.54-.92-4.69-2.76-6.45-1.84-1.76-4.03-2.65-6.57-2.65s-4.74.88-6.57,2.65c-1.84,1.76-2.76,3.92-2.76,6.45v90.98Z"/>
    <path class="cls-2" d="M188.89,381c-4.66,0-9.05-.88-13.14-2.65-4.1-1.77-7.67-4.17-10.71-7.21-3.04-3.04-5.44-6.61-7.21-10.71-1.77-4.1-2.65-8.48-2.65-13.14v-85.86c0-4.66.88-9.04,2.65-13.14,1.77-4.1,4.17-7.7,7.21-10.81,3.04-3.11,6.6-5.54,10.71-7.31,4.1-1.77,8.48-2.65,13.14-2.65s9.04.88,13.14,2.65c4.1,1.77,7.67,4.21,10.71,7.31,3.04,3.11,5.44,6.71,7.21,10.81,1.77,4.1,2.65,8.48,2.65,13.14v25.65h-24.38v-28.41c0-2.54-.92-4.7-2.76-6.47-1.84-1.77-4.03-2.65-6.57-2.65s-4.74.88-6.57,2.65c-1.84,1.76-2.76,3.92-2.76,6.45v90.98c0,2.54.92,4.73,2.76,6.56,1.83,1.83,4.03,2.75,6.57,2.75s4.73-.92,6.57-2.76c1.83-1.83,2.76-4.03,2.76-6.57v-28.2h24.38v25.65c0,4.66-.88,9.06-2.65,13.18-1.77,4.12-4.17,7.72-7.21,10.79-3.04,3.07-6.61,5.5-10.71,7.28-4.1,1.78-8.48,2.68-13.14,2.68Z"/>
    <path class="cls-2" d="M256.72,379.73h-24.38v-150.52h24.38v53l21.62-53h24.59l-22.68,55.12,23.96,95.4h-24.59l-22.9-91.8v91.8Z"/>
    <path class="cls-2" d="M343.54,381c-4.66,0-9.05-.89-13.14-2.68-4.1-1.78-7.67-4.21-10.71-7.28-3.04-3.07-5.44-6.66-7.21-10.79-1.77-4.12-2.65-8.52-2.65-13.18v-20.99h24.38v23.53c0,2.54.92,4.74,2.76,6.57,1.83,1.84,4.03,2.76,6.57,2.76s4.73-.91,6.57-2.75c1.83-1.83,2.76-4.02,2.76-6.56v-12.7c0-4.66-1.06-8.64-3.18-11.96-2.12-3.32-4.77-6.31-7.95-9-3.18-2.68-6.65-5.25-10.39-7.73-3.75-2.47-7.21-5.22-10.39-8.25-3.18-3.03-5.83-6.6-7.95-10.69-2.12-4.09-3.18-9.03-3.18-14.82v-13.12c0-4.66.88-9.03,2.65-13.12,1.77-4.09,4.17-7.69,7.21-10.8,3.04-3.1,6.6-5.54,10.71-7.3,4.1-1.76,8.48-2.65,13.14-2.65s9.04.88,13.14,2.65c4.1,1.77,7.67,4.21,10.71,7.31,3.04,3.11,5.44,6.71,7.21,10.81,1.77,4.1,2.65,8.48,2.65,13.14v20.56h-24.38v-23.32c0-2.54-.92-4.7-2.76-6.47-1.84-1.77-4.03-2.65-6.57-2.65s-4.74.88-6.57,2.65c-1.84,1.77-2.76,3.92-2.76,6.47v13.78c0,3.96,1.06,7.39,3.18,10.28,2.12,2.9,4.77,5.62,7.95,8.16,3.18,2.54,6.64,5.09,10.39,7.63,3.74,2.54,7.21,5.37,10.39,8.48,3.18,3.11,5.83,6.65,7.95,10.6,2.12,3.96,3.18,8.69,3.18,14.2v15.48c0,4.66-.88,9.05-2.65,13.14-1.77,4.1-4.17,7.67-7.21,10.71-3.04,3.04-6.61,5.44-10.71,7.21-4.1,1.77-8.48,2.65-13.14,2.65Z"/>
    <path class="cls-2" d="M420.7,381c-4.66,0-9.05-.88-13.14-2.65-4.1-1.77-7.67-4.17-10.71-7.21-3.04-3.04-5.44-6.61-7.21-10.71-1.77-4.1-2.65-8.48-2.65-13.14v-85.86c0-4.66.88-9.04,2.65-13.14,1.77-4.1,4.17-7.7,7.21-10.81,3.04-3.11,6.61-5.54,10.71-7.31,4.1-1.77,8.48-2.65,13.14-2.65s9.04.88,13.14,2.65c4.1,1.77,7.67,4.21,10.71,7.31,3.04,3.11,5.44,6.71,7.21,10.81,1.77,4.1,2.65,8.48,2.65,13.14v25.65h-24.38v-28.41c0-2.54-.92-4.7-2.76-6.47-1.84-1.77-4.03-2.65-6.57-2.65s-4.74.88-6.57,2.65c-1.84,1.76-2.76,3.92-2.76,6.45v90.98c0,2.54.92,4.73,2.76,6.56,1.83,1.83,4.03,2.75,6.57,2.75s4.73-.92,6.57-2.76c1.84-1.83,2.76-4.03,2.76-6.57v-28.2h24.38v25.65c0,4.66-.88,9.06-2.65,13.18-1.77,4.12-4.17,7.72-7.21,10.79-3.04,3.07-6.61,5.5-10.71,7.28-4.1,1.78-8.48,2.68-13.14,2.68Z"/>
    <path class="cls-2" d="M488.54,379.73h-24.38v-150.52h24.38v65.51h18.44v-65.51h24.38v150.52h-24.38v-62.96h-18.44v62.96Z"/>
    <path class="cls-2" d="M575.24,381c-4.66,0-9.05-.88-13.14-2.65-4.1-1.77-7.67-4.17-10.71-7.21-3.04-3.04-5.44-6.61-7.21-10.71-1.77-4.1-2.65-8.48-2.65-13.14v-85.86c0-4.66.88-9.04,2.65-13.14,1.77-4.1,4.17-7.7,7.21-10.81,3.04-3.11,6.61-5.54,10.71-7.31,4.1-1.77,8.48-2.65,13.14-2.65s9.04.88,13.14,2.65c4.1,1.77,7.67,4.21,10.71,7.31,3.04,3.11,5.44,6.71,7.21,10.81,1.77,4.1,2.65,8.48,2.65,13.14v85.86c0,4.66-.88,9.05-2.65,13.14-1.77,4.1-4.17,7.67-7.21,10.71-3.04,3.04-6.61,5.44-10.71,7.21-4.1,1.77-8.48,2.65-13.14,2.65ZM565.92,349.64c0,2.54.92,4.73,2.76,6.56,1.83,1.83,4.03,2.75,6.57,2.75s4.73-.91,6.57-2.75c1.84-1.83,2.76-4.02,2.76-6.56v-90.98c0-2.54-.92-4.69-2.76-6.45-1.84-1.76-4.03-2.65-6.57-2.65s-4.74.88-6.57,2.65c-1.84,1.76-2.76,3.92-2.76,6.45v90.98Z"/>
    <path class="cls-2" d="M652.41,381c-4.66,0-9.05-.88-13.14-2.65-4.1-1.77-7.67-4.17-10.71-7.21-3.04-3.04-5.44-6.61-7.21-10.71-1.77-4.1-2.65-8.48-2.65-13.14v-85.86c0-4.66.88-9.04,2.65-13.14,1.77-4.1,4.17-7.7,7.21-10.81,3.04-3.11,6.61-5.54,10.71-7.31,4.1-1.77,8.48-2.65,13.14-2.65s9.04.88,13.14,2.65c4.1,1.77,7.67,4.21,10.71,7.31,3.04,3.11,5.44,6.71,7.21,10.81,1.77,4.1,2.65,8.48,2.65,13.14v85.86c0,4.66-.88,9.05-2.65,13.14-1.77,4.1-4.17,7.67-7.21,10.71-3.04,3.04-6.61,5.44-10.71,7.21-4.1,1.77-8.48,2.65-13.14,2.65ZM643.08,349.64c0,2.54.92,4.73,2.76,6.56,1.83,1.83,4.03,2.75,6.57,2.75s4.73-.91,6.57-2.75c1.84-1.83,2.76-4.02,2.76-6.56v-90.98c0-2.54-.92-4.69-2.76-6.45-1.84-1.76-4.03-2.65-6.57-2.65s-4.74.88-6.57,2.65c-1.84,1.76-2.76,3.92-2.76,6.45v90.98Z"/>
    <path class="cls-2" d="M751.94,379.73h-55.76v-150.52h24.38v128.47h31.38v22.05Z"/>
  </g>
</svg>