<svg id="uuid-cd2272db-998b-4e9d-a9db-3965f7a8dab0" data-name="Layer 1" xmlns="http://www.w3.org/2000/svg" viewBox="0 0 214.01 43.44">
  <defs>
    <style>
      .uuid-d6f57faf-2cf1-4899-bdc1-683bada6b0cb {
        fill: #fff;
      }
    </style>
  </defs>
  <path class="uuid-d6f57faf-2cf1-4899-bdc1-683bada6b0cb" d="M18.48,37.14c0,1.04.06,1.93.18,2.67.12.74.28,1.35.48,1.83.16.56.38,1.04.66,1.44l-6.96-.06c-.28-.36-.49-.77-.63-1.23-.14-.46-.28-1.07-.42-1.83-.14-.76-.21-1.7-.21-2.82v-9.3c0-.84-.3-1.57-.91-2.19-.61-.62-1.36-.95-2.25-.99h-1.52v18.42H0V.48h9.51c1.32,0,2.55.25,3.71.75,1.16.5,2.17,1.18,3.05,2.04.88.86,1.56,1.87,2.06,3.03.5,1.16.75,2.4.75,3.72v5.1c0,1.32-.25,2.56-.75,3.72-.5,1.16-1.19,2.18-2.07,3.06.68.84,1.22,1.78,1.62,2.82.4,1.04.6,2.14.6,3.3v9.12ZM6.9,18.42h2.06c.89,0,1.65-.31,2.28-.93.63-.62.94-1.36.94-2.24v-5.31c0-.92-.31-1.68-.94-2.3-.63-.62-1.41-.93-2.34-.93h-2v11.7Z"/>
  <path class="uuid-d6f57faf-2cf1-4899-bdc1-683bada6b0cb" d="M31.74,43.44c-1.32,0-2.56-.25-3.72-.75-1.16-.5-2.17-1.18-3.03-2.04-.86-.86-1.54-1.87-2.04-3.03-.5-1.16-.75-2.4-.75-3.72V9.6c0-1.32.25-2.56.75-3.72.5-1.16,1.18-2.18,2.04-3.06.86-.88,1.87-1.57,3.03-2.07,1.16-.5,2.4-.75,3.72-.75s2.56.25,3.72.75c1.16.5,2.17,1.19,3.03,2.07.86.88,1.54,1.9,2.04,3.06.5,1.16.75,2.4.75,3.72v24.3c0,1.32-.25,2.56-.75,3.72-.5,1.16-1.18,2.17-2.04,3.03-.86.86-1.87,1.54-3.03,2.04-1.16.5-2.4.75-3.72.75ZM29.1,34.56c0,.72.26,1.34.78,1.86.52.52,1.14.78,1.86.78s1.34-.26,1.86-.78c.52-.52.78-1.14.78-1.86V8.82c0-.72-.26-1.33-.78-1.83-.52-.5-1.14-.75-1.86-.75s-1.34.25-1.86.75c-.52.5-.78,1.11-.78,1.83v25.75Z"/>
  <path class="uuid-d6f57faf-2cf1-4899-bdc1-683bada6b0cb" d="M53.7,43.44c-1.32,0-2.56-.25-3.72-.75-1.16-.5-2.17-1.18-3.03-2.04-.86-.86-1.54-1.87-2.04-3.03-.5-1.16-.75-2.4-.75-3.72V9.6c0-1.32.25-2.56.75-3.72.5-1.16,1.18-2.18,2.04-3.06.86-.88,1.87-1.57,3.03-2.07,1.16-.5,2.4-.75,3.72-.75s2.56.25,3.72.75c1.16.5,2.17,1.19,3.03,2.07.86.88,1.54,1.9,2.04,3.06.5,1.16.75,2.4.75,3.72v7.26h-6.9v-8.04c0-.72-.26-1.33-.78-1.83-.52-.5-1.14-.75-1.86-.75s-1.34.25-1.86.75c-.52.5-.78,1.11-.78,1.83v25.75c0,.72.26,1.34.78,1.86.52.52,1.14.78,1.86.78s1.34-.26,1.86-.78c.52-.52.78-1.14.78-1.86v-7.98h6.9v7.26c0,1.32-.25,2.56-.75,3.73-.5,1.17-1.18,2.18-2.04,3.05-.86.87-1.87,1.55-3.03,2.06-1.16.5-2.4.76-3.72.76Z"/>
  <path class="uuid-d6f57faf-2cf1-4899-bdc1-683bada6b0cb" d="M73.02,43.08h-6.9V.48h6.9v15L79.14.48h6.96l-6.42,15.6,6.78,27h-6.96l-6.48-25.98v25.98Z"/>
  <path class="uuid-d6f57faf-2cf1-4899-bdc1-683bada6b0cb" d="M97.8,43.44c-1.32,0-2.56-.25-3.72-.76-1.16-.5-2.17-1.19-3.03-2.06-.86-.87-1.54-1.89-2.04-3.05-.5-1.17-.75-2.41-.75-3.73v-5.94h6.9v6.66c0,.72.26,1.34.78,1.86.52.52,1.14.78,1.86.78s1.34-.26,1.86-.78c.52-.52.78-1.14.78-1.86v-3.59c0-1.32-.3-2.45-.9-3.38-.6-.94-1.35-1.79-2.25-2.55-.9-.76-1.88-1.49-2.94-2.19-1.06-.7-2.04-1.48-2.94-2.34-.9-.86-1.65-1.87-2.25-3.03-.6-1.16-.9-2.56-.9-4.19v-3.71c0-1.32.25-2.56.75-3.71.5-1.16,1.18-2.18,2.04-3.06.86-.88,1.87-1.57,3.03-2.07,1.16-.5,2.4-.75,3.72-.75s2.56.25,3.72.75c1.16.5,2.17,1.19,3.03,2.07.86.88,1.54,1.9,2.04,3.06.5,1.16.75,2.4.75,3.72v5.82h-6.9v-6.6c0-.72-.26-1.33-.78-1.83-.52-.5-1.14-.75-1.86-.75s-1.34.25-1.86.75c-.52.5-.78,1.11-.78,1.83v3.9c0,1.12.3,2.09.9,2.91.6.82,1.35,1.59,2.25,2.31.9.72,1.88,1.44,2.94,2.16,1.06.72,2.04,1.52,2.94,2.4.9.88,1.65,1.88,2.25,3,.6,1.12.9,2.46.9,4.02v4.38c0,1.32-.25,2.56-.75,3.72-.5,1.16-1.18,2.17-2.04,3.03-.86.86-1.87,1.54-3.03,2.04-1.16.5-2.4.75-3.72.75Z"/>
  <path class="uuid-d6f57faf-2cf1-4899-bdc1-683bada6b0cb" d="M119.76,43.44c-1.32,0-2.56-.25-3.72-.75-1.16-.5-2.17-1.18-3.03-2.04-.86-.86-1.54-1.87-2.04-3.03-.5-1.16-.75-2.4-.75-3.72V9.6c0-1.32.25-2.56.75-3.72.5-1.16,1.18-2.18,2.04-3.06.86-.88,1.87-1.57,3.03-2.07,1.16-.5,2.4-.75,3.72-.75s2.56.25,3.72.75c1.16.5,2.17,1.19,3.03,2.07.86.88,1.54,1.9,2.04,3.06.5,1.16.75,2.4.75,3.72v7.26h-6.9v-8.04c0-.72-.26-1.33-.78-1.83-.52-.5-1.14-.75-1.86-.75s-1.34.25-1.86.75c-.52.5-.78,1.11-.78,1.83v25.75c0,.72.26,1.34.78,1.86.52.52,1.14.78,1.86.78s1.34-.26,1.86-.78c.52-.52.78-1.14.78-1.86v-7.98h6.9v7.26c0,1.32-.25,2.56-.75,3.73-.5,1.17-1.18,2.18-2.04,3.05-.86.87-1.87,1.55-3.03,2.06-1.16.5-2.4.76-3.72.76Z"/>
  <path class="uuid-d6f57faf-2cf1-4899-bdc1-683bada6b0cb" d="M139.08,43.08h-6.9V.48h6.9v18.54h5.22V.48h6.9v42.6h-6.9v-17.82h-5.22v17.82Z"/>
  <path class="uuid-d6f57faf-2cf1-4899-bdc1-683bada6b0cb" d="M163.73,43.44c-1.32,0-2.56-.25-3.72-.75s-2.17-1.18-3.03-2.04c-.86-.86-1.54-1.87-2.04-3.03-.5-1.16-.75-2.4-.75-3.72V9.6c0-1.32.25-2.56.75-3.72.5-1.16,1.18-2.18,2.04-3.06.86-.88,1.87-1.57,3.03-2.07,1.16-.5,2.4-.75,3.72-.75s2.56.25,3.72.75c1.16.5,2.17,1.19,3.03,2.07.86.88,1.54,1.9,2.04,3.06.5,1.16.75,2.4.75,3.72v24.3c0,1.32-.25,2.56-.75,3.72-.5,1.16-1.18,2.17-2.04,3.03-.86.86-1.87,1.54-3.03,2.04-1.16.5-2.4.75-3.72.75ZM161.09,34.56c0,.72.26,1.34.78,1.86.52.52,1.14.78,1.86.78s1.34-.26,1.86-.78c.52-.52.78-1.14.78-1.86V8.82c0-.72-.26-1.33-.78-1.83-.52-.5-1.14-.75-1.86-.75s-1.34.25-1.86.75c-.52.5-.78,1.11-.78,1.83v25.75Z"/>
  <path class="uuid-d6f57faf-2cf1-4899-bdc1-683bada6b0cb" d="M185.69,43.44c-1.32,0-2.56-.25-3.72-.75-1.16-.5-2.17-1.18-3.03-2.04-.86-.86-1.54-1.87-2.04-3.03-.5-1.16-.75-2.4-.75-3.72V9.6c0-1.32.25-2.56.75-3.72.5-1.16,1.18-2.18,2.04-3.06.86-.88,1.87-1.57,3.03-2.07,1.16-.5,2.4-.75,3.72-.75s2.56.25,3.72.75c1.16.5,2.17,1.19,3.03,2.07.86.88,1.54,1.9,2.04,3.06.5,1.16.75,2.4.75,3.72v24.3c0,1.32-.25,2.56-.75,3.72-.5,1.16-1.18,2.17-2.04,3.03-.86.86-1.87,1.54-3.03,2.04s-2.4.75-3.72.75ZM183.05,34.56c0,.72.26,1.34.78,1.86s1.14.78,1.86.78,1.34-.26,1.86-.78.78-1.14.78-1.86V8.82c0-.72-.26-1.33-.78-1.83-.52-.5-1.14-.75-1.86-.75s-1.34.25-1.86.75c-.52.5-.78,1.11-.78,1.83v25.75Z"/>
  <path class="uuid-d6f57faf-2cf1-4899-bdc1-683bada6b0cb" d="M214.01,43.08h-15.78V.48h6.9v36.36h8.88v6.24Z"/>
</svg>