<?xml version="1.0" encoding="UTF-8"?>
<svg id="uuid-91c72cdd-0bb8-4648-9462-eeea792d809d" data-name="Layer 1" xmlns="http://www.w3.org/2000/svg" viewBox="0 0 992 105.85">
  <defs>
    <style>
      .uuid-b879e54c-5891-4cbe-894c-08b359067ffa {
        fill: #8f807d;
      }
    </style>
  </defs>
  <path class="uuid-b879e54c-5891-4cbe-894c-08b359067ffa" d="M304.34,50.64c-.25,0-.46-.14-.46-.3,0-.17.2-.31.46-.31.25,0,.46.14.46.3,0,.17-.21.3-.46.31Z"/>
  <path class="uuid-b879e54c-5891-4cbe-894c-08b359067ffa" d="M278.08,50.23c.1-.1.36-.11.58-.03.24.1.17.17-.18.18-.32.02-.5-.06-.4-.16Z"/>
  <path class="uuid-b879e54c-5891-4cbe-894c-08b359067ffa" d="M255.33,47.44c-.26,0-.47-.13-.47-.3,0-.17.13-.31.28-.31.16,0,.37.14.48.3s-.03.3-.29.3Z"/>
  <path class="uuid-b879e54c-5891-4cbe-894c-08b359067ffa" d="M169.07,43.24c.1-.1.36-.11.58-.03.24.1.17.17-.18.18-.32.01-.5-.06-.4-.16Z"/>
  <path class="uuid-b879e54c-5891-4cbe-894c-08b359067ffa" d="M309.22,51.13c-.93-.43-.59-.81.53-.59.64.12.77.26.53.55-.25.3-.49.31-1.06.04Z"/>
  <path class="uuid-b879e54c-5891-4cbe-894c-08b359067ffa" d="M187.17,43.98c-1.38,0-1.52-.05-1.12-.45.92-.92,3.47-.83,2.9.1-.11.19-.91.34-1.78.34Z"/>
  <path class="uuid-b879e54c-5891-4cbe-894c-08b359067ffa" d="M177.07,43.38c-.26.42-1.08.43-1.08.01,0-.36.86-.76,1.11-.51.09.09.08.32-.03.49h0Z"/>
  <path class="uuid-b879e54c-5891-4cbe-894c-08b359067ffa" d="M161.37,42.78c-.42,0-.59-.07-.38-.15.21-.08.55-.09.76,0,.21.08.04.15-.38.15Z"/>
  <path class="uuid-b879e54c-5891-4cbe-894c-08b359067ffa" d="M164.69,43.43c-.53,0-.84-.12-.73-.3.1-.17.6-.31,1.1-.31.53,0,.84.12.73.3-.1.17-.6.31-1.1.31Z"/>
  <path class="uuid-b879e54c-5891-4cbe-894c-08b359067ffa" d="M356.4,50.19c-.11-.18.26-.31.91-.31s1.03.12.91.3c-.1.17-.51.31-.91.31-.4,0-.81-.13-.91-.3Z"/>
  <path class="uuid-b879e54c-5891-4cbe-894c-08b359067ffa" d="M398.35,53.95c.07-.21.35-.42.63-.48.35-.07.45.04.32.38-.21.56-1.14.66-.96.1Z"/>
  <path class="uuid-b879e54c-5891-4cbe-894c-08b359067ffa" d="M395.3,54.21c-.76-.24-12.78-.41-13.01-.19-.1.09-1.3.14-2.67.1-1.88-.06-2.65.04-3.11.39h0c-.81.63-.91.61-1.49-.27l-.5-.76-4.03.19q-5.35.25-6.68-.18c-.94-.31-1.39-.3-2.38.03-1.36.45-1.95.18-1.77-.8.08-.42.57-.66,1.93-.94,2.55-.52,5.93-.48,6.14.07.25.63,1.25.52,1.47-.18.16-.52.44-.59,2.15-.55,1.6.04,1.96.15,1.96.56,0,.63,1.34,1.54,1.92,1.31.68-.27,1.21-1.51.97-2.31-.21-.67-.19-.69.31-.22.29.27.55.96.58,1.52.04.71.22,1.05.6,1.12.89.17,1.86-.19,2.74-1.01,1.06-.99,1.53-.99,1.28-.01-.17.7-.1.76.81.75.82,0,.9-.06.46-.32-.29-.17-.54-.44-.54-.6,0-.47,4.42-.34,5.95.17,1.06.36,1.63.4,2.3.16.95-.34,1.79-.18,1.79.34,0,.17.27-.04.61-.46.33-.43.61-.91.61-1.08,0-.43.74-.66,1.21-.38.3.18.26.31-.15.54-.35.2-.47.49-.34.83.16.42.51.5,1.79.41,1.3-.09,1.61-.01,1.69.4.13.63-1.77,1.61-2.61,1.35Z"/>
  <path class="uuid-b879e54c-5891-4cbe-894c-08b359067ffa" d="M385.77,50.72c-1,0-1.81-.13-1.81-.3,0-.17.87-.31,2-.31,1.25,0,1.93.11,1.81.3-.1.17-1,.31-2,.31Z"/>
  <path class="uuid-b879e54c-5891-4cbe-894c-08b359067ffa" d="M415.79,51.47c-.86-.04-1.39-.2-1.39-.43,0-.65.63-.8,1.04-.24.23.32.59.46.89.35.27-.11.57-.06.67.09.1.17-.41.26-1.21.23Z"/>
  <path class="uuid-b879e54c-5891-4cbe-894c-08b359067ffa" d="M468.91,52.27c0-.15.27-.27.61-.27.59,0,.79.32.43.69-.24.24-1.04-.07-1.04-.42Z"/>
  <path class="uuid-b879e54c-5891-4cbe-894c-08b359067ffa" d="M321.32,52.21c-.6.04-.92-.13-1.14-.62-.25-.56-.55-.68-1.7-.68-.76,0-1.54-.15-1.72-.33-.5-.5-.8.2-.4.93.3.56.24.62-.61.62-.8,0-.93-.1-.85-.68.08-.59-.06-.7-1.07-.78-1.07-.08-1.14-.05-.84.5.41.77-.05.96-2.3.97-1.66,0-3-.42-2.72-.87.2-.33-1.59-1.33-1.96-1.1-.17.1-.3.45-.3.76,0,.72-.52,1.06-1,.66-.44-.36-5.86-.2-5.82.17.04.35,2.04.67,4.29.68,1.04,0,2.26.16,2.73.33.62.23,1.03.22,1.54-.05.56-.3,1.18-.27,3.24.15,3.43.71,9.49.8,10.63.15h0c1.06-.6,1.06-.91,0-.83ZM307.54,51.24c0,.17-.2.31-.46.31-.25,0-.46-.14-.46-.3,0-.17.2-.3.46-.3.25,0,.46.13.46.3ZM318.07,52.1c-.32.01-.5-.06-.4-.16s.36-.11.58-.03c.24.1.17.17-.18.18Z"/>
  <path class="uuid-b879e54c-5891-4cbe-894c-08b359067ffa" d="M524.49,18.34c-.33,0-.53-.13-.42-.3.1-.17.46-.3.8-.31s.53.13.42.3c-.1.17-.46.31-.8.31Z"/>
  <path class="uuid-b879e54c-5891-4cbe-894c-08b359067ffa" d="M382.46,50.65c-.74-.04-1.4-.25-1.47-.46-.18-.55,1.5-.49,2.23.07.55.43.5.45-.76.38Z"/>
  <path class="uuid-b879e54c-5891-4cbe-894c-08b359067ffa" d="M355.97,52.02c-.16,0-.37-.14-.48-.3-.1-.17.02-.31.29-.31.26,0,.48.14.48.3,0,.17-.13.3-.29.3Z"/>
  <path class="uuid-b879e54c-5891-4cbe-894c-08b359067ffa" d="M360.82,50.18c-.17,0-.3-.06-.3-.13,0-.07.14-.22.3-.32.17-.1.3-.04.3.13,0,.18-.14.32-.3.32Z"/>
  <path class="uuid-b879e54c-5891-4cbe-894c-08b359067ffa" d="M210.02,71.31c-.23.38-.48.38-1.07,0-.35-.23-.27-.3.4-.3.49,0,.78.12.67.3Z"/>
  <path class="uuid-b879e54c-5891-4cbe-894c-08b359067ffa" d="M129.74,60.51c.51.07.85.25.76.4-.19.31-1.46.37-1.75.08-.39-.38.08-.61.99-.48Z"/>
  <polygon class="uuid-b879e54c-5891-4cbe-894c-08b359067ffa" points="130.5 60.92 130.5 60.92 130.5 60.92 130.5 60.92"/>
  <path class="uuid-b879e54c-5891-4cbe-894c-08b359067ffa" d="M135.08,57.22c-.22-.36,2.3-.37,4.57-.03,1.34.2,1.16.24-1.43.28-1.68.03-3.03-.08-3.14-.25Z"/>
  <path class="uuid-b879e54c-5891-4cbe-894c-08b359067ffa" d="M129.6,56.93c1.27,0,1.95.11,1.83.3-.1.17-.92.31-1.83.31-.9,0-1.72-.13-1.83-.3-.12-.19.56-.31,1.83-.31Z"/>
  <path class="uuid-b879e54c-5891-4cbe-894c-08b359067ffa" d="M147.59,67.52h0s1.52.23,1.52.23l-1.98.02c-1.09.01-2.25-.09-2.59-.24-.49-.21-.41-.25.46-.26.59,0,1.75.11,2.59.23Z"/>
  <path class="uuid-b879e54c-5891-4cbe-894c-08b359067ffa" d="M289.33,72c0,.17-.14.31-.3.31-.17,0-.31-.14-.31-.3,0-.17.14-.3.3-.3.17,0,.3.14.31.3Z"/>
  <path class="uuid-b879e54c-5891-4cbe-894c-08b359067ffa" d="M253.03,72.94c.07.22-.12.38-.45.38-.74,0-1.83-.79-1.53-1.09.31-.31,1.81.23,1.98.71Z"/>
  <path class="uuid-b879e54c-5891-4cbe-894c-08b359067ffa" d="M156.23,68.45c-.54.35-.65.34-2.26-.06-1.67-.42-1.46-.99.27-.73,2.08.32,2.48.47,1.99.78Z"/>
  <path class="uuid-b879e54c-5891-4cbe-894c-08b359067ffa" d="M264.44,73.47c-.59.45-1.09.53-1.39.23-.35-.35.44-1.02,1.2-1.02.86,0,.92.24.19.79Z"/>
  <path class="uuid-b879e54c-5891-4cbe-894c-08b359067ffa" d="M142.69,57.5c-.41-.17.13-.26,1.67-.27,1.26,0,2.56.11,2.89.25.41.17-.13.26-1.67.27-1.26,0-2.56-.11-2.89-.25Z"/>
  <path class="uuid-b879e54c-5891-4cbe-894c-08b359067ffa" d="M233.87,71.88c.95.33,1.15.59.76.98-.11.11-.54.2-.96.21-.95,0-4.01-.98-4.01-1.28,0-.35,3.13-.28,4.21.09Z"/>
  <path class="uuid-b879e54c-5891-4cbe-894c-08b359067ffa" d="M223.64,71.98c.21.08.04.15-.38.15-.42,0-.59-.07-.38-.15.21-.08.55-.09.76,0Z"/>
  <path class="uuid-b879e54c-5891-4cbe-894c-08b359067ffa" d="M244.03,64.94c.1-.1.36-.11.58-.03.24.1.17.17-.18.18-.32.02-.5-.06-.4-.16Z"/>
  <path class="uuid-b879e54c-5891-4cbe-894c-08b359067ffa" d="M246.99,65.42c0-.17.2-.31.46-.31.25,0,.46.13.46.3,0,.17-.21.3-.46.3-.25,0-.46-.13-.46-.3Z"/>
  <path class="uuid-b879e54c-5891-4cbe-894c-08b359067ffa" d="M242.81,64.94c.1-.1.36-.11.58-.03.24.1.17.17-.18.18-.32.01-.5-.06-.4-.16Z"/>
  <path class="uuid-b879e54c-5891-4cbe-894c-08b359067ffa" d="M159.66,58.16c.29-.08.77-.08,1.07,0,.29.08.05.14-.53.14-.59,0-.83-.06-.53-.14Z"/>
  <path class="uuid-b879e54c-5891-4cbe-894c-08b359067ffa" d="M289.2,68.2c1.6-.25,1.45-.62-.37-.91-1.16-.18-1.31-.12-2.2.89-1.03,1.18-2.14,1.42-2.81.62-.26-.31-.65-.41-1.14-.29-.8.2-2.91-1.01-3.24-1.86-.13-.33-.42-.4-1.06-.26-.49.11-1.48.04-2.21-.16-.73-.2-2.62-.39-4.21-.43-1.59-.04-3.41-.17-4.05-.29-1.14-.22-1.16-.21-1.06.65l.1.87h-2.36c-2.17.01-3.01-.26-1.91-.6,1.46-.46,1.46-.57,0-.78-.84-.12-2.55-.23-3.81-.24-1.26-.01-2.76-.16-3.35-.33-.95-.28-1.13-.23-1.67.43-.6.73-.65.74-5.48.67-4.69-.07-10.8-.63-11.12-1.02-.61-.76-1.99-1.16-4.57-1.34-3.49-.24-4.5-.36-5.42-.65-.63-.2-.68-.14-.51.55.24.95-.18,1.25-1.4.99-.59-.13-1.03-.47-1.21-.93-.39-1.02-1.71-1-2.18.04-.29.64-.55.76-1.67.77-.73,0-1.32-.13-1.32-.3,0-.17.21-.31.46-.31.6,0,.58-.49-.03-.73-.95-.36-1.65-.19-1.65.39,0,.73-1.61,1-3.96.67-.92-.13-2.91-.1-4.42.07-1.92.21-3,.21-3.6-.02-1.26-.48-.68-.99,1.03-.91,2.04.1,2.17-.22.26-.62-1.77-.37-3.51-.17-3.74.45-.12.31-.76.36-2.68.25-2.54-.16-3.55-.49-2.59-.86.75-.29.3-.74-.73-.74-.68,0-.89.14-.89.59,0,.82-.44,1.01-1.81.79-.8-.13-1.23-.38-1.33-.78-.12-.47-.43-.59-1.54-.58-1.17,0-1.36.08-1.19.51.17.45-.03.48-1.91.3-3.17-.3-4.09-.51-4.09-.93,0-.22-.59-.46-1.41-.57-2-.27-2.85-.23-2.85.12,0,.17.54.3,1.2.3,1.51,0,1.77.38.73,1.07-.69.46-1.02.48-2.36.19-1.46-.31-7.71-.65-14.19-.76-4.74-.08-11.82-.71-12.87-1.14-.97-.4-.96-.4.69-.31.92.05,3.09.14,4.82.2,2.88.1,3.1.06,2.65-.38-.49-.48-3.8-.76-7.17-.6-2.14.1-2.62.08-7.25-.3-2.4-.19-4.44-.27-4.54-.17-.1.1.08.38.4.62.56.41.53.46-.54.91-1.35.57-1.86.59-3.14.14-1.31-.47-3.08-.11-3.28.67-.19.74-1.73.87-1.74.15,0-.32-.32-.46-1.08-.45-1.32,0-6.23,1.22-6.23,1.54,0,.4,1.53.64,2.85.44.69-.1,1.88-.03,2.63.16,2.34.6,7.87.91,10.17.56,1.4-.21,2.62-.22,3.65-.03,4.86.92,18.37,1.71,25.97,1.53,2.21-.05,4.27.03,4.57.19.3.16,1.37.38,2.38.48,1.77.18,1.8.18.99-.29-.46-.26-.84-.61-.84-.77,0-.44,1.6-.36,2.29.11.92.64,4.39.89,6.48.47,1.7-.34,1.88-.32,2.73.3.76.56,1.2.65,2.7.53.98-.08,2.23-.33,2.78-.56.87-.37,1.11-.36,1.98.07,1.45.73,2.4.86,6.62.94,2.09.04,4.66.28,5.71.53l1.9.46v-.99c0-.75.15-1.04.66-1.21.52-.17.86,0,1.55.77l.88.98,2.64-.11c2.54-.11,2.64-.09,2.74.57.07.49.3.68.82.68.4,0,.81-.15.92-.33.11-.18.53-.25.93-.15.4.1,1.11-.02,1.59-.27.59-.31,1.18-.37,1.9-.21,1.32.29,1.8.13,1.8-.61,0-.44.21-.58.85-.59,1.04,0,1.59.49,1.59,1.44,0,.79.78,1.25,1.28.75.22-.22.65-.21,1.43.06.82.28,2.19.32,5.21.14,2.52-.15,4.31-.13,4.65.05.39.21.74.16,1.22-.18.92-.65,1.36-.6,2.42.28,1.11.93,2.42.97,3.55.13.79-.59.93-.6,2.2-.19,2.56.83,9.12,1.14,9.37.46.15-.43,1.35-.32,2.01.18.65.49,2.78.6,3.04.16.23-.37,3.88-.36,4.34,0,.24.19.58.18.99-.04.47-.25.8-.24,1.31.04,1.16.64,3.96,1.11,5.58.93,1.1-.12,1.82-.03,2.52.33.66.34,1.14.41,1.47.22.34-.19.9-.1,1.74.28,1.28.58,2.59.75,2.65.34h0c.02-.13.05-.57.07-.99.04-.62.18-.75.8-.68,5.52.63,5.99.65,7.08.31.63-.2,1.14-.48,1.14-.63,0-.47-.91-.63-1.38-.23-.37.31-.91.28-2.81-.18-1.29-.31-2.94-.56-3.65-.57-1.74,0-1.67-.64.11-.91ZM235.85,65.18c-.18.29-5.12.14-6.79-.2-1.56-.32-.17-.53,3.08-.46,3.54.07,4.02.16,3.71.67ZM270.44,67.05c0,.38-.51.34-1.33-.1-.4-.22.45-.64.92-.47.23.09.41.34.41.57ZM273.48,67.02c0,.34-.21.47-.68.4-.38-.05-.68-.23-.69-.4,0-.17.31-.35.68-.4.47-.07.68.06.69.4Z"/>
  <path class="uuid-b879e54c-5891-4cbe-894c-08b359067ffa" d="M300.63,73.26c-.08.55-.97.16-1.36-.6-.24-.46-.72-1.1-1.08-1.42-.81-.73-.82-1.28-.04-1.49.36-.1.61-.42.61-.8,0-1,1.38-.86,1.89.2.31.63.63.83,1.31.83.6,0,.93.17,1,.5.13.64-.39.96-1.52.93-.78-.02-.88.08-.84.8.03.45.04.92.02,1.05Z"/>
  <path class="uuid-b879e54c-5891-4cbe-894c-08b359067ffa" d="M170.4,58.64c.81.34-3.51.37-5.18.03-.98-.2-.65-.25,1.67-.27,1.59-.01,3.17.09,3.5.24Z"/>
  <path class="uuid-b879e54c-5891-4cbe-894c-08b359067ffa" d="M169.04,61.11c0,.15-.4.27-.9.27-1.14,0-4.06-.61-3.87-.81.26-.26,4.76.25,4.77.54Z"/>
  <path class="uuid-b879e54c-5891-4cbe-894c-08b359067ffa" d="M171.21,60.92c.28-.28,4.22.19,4.04.48-.22.35-3.2.34-3.77-.02-.25-.15-.37-.36-.27-.46Z"/>
  <path class="uuid-b879e54c-5891-4cbe-894c-08b359067ffa" d="M310.64,70.89c0,.22-.36.44-.81.5-.53.06-.99.42-1.31,1-.47.86-.59.9-2.37.87-1.04-.02-1.96.09-2.05.24-.3.48-.82.31-.63-.2.1-.27.18-.81.18-1.22,0-.92.95-1,1.8-.16.72.71.96.52.74-.58-.16-.79-.09-.85,1-.99,1.67-.21,3.46.07,3.46.54Z"/>
  <path class="uuid-b879e54c-5891-4cbe-894c-08b359067ffa" d="M239.16,64.65c.1-.1.36-.11.58-.03h0c.24.1.17.17-.18.19-.32.01-.5-.06-.4-.16Z"/>
  <path class="uuid-b879e54c-5891-4cbe-894c-08b359067ffa" d="M187.07,61.41c-.17-.51,1.05-.47,2.21.07l.92.43-1.5-.06c-.88-.03-1.55-.21-1.63-.44Z"/>
  <path class="uuid-b879e54c-5891-4cbe-894c-08b359067ffa" d="M258.64,41.64c-.21.34-.79.34-2.13,0-.78-.19-.67-.24.7-.27,1.01-.03,1.55.07,1.43.26Z"/>
  <path class="uuid-b879e54c-5891-4cbe-894c-08b359067ffa" d="M298.08,44.76h0c0,.55-.8.55-1.01,0-.09-.24-.09-.5,0-.59.28-.28,1.01.14,1.02.59Z"/>
  <path class="uuid-b879e54c-5891-4cbe-894c-08b359067ffa" d="M303.17,44.37c.74.1,1.69.45,2.1.77l.75.59-1,.13c-1.84.23-2.03.23-2.79-.06-.58-.22-.72-.44-.59-.95.15-.59.31-.64,1.52-.48Z"/>
  <path class="uuid-b879e54c-5891-4cbe-894c-08b359067ffa" d="M132.88,35.79c1.88.14,2.55.29,2.14.46-.34.14-1,.19-1.48.11-.48-.08-1.78-.15-2.89-.15-1.65-.01-1.88-.07-1.26-.32.45-.18,1.86-.22,3.5-.1Z"/>
  <path class="uuid-b879e54c-5891-4cbe-894c-08b359067ffa" d="M212.05,39.34c.1.17-.02.3-.27.3-.25,0-.54-.13-.65-.3s.02-.31.27-.31c.25,0,.54.14.64.3Z"/>
  <path class="uuid-b879e54c-5891-4cbe-894c-08b359067ffa" d="M952.45,69c-.38-.13-.36-.22.11-.48,1.05-.59,8.11.24,8.11.96,0,.56-6.36.19-8.22-.47Z"/>
  <path class="uuid-b879e54c-5891-4cbe-894c-08b359067ffa" d="M981.47,74.7c.1-.1.36-.11.58-.03h0c.24.1.17.17-.18.19-.32.01-.5-.06-.4-.16Z"/>
  <path class="uuid-b879e54c-5891-4cbe-894c-08b359067ffa" d="M52.57,31.19c.09.27-.3.38-1.34.38-1.38,0-1.43-.04-.86-.47.69-.53,2.02-.47,2.21.09Z"/>
  <path class="uuid-b879e54c-5891-4cbe-894c-08b359067ffa" d="M970.52,55.1c1.13.24,1.05.26-.91.3-2.97.06-6.87-.47-11.88-1.6-1.33-.3-2.67-.41-3.54-.29-.77.11-2.25.03-3.28-.17-1.86-.36-2.71-.2-1.85.34.64.4-.76.39-2.14-.02-2.7-.8-6.22-1.19-10.75-1.17-3.07,0-4.75.12-4.63.31.37.6,5.29,1.78,9.3,2.23,7.15.81,13.42,1.34,17.51,1.5,4.23.17,12.34.76,19.79,1.46,2.51.23,6.14.51,8.07.6,1.93.1,4.32.3,5.33.44.13.02.28.04.46.06v-2c-.74-.05-.91-.24-1.27-.64-.41-.46-1.23-.87-2.17-1.07-2.14-.45-9.1-.68-10.03-.32-.54.21-1.64.13-3.78-.28-3.35-.64-12.8-1.12-12.5-.63.1.16,1.73.38,3.62.49,1.89.11,3.99.31,4.66.46ZM944.64,53.96c-.5.01-1.12-.11-1.37-.27-.36-.23-.3-.29.3-.28.42,0,1.04.13,1.37.27.52.22.48.26-.3.28ZM951.64,54.18c-.84,0-1.22-.05-.84-.12h0c.37-.08,1.06-.08,1.52,0,.46.07.16.13-.68.13Z"/>
  <path class="uuid-b879e54c-5891-4cbe-894c-08b359067ffa" d="M957.65,58.04l1,.45-1.37-.13c-3.18-.3-4.26-.5-4.27-.81,0-.45,3.32-.1,4.63.49Z"/>
  <path class="uuid-b879e54c-5891-4cbe-894c-08b359067ffa" d="M967.03,58.79c0,.39-.92.39-1.52,0-.35-.22-.22-.3.53-.3.54,0,.99.13.99.3Z"/>
  <path class="uuid-b879e54c-5891-4cbe-894c-08b359067ffa" d="M89.85,54c-.35-.22-.24-.29.45-.27.5.01,1.26.13,1.68.27.66.21.6.25-.46.27-.67.02-1.42-.1-1.67-.27Z"/>
  <path class="uuid-b879e54c-5891-4cbe-894c-08b359067ffa" d="M691.61,29.74c-1.24,0-1.76-.14-2.18-.6-.66-.73-.19-.8,1.06-.16.54.28,1.24.38,1.81.26.6-.12.93-.07.93.15,0,.21-.62.34-1.63.35Z"/>
  <path class="uuid-b879e54c-5891-4cbe-894c-08b359067ffa" d="M83.54,53.53c.1-.1.36-.11.58-.03.24.1.17.17-.18.18-.32.01-.5-.06-.4-.16Z"/>
  <path class="uuid-b879e54c-5891-4cbe-894c-08b359067ffa" d="M107.22,56.8c.77.05.36.11-.91.15-3.52.1-16.14-.59-16.14-.89,0-.14,1.27-.19,2.82-.1,2.57.15,10.9.64,14.24.84Z"/>
  <path class="uuid-b879e54c-5891-4cbe-894c-08b359067ffa" d="M81.56,55.34c.21-.08.62-.09.91-.02.3.08.13.14-.37.15-.5,0-.74-.05-.54-.14Z"/>
  <path class="uuid-b879e54c-5891-4cbe-894c-08b359067ffa" d="M122.9,57.25c-.23-.37,1.87-.38,2.74,0,.45.19.19.27-.97.29-.87.01-1.67-.11-1.77-.28Z"/>
  <path class="uuid-b879e54c-5891-4cbe-894c-08b359067ffa" d="M0,43.7c3.87.01,8.88.16,9.86.37.64.14.76.26.46.46-.22.15-1.02.2-1.78.11-.75-.09-4.32-.25-7.92-.35-.22,0-.42-.01-.62-.02v-.57Z"/>
  <path class="uuid-b879e54c-5891-4cbe-894c-08b359067ffa" d="M36.81,57.6c.21-.08.55-.09.76,0,.21.08.04.15-.38.16-.42,0-.59-.07-.38-.15Z"/>
  <path class="uuid-b879e54c-5891-4cbe-894c-08b359067ffa" d="M27.88,39.3c.31.49-2.77.26-4.6-.35l-1.83-.61,1.52.16c3.66.38,4.75.55,4.9.8Z"/>
  <path class="uuid-b879e54c-5891-4cbe-894c-08b359067ffa" d="M120.18,64.26c-.1.17-.56.22-1.01.11-1.22-.29-1.2-.41.06-.41.68,0,1.06.12.95.3Z"/>
  <path class="uuid-b879e54c-5891-4cbe-894c-08b359067ffa" d="M76.07,54.75c.21-.08.62-.09.91-.01.3.08.13.14-.37.15-.5,0-.74-.05-.54-.14Z"/>
  <path class="uuid-b879e54c-5891-4cbe-894c-08b359067ffa" d="M67.65,53.86c-.18-.2,4.52.08,6.44.38.63.1,1.08.3.98.45-.09.15-.27.27-.4.27-.82,0-6.88-.94-7.02-1.09Z"/>
  <path class="uuid-b879e54c-5891-4cbe-894c-08b359067ffa" d="M124.35,63.36h0c-.79.11-1.59.22-1.78.25-.19.02-1.22-.22-2.29-.53-3.21-.94-3.52-.97-5.82-.38-1.97.5-2.84.54-7.99.31-4.53-.19-5.89-.35-6.31-.72-.4-.36-.8-.41-1.68-.23-1.66.35-10.72.25-13.94-.17-1.51-.19-4.04-.38-5.63-.41-3.16-.06-5.76-.78-7.29-2.02-.47-.38-1.11-.85-1.43-1.05-.5-.32-.42-.36.65-.38.7-.01,1.55.2,1.98.51.5.35,1.64.6,3.34.73,6.96.53,10.06.82,11.82,1.09,1.06.16,3.18.2,4.72.09l2.8-.21-2.16-.2c-2.24-.2-3.62-.52-3.38-.77.23-.23,9.17.52,9.47.8.42.39-1.2.69-2.65.5-1.05-.14-1.14-.12-.53.13.41.17,1.51.28,2.44.24.93-.04,2.89.04,4.37.17,2.58.23,2.69.21,2.85-.41.17-.64.28-.65,6.6-.66,3.54,0,7.18.07,8.09.17,1.47.15,1.59.22,1.1.58-.52.38-.5.43.27.72.46.17,1.21.31,1.68.31.47,0,1.03.2,1.24.45.21.25.59.45.85.45.96,0,0,.44-1.39.64Z"/>
  <path class="uuid-b879e54c-5891-4cbe-894c-08b359067ffa" d="M305.34,69.64c-.27-.69-.25-.73.37-.74.77,0,1.02.32.62.81h0c-.45.54-.77.52-.99-.07Z"/>
  <path class="uuid-b879e54c-5891-4cbe-894c-08b359067ffa" d="M842.63,100.94c13,.58,15.33.86,14,1.72-.25.16-.79.23-1.21.15-.42-.08-3.22-.21-6.22-.3-3-.09-5.55-.22-5.68-.3-.12-.08-3.49-.27-7.49-.42-7.47-.29-11.74-.57-11.96-.77-.74-.66,5-.69,18.55-.09Z"/>
  <path class="uuid-b879e54c-5891-4cbe-894c-08b359067ffa" d="M833.98,105.19c.09.15-.11.37-.44.5-.91.34-12.21.1-13.11-.28-.68-.29-.45-.36,1.81-.58,3.03-.29,11.5-.03,11.75.36Z"/>
  <path class="uuid-b879e54c-5891-4cbe-894c-08b359067ffa" d="M808.86,105.5c-5.05-.01-9.23.03-9.29.09h0c-.06.06-2.25.09-4.86.06-2.61-.03-6.36-.07-8.32-.09-1.97-.02-4.33-.16-5.25-.31-.92-.15-4.83-.33-8.68-.4-9.67-.17-12.66-.31-13.55-.67-.57-.23.29-.32,3.5-.39,2.34-.05,4.54-.08,4.87-.07,1.77.05,26.54.34,36.69.43,11.65.1,13.69.25,13.94.98.1.3-1.8.38-9.05.36Z"/>
  <path class="uuid-b879e54c-5891-4cbe-894c-08b359067ffa" d="M759.16,97.58c3.84.07,6.33.24,6.54.44.48.48-11.32.29-12.13-.2-.48-.28.7-.34,5.6-.25Z"/>
  <path class="uuid-b879e54c-5891-4cbe-894c-08b359067ffa" d="M753.93,95.43c.21-.08.55-.09.76,0,.21.08.04.15-.38.15-.42,0-.59-.07-.38-.15Z"/>
  <path class="uuid-b879e54c-5891-4cbe-894c-08b359067ffa" d="M446.46,80.76c-.59-.1-2.06-.19-3.27-.19-1.21,0-2.21-.09-2.21-.2,0-.34,6.53-.64,7.32-.34l.75.28-.76.32h0c-.42.18-1.24.23-1.83.13Z"/>
  <path class="uuid-b879e54c-5891-4cbe-894c-08b359067ffa" d="M436.34,80.49c.38-.07.99-.07,1.37,0,.38.07.07.13-.68.13-.75,0-1.06-.06-.69-.13Z"/>
  <path class="uuid-b879e54c-5891-4cbe-894c-08b359067ffa" d="M454.86,80.47c-.72-.27-.27-.73.73-.73.94,0,1.47.45.84.71-.55.22-1.03.23-1.57.02Z"/>
  <path class="uuid-b879e54c-5891-4cbe-894c-08b359067ffa" d="M458.71,79.95c.53-.19,2.45.1,2.8.42.17.15-.37.27-1.27.27-1.48,0-2.36-.39-1.53-.69Z"/>
  <path class="uuid-b879e54c-5891-4cbe-894c-08b359067ffa" d="M463.02,80.62c-.6-.22-.74-.41-.5-.64.37-.38,2.27.3,2.01.72-.2.32-.52.3-1.51-.07Z"/>
  <path class="uuid-b879e54c-5891-4cbe-894c-08b359067ffa" d="M674.62,94.43c.38.07.07.13-.68.13-.75,0-1.06-.06-.69-.13.38-.07.99-.08,1.37,0Z"/>
  <path class="uuid-b879e54c-5891-4cbe-894c-08b359067ffa" d="M787.04,93.83c-1.34-.05-5.04-.27-8.22-.49-3.18-.22-10.65-.42-16.59-.45-5.95-.03-11.49-.09-12.33-.14-.84-.05-4.13-.24-7.31-.43-3.18-.19-7.36-.39-9.29-.45-1.93-.06-4.6-.19-5.94-.28-1.34-.09-4.77-.23-7.61-.31-8.71-.24-11.41-.33-15.68-.51-2.26-.1-7.06-.24-10.66-.31-3.6-.07-8.88-.19-11.72-.26-2.85-.07-9.49-.18-14.77-.24-5.27-.06-15.21-.2-22.07-.31-10.39-.17-18.13-.19-23.44-.07-4.85.11-23.8-.19-27.25-.42-4.14-.29-7.32-.13-7.82.38-.12.12.25.22.83.21.58,0,2.36.05,3.95.12,5.56.25,19.99.5,25.73.43,3.18-.04,6.61.04,7.61.17,1.65.21,1.38.26-2.89.52-2.59.16-7,.26-9.79.24-3.65-.04-5.14.05-5.3.31-.15.25-.03.31.42.19.35-.09,2.26,0,4.23.21,1.98.21,3.7.32,3.83.24.13-.08,2.6-.13,5.48-.12,2.88.02,7.37.01,9.96,0,6.67-.05,9.7.04,13.25.37,1.68.16,2.98-.14,2.54-.58-.1-.1-2.16-.24-4.58-.32-2.42-.08-4.8-.27-5.29-.43-.6-.19.82-.23,4.28-.1,2.85.1,5.55.16,6.01.13,4.19-.26,4.61-.18,3.89.69-.44.53-1.34.48,11.26.62,4.27.05,11.67.08,16.44.08,4.77,0,9.29.01,10.05.03,4.99.13,5.63.08,5.59-.47-.04-.46.24-.53,2.13-.52,2.74.02,4.21.52,1.64.56-.96.02-1.75.15-1.75.31,0,.79,5.14.72,6.01-.08.74-.67,1.48-.67,1.86,0,.25.44.82.55,3.29.61,1.95.05,2.84-.02,2.56-.21-.62-.42-.18-1.39.5-1.11.29.12,1.04.32,1.66.44.62.12,1.45.43,1.85.69.96.63,4.03,1,4.32.53.23-.38,3.39-.15,3.97.29.17.13,3.32.3,7,.37,3.69.08,6.94.23,7.23.35.68.27.7-.33.02-.71-.46-.25-.44-.3.11-.48.87-.28,1.61.08,1.94.92.26.67.41.72,2.34.64,1.13-.05,3.36.08,4.96.28,1.59.2,3.81.4,4.93.43,1.75.06,2.14-.03,2.77-.62.71-.67.74-.68,1.46-.12.41.31,1.15.68,1.65.82.88.24,11,.5,15.59.4,1.21-.02,3.37.17,4.81.44s2.73.41,2.87.32c.14-.09,1.88-.02,3.87.15,1.99.17,4.49.29,5.55.26,1.06-.02,2.61.13,3.44.34,1.33.34,1.61.32,2.41-.16.5-.29,1.04-.46,1.2-.36.16.1,3.31.23,7,.3s8.08.32,9.75.57c3.29.49,4,.5,6.1.12.75-.14,1.81-.18,2.34-.09.91.15.97.1.88-.67-.05-.46-.33-.96-.62-1.12-.58-.32-6.83-.37-8.45-.06-.56.1-2.59-.08-4.51-.41-1.93-.33-4.19-.67-5.02-.76-1.58-.17-12.21-.77-16.44-.92ZM633.28,90.81c.12.19-.8.31-2.55.31-1.51,0-2.82-.13-2.93-.3-.12-.19.8-.31,2.55-.31,1.51,0,2.82.13,2.93.3ZM677.88,91.59c0,.17-.68.31-1.52.31-.84,0-1.52-.13-1.52-.3,0-.17.68-.31,1.52-.31.84,0,1.52.13,1.52.3ZM680.85,91.86c-.98.02-1.75-.1-1.75-.27,0-.35,1.63-.36,2.74,0,.58.19.35.25-.99.28ZM689.67,91.86c-.77,0-1.49-.14-1.61-.32-.14-.23.25-.26,1.27-.12,1.94.28,2.06.44.33.44ZM692.98,91.83c-.32.01-.5-.06-.4-.16.1-.1.36-.11.58-.03.24.1.17.17-.18.18ZM783.87,95.86c-.18,0-.32-.14-.32-.3,0-.17.06-.31.13-.31.07,0,.22.14.32.3s.04.3-.13.3Z"/>
  <path class="uuid-b879e54c-5891-4cbe-894c-08b359067ffa" d="M842.05,95.11c-.3-.19-.23-.31.3-.45,1.55-.42,4.52-.14,4.52.43h0c0,.34-4.28.36-4.82.02Z"/>
  <path class="uuid-b879e54c-5891-4cbe-894c-08b359067ffa" d="M857.62,97.66c3.31.11,6.09.29,6.16.41.07.12-.83.32-2.02.44-1.19.12-2.45.34-2.81.48-.36.14-.91.19-1.23.1-.32-.09-2.79-.2-5.48-.23-2.69-.04-5.65-.23-6.57-.42-.92-.19-5.1-.47-9.29-.61-8.46-.3-11.29-.61-11.99-1.31-.43-.43-.24-.47,1.95-.47,1.33,0,3.79.13,5.47.29,1.68.16,4.9.35,7.16.43,2.26.07,6.03.26,8.37.42,2.34.16,6.98.37,10.29.48Z"/>
  <path class="uuid-b879e54c-5891-4cbe-894c-08b359067ffa" d="M744.53,29.28c-.25,0-.46-.2-.46-.46,0-.25.2-.46.45-.46.25,0,.46.21.46.46,0,.25-.2.46-.46.46Z"/>
  <path class="uuid-b879e54c-5891-4cbe-894c-08b359067ffa" d="M934.26,0H0v6.48c.86.02,1.56.06,1.94.13,1.09.22,1.12.24.4.46C2.11,7.14,1.22,7.2,0,7.25v1.27c.45.02.83.04,1.12.06,8.9.65,18.34.85,19.94.42,1.82-.48,14.96-.93,16.74-.58l1.22.24-2.01.65c-1.54.5-2.29.59-3.2.39-1.2-.26-2.89-.38-4.49-.32-.62.02-.82.16-.7.46.13.32-.34.52-1.87.82C23.97,11.21,8.86,11.35,0,10.98v2.33c1.95.17,2.58.32,2.28.49C2.14,13.87,1.23,14.04,0,14.22v1.8c.6.17,1.72.4,2.85.59,1.49.25,4.17.71,5.94,1.04,6.89,1.28,12.01,1.62,20.99,1.4,7.17-.18,8.29-.15,7.82.21-.3.23-1.4.52-2.43.63-1.03.11-2.7.4-3.71.65-2.24.54-6.83,1.04-9.89,1.09-1.9.02-2.15.08-1.52.35.43.18,2.22.28,4.11.23,9.12-.26,11.54-.19,12.61.35.57.29,1.66.53,2.41.53,1.28,0,1.34.03.91.53-.26.29-.4.7-.33.89.08.21-.35.5-1.03.69-1.62.45-2.25.41-2.68-.18C35.66,24.53,28.78,24.38,0,24.33v1.26c3.35,0,6.7.03,9.39.07,5.95.09,12.38.18,14.31.2,3.22.03,3.44.07,2.7.47-1.58.86-7.15,1.21-20.43,1.28C3.84,27.62,1.8,27.64,0,27.67v1.33c2.89.36,7.02.63,14.43.99,6.87.34,8.58.34,8.83.03.88-1.12,4.25-1.44,5.75-.55,1.01.6,6.92,1.24,11.36,1.22,2.26,0,2.75-.26,2.58-1.3-.11-.67.67-.69,3.51-.11,1.14.23,3.03.52,4.21.63,1.17.11,3.43.48,5.03.81,1.95.41,4.24.63,7,.67,2.26.03,6.3.33,8.98.67,3.57.45,7.44.66,14.46.77,9.1.15,11.47.29,18.27,1.08,1.59.19,5.29.39,8.22.45,2.93.06,7.04.16,9.14.22,2.09.06,6.41.16,9.59.22,7.13.13,20.85.71,21.16.89.2.12,2.6.29,8.99.62,1.17.06,8.91.14,17.2.19,8.29.04,15.41.15,15.83.23.42.09,2.34.24,4.26.34,4.84.25,8.46.7,9.15,1.13.45.28.66.28.95-.01.49-.5,1.46-.47,4.21.09,1.26.26,2.97.44,3.81.41,2.3-.1,2.53-.04,2.75.65.16.51.36.6,1.01.44.44-.11,1.01-.19,1.26-.17.25.01,1.1,0,1.89,0,.79-.02,1.84.18,2.35.44,1.07.55,3.38.63,3.38.11,0-.25.53-.28,1.9-.1,1.05.13,2.64.21,3.54.18,1.07-.04,1.89.1,2.37.41.59.38,1.04.42,2.3.18.96-.18,1.86-.18,2.31-.01.47.18.87.17,1.11-.03.39-.33,12.19-.78,12.67-.48.15.09,3.05.21,6.44.26,9.24.14,14.82.38,16.52.7.84.16,3.85.42,6.7.58,6.36.36,7.95.53,8.75.96.38.2,1.34.25,2.53.12,1.88-.21,1.93-.19,2.61.72.8,1.07,1.63,1.2,2.1.33.28-.52.53-.58,1.76-.42.79.1,1.61.32,1.82.48.25.2.51.19.76-.02.68-.56,3.75-.42,4.55.21.72.56,2.71.85,3.59.53,1.17-.43,2.16-.5,2.83-.2.52.23,1.62.24,3.81.01,3.01-.31,3.52-.26,5.79.59.98.36.67,1.01-.51,1.05-.53.02-1.21.25-1.51.52-.3.27-1.15.53-1.9.58-1.28.09-1.37.04-1.46-.72-.09-.76-.18-.8-1.22-.63-.62.1-1.47.44-1.9.76-.61.45-1.2.56-2.74.49l-1.96-.09.09-.88c.08-.77.01-.86-.58-.7-.37.1-1.16-.02-1.75-.27-1.23-.51-1.93-.16-1.27.63.28.34.31.58.08.81-.39.4-.99.09-.99-.52,0-.67-.65-.52-.83.19-.16.6-.3.62-2.94.43-1.53-.11-3.03-.33-3.35-.5-.31-.16-1.27-.21-2.13-.12-1.74.2-5.08-.47-3.9-.79,1.08-.29.85-1.35-.33-1.53-1.25-.19-1.45-.06-1.44.89,0,.48-.14.72-.38.64-.21-.07-.35-.39-.32-.71.09-.79-1.92-2.11-2.18-1.43-.12.31-.54.43-1.31.39-1.96-.11-2.33-.03-1.94.44.2.24.67.35,1.11.27.76-.15,1.67.34,1.67.9,0,.37-3.77.11-7.31-.5-1.42-.25-3.96-.45-5.63-.45-1.67,0-4.48-.13-6.24-.29-5.43-.48-15.38-.86-22.16-.85-3.56.01-8.57-.13-11.11-.31-2.55-.18-5.46-.35-6.46-.39-5.57-.2-8.88-.53-9.56-.95-.5-.31-1.1-.4-1.91-.27-1.7.28-2.59-.03-3.01-1.05-.26-.63-.58-.89-1.1-.88-.72,0-.72.02-.24.94.27.52.42,1.01.32,1.11-.09.09-.75.02-1.47-.16-.72-.18-3.15-.42-5.41-.54-6.55-.33-6.75-.35-8.83-.53-3.71-.32-13.97-.68-25.27-.87-16.49-.29-18.1-.34-29.08-.94-3.35-.18-10.82-.43-16.59-.54-9.1-.18-12.61-.18-16.9,0-1.72.07-12.62-.52-15.45-.84-6.37-.72-14.83-1.17-15.76-.84-1.02.36-6.04.25-14.1-.3-5.1-.35-6.69-.26-5.65.33.28.15,1.85.42,3.5.59,1.65.17,4.72.51,6.81.75,2.09.24,4.79.44,6,.43,1.2,0,2.57.14,3.04.32.47.19,3.33.44,6.34.56,3.02.12,6.92.43,8.68.68,3.56.5,10.1.65,13.9.32,2.31-.21,2.51-.18,2.82.4.32.6.62.62,6.65.66,3.47.02,6.73.03,7.23.03.5,0,4.27-.04,8.37-.07,7.48-.07,9.53.11,11.64.99,1.28.53,2.61.6,3.28.16.25-.16.32-.3.15-.31-.17,0-.08-.15.2-.31.32-.19,1.07-.19,2.11,0,2.53.47,2.34.73-.44.61-1.12-.05-1.17,0-1.03.73l.15.78-3.38-.19c-7.47-.41-19.09-.51-21.6-.19-1.46.19-1.82.35-2.03.92-.36.97-.69,1.1-2.11.88-1.01-.16-1.18-.27-.9-.61.19-.23.75-.42,1.24-.42.57,0,.82-.12.69-.33-.13-.2-.62-.25-1.25-.13-.78.15-1.31.04-2.09-.44-.9-.55-1.14-.59-1.74-.24-.97.55-6.7.45-13.18-.25-2.85-.3-5.42-.5-5.71-.42-.29.07-.53.39-.53.71,0,.92-.76,1-4.38.49-1.86-.27-5.03-.48-7.04-.48-2.01,0-5.43-.21-7.61-.46-4.5-.53-12.84-1.04-13.4-.82-.21.08-3.59.01-7.52-.16-6.05-.26-7.28-.24-8.03.13-.94.47-2.96.32-2.21-.16.22-.14.81-.26,1.3-.27,1.6-.01.6-.34-2.3-.75-1.57-.22-5.22-.39-8.11-.38-4.88.02-5.25.06-5.09.56.11.34-.03.61-.37.74-1.07.42.32.69,5.25,1.05,2.68.19,6.21.47,7.85.63,1.64.15,4.59.27,6.55.27,1.96,0,4.73.12,6.15.27,6.96.73,8.71.97,9.13,1.25.32.21.04.24-.91.12-.75-.1-4.45-.24-8.22-.31-3.77-.07-7.68-.26-8.7-.41-3.62-.56-11.92-1.01-16.72-.91-3.47.07-5.79-.04-8.07-.4-1.76-.28-5.05-.6-7.31-.73-2.26-.13-6.76-.39-9.99-.58C4.72,41.21,1.56,41.21,0,41.39v.61c.56.05,1.29.07,2.08.07,4.27-.01,15.96.8,20.92,1.46,2.35.31,5.57.64,7.16.73,1.59.09,4.67.3,6.85.46,2.18.16,5.82.42,8.09.57,2.94.2,4.52.45,5.48.87,1.71.76,1.17.79-3.78.21-2.04-.24-5.01-.5-6.6-.6-1.59-.1-4.74-.29-7-.44-5.4-.35-13.32-.35-13.54.01-.33.54.59.75,4.24.96,2.01.12,4.28.35,5.03.52.75.17,2.4.23,3.66.13,1.42-.11,3.5-.01,5.48.28,1.76.25,3.68.46,4.26.45,1.85-.02,9.22.58,10.96.9,2.76.5,8.31,1.24,9.29,1.24.5,0,1.77-.09,2.81-.2,1.56-.16,2.1-.09,3.07.41,1.48.77,4.39,1.13,19.71,2.45,2.01.17,5.64.5,8.07.74,2.43.23,7.91.56,12.18.73,4.27.17,10.64.5,14.16.73,9.45.62,11.09.64,11.4.14.2-.32.59-.37,1.59-.2,1.46.25,4.43.35,14.42.52,4.35.07,7.87.3,10.05.65,1.84.29,4.79.56,6.55.58,5.71.09,12,.46,13,.77.77.23,1.14.19,1.76-.22.71-.47,1.08-.48,3.75-.15,4.08.5,10.45.95,13.01.91,1.17-.02,2.34.1,2.59.27.36.23.27.3-.4.31-.49,0-.77.14-.67.31.1.17.61.3,1.12.3.7,0,.88-.12.75-.46-.24-.64.99-.9,2.94-.62.87.12,2.48.24,3.59.25,1.2.02,2.21.2,2.51.45.4.33.78.35,1.86.07,1.71-.43,4.54-.47,4.28-.05-.11.19.34.3,1.16.3.74,0,1.74.12,2.23.27.49.15,1.38.34,1.99.43,1,.13,1.09.09.94-.48-.16-.59-.08-.62,1.02-.4.66.13,1.6.21,2.1.19.5-.02,1.19.09,1.52.26.96.47,7.22.85,7.83.47.37-.22.93-.21,1.91.05.76.2,1.79.37,2.28.36.49,0,.99.15,1.1.34.13.21.74.27,1.62.17.77-.09,2.44-.06,3.69.06,1.76.18,2.4.14,2.77-.18.49-.42,3.13-.29,3.78.2.17.12,1,.32,1.85.43,1.21.16,1.63.1,1.94-.28.51-.62,1.43-.62,1.78,0,.22.4.68.45,2.68.31,3.31-.23,3.1-.23,5.25-.08,1.06.08,2.36.27,2.89.44.53.16,1.51.2,2.18.07.76-.15,1.9-.08,3.05.19,1.21.28,2.6.35,4.11.22,3.06-.26,2.83-.26,5.92-.06,1.65.11,3,.36,3.44.65.4.26,1.5.52,2.46.59.95.07,2.24.2,2.85.3.66.11,1.19.05,1.31-.15.14-.23.39-.23.85.02.35.19,1.4.33,2.31.32.92-.01,1.95.09,2.31.22.37.14,1.28.06,2.16-.18,1.95-.54,4.75-.28,5.78.52.7.55,1.04.58,4.5.34,4.7-.32,8.58-.24,9.41.21,1.1.58,1.99.64,10.78.68,4.7.02,8.69.13,8.88.25.19.12,1.21.09,2.27-.06,1.17-.16,2.23-.16,2.69.01.61.23.86.16,1.27-.35.5-.62,2.13-.8,9.54-1.04.33,0,2.17.13,4.07.32,1.9.19,3.59.26,3.73.17.36-.23,4.83.45,5.58.85.9.48,3.53.69,11.39.93,2.74.08,5.5.03,6.14-.11.69-.16,1.78-.14,2.69.03,1.61.31,3.38.08,2.9-.38-.15-.15-1.2-.31-2.33-.36-1.13-.05-2.06-.23-2.06-.39,0-.18,1.52-.31,3.89-.31h3.88s-.1.87-.1.87c-.09.79-.03.86.64.69.41-.1,3.95-.21,7.87-.23,6.49-.03,9-.25,10.81-.95.43-.17.79-.1,1.09.2.64.63,5.4,1.05,9.97.86,7.76-.31,39.77-.5,40.28-.24.49.25.49.3-.04.84-.52.52-1.11.57-6.92.57-7.44,0-25.66.64-25.93.91-.1.1,4.26.1,9.7-.01,17.83-.36,22.32-.39,25.87-.19,1.93.11,7.41.27,12.18.35,4.77.08,10.94.21,13.7.28,2.76.07,8.45.19,12.64.26,11.29.2,20.17.68,21.89,1.2,1.05.32,1.58.35,1.81.12.18-.18.81-.32,1.4-.32h1.08s-1.06.47-1.06.47c-.58.25-1.27.66-1.53.89-.39.36-1.41.4-5.94.21-3.01-.12-5.7-.11-5.97.03-.57.28-5.83.38-8.78.16-11.27-.81-22.69-.8-23.93.02-.39.26-1.03.47-1.43.47-.4,0-.97.28-1.27.61-.65.72-1.52.83-1.25.16.1-.25.27-.69.39-.97.16-.41.09-.46-.38-.26-.32.14-.79.23-1.04.2-.25-.03-1.69-.16-3.2-.29-1.51-.13-3.14-.43-3.62-.66-.81-.38-.92-.36-1.44.29-.42.53-.76.66-1.31.52-.41-.1-.82-.06-.9.08-.51.83-6.49.51-7.51-.41-.62-.56-1.23-.55-1.98.02-.56.43-.55.45.25.46.9,0,1.17.73.38,1.03-.55.21-1.85-.24-2.48-.87-.25-.25-.64-.45-.86-.45-.22,0-.47-.27-.56-.61-.13-.48-.42-.61-1.42-.6-.81,0-1.31.16-1.42.44-.11.28-.62.45-1.44.46-3.35.05-5.98.24-6.18.43-.39.39-.75.22-.66-.32.14-.85-1.75-.91-2.19-.08-.32.61-.56.64-4.87.61-2.49-.01-4.68.06-4.87.18-.56.35,2.32,2.06,3.06,1.82.42-.14.76-.04,1.01.3.3.41,1.11.53,4.15.65,3.36.13,3.82.09,4.17-.39.37-.51.42-.51.99,0,.76.69,1.38.48,1.39-.46,0-.56.15-.72.61-.66,1.55.19,3.85,0,4.81-.4.4-.17.84.05,1.6.78.58.55,1.05,1.17,1.05,1.36,0,.25-1.05.37-3.42.4-1.88.03-4.04.06-4.8.08-1.37.03-2.91.03-4.49,0-2.81-.06-4.16.08-4.8.51-.42.28-.98.4-1.35.28-.36-.11-.62-.06-.62.12,0,.44,1.36.74,2.27.51.52-.13.83-.04,1.03.32.27.47.6.48,4.35.08,4.53-.48,16.33-.54,16.79-.08.16.16,1.03.21,1.93.12,1.12-.12,1.64-.06,1.64.17,0,.19.38.35.85.35,1.09,0,4.13,1.05,4.27,1.48.06.19-.27.33-.75.34-1.01.01-1.84.44-1.38.72.17.1,1.03.27,1.9.36l1.59.17-.19-.94c-.21-1.04.23-2.57.7-2.41.17.05.75.78,1.3,1.62l1,1.52,2.28.24c2.71.29,4.34-.09,5.05-1.19.62-.96,1.33-.97,1.33-.03,0,.4.18.87.4,1.05.27.23,3.11.27,9.06.16,11.17-.22,13.03-.2,14.14.12,1.61.47,8.23.7,20.25.69,6.98,0,11.93-.13,12.23-.3.34-.19,1.21-.15,2.59.12,1.21.24,4.42.44,7.71.48,16.95.19,21.89.29,22.15.45.23.14,7.38.22,12.1.12,2.67-.05,11.43.34,12.91.58,1.82.29,7.54.19,8.96-.16.66-.16,1.03-.05,1.6.49.62.58.86.64,1.43.36.38-.19,1.68-.4,2.9-.48,1.78-.11,2.27-.05,2.48.33.2.35.9.49,2.75.56,2.32.08,2.53.04,3.19-.67.85-.92,1.42-.97,1.93-.16.32.51.59.57,1.71.42.85-.12,1.41-.06,1.54.16.15.24.48.16,1.08-.27,1.05-.75,2.35-.8,3.1-.12.5.45,2.04.51,14.49.57,7.66.04,17.83.13,22.61.2,4.77.08,13.88.18,20.25.24,14.12.12,23.08.33,28.32.67,2.18.14,6.36.33,9.29.42,2.93.09,6.52.31,7.97.5,1.45.18,3.01.26,3.45.18.44-.09,1.38-.03,2.08.13.7.16,2.92.25,4.92.22,6.62-.13,7.16-.04,7.16,1.2,0,.46.43.53,3.73.56,13.56.16,27.01.82,33.35,1.65,1.89.25,3.55.38,3.68.3.39-.24,4.29.39,5.14.83l.79.41-.75.19c-.41.1-2.61.13-4.9.06-2.89-.09-4.21-.03-4.36.21-.39.63.62.91,2.66.72,1.29-.12,2.1-.07,2.23.13.13.21,2.04.29,5.52.23,3.33-.06,5.06-.19,4.62-.35-.38-.14-1.11-.45-1.61-.69-.5-.24-1.32-.54-1.81-.67-.49-.13-.96-.42-1.03-.65-.1-.31.04-.35.59-.18.76.24,1.54.31,7.27.58,1.93.09,4.53.24,5.79.33,1.26.09,3.88.2,5.83.25,1.95.05,3.67.17,3.82.26.34.21,10.31.85,14.71.95,6.31.14,10.02.35,10.41.61.22.14,2.32.32,4.66.4,3.27.11,4.26.23,4.26.54,0,1.12,2.49,1.66,3.64.79.32-.25.9-.45,1.28-.45.38,0,.78-.16.89-.34.14-.23.96-.28,2.6-.14,2.05.17,2.37.14,2.22-.25-.24-.62.77-1.11,2.27-1.12.67,0,1.3-.13,1.4-.29.28-.45-.81-.89-3.39-1.37-1.3-.24-2.5-.58-2.67-.75-.39-.39-.21-.39,2.61,0,1.23.17,5.66.49,9.84.73,4.19.24,9.6.56,12.03.72,7.86.51,19.56,1.18,22.84,1.3,1.76.07,6.97.27,11.57.44,8.79.34,14.61.5,23.44.64,2.93.05,7.8.3,10.81.56,3.01.26,6.24.47,7.16.48.92,0,2.41.14,3.31.31,2.28.43,2.79.4,2.58-.15h0c-.14-.38.14-.47,1.45-.5l1.63-.04-3.19-1.03c-4.3-1.39-4.59-1.78-1.08-1.47,1.51.13,4.73.2,7.16.15,2.82-.06,5.51.08,7.45.37,4.51.68,4.53.03.05-1.21-1.25-.35-1.69-.59-1.46-.82.21-.21,3.98-.14,8.48.08v-2.63c-1.68-.14-3.37-.28-4.94-.42-5.36-.47-10.09-.79-10.51-.71s-2.06-.18-3.66-.58c-1.59-.41-4.33-.83-6.09-.93-6.17-.37-10.53-.78-12.92-1.22-1.33-.24-2.64-.37-2.92-.28-.28.09-1.59-.05-2.92-.3-1.33-.25-4.26-.59-6.52-.75-4.82-.33-13.72-1.16-14.16-1.32-.62-.22,3.15-.15,6.63.13,5.22.42,23.05,1.19,23.33,1.01.14-.08,2.01.05,4.17.3,2.16.25,4.27.39,4.69.31.42-.08,1.45-.02,2.28.14.84.15,3.03.35,4.87.43,1.84.08,3.56.21,3.81.28.25.07,2.48.34,4.94.59,3.3.33,4.63.37,5.03.12.37-.24,2.46-.03,4.88.39v-8.71c-3.42-.23-7.11-.59-9.7-.96-3.29-.48-4.7-1.02-2.65-1.03.62,0,1.13-.12,1.12-.27,0-.31-1.51-.65-2.86-.63h-.95s.72.61.72.61c.93.77.21.82-1.41.1-.87-.38-2.21-.51-5.7-.55-4.42-.05-9.29-.42-13.7-1.06-2.63-.38-8.66-.88-11.72-.98-1.26-.04-2.76-.23-3.35-.42-.87-.28-1.33-.25-2.51.17-1.36.49-1.63.49-4.72.01-1.8-.28-3.82-.51-4.5-.51-.67,0-1.81-.27-2.55-.6-1.65-.74-3.09-.79-3.09-.1,0,.38-.19.45-.84.32-.46-.1-2.93-.26-5.49-.37-2.56-.11-4.73-.31-4.81-.45-.09-.14.14-.26.5-.26.36,0,1-.27,1.41-.6.7-.56,1.16-.59,6.14-.5,2.96.05,6.75.24,8.42.42,7.04.76,9.07.91,13.7,1.05,2.68.08,7.54.42,10.81.75,10.29,1.05,11.65,1.15,14.99,1.15,5.48,0,12.39.58,15.91,1.35,3.31.72,3.35.72,3.93.14.58-.58.58-.59-.15-.74-.4-.08-2.1-.3-3.78-.49-3.51-.4-6.61-1.14-6.37-1.54.09-.15.28-.2.43-.11.33.2,8.19.72,12.76.86v-1.64c-3.34-.2-7.03-.44-10.46-.71-3.17-.24-5.91-.35-6.09-.24-.18.11-1.62.17-3.21.12-2.21-.06-2.81,0-2.54.27.42.43,4.59,1.18,6.56,1.19.78,0,1.52.14,1.62.31.25.4-2.84.35-4.73-.07-.75-.17-3.01-.34-5.02-.38-2.01-.04-5.98-.28-8.83-.52-2.85-.25-7.16-.59-9.59-.77-4.8-.35-8.18-.76-8.46-1.03-.47-.47.53-.48,4.72-.05,5.36.54,4.95.53,4.95.2,0-.15-1.54-.43-3.43-.62-1.89-.2-4.39-.55-5.56-.78-1.17-.24-3.37-.41-4.87-.4-2.72.03-2.73.04-1.68.49.58.25,1.72.56,2.52.69.8.12,1.54.31,1.65.41.25.25-6.7-.04-8.27-.35l-1.22-.23,1.12-.23c.62-.13,1.19-.42,1.27-.64.18-.47-.57-.62-5.56-1.05-3.4-.3-4.62-.21-2.89.2,1.22.29,2.55.99,2.55,1.34,0,.34-1.87.4-3.32.11-.75-.15-.92-.31-.79-.74.27-.85-.69-1.17-4.34-1.47-1.81-.15-4.52-.54-6.03-.87-1.51-.33-5.35-.81-8.53-1.07-5.73-.47-12.37-1.48-13.25-2.02-.29-.18.39-.21,1.83-.09,1.26.1,4.06.3,6.24.44,3.84.24,14.75,1.33,16.29,1.62.42.08,2.68.22,5.03.31,2.34.09,5.22.37,6.39.61,1.17.24,3.98.49,6.24.55,2.26.06,5.48.31,7.16.55,1.68.25,6.61.59,10.96.77,4.35.17,9.07.45,10.48.62,5.3.62,10.64.97,13.86.89,1.83-.04,4.36.06,5.63.22,2.55.33,8.4.76,11.57.88v-3.83c-1.75-.11-3.49-.2-5.01-.24-3.52-.09-7.56-.29-8.98-.44-1.42-.15-5.6-.41-9.29-.58-3.69-.17-8.14-.49-9.9-.72-7.28-.96-11.07-1.35-15.84-1.65-4.54-.28-14.69-1.05-22.69-1.73-1.68-.14-3.83-.19-4.8-.09-1.72.16-7.09-.64-7.38-1.11-.07-.12,1.16-.31,2.73-.42,2.76-.19,3.59-.44,4.82-1.44.67-.54,7.16-.72,11.61-.31,5.23.48,13.54.89,13.86.69.63-.39-.34-1.02-2.09-1.36-.95-.18-2.34-.53-3.08-.77-1.73-.56-3.2-.55-3.67.02-.28.34-.96.44-2.7.4-1.28-.03-2.63.06-3.01.2-.51.19-.73.13-.88-.25-.36-.92.74-1.41,2.77-1.23,1.01.09,2.03.02,2.27-.14.25-.17.38-.34.3-.39-.08-.05-.56-.38-1.08-.74-1.05-.73-1.67-.79-13.49-1.27-4.08-.17-7.98-.46-8.68-.66-1.31-.37-1.28-.4,1.09-.71.95-.13,1.45-.34,1.44-.62,0-.97-1.42-1.26-9.53-1.94-3.35-.28-6.04-.96-5.6-1.41.19-.19,16.92-.54,22.17-.47,1.67.02,2.71-.09,2.84-.31.15-.24,1.2-.29,3.46-.16,2.16.12,3.76.05,4.77-.2,1.99-.5,5.03-.52,8.98-.08,3.75.42,12.58,1.1,20.1,1.54,2.93.17,6.84.44,8.68.59,2.76.23,6.55.24,7.9.02,2.01-.32-7.69-1.73-10.95-1.59-1.31.06-13.06-.61-19.49-1.11-10.14-.78-10.57-.84-11.31-1.53-.39-.36-.63-.77-.54-.92.09-.14.91-.26,1.82-.27.91,0,1.66-.12,1.65-.26,0-.45,1.5-.97,2.81-.97h1.26s-.69-.74-.69-.74c-.74-.78-.75-1.92-.01-1.75.24.06,2.84.15,5.77.2,7.25.13,10.18.36,12.28.93,1.53.42,1.81.43,2.05.05.18-.29.85-.45,2.03-.47,2.54-.05,11.85.41,15.77.78,1.84.17,5.06.36,7.16.42,2.09.06,4.7.25,5.79.43.75.12,1.7.28,2.49.4v-11.95c-1.23-.12-2.08-.23-2.27-.3-.77-.29-6.26-.86-11.52-1.19-2.42-.15-3.06-.3-3.89-.93-2.11-1.57-.31-2.27,3.7-1.44,2.26.47,7.75.83,13.99.92v-10.91c-1.16.24-8.99.16-11.13-.14-1.24-.17-3.33-.17-5.38,0-2.72.23-3.61.19-4.64-.17-.7-.25-1.59-.45-1.98-.44-.42,0-.78-.23-.88-.57-.1-.31-.45-.81-.79-1.11-.33-.3-.6-.65-.6-.78,0-.51,18.34-.02,25.41.58V.43c-.72-.13-1.43-.28-1.97-.43h-14.27c-.59.05-1.26.12-2.13.22-1.39.15-2.67.19-2.86.07-.08-.05-.13-.16-.16-.29h-7.44c.83.49.19.93-2.01,1.04-6.59.31-8.37.27-8.19-.2h0c.09-.23-.02-.6-.23-.84h-2.65c.82.36,1.55.8,1.41.94-.23.23-6.66.54-10.12.49-1.75-.03-2.75-.19-3.28-.53h0c-.42-.27-1.11-.63-1.54-.79-.12-.05-.22-.08-.3-.11h-.35c-.06.09-.02.33.08.77l.21.96-3.79-.13c-2.08-.08-3.96-.24-4.18-.37-.78-.48.42-.76,3.25-.78,1.91-.01,2.72-.09,2.79-.44ZM914.15,81.89c-.07-.06,1-.11,2.38-.12,1.67,0,2.44.1,2.31.31-.18.29-4.33.12-4.69-.2ZM468.8,75.79c-.15.24-1.04.29-2.96.16-1.51-.1-3.28-.19-3.92-.18h0c-1.39,0-1.91-.74-.99-1.42.5-.37.62-.36.92.04.29.4,4.2,1,6.76,1.05.22,0,.3.16.19.35ZM475.37,75.76c0,.15-.62.28-1.37.28-.75,0-1.37-.1-1.37-.22,0-.13.62-.25,1.37-.29.75-.03,1.37.07,1.37.22ZM488.79,79.7c.38.06.76.28.83.51.09.28-.09.37-.56.31-.38-.06-.76-.28-.83-.5-.09-.28.09-.37.56-.31ZM486.65,79.96c0-.17.14-.31.3-.31.17,0,.31.14.31.3,0,.17-.14.3-.3.3-.17,0-.31-.14-.31-.3ZM480.49,79.69c.1-.97.2-1.04,1.12-.81.58.14.78.39.78.97,0,.69-.1.77-.99.68-.85-.08-.98-.2-.91-.83ZM502.77,74.64c0,.28-.27.81-.61,1.17-.6.65-.73.65-9.82.59-5.06-.04-9.55-.06-9.97-.05h0c-.42.01-1.04.04-1.37.05-2.05.12-4.41-.1-4.42-.41,0-.25.65-.29,2.26-.15,1.41.12,2.33.08,2.45-.11.11-.18,1.14-.25,2.54-.17,2.7.16,9.05.23,13.94.15,3.29-.06,3.39-.08,3.72-.82.39-.86,1.27-1.03,1.27-.25ZM67.3,47.1c0,.42-5.3.18-8.98-.41-3.87-.62-1.93-.81,3.69-.38,6,.46,5.29.36,5.29.78ZM40.19,41.61c-1.26.02-2.49-.09-2.74-.25-.57-.37,1.63-.38,3.65-.03,1.28.22,1.22.24-.91.28ZM70.34,43.04c-.42,0-.59-.07-.38-.15.21-.08.55-.09.76,0,.21.08.04.15-.38.16ZM101.14,8.6l-1.37-.13c-.75-.07-1.82-.04-2.37.08-.55.12-3.98.18-7.61.15-3.63-.04-7.29-.03-8.13,0h0c-2.34.11-3.44.09-10.79-.27-7.46-.36-25.69-.45-26.22-.12-.18.11-.97.11-1.75-.01-1.32-.2-1.37-.24-.66-.51,1.25-.48,14.51-.79,22.99-.52,4.35.13,13.74.25,20.86.27,11.52.02,13.06.08,14.01.54l1.07.52ZM121.15,33.2c0,.17-.49.31-1.08.31-.64,0-1.01-.12-.9-.3.1-.17.59-.31,1.08-.31.49,0,.9.13.9.3ZM142.61,33.77c-.19.3-12.46.18-15.9-.16-3.04-.3-1.58-.63,3.76-.85,6.22-.25,12.59.27,12.14,1ZM152.52,34.56c-.59,0-.83-.06-.53-.14.29-.08.77-.08,1.07,0,.29.08.05.14-.53.14ZM156.63,35.22c-.34.13-.95.08-1.36-.1l-.76-.33.86-.1c.47-.06,1.08-.01,1.36.1.45.18.44.23-.1.44ZM228.48,8.04c-1.13-.1-2.06-.29-2.06-.42,0-.33,5.87-.02,6.23.33.34.33-1.2.37-4.17.1ZM272.87,10.71c-.44.34-.94.41-1.83.26-.67-.11-1.77-.24-2.44-.29-1.94-.13-7.76-.74-9.59-1-1.61-.23-1.63-.24-.46-.32,1.12-.08,3.92-.02,8.07.14.92.04,2.63.08,3.81.1,2.55.04,3.36.4,2.44,1.11ZM278.5,11.55c-.42-.08-1.44-.24-2.26-.35-.82-.11-1.56-.38-1.63-.59-.1-.3.49-.35,2.68-.24,1.55.08,2.89.22,2.97.31.33.33-1.05,1.02-1.77.88ZM528.19,28.69c.85,0,1.55.12,1.55.28,0,.65-2.76.75-2.97.11-.09-.27.32-.38,1.42-.39ZM474.76,56.39c.63-.25,2.77.26,2.92.69.19.56-2.49.49-2.97-.07h0c-.3-.36-.29-.48.05-.62ZM456.74,55.25c0-.07.14-.22.3-.32.17-.1.3-.04.3.13,0,.18-.14.32-.3.32-.17,0-.31-.06-.31-.13ZM447.61,57.24c0-.17.58-.31,1.29-.3.95,0,1.17.08.84.3-.6.39-2.13.4-2.13,0ZM416.56,57.65c0-.14.2-.42.45-.63.37-.3.61-.28,1.23.13.74.48.83.47,1.85-.16.76-.47,1.03-.83.93-1.23-.08-.31.03-.71.25-.89.31-.25.6-.08,1.26.76l.87,1.09,3.51-.09c1.93-.05,3.68.02,3.88.14.58.36.45.75-.31.89-1.29.25-13.93.22-13.93-.03ZM411.55,54.55c.11-.18.38-.12.69.15.96.85,3.27.77,3.55-.11.1-.34.4-.61.66-.61.26,0,.81-.27,1.23-.61,1.16-.92,1.52-.36.43.66-.55.51-.95,1.2-.95,1.61,0,.85-.44,1.1-1.63.92-.48-.08-1.19-.14-1.58-.13-.82,0-2.66-1.43-2.4-1.87ZM410.13,55.82c1.3,0,1.55.08,1.55.55,0,.31-.09.65-.2.76-.32.32-.95.24-1.08-.14-.06-.19-.44-.36-.84-.38-.4-.02-.78-.21-.85-.42-.09-.27.32-.38,1.42-.38ZM391.2,57.21c.2.2-.49,1.1-.85,1.1-.14,0-.33-.13-.43-.29-.2-.32,1-1.08,1.27-.81ZM353.02,62.8c.1-.1.36-.11.58-.03.24.1.17.17-.18.19-.32.01-.5-.06-.4-.16ZM330.68,56.66c.18,0,.32.14.32.3s-.06.3-.13.3-.22-.14-.32-.3-.04-.3.13-.31ZM315.65,62.01c1.55-.24,1.93-.07,1.36.62-.41.5-.96.57-2.06.28-1.09-.29-.8-.67.7-.89ZM218.43,47.8c.4-.23.66-.23.9,0,.25.25.09.33-.56.33-.79,0-.83-.05-.34-.34ZM214.66,45.98c0-.38,6.66-.07,8.14.38.57.17,1.15.64,1.37,1.1.37.76.51.8,3.28.89,1.99.07,3.03.23,3.33.53.38.38.34.48-.3.74-.41.17-1.22.23-1.81.13-.59-.1-2.23-.22-3.65-.26-3.54-.12-4.44-.41-4.33-1.42.11-1.04-.26-1.22-2.65-1.28-2.24-.06-3.38-.33-3.38-.8ZM210.69,46.81c.49-.45.76-.48,1.53-.22.52.18,1.14.52,1.38.76.29.29.84.39,1.59.3,1.33-.16,2.08.22,1.81.92-.23.6-.6.61-2.51.06h0c-.83-.24-2.15-.52-2.95-.63-1.6-.23-1.73-.4-.85-1.19ZM208.87,45.26c0-.54.65-.45.84.12.07.2-.1.36-.36.36-.27,0-.48-.21-.48-.48ZM184.42,45.64c.52.2.52.24-.05.67-.45.33-1.01.4-2.13.25-.84-.11-1.58-.25-1.65-.32-.46-.42,2.92-.96,3.84-.6ZM171.87,45.87c.25-.41,7.06-.46,7.31-.06.39.64-6.74,1.15-7.36.53-.08-.08-.06-.29.05-.47ZM164.19,45.29c.86-.33,2.67.08,2.67.6,0,.36-2.46.35-3.03,0h0c-.36-.23-.29-.34.37-.59ZM193.95,42.9c0,.47-1.06.88-1.53.59-.18-.11-.65.02-1.06.29-.4.27-1.21.49-1.79.49-1.32,0-1.57.36-.75,1.1.49.44,1.02.55,2.37.48,1.81-.09,3.39.3,3.39.85,0,.2-1.05.28-2.97.21-2.74-.1-3.08-.18-4.41-1.07-.79-.53-1.51-1.08-1.6-1.23-.19-.31-3.48-.43-7.32-.27-1.51.06-3.36.09-4.11.06-2.48-.09-11.07-.29-13.55-.32-3.28-.03-8.14-.56-8.51-.92-.34-.33-.4-.32,2.94-.46,1.3-.06,2.98-.34,3.74-.63,1.22-.47,1.75-.49,4.34-.21,1.63.18,3.36.3,3.87.28.5-.02,3.7-.02,7.11,0,5.91.04,6.2.07,6.35.65.13.49.41.6,1.42.59l1.26-.02-.91-.42c-1.02-.46-.9-.53,1.06-.62,6.26-.28,10.66-.04,10.66.59ZM202.05,45.69c-.43.34-.78.84-.78,1.11,0,.33-.27.49-.84.5-.46,0-1.04.14-1.29.3-.57.37-.93.26-1.35-.4h0c-.41-.65.1-1.03,1.74-1.31.65-.11,1.1-.34,1.03-.54-.16-.46-3.16-.24-4.23.31-.75.39-.93.37-1.83-.17-.55-.33-.97-.69-.93-.79.04-.1.96-.22,2.03-.26s2.14-.22,2.36-.4c.29-.23.95-.21,2.34.07,2.43.5,2.75.79,1.74,1.59ZM204.79,45.12c-.32.01-.5-.06-.4-.16.1-.1.36-.11.58-.02.24.1.17.17-.18.18ZM207.47,47.94c-.22.35-2.48.31-2.7-.05h0c-.1-.17-.66-.3-1.24-.3-1.1,0-1.48-.68-.57-1.03,1.75-.68,5.14.37,4.51,1.39ZM214.96,42.98c0,.17-.06.3-.13.3-.07,0-.22-.14-.32-.3s-.04-.3.13-.31c.18,0,.32.14.32.3ZM231.16,47.17c-.98.72-1.51.5-.77-.32h0c.79-.88.28-1.05-3.65-1.28-5.8-.34-7.95-.51-8.19-.66-.13-.08-2.04-.21-4.27-.29-3.62-.13-4.64-.19-5.94-.35-.21-.03-.38-.18-.38-.35,0-.19,1.67-.3,4.49-.29,2.47,0,4.72-.08,5-.19.28-.11.81-.04,1.18.15.37.2,1.17.4,1.78.46.61.06,2.47.25,4.15.43,1.67.18,3.93.35,5,.38,1.85.05,1.97.1,2.18.89.19.69.09.93-.58,1.42ZM233.55,48.42c.25-.01,1.39.25,2.54.58,2.45.69,8.51.94,9.08.37.24-.24.53-.26.9-.06.71.38,5.23.15,5.37-.27.06-.17-.04-.41-.22-.52-.56-.35-.35-.77.4-.77.88,0,1.49.65,1.23,1.33-.12.31-.03.5.22.52.23.01,1.99.15,3.91.31,1.93.16,4.5.36,5.71.44,2.19.15,2.84.49,1.53.81-.38.09-1.91.18-3.4.2-1.5.02-2.75.07-2.79.11-.08.08-3.26,0-8.65-.18-1.93-.07-4.46-.27-5.63-.45-1.17-.18-2.31-.25-2.54-.17-.61.23-8.66-.7-9.01-1.04-.34-.34.6-1.19,1.34-1.21ZM260.81,48.35h0c-.1-.15-.06-.36.09-.44.38-.24,2.49.15,2.49.46,0,.36-2.35.35-2.57-.01ZM250.43,48.08c-.23.37-1.05.37-1.05,0h0c0-.41.55-.7.92-.48.17.1.23.32.14.47ZM247.46,48.22h0c-.03-.16.18-.34.47-.4.33-.06.53.08.53.4,0,.53-.9.54-1.01,0ZM234.45,46.01c0,.35-1.43.36-1.65.01h0c-.09-.14-.09-.33-.01-.41.24-.24,1.66.1,1.66.4ZM236.62,47.49c-.17,0-.39-.14-.49-.3-.1-.17-.05-.3.11-.3.17,0,.39.13.49.3.1.17.05.31-.11.31ZM287.43,48.11c-.29.35-.47.38-.81.1-.28-.23-.33-.46-.13-.65.16-.16.53-.21.81-.1.42.16.44.28.13.65ZM324.88,48.45c0,.17-.35.31-.78.31-.44,0-.7-.13-.59-.3.1-.17.45-.3.78-.31.33,0,.59.13.59.3ZM324.31,12.56c-.25.41-2.95.22-3.09-.21-.16-.49,1.91-.82,2.66-.42.34.18.54.47.44.64ZM326.32,12.52c-.85,0-1.54-.13-1.54-.3,0-.17.61-.31,1.35-.31.74,0,1.44.13,1.54.3.12.19-.4.31-1.35.31ZM330.95,46.34c-.32.6-1.5.82-1.5.28,0-.17-.21-.31-.46-.3-.25,0-.46.2-.46.43,0,.63-1.04,1.02-1.35.51-.1-.15.1-.37.44-.48.74-.24.79-.63.12-.89-.41-.16-.43-.27-.09-.67.29-.35.73-.44,1.57-.33,1.55.2,2.14.7,1.74,1.46ZM335.03,46.9c-.69.65-2.23.53-2.24-.18,0-.23-.28-.59-.61-.8-.81-.5-.77-.84.08-.84.86,0,3.12,1.49,2.77,1.82ZM345.42,47.95c-.4-.26-1.08-.47-1.52-.47-.98,0-.86-.71.14-.86,1.03-.15,2.06.18,2.27.73.32.82-.12,1.11-.9.6ZM369.09,20.64c-.22.36-3.8.38-4.37.02-.23-.15-.32-.43-.19-.63.16-.27.79-.31,2.25-.16,2.21.23,2.57.35,2.31.78ZM389.51,21.29c-1.17-.09-2.75-.18-3.5-.2h0c-.75-.02-2.4-.02-3.65.01-4.45.1-10.21-.07-10.6-.3-1.26-.78,1.96-1.19,9.68-1.24.75,0,2.74.1,4.41.23,1.67.13,4,.26,5.18.28,1.17.02,2.34.17,2.59.32.83.51-1.74,1.07-4.11.9ZM408.37,20.44l-.42.84-4.93-.05c-4.56-.05-4.98-.1-5.57-.69l-.64-.64,3.5-.03c6.06-.05,7.55-.12,7.78-.35.49-.49.67.12.28.92ZM434.48,21c-.26.16-13.99.29-14.8.14-.63-.12.58-.97,1.39-.97.49,0,1.17-.15,1.5-.33.43-.23.9-.23,1.63.01.57.18,2.51.39,4.33.45,3.95.14,6.39.43,5.96.69ZM444.76,20.4c0,.17-.2.3-.46.31-.25,0-.46-.14-.46-.3,0-.17.2-.31.45-.31.25,0,.46.14.46.3ZM486.48,23.02c0,.17-.65.3-1.44.3-1.05,0-1.32-.08-.99-.3.6-.39,2.43-.4,2.44,0ZM488.88,23.35c-.54.35-.87.34-.87-.01,0-.42.56-.69.94-.46.23.15.21.29-.07.47ZM507.08,17.07c.08.25-1.09.33-4.18.3-2.36-.02-4.36.07-4.45.21-.08.14-.26.18-.4.09-.14-.08-1.7-.17-3.48-.19-2.09-.02-3.42-.17-3.77-.43-.85-.62-.21-.88,1.31-.53.87.2,2.27.22,3.73.06,3.03-.33,11.07.02,11.23.48ZM497.9,23.29c-.1.17-.51.31-.91.31-.4,0-.81-.13-.92-.3-.11-.18.26-.31.91-.31.66,0,1.03.12.91.3ZM496.91,18.83c-.08-.24.3-.33,1.19-.27,1.68.11,1.7.11,1.16.47-.59.39-2.2.25-2.35-.2ZM508.27,19.26c-.19.3-2.83.17-3.21-.16-.29-.25.77-.69,1.66-.7,1.1,0,1.83.4,1.55.86ZM508.65,54.05c1.34.17,3.53.37,4.87.44,2.86.15,3.81.33,3.81.7,0,.16-3.78.2-9.21.1-5.07-.1-11.13-.17-13.47-.17h-4.26s-.4.85-.4.85c-.24.51-.64.84-1.02.84-.52,0-.59-.14-.43-.84l.18-.85h-2.3c-1.38.01-2.26.13-2.19.31.06.17.72.26,1.47.21.92-.06,1.49.06,1.75.36.48.57.06.86-1.63,1.15-2.12.36-2.9.31-3.09-.19h0c-.11-.28.06-.66.39-.9.47-.35.5-.5.17-.82-.28-.29-1.57-.41-4.51-.43-3.42-.03-4.21-.12-4.7-.56-.41-.37-.83-.46-1.43-.31-2.14.53-4.06.71-5.27.49-.82-.15-2.27-.08-3.87.18-2.52.41-3.75.37-5.26-.19-.56-.21-1.23-.12-2.51.32-1.71.59-1.78.6-3.46.04-1.02-.33-2.13-.49-2.73-.39-1.33.22-3.09-.6-3.22-1.5-.16-1.1-1.88-1.35-6.95-.97-1.59.12-3.99.19-5.33.17-2.08-.03-2.51-.13-2.93-.67-.64-.82-1.63-.52-1.39.42.16.61.1.63-1.41.42-.87-.12-1.72-.2-1.88-.18s-4.89.12-10.5.21c-5.61.09-10.78.25-11.49.36-1.28.2-1.29.19-1.3-.71,0-.5-.19-.98-.42-1.07-.46-.17-1.1.33-1.1.86,0,.18-.43.59-.96.9-.92.54-.93.59-.38.99.32.23.82.36,1.12.28.6-.16,6.96.33,7.18.55.08.08-.25.45-.73.83-.86.69-3.1,1.24-4.85,1.2-.5-.01-2.08-.04-3.5-.05-1.42-.02-2.76-.17-2.97-.34-.28-.23-.55-.17-.94.19-.79.71-1.77.64-1.97-.16-.15-.58-.23-.61-.69-.23-.42.35-2.3.45-9.53.54-7.69.09-9.16.18-10.01.61-.74.38-1.08.42-1.34.17-.26-.25-.24-.46.04-.81.34-.42.15-.47-1.72-.47-1.16,0-2.24.14-2.4.3-.18.18-1.04.17-2.34-.05-1.91-.32-2.14-.3-3.32.34-1,.54-1.33.6-1.52.29-.18-.29-1.01-.36-3.15-.28-1.99.08-3.05,0-3.36-.26-.25-.2-.45-.24-.45-.08,0,.45-3.64.4-5.18-.07-1.09-.34-1.74-.35-3.2-.08-2.13.4-4.11.38-5.26-.06-.45-.17-2.19-.3-3.87-.29-3.66.02-9.04-.36-9.56-.68-.2-.12-.57-.06-.81.14-.26.22-.89.3-1.58.2-.63-.09-3.75-.23-6.93-.31-9.15-.22-15.77-.6-16.64-.97-.47-.19-1.53-.26-2.51-.16-1.13.12-1.85.06-2.15-.19-.29-.24-.87-.3-1.65-.17-.75.13-1.78.04-2.76-.25-1.17-.34-1.75-.38-2.27-.14-.54.25-.93.21-1.7-.19-.71-.36-1.36-.46-2.28-.32-.71.11-2.5.06-3.99-.11-1.49-.17-4.08-.35-5.76-.4-1.68-.05-3.36-.25-3.73-.46-.41-.22-1.12-.29-1.75-.17-1.44.27-3.19-.08-3.19-.64,0-.8,1.33-1.17,2.85-.79.75.19,2.11.34,3.02.34.9,0,2.09.21,2.63.48.91.45,1.02.45,1.58-.06.66-.6.34-1.03-.79-1.04-.34,0-1-.21-1.48-.46-.48-.25-1.17-.45-1.52-.46-1.1,0-2.02-.35-2.02-.75,0-.63-2.33-.84-3.17-.29-.66.43-.77.43-1.25-.05-.49-.49-.54-.49-.81-.01-.38.68-1.07.65-1.46-.06-.23-.43-.66-.58-1.76-.59-.8,0-2.16-.08-3.02-.16-1.97-.18-2.85.04-2.85.73,0,1.11-1.72,1.22-2.96.18-.78-.66-1.2-.74-3.91-.79-3.25-.06-4.15.13-3.89.81.28.73-.84.5-1.54-.31-.5-.58-1.07-.79-2.47-.95-1-.11-1.93-.35-2.07-.54-.13-.18-.15.04-.04.5.25,1.07-.35,1.11-1.82.12-1.25-.84-1.13-1.1.48-1.1.64,0,1.17-.14,1.17-.31,0-.44.84-.38.99.07.08.25.85.39,2.23.41,1.16.02,6.7.11,12.31.19,14.68.23,17.88.48,17.74,1.37-.1.64,1.68,1.12,3.08.83.67-.14,1.38-.12,1.72.06.31.17.96.3,1.43.31.47,0,1.05.12,1.29.27.44.28,1.85-.19,1.85-.61,0-.12-.82-.32-1.83-.43-1.01-.11-1.9-.31-1.97-.44-.29-.47,2.16-.59,3.8-.19.92.22,1.44.42,1.14.44-.89.06-.59.8.48,1.19.56.2,1.7.36,2.53.36,1.48,0,2.93.63,2.47,1.08-.12.13-2.18.09-4.57-.08-4.22-.3-5.1-.26-5.1.22,0,.23,2.33.75,2.85.64.14-.03,1.34.09,2.66.27,1.72.23,2.74.23,3.63-.01,1.22-.33,1.92-.22,5.6.91.61.19,1.19.13,1.92-.17,1.01-.42,1.14-1.06.22-1.06-.43,0-.61-.64-.26-.99.1-.1.67.03,1.27.27,1.27.53,4.76.28,4.56-.32-.12-.36-.37-.4-4.33-.59-2.11-.1-5.39-.52-7.7-.97-1.18-.23-.51-.58,1.05-.54,2.39.06,7.12.42,9.09.69,1.49.2,1.89.16,2.19-.22.33-.42.49-.42,1.63.03.78.31,1.99.48,3.14.44,1.03-.03,2.15.02,2.48.12.6.18,6.52.57,7.53.5,1.05-.08,2.53-.07,3.73.03,1.01.08,1.21.2,1.15.71-.11,1,.52,1.92,1.19,1.75.34-.09.87.1,1.26.45.87.78,1.8,1.25,2.53,1.28.32.01,4.21.07,8.65.12,4.44.06,8.71.19,9.5.3,1.09.15,1.65.06,2.35-.36.89-.53.98-.53,2.43,0,1.16.42,1.65.46,2.13.2.39-.21,1.35-.27,2.55-.15,1.5.15,2.15.08,2.91-.32,1.1-.57,1.22-1.63.17-1.43-1.44.27-4.83.34-5.13.1-.36-.28-2.72-.2-4.38.15-.7.15-1.16.07-1.52-.25-.37-.33-1.25-.47-2.96-.5-3.07-.04-6-.17-6.39-.29-.17-.05-.89-.07-1.61-.05-1.07.03-1.35.17-1.57.76-.35.92-1.09,1.21-1.94.75-.64-.35-.63-.37.33-.62,1.17-.31,1.27-.76.25-1.15-.68-.26-2.56.05-3.37.56-.17.1-.52.15-.79.11-.27-.04-.66.13-.87.39-.53.65-1.12.59-2.24-.21-.53-.37-1.37-.82-1.88-.98-.51-.17-.89-.44-.86-.61.08-.38,2.81-.83,3.43-.57.25.11,1.42.24,2.59.3,1.17.06,2.47.14,2.87.17.57.05.79-.11.92-.7.16-.69.36-.77,1.91-.86,1.78-.1,2.97.28,2.97.95,0,.35,1.65.39,5.18.12.25-.02,1.08.07,1.84.19,1.09.17,1.47.12,1.79-.26.54-.65,1.11-.61,1.85.12.87.86,1.59.8,1.35-.12-.17-.67-.08-.74,1.09-.85,2.08-.21,3.39.04,3.28.61-.07.38-.38.48-1.31.41-.91-.06-1.1,0-.76.23.25.17,1.17.31,2.03.31,1.4,0,1.59-.08,1.67-.67.06-.46.4-.77,1.05-.95.55-.16,1.1-.59,1.29-1.02.36-.8,1.01-.69.88.15-.09.56-.02.57,3.09.05,1.32-.22,2.06-.22,2.27-.02.17.17,1.41.32,2.76.34,3.85.04,6.35.35,6.49.8.1.31-.14.35-1.04.18-.65-.12-1.38-.2-1.63-.17-.25.02-1.48.05-2.74.05-1.26,0-2.49.14-2.73.3-.32.21-.62.14-1.02-.22-.53-.48-.59-.48-1.01.09-.4.55-.37.62.41.84.47.13,2.63.28,4.81.33,5.81.12,5.87.13,5.83.55-.02.21.08.42.24.46.39.11.51-1.44.16-2.08-.21-.39-.16-.58.19-.71.26-.1.62-.1.79,0,.17.11,3.36.16,7.08.12,6.89-.07,8.1.08,8.88,1.1.36.47.4.47.41.02,0-.27.32-.58.69-.67.86-.21,4.06-.03,4.53.26.19.12,2.08.23,4.19.24,2.98.02,3.92-.07,4.18-.41.29-.37.52-.36,1.61.07.7.28,1.55.5,1.9.5.99,0,.49.76-.51.79-2.6.08-3.17.17-3.17.47,0,.24.89.28,2.93.14,1.97-.13,3.27-.08,3.95.17.56.2,1.12.26,1.25.13.31-.31-.77-1.09-1.82-1.3-.46-.09-.76-.28-.68-.41.15-.25,6.44-.18,12.8.14,2.11.11,3.88.04,4.74-.18,1.03-.26,1.98-.26,3.79-.01,1.33.19,5.55.39,9.4.45,3.84.06,7.11.23,7.26.38.15.15,1.06.2,2.02.11,1.92-.18,3.14.24,3,1.04-.06.36.25.57,1.12.75.66.14,1.39.18,1.62.09.62-.24.13-.77-.71-.77-.46,0-.74-.17-.74-.45,0-.25.03-.46.07-.47.04,0,1.11-.09,2.39-.18,2.13-.16,2.38-.11,3.2.57.8.67,1.86,1.02,3.63,1.21.42.04.64-.14.7-.62.12-.83,1.11-.92,1.94-.18.49.45.65.45,1.37.07.82-.44,4.39-.5,5.07-.08.19.12,1.45.23,2.8.26,3.31.06,6.49.37,9.55.91,1.4.25,2.86.37,3.25.27.39-.1,2.05-.05,3.7.1,1.65.16,5.32.35,8.17.44,2.85.09,6.27.3,7.61.47ZM329.33,52.07c.1-.16.31-.21.47-.11.16.1.21.31.11.47-.1.16-.31.21-.47.11-.16-.1-.21-.31-.11-.46ZM345.52,52.11c.41.34.38.41-.26.59-1.21.34-1.79.29-1.79-.15,0-.6,1.47-.91,2.05-.44ZM293.53,50.07c1.35,0,1.58.35.53.83-.71.33-1.75.01-1.75-.53,0-.16.55-.29,1.22-.3ZM510.97,16.96l-.91.22c-1.33.32-1.37.32-1.37.01h0c0-.5.61-.7,1.46-.46l.82.23ZM511.29,19.28c-.16.26-1.07.12-1.07-.17,0-.07.28-.12.63-.12.34,0,.55.13.45.29ZM534.12,19.84c-.22.36-1.77.42-2.11.08h0c-.34-.34-4.22-.52-8.04-.37-2.46.1-2.34.13-2.63-.82-.19-.61-.11-.68.72-.69,1.15,0,1.27-.78.15-.99-1.28-.24-3.43.12-3.62.61-.11.28.06.51.44.61,1.21.31.58.7-1.14.69-.96,0-2.02.03-2.36.08-.46.07-.63-.11-.71-.75-.09-.74-.23-.84-1.17-.83-.63,0-1.03-.13-.96-.33.06-.18.21-.32.33-.31.12.01.63.02,1.13.02.61,0,.91.15.91.45,0,.31.35.47,1.07.5.59.03,1.3.06,1.57.07.32.01.53-.23.56-.66.03-.38.14-.78.25-.89.11-.11,1.36,0,2.77.24,1.41.24,2.84.34,3.18.21.95-.35,5.38.13,5.29.57-.05.25.38.37,1.32.37,1.14,0,1.56.16,2.31.9.5.5.83,1.05.72,1.22ZM767.88,48.57c1.25.1,2.49.31,2.74.47.6.39-3.37.07-4.33-.35-.5-.21-.04-.25,1.59-.12ZM746.04,31.11c.43,0,.78.14.78.3,0,.17-.26.31-.59.31-.33,0-.68-.14-.78-.3-.11-.17.15-.3.59-.31ZM718.4,47.73c-1.69-.18-2.88-.19-3.11-.01-.21.16-.8.18-1.37.04-.55-.13-1.76-.28-2.68-.32-1.57-.07-4.22-.25-5.12-.34-.72-.07-.04-.65.79-.67.48-.02.63-.1.36-.2-.57-.21-.93-.73-.73-1.06.28-.46,2.09-.25,4.23.5,1.44.5,2.48.69,3.21.57.77-.12,1.19-.04,1.48.3.34.41,1.07.45,5.16.29,3.83-.15,5.85-.06,10.25.46,3.02.35,5.69.64,5.94.63,1.44-.03,3.65.35,3.66.63,0,.23-.96.26-3.12.11-1.72-.12-4.63-.26-6.47-.31-8.09-.24-9.9-.33-12.48-.62ZM733.75,36.4c0,.4-3.61.09-4.05-.35-.24-.24-.04-.33.72-.33,1.65,0,3.33.34,3.34.68ZM733.44,34.24c-.56.19-3.96-.09-3.97-.33,0-.33,2.65-.67,3.53-.45.75.18.97.59.44.78ZM727.2,36.03c-.25,0-.46-.2-.46-.45,0-.27.18-.38.46-.27.25.1.46.3.46.45,0,.15-.21.27-.46.27ZM722.4,36.32c-1.26-.02-1.44-.08-.84-.27,1.1-.36,2.43-.36,2.44,0,0,.17-.71.29-1.6.28ZM715.97,36.32c-2.84,0-3.55-.1-4.39-.61-.83-.5-1.08-.54-1.47-.22-.57.47-1.02-.05-1.03-1.18,0-.67.08-.7,2.05-.62,1.82.08,2.05.15,2.06.69,0,.4.24.64.69.71.55.08.79-.13,1.14-.99.25-.6.5-1.09.56-1.09.34,0,3.21,1.39,3.96,1.91,1.45,1.02.47,1.4-3.58,1.4ZM719.03,77.09c.15-.43,2.02-.36,2.49.09.18.17-.28.28-1.17.28-1.03,0-1.42-.11-1.33-.38ZM699.17,81.02c0-.42.68-.59,2.28-.55,13.47.32,17.66.62,22.61,1.58,1.91.37,2.59,1.03.81.77-.65-.09-2-.25-3.01-.35-2.36-.23-5.05-.33-14.01-.55-8.1-.2-8.68-.26-8.68-.91ZM699.03,35.15c0-.37,2.05-.33,2.76.05.87.46,1.9-.16,1.63-.99-.13-.42-.09-.56.14-.42.19.11.34.39.34.62,0,.6,1.75,1.14,2.47.75.74-.4.74-.9,0-.9-.69,0-1.39-.75-1.11-1.2.3-.49.93-.38,1.53.29.3.33.74.61.96.61.48,0,.55.49.11.76-.49.3-.35.71.31.91.73.23.48.85-.26.64-.28-.08-2.39-.3-4.7-.5h0c-2.3-.2-4.19-.48-4.19-.62ZM699.76,32.76c1.21,0,2,.25,2.01.64,0,.32-.35.33-1.9.08-1.43-.23-1.5-.71-.1-.72ZM690.5,32.48c0-.17.27-.31.61-.31.33,0,.61.13.61.3,0,.17-.27.31-.61.31-.34,0-.61-.13-.61-.3ZM686.02,42.67c1.06.23,2.44.51,3.06.61.63.11,1.14.34,1.14.52,0,.21-.41.25-1.14.13-.63-.11-1.76-.26-2.51-.34h0c-2.21-.24-2.74-.41-2.74-.89,0-.55-.16-.54,2.19-.03ZM669.94,80.53c0-.36.87-.41,5.4-.28,6.17.17,7.74.36,7.93.95.12.34-.43.38-3.17.22-1.82-.11-4.55-.25-6.05-.32-1.51-.07-3.05-.13-3.43-.13-.39,0-.69-.19-.69-.43ZM680.39,31.9c-.28,0-.6-.13-.71-.3-.24-.38.16-.39.76,0,.39.25.39.29-.06.3ZM611.96,34.84c0-.17.31-.29.68-.29.65.02.66.03.08.28-.33.15-.64.27-.69.28-.04.01-.08-.11-.08-.28ZM597.62,72.03c.73,0,1.05.14,1.05.45,0,.47-1.05.62-1.95.28-.77-.29-.24-.73.9-.73ZM592.83,34.21c.08-.6.27-.69,1.47-.68,2.75.01,7.64.42,8.98.76.95.24,1.49.25,1.76.03.52-.43,5.01-.28,5.48.18.71.7-.43.95-4.42.97-2.49,0-4.09-.12-4.47-.35-.42-.26-.78-.27-1.29-.04-.44.2-1.33.23-2.38.09-.92-.13-2.47-.24-3.45-.25-1.66-.02-1.77-.06-1.68-.7ZM583.33,33.98c0-.19.5-.31,1.14-.28,1.63.07,1.76.03,1.35-.38-.44-.44-.48-.85-.07-.85.16,0,.45.28.63.63.44.82-.16,1.62-1.05,1.38-.35-.09-.94-.17-1.32-.17-.38,0-.69-.15-.69-.33ZM581.91,33.35c.1-.24.17-.17.18.18.01.32-.06.5-.16.4-.1-.1-.11-.36-.03-.58ZM576.11,32.62c-.18-.55,1.43-.7,2.54-.23.56.23,1.02.5,1.02.59,0,.32-3.46-.02-3.57-.35ZM552.19,70.79c.17-.45.49-.5,2.4-.33,1.21.1,5.16.24,8.78.31,7.19.12,8.98.45,7.98,1.46-.21.22-7.77.08-14.89-.26-3.97-.19-4.58-.36-4.27-1.18ZM566.48,32.06c-.22.57-3.08.68-3.42.13-.4-.64.84-1.23,2.15-1.03,1.42.22,1.52.28,1.28.9ZM551.14,31.48h0c.1-.1.36-.11.58-.03.24.1.17.17-.18.19-.32.01-.5-.06-.4-.16ZM560.76,17.18c0,.28-.15.46-.33.4-.18-.06-.33-.24-.33-.4,0-.16.15-.34.33-.4.18-.06.33.12.33.4ZM568.37,19.46c0,.15-.31.28-.68.29-.38,0-.89.14-1.14.31-.25.17-.73.24-1.06.17-.34-.08-4.45-.21-9.14-.29-4.77-.09-8.88-.29-9.34-.47-.51-.2-1.02-.21-1.37-.04-.31.16-1.69.19-3.15.07-1.42-.11-3.58-.13-4.8-.04-1.84.14-2.21.09-2.21-.3,0-1,.77-1.22,3.05-.87,1.19.18,2.27.27,2.4.19.27-.17,11.78-.25,15.71-.11,1.51.06,3.22.25,3.81.44.6.19,1.69.26,2.5.15,1.72-.23,5.42.11,5.42.5ZM570.66,31.88c.78.85.08.98-2.48.47-.38-.07-.69-.34-.69-.59,0-.71,2.5-.61,3.17.12ZM577.41,19.58c.15.43-1.7,1.03-2.64.85-.42-.08-1.76-.21-2.97-.3-1.61-.11-2.21-.27-2.21-.58,0-.27.34-.42.92-.43.51,0,1.16-.15,1.45-.33.39-.24.77-.22,1.44.07.5.22,1.59.4,2.41.4.82,0,1.54.14,1.6.31ZM584.59,20.48c-2.64-.11-5-.25-5.25-.33-.25-.07-.62-.38-.81-.69-.33-.53-.21-.56,1.98-.6,1.28-.02,2.74.09,3.24.23.5.15,1.98.44,3.27.64,3.92.61,2.8.96-2.43.74ZM616.54,20.83c-.78,0-1.59.11-1.78.23-.57.37-14.88.25-18.66-.16-1.91-.21-3.86-.29-4.33-.2-1.09.22-1.78-.04-1.58-.59.12-.32.59-.39,1.88-.29,6.26.5,13.79.62,18.47.3,3.85-.26,3.71-.26,6.01-.04,2.06.2,2.05.72-.02.73ZM622.73,23.45c2.35.06,7.35.15,11.11.2,3.77.05,8.08.23,9.59.4,1.51.17,4.39.44,6.4.6,10.22.83,18.47,2.01,19.18,2.76.23.24-.33.28-1.97.15-1.26-.1-4.34-.26-6.85-.35-2.51-.09-4.91-.17-5.33-.16-.42,0-2.06-.13-3.66-.3-1.59-.17-3.71-.28-4.72-.25-1,.03-4.36-.14-7.46-.38-12.81-.99-16.24-1.1-17.31-.56-.77.39-1.5.46-3.33.31-1.29-.1-5.41-.24-9.15-.31-9.01-.17-16.49-.86-16.72-1.55-.13-.4.78-.38,9.21.22,3.79.27,8.04.09,14.46-.63,1.26-.14,4.2-.21,6.54-.15ZM630.56,20.78c-.75.47-5.88.11-6.46-.46-.39-.38.05-.44,3.27-.44,3.62-.01,4.33.19,3.19.9ZM645.41,20.78c0,.16-2.57.23-6.09.17-3.35-.06-6.06-.23-6.01-.37.04-.15,2.2-.29,4.8-.31,2.59-.02,5.1-.15,5.56-.28.83-.23,1.75.18,1.75.79ZM649.54,21.01c-.32.01-.5-.06-.4-.16.1-.1.36-.11.58-.02.24.1.17.17-.18.18ZM708.61,28.78c2.57.31,4.39.75,4.78,1.14.16.16.88.22,1.61.13.73-.08,2.19-.02,3.25.16,1.06.17,3.54.48,5.49.69,1.96.21,3.5.48,3.42.61-.08.13-2.08.22-4.46.21-3.83-.02-4.5-.1-5.94-.73-.89-.39-1.86-.71-2.15-.7-.49.01-.49.04,0,.42.29.22.53.48.53.58,0,.35-4.43-.17-4.9-.58-.31-.27-1.9-.52-4.42-.71-2.16-.16-5.07-.44-6.46-.62-1.39-.18-2.61-.26-2.69-.17-.4.4.31.74,1.86.89,3.52.35,2.25.67-3.33.85-5.73.18-5.79.17-6.57-.52-.74-.66-.96-.69-3.28-.49-2.43.21-2.9.06-2.15-.7.57-.58-.04-1.08-1.1-.9-1.18.19-6.52-.43-10.35-1.21-1.95-.4-2.77-.7-2.83-1.04-.08-.42.28-.46,2.74-.36,1.56.07,4.2.16,5.88.21,7.37.22,13.1.51,13.38.68.16.1,1.54.28,3.05.41,1.52.12,4.95.51,7.63.86,2.68.35,5.83.75,7,.89ZM778.78,30.4c0,.3-5.67.33-7.25.03-1.05-.2-1.82-.2-2.17-.01-.3.16-3.16.33-6.35.37-3.19.04-5.75.17-5.68.28.07.11,1.61.38,3.41.58,3.94.45,5.97,1.31,4.58,1.94-.53.24-6.98-.11-7.55-.41h0c-.26-.14-.67-.64-.92-1.11-.76-1.46-1.63-1.76-1.92-.66-.13.52-.31.61-.87.44-.39-.12-1.26-.33-1.94-.47-.68-.14-1.36-.29-1.52-.34-.16-.04-.79.02-1.4.14-.63.13-1.47.08-1.97-.1-.48-.18-3.75-.38-7.27-.45-3.69-.07-7.49-.31-8.99-.57-1.43-.25-4.37-.65-6.55-.88-2.18-.24-4.78-.57-5.79-.73-1.01-.16-2.58-.38-3.5-.48-2.24-.24-2.74-.4-2.74-.89,0-.79,8.13-1.17,11.72-.55,1.17.2,3.44.56,5.03.8,1.59.24,3.29.52,3.78.63.8.18.87.14.71-.47-.17-.64-.11-.66,1.24-.48.78.1,2.07.39,2.86.64,1.85.58,2.8.45,2.92-.41.09-.63.2-.65,2.44-.5,1.29.09,2.59.29,2.9.45.39.2.78.14,1.3-.21.59-.39.99-.43,1.88-.2,1.97.5,8.96,1.28,11.26,1.26,1.21-.01,2.74.17,3.4.4s1.28.33,1.38.23c.35-.35,3.74-.1,4.59.34.57.29,1.07.35,1.54.17.4-.15,2.01-.13,3.84.05,2.75.28,3.59.54,3.6,1.15ZM783.48,33.5c-.25.4-16.84.12-17.26-.29-.55-.54,2.4-.7,9.62-.52,4.05.1,7.47.25,7.6.33.13.08.15.29.04.47ZM836.36,91.52c-1.51-.08-2.95-.27-3.2-.41-.53-.29,4.03,0,5.18.34.42.12-.47.15-1.98.07ZM934.85,3.77c-.45,0-.9-.13-1.01-.3-.24-.39.77-.39,1.37,0,.36.23.28.29-.36.3ZM933.82,23.66c.29-.08.77-.08,1.06,0,.29.08.05.14-.53.14s-.83-.06-.53-.14ZM918.35,42.66c2.21.17,2.76.12,3.2-.27.29-.26,1.13-.52,1.87-.58.74-.05,1.39-.24,1.45-.41.06-.17-.86-.91-2.04-1.64-1.18-.73-2.14-1.48-2.14-1.66,0-.18-.09-.66-.2-1.06l-.2-.73,2.1.18c6.22.53,9.61,1.36,9.82,2.39.11.56-.31.79-2.83,1.53-1.53.45-1.59.53-2.17,2.63-.1.35-1.07.4-5.45.29-3.62-.09-5.45-.25-5.7-.5-.29-.29.2-.33,2.3-.16ZM930.7,23.48c-1.09,0-1.53-.05-.99-.12.54-.07,1.43-.07,1.98,0,.54.06.1.12-.99.13ZM913.98,23.12c-.07-.06.37-.11.99-.11s1.12.13,1.12.29c0,.26-1.76.11-2.11-.18ZM913.04,23.03c.59.34-1.35.33-2.44-.01h0c-.42-.13-.63-.27-.46-.3.65-.13,2.46.06,2.89.32ZM925.48,8.79c4.43.15,12.67.79,15.68,1.2,1.68.23,4.96.49,7.31.57,12.64.44,17.2.87,17.21,1.64,0,.65-.92.96-1.89.66-.55-.18-1.81-.31-2.79-.3l-1.79.02.76.81c.88.94,1.58,2.18,1.23,2.18-.13,0-.69-.27-1.23-.6-.54-.33-.99-.74-.99-.91,0-.47-1.2-.36-1.72.15-.61.61-6.04.64-8.69.04-1.86-.42-5.63-.55-13.76-.48-2.88.02-4.15-.09-4.78-.41-.47-.24-1.63-.44-2.57-.44-1.04,0-2.64-.3-4.05-.77-1.96-.66-3.09-.81-6.98-.94-2.55-.09-4.64-.26-4.65-.38,0-.75,1.01-.95,3.89-.75,3.69.25,4.45.07,4.18-.99l-.19-.76,1.76.19c.97.11,2.79.23,4.05.27Z"/>
  <path class="uuid-b879e54c-5891-4cbe-894c-08b359067ffa" d="M434.85,75.7c-.18.11-.26.38-.17.59.08.21,0,.54-.19.73-.41.41-.54.42-1.1.06-.36-.23-.37-.43-.04-1.22.21-.52.33-1.02.24-1.1-.08-.08-.67.07-1.31.34-.83.35-1.34.4-1.8.19-1.28-.6-4.17-1.32-4.6-1.15-.25.1-.45.38-.45.64,0,.26-.14.47-.3.47s-.3-.14-.31-.31c0-.17-.24-.4-.53-.5-.29-.1-.78-.4-1.07-.65-.49-.42-.65-.41-1.58.03-.62.3-1.07.76-1.13,1.16l-.1.66-.78-.71c-.43-.39-1.23-1.1-1.79-1.56-.56-.46-.94-.92-.85-1.01.09-.09,1.57-.18,3.28-.2,2.56-.02,3.18.06,3.48.47.46.63,1.67.66,1.67.04,0-.51.33-.54,3-.27,1.52.15,1.81.27,1.53.6-.26.32-.21.46.23.64.31.13.57.44.57.69,0,.7,1.19.71,1.81,0,.31-.34.81-.63,1.12-.63.67,0,1.65,1.69,1.16,1.99Z"/>
  <path class="uuid-b879e54c-5891-4cbe-894c-08b359067ffa" d="M819.49,101.34c-.42.07-1.24.06-1.83-.03-.59-.09-3.94-.19-7.46-.22-3.52-.03-7.83-.2-9.59-.38-1.76-.18-5.59-.41-8.51-.5-2.92-.09-5.64-.29-6.04-.44-.4-.15-1.28-.27-1.95-.27-.68,0-2.07-.22-3.1-.49-1.44-.38-3.16-.48-7.5-.45-5.94.05-7.31-.07-7.31-.6,0-.23,2.09-.26,7.23-.09,3.98.13,8.26.26,9.52.29,1.26.03,3.52.2,5.02.38,1.51.18,5.28.47,8.37.63,3.1.17,7.42.42,9.59.57,2.18.15,6.08.34,8.68.43,5.96.2,7.8.64,4.88,1.17Z"/>
  <path class="uuid-b879e54c-5891-4cbe-894c-08b359067ffa" d="M808.91,98.41c-.43-.43.23-.44,2.51-.04,1.33.23,2.6.43,2.82.44.22,0,.31.15.21.31-.1.17-.49.3-.85.3-.9-.01-4.46-.77-4.7-1.01Z"/>
  <path class="uuid-b879e54c-5891-4cbe-894c-08b359067ffa" d="M781.76,92.34c-.22-.08-.53-.14-.69-.14-.15,0-.28-.14-.28-.3,0-.17.62-.29,1.4-.26,1.32.05,1.36.07.69.45-.39.22-.9.33-1.12.26Z"/>
  <path class="uuid-b879e54c-5891-4cbe-894c-08b359067ffa" d="M592.33,91.08c1.59.04,4.52.08,6.52.1,3.82.02,4.47.35,1.3.66-1.03.1-2.08.15-2.33.11-.25-.04-2.51-.17-5.02-.28-2.6-.11-4.31-.3-3.96-.43.33-.13,1.91-.2,3.5-.15Z"/>
  <path class="uuid-b879e54c-5891-4cbe-894c-08b359067ffa" d="M745.38,88.45c.21-.08.62-.09.91-.01.3.08.13.14-.37.15-.5,0-.75-.06-.54-.14Z"/>
  <path class="uuid-b879e54c-5891-4cbe-894c-08b359067ffa" d="M584.31,89.15c.7-.02,1.36.1,1.47.27.22.35-.87.36-1.98,0-.65-.21-.58-.25.51-.28Z"/>
  <path class="uuid-b879e54c-5891-4cbe-894c-08b359067ffa" d="M424.46,80.93c-2.55-.09-6.91-.23-9.67-.32-5.35-.17-6.51-.3-6.27-.69.23-.38,4.91-.42,6.94-.05,1.01.18,4.32.36,7.36.41,6.61.1,6.28.07,6.28.48,0,.23-1.4.28-4.64.17Z"/>
  <path class="uuid-b879e54c-5891-4cbe-894c-08b359067ffa" d="M351.62,65.31c1.09.21,1.12.24.41.45h0c-1.05.3-1.01.31-1.51,0-.73-.46-.16-.68,1.1-.44Z"/>
  <path class="uuid-b879e54c-5891-4cbe-894c-08b359067ffa" d="M350.34,68.2c-.32.13-.77.17-.99.1-.22-.07-.61-.13-.85-.13-.25,0-.37-.14-.26-.3.21-.35,1.37-.4,2.16-.1.5.19.49.22-.05.44Z"/>
  <path class="uuid-b879e54c-5891-4cbe-894c-08b359067ffa" d="M425.6,76.76c.2-.33,3.58-.4,3.9-.08.11.11-.17.38-.63.6-1.18.54-3.68.15-3.27-.51Z"/>
  <path class="uuid-b879e54c-5891-4cbe-894c-08b359067ffa" d="M397.53,80.02c-.45.46-2.35.05-2.05-.44.09-.15.56-.27,1.04-.27.88,0,1.37.35,1.01.71Z"/>
  <path class="uuid-b879e54c-5891-4cbe-894c-08b359067ffa" d="M402,79.88c0,.39-.91.4-1.51.02-.39-.24-.37-.31.07-.48.62-.24,1.44.02,1.44.46Z"/>
  <path class="uuid-b879e54c-5891-4cbe-894c-08b359067ffa" d="M310.95,72.54c0-.17.14-.3.3-.31.17,0,.31.14.31.3,0,.17-.14.31-.3.31-.17,0-.31-.14-.31-.3Z"/>
  <path class="uuid-b879e54c-5891-4cbe-894c-08b359067ffa" d="M321.24,75.2c.38.05.61.22.51.38-.27.44-.63.35-1.84-.47-.79-.53-1.54-.75-2.53-.76-.89,0-1.67-.21-2.14-.56-.8-.61-.65-1.25.29-1.25.37,0,.59-.21.59-.56,0-.47.25-.55,1.65-.54.91.01,1.75.12,1.88.24.39.39,1.32.25,2.63-.39,1.56-.76,1.58-.76,1.05.02-.24.35-.37.89-.29,1.21.22.85-1.28,1.53-1.82.81-.26-.35-.51-.41-.82-.22-.66.42-.04,1.96.84,2.09Z"/>
  <path class="uuid-b879e54c-5891-4cbe-894c-08b359067ffa" d="M420.04,76.28c.49-.49.55-.49,1.04,0,.49.49.47.52-.52.52-.99,0-1.02-.03-.52-.52Z"/>
  <path class="uuid-b879e54c-5891-4cbe-894c-08b359067ffa" d="M338.71,70.87c.1.61.13.61-3.45.27-1.92-.18-2.81-.14-3.32.13-.59.32-.76.3-1.06-.11-.66-.9-2.38-1.41-3.6-1.07-1.31.37-1.55.68-1.13,1.48.21.4.22.66.02.79-.6.37-.28.7,1.44,1.51,1.37.64,1.86.75,2.28.49.29-.19.79-.34,1.11-.34.32,0,.65-.27.74-.61.09-.37.41-.61.79-.61.66,0,1.86.98,1.86,1.52,0,.48.53.35.73-.18.39-1.02.17-1.67-.66-2-1.31-.52-.3-.65,1.34-.18,1.23.35,1.49.56,1.57,1.23.09.72.23.81,1.37.84.7.02,2.33.08,3.63.13l2.36.1.48-.93c.37-.72.4-1.02.12-1.36-.2-.24-.47-.36-.6-.28-.39.24-4.38-.68-4.5-1.03-.06-.18-.45-.33-.86-.33-.54,0-.72.15-.66.54ZM327.67,71.23c-.38-.05-.76-.28-.83-.51-.09-.28.09-.37.56-.31.38.06.76.28.83.51.09.27-.09.37-.56.31Z"/>
  <path class="uuid-b879e54c-5891-4cbe-894c-08b359067ffa" d="M328.68,67.74c.1-.1.36-.11.58-.02.24.1.17.17-.18.18-.32.01-.5-.06-.4-.16Z"/>
  <path class="uuid-b879e54c-5891-4cbe-894c-08b359067ffa" d="M394.66,66.22c0-.17.21-.31.47-.31.26,0,.39.14.29.3-.1.17-.32.31-.47.31-.16,0-.29-.14-.29-.3Z"/>
  <path class="uuid-b879e54c-5891-4cbe-894c-08b359067ffa" d="M397.1,68.65h0c-.41.27-5.42.11-5.76-.18-.07-.06,1.3-.11,3.04-.12,2.19,0,3.03.09,2.72.3Z"/>
  <path class="uuid-b879e54c-5891-4cbe-894c-08b359067ffa" d="M415.68,71.5c0-.07.14-.22.3-.32s.3-.04.31.13c0,.18-.14.32-.3.32-.17,0-.3-.06-.3-.13Z"/>
  <path class="uuid-b879e54c-5891-4cbe-894c-08b359067ffa" d="M421,68.59c-.92-.19-.31-.26,2.49-.29,2.18-.03,3.79.08,3.9.26.23.37-4.61.4-6.39.04Z"/>
  <path class="uuid-b879e54c-5891-4cbe-894c-08b359067ffa" d="M416.92,73.78c.39.71.22,1.07-.61,1.29-.37.1-.72-.02-.88-.31-.21-.37-.55-.43-1.6-.25-1.94.32-3.27.23-4.06-.29-.72-.47-1.43-.32-2.7.56-.48.33-.65.26-1.29-.53-.65-.8-.81-.86-1.35-.53-.34.21-1.01.38-1.51.39-.49,0-.98.14-1.09.31-.25.41-2.5.4-2.76-.02-.2-.33-1.5-.24-3.3.21-.74.19-.86.14-.7-.27.1-.27.06-.57-.11-.67-.16-.1-.38.07-.49.37-.11.3-.4.79-.65,1.09h0c-.59.69-.63.68-.96-.19-.37-.96-1.96-1.35-2.72-.66-.69.63-1.15.62-1.52-.04-.29-.51-.34-.51-1.2,0-1.05.63-1.77.69-1.95.17-.09-.28-.53-.24-1.73.16-2.25.73-4.09.69-5.2-.13-.84-.62-.93-.63-1.46-.15-.7.63-1.24.65-1.47.06-.21-.54-1.67-.6-2.17-.09-.42.43-7.03.38-7.55-.05-.18-.15-1.74-.42-3.45-.6-2.99-.32-3.15-.31-3.8.31-.86.82-1.51.84-1.26.06.16-.5,0-.62-1.18-.79-1.15-.17-1.48-.09-2.06.46-.57.54-1.01.64-2.35.57-1.51-.08-1.69-.17-2.14-1.04-.42-.83-.61-.93-1.41-.8-.62.1-1.06,0-1.33-.33-.35-.42-.3-.49.39-.49.47,0,.95-.25,1.17-.61.43-.69,1.45-.83,1.45-.19,0,.23.24.51.53.61.29.1.88.39,1.3.64.96.56,2.36.56,3.35,0,1.04-.6,2.04-.57,2.4.06.26.47.42.48,1.4.12.86-.32,1.2-.32,1.55-.04.24.2.73.29,1.09.19.35-.09.91,0,1.23.19.58.36.89.15,1.28-.86.06-.17.42.01.8.4.45.46.85.63,1.18.49,1.28-.56,2.11-.51,2.32.14.17.52.45.64,1.57.63.75,0,1.66-.2,2.04-.45.37-.25.95-.45,1.28-.45.33,0,2.6,0,5.05-.01,3.62,0,4.51-.09,4.83-.47.26-.31.55-.38.89-.21.28.14.78.15,1.11.01.33-.14.86-.26,1.18-.27.48-.02.51.05.17.46-.58.7.11,1.03,1.5.7,1.18-.28,3.81-.07,4.66.36.31.16.97.09,1.71-.17,1.73-.61,2.96-.69,3.53-.21.43.35.58.34,1.05-.09.63-.58,1.44-.66,1.74-.17.13.2.69.26,1.46.15.69-.1,1.67-.16,2.17-.14.5.03,1.39.03,1.97.01.58-.02,1.23.11,1.46.29.3.25.58.16,1.14-.37.64-.6.93-.67,2.2-.49.8.11,1.78.2,2.18.19.63-.02.69.08.52.79l-.2.81,1.54-.19c1.32-.16,1.58-.1,1.86.41Z"/>
  <path class="uuid-b879e54c-5891-4cbe-894c-08b359067ffa" d="M432.03,73.07c-1.4.06-.78-.71.66-.82,1.25-.1,1.78.37.74.64-.29.08-.92.16-1.4.18Z"/>
  <path class="uuid-b879e54c-5891-4cbe-894c-08b359067ffa" d="M367.65,68.54c.1-.1.36-.11.58-.03h0c.24.1.17.17-.18.19-.32.01-.5-.06-.4-.16Z"/>
  <path class="uuid-b879e54c-5891-4cbe-894c-08b359067ffa" d="M355.44,65.35c.28.28.2.37-.36.37-.57,0-.65-.08-.37-.36.28-.28.45-.28.73,0Z"/>
  <path class="uuid-b879e54c-5891-4cbe-894c-08b359067ffa" d="M377.19,68.32c2.13.15,2.48.24,1.65.4h0c-1.42.27-3.32.28-4.26.02-1.45-.4-.09-.62,2.61-.42Z"/>
  <path class="uuid-b879e54c-5891-4cbe-894c-08b359067ffa" d="M358.89,68.14c-.51-.22-.45-.26.38-.28.54-.01.99.11.99.28,0,.36-.53.36-1.37,0Z"/>
  <path class="uuid-b879e54c-5891-4cbe-894c-08b359067ffa" d="M355.14,67.95c.24.1.17.17-.18.19-.32.01-.5-.06-.4-.16.1-.1.36-.11.58-.03Z"/>
  <path class="uuid-b879e54c-5891-4cbe-894c-08b359067ffa" d="M375.2,71.04c.87.17.93.24.43.44-.79.31-.83.31-1.35-.01-.69-.43-.22-.65.92-.42Z"/>
</svg>